<svg width="96" height="82" viewBox="0 0 96 82" fill="none" xmlns="http://www.w3.org/2000/svg">
<g clip-path="url(#clip0_240_3383)">
<path d="M95.6516 43.1572C95.2482 43.7461 94.7891 44.2387 93.9787 43.9609C93.1683 43.6831 93.0661 43.0535 93.0698 42.3257C93.0828 40.3239 93.0122 38.3203 93.094 36.3203C93.159 34.7278 92.4471 33.6371 91.0363 33.1815C89.3135 32.6098 87.5405 32.2006 85.7408 31.9593C82.8773 31.6085 79.9722 31.8378 77.1999 32.6334C76.5192 32.8296 75.8622 33.0997 75.2408 33.4389C74.2129 33.9945 73.6906 34.8556 73.7185 36.0777C73.765 38.1721 73.7371 40.2666 73.7185 42.361C73.7185 43.4276 73.2222 44.0461 72.4174 44.0442C71.6125 44.0424 71.1497 43.4257 71.1479 42.3498C71.1479 40.3129 71.1999 38.2758 71.133 36.2518C71.0512 33.763 72.1999 31.9927 74.3746 31.0279C76.1311 30.2501 78.0475 29.8316 79.8895 29.2557C79.8107 29.1484 79.7257 29.0457 79.6348 28.9483C77.4044 26.6131 76.7166 23.8428 77.4527 20.7596C78.1534 17.8356 80.7594 16.1412 83.9099 16.406C87.0995 16.6763 89.2464 18.7226 89.5345 21.7762C89.8151 24.7225 89.1739 26.5095 86.7631 29.4409C87.8077 29.6464 88.8263 29.826 89.8356 30.0538C91.3914 30.4038 92.9192 30.9242 93.9992 32.126C94.6962 32.9001 95.1144 33.9315 95.6441 34.8482L95.6516 43.1572ZM83.4471 18.9559C81.7557 18.943 80.6051 19.6041 80.0754 20.8948C79.2966 22.7855 79.9044 25.6558 81.3765 27.0706C82.6627 28.3039 84.2315 28.302 85.4657 27.0076C86.7668 25.6502 87.1813 23.9743 86.9936 22.154C86.7761 20.0244 85.5791 18.9707 83.4471 18.9559Z" fill="#A3CC01"/>
<path d="M95.6508 80.3044C95.1489 80.7489 94.6805 81.2933 93.8924 80.9433C93.1043 80.5933 93.0615 79.8878 93.0671 79.1508C93.0801 77.1138 93.0448 75.0768 93.082 73.0528C93.1024 71.875 92.647 70.9065 91.595 70.501C90.0308 69.8682 88.4068 69.3935 86.7474 69.0843C83.6235 68.5772 80.4264 68.7496 77.3757 69.5898C76.6912 69.7733 76.0278 70.0271 75.3961 70.3473C74.253 70.9213 73.6675 71.8287 73.7065 73.1713C73.766 75.2323 73.7288 77.2971 73.7195 79.3619C73.7195 80.4359 73.2362 81.0396 72.4184 81.0396C71.6006 81.0396 71.1452 80.4489 71.1433 79.3619C71.1433 77.236 71.1656 75.1027 71.1433 72.9861C71.1136 71.0195 71.989 69.5639 73.5597 68.4751C75.1805 67.364 77.0541 66.9658 78.95 66.6232L80.0485 66.4381C79.8626 66.2288 79.753 66.0677 79.6191 65.9325C77.4017 63.5918 76.7158 60.8197 77.4593 57.7383C78.1656 54.8143 80.7139 53.1847 83.9389 53.4402C87.0987 53.6902 89.2251 55.6994 89.5318 58.7123C89.8385 61.7252 89.0931 63.8011 86.7344 66.4233C87.7363 66.6233 88.7121 66.7159 89.6154 67.0233C90.9275 67.4473 92.2 67.9845 93.4184 68.6288C94.6229 69.2954 95.2158 70.5232 95.6489 71.8009L95.6508 80.3044ZM87.0652 59.6512C87.0225 59.3457 86.9965 58.8808 86.8942 58.4346C86.5392 56.8809 85.3664 56.0272 83.5485 55.955C81.7307 55.8828 80.4184 56.6568 79.9965 58.1531C79.4073 60.2401 79.7827 62.1919 81.1898 63.8622C82.45 65.3603 84.2902 65.3437 85.6006 63.8863C86.6415 62.7345 86.9965 61.3178 87.0652 59.6512Z" fill="#A3CC01"/>
<path d="M44.9774 15.6264C43.2479 14.4179 41.99 12.6519 41.416 10.6265C40.8942 8.94095 40.8117 7.15081 41.1762 5.42473C41.9922 1.67296 45.3435 -0.460299 49.3937 0.173019C53.4829 0.813746 55.8063 4.06179 55.3249 8.43021C55.0089 11.3079 53.903 13.7542 51.39 15.6005C52.877 15.8764 54.2283 16.0967 55.5666 16.3782C57.2394 16.7319 58.8268 17.3171 60.1985 18.3782C61.7617 19.5893 62.5889 21.1725 62.5982 23.1502C62.6106 26.0428 62.6106 28.9366 62.5982 31.8315C62.5982 32.9019 62.1112 33.5167 61.3063 33.5204C60.5015 33.5241 60.0275 32.9075 60.0257 31.8371C60.0257 29.1279 59.9588 26.4168 60.0461 23.7095C60.1093 21.7392 59.232 20.3763 57.4941 19.7448C55.548 19.0244 53.5034 18.5967 51.2729 17.9856C51.3621 18.5411 51.3807 18.7633 51.4383 18.9818C52.0796 21.3892 52.7041 23.7966 53.39 26.1928C53.6112 26.965 53.4959 27.5539 52.9346 28.1205C51.7227 29.3501 50.5443 30.613 49.3398 31.8519C48.4866 32.7297 47.8231 32.7315 46.9792 31.863C45.7543 30.6001 44.5498 29.3186 43.3231 28.0612C42.8194 27.5464 42.6911 27.0039 42.89 26.2965C43.6335 23.6669 44.3231 21.0225 45.0852 18.1985C42.2971 18.6392 39.5833 18.8263 37.3844 20.6596C36.5777 21.3318 36.2692 22.2466 36.2822 23.2928C36.2971 26.1878 36.2971 29.0816 36.2822 31.9741C36.2822 33.1723 35.3082 33.9 34.4383 33.3223C34.2464 33.1829 34.0859 33.0051 33.9668 32.8004C33.8478 32.5957 33.7728 32.3685 33.7469 32.1334C33.6948 28.9631 33.6632 25.7891 33.7469 22.6206C33.8026 20.5985 34.9253 19.1022 36.6 18.017C38.7859 16.5967 41.2859 16.1856 43.7915 15.7949C44.1298 15.7486 44.455 15.7023 44.9774 15.6264ZM48.2413 2.66369C45.942 2.64518 44.3844 3.5748 43.8435 5.45438C43.1279 7.94136 43.5257 10.2969 45.1298 12.3487C46.8417 14.5357 49.4606 14.5153 51.2041 12.3375C52.5684 10.6357 52.9941 8.63393 52.7171 6.51176C52.3881 3.96923 50.8324 2.68221 48.2413 2.66184V2.66369ZM48.1632 29.3946C48.9959 28.5224 49.7636 27.7631 50.4681 26.9483C50.5628 26.8219 50.6304 26.6775 50.6665 26.5239C50.7027 26.3703 50.7066 26.2109 50.6781 26.0558C50.0424 23.5855 49.377 21.1225 48.6781 18.667C48.6112 18.43 48.3287 18.2541 48.1465 18.0504C47.9718 18.2615 47.7023 18.4485 47.6353 18.6893C46.9513 21.1164 46.2927 23.5502 45.6595 25.9909C45.6202 26.144 45.6128 26.3035 45.6377 26.4596C45.6627 26.6156 45.7194 26.7649 45.8045 26.8983C46.5257 27.7335 47.3175 28.5094 48.1632 29.3927V29.3946Z" fill="#A3CC01"/>
<path d="M9.62509 29.4275C7.06933 26.9442 6.22175 24.0776 6.97082 20.8018C7.63996 17.8778 10.2273 16.1722 13.3909 16.4037C16.5545 16.6352 18.7032 18.6259 19.047 21.6258C19.3909 24.6257 18.547 27.2164 16.2218 29.4034C17.3017 29.6201 18.3389 29.7127 19.2905 30.0497C20.6121 30.5163 21.9597 31.0256 23.1307 31.7737C24.5284 32.6682 25.1753 34.1144 25.1753 35.807C25.1753 38.0292 25.1753 40.2383 25.1753 42.455C25.1753 43.442 24.666 44.0475 23.889 44.0383C23.1121 44.029 22.6139 43.4346 22.6084 42.4328C22.5954 40.3402 22.56 38.2458 22.6195 36.1551C22.6567 34.7681 22.0619 33.7237 20.8351 33.3163C19.0069 32.6845 17.1222 32.2281 15.2069 31.9534C12.3758 31.5979 9.50152 31.8261 6.76264 32.6237C6.05255 32.8318 5.36705 33.1155 4.71803 33.47C3.72175 34.0107 3.22175 34.8589 3.24219 36.0403C3.28309 38.194 3.26822 40.3494 3.24219 42.5031C3.22918 43.729 2.16227 44.4623 1.30539 43.8086C0.946197 43.4929 0.727571 43.048 0.697585 42.5716C0.639344 40.2347 0.635009 37.8958 0.684575 35.5552C0.725467 33.67 1.74963 32.3293 3.28681 31.3349C5.01729 30.2238 7.00428 29.8831 8.9764 29.5294C9.15298 29.5016 9.3277 29.4682 9.62509 29.4275ZM16.5991 22.6665C16.5542 22.2201 16.486 21.7763 16.3946 21.337C16.0229 19.887 14.9188 19.0629 13.2496 18.9629C11.4485 18.8555 10.1511 19.5388 9.59536 20.8906C8.82398 22.7702 9.4355 25.6609 10.8965 27.0702C12.1809 28.3016 13.7403 28.2886 14.9857 27.0109C16.1437 25.8424 16.5154 24.3721 16.5991 22.6665Z" fill="#A3CC01"/>
<path d="M51.5037 51.689C52.4461 51.8741 53.329 51.9963 54.1821 52.2241C55.1417 52.449 56.0791 52.7589 56.9833 53.15C59.2862 54.2296 60.526 55.9981 60.4256 58.637C60.3494 60.6036 60.4126 62.5776 60.4089 64.5479C60.4089 65.7257 59.974 66.2942 59.1078 66.2794C58.2416 66.2646 57.8401 65.6812 57.8383 64.4942C57.8383 62.4572 57.7974 60.4295 57.8513 58.3999C57.8847 57.1037 57.3662 56.087 56.2137 55.6592C54.6067 55.0502 52.9448 54.5957 51.2509 54.3019C48.2323 53.8056 45.2119 54.0463 42.2509 54.8185C41.5072 55.0168 40.7869 55.2937 40.1022 55.6445C38.987 56.2 38.4442 57.1092 38.4795 58.4073C38.5334 60.5314 38.5372 62.6572 38.4591 64.7794C38.4296 65.0403 38.3488 65.2929 38.2212 65.5226C38.0936 65.7524 37.9218 65.9548 37.7156 66.1183C37.4554 66.3127 36.7676 66.222 36.4647 65.9979C36.1617 65.7738 35.9498 65.2257 35.9405 64.8146C35.8922 62.5387 35.9089 60.2591 35.9219 57.9814C35.9331 56.0111 36.9517 54.6148 38.5502 53.5871C40.1487 52.5593 42.0223 52.1815 43.881 51.8556L44.881 51.6816C42.5743 49.526 41.7212 46.9687 42.026 44.0021C42.3587 40.7374 44.7807 38.6578 48.2286 38.6818C51.6245 38.7041 53.9907 40.7855 54.3048 44.0354C54.5725 46.8539 53.855 49.3371 51.7676 51.3482C51.6714 51.4552 51.5832 51.5691 51.5037 51.689ZM48.2751 41.2281C46.4275 41.1799 45.1691 41.9225 44.7435 43.4503C44.1859 45.4687 44.5353 47.3687 45.8438 49.0168C47.1524 50.6649 49.1784 50.639 50.5 48.9834C51.5688 47.6427 51.9517 46.078 51.7583 44.3947C51.5204 42.2725 50.3903 41.2799 48.2751 41.2244V41.2281Z" fill="#A3CC01"/>
<path d="M16.218 66.4211C17.2496 66.6267 18.1976 66.7507 19.1046 67.0118C20.1362 67.3063 21.1883 67.6174 22.1344 68.1062C24.1623 69.1562 25.2385 70.8247 25.1771 73.1821C25.1251 75.2746 25.1771 77.369 25.1641 79.4634C25.1641 80.4634 24.6734 81.0449 23.8797 81.0393C23.086 81.0338 22.6028 80.4523 22.5972 79.443C22.5842 77.406 22.5266 75.3691 22.6139 73.3487C22.6827 71.7117 21.9466 70.5877 20.4931 70.1618C18.5202 69.5695 16.4997 69.1475 14.4541 68.9007C11.9262 68.6118 9.39273 68.9173 6.92805 69.5858C6.21525 69.7807 5.5245 70.0481 4.86671 70.384C3.75147 70.9488 3.19385 71.8432 3.23474 73.1451C3.28864 75.2061 3.25333 77.2709 3.24589 79.3338C3.24589 80.419 2.78864 81.0208 1.98195 81.0393C1.14366 81.0578 0.671544 80.4375 0.669685 79.2968C0.669685 77.2968 0.721728 75.2931 0.656672 73.2932C0.571171 70.7692 1.75519 68.997 3.95407 68.0026C5.39459 67.3507 7.0024 67.0655 8.53957 66.6285C8.8537 66.5378 9.1827 66.5026 9.62507 66.4211C7.33325 64.2786 6.48939 61.7194 6.77749 58.7565C7.09162 55.5436 9.50054 53.4307 12.8853 53.4103C16.2701 53.3899 18.6957 55.4658 19.0507 58.6861C19.3834 61.6879 18.521 64.2804 16.218 66.4211ZM16.5898 59.6749C16.5468 59.2341 16.4804 58.7959 16.3909 58.362C16.0191 56.8547 14.8611 56.0325 13.0749 55.9547C11.2886 55.8769 9.94849 56.6417 9.52099 58.1435C8.92805 60.2268 9.28679 62.1823 10.6976 63.8545C11.9894 65.3822 13.8574 65.336 15.1715 63.8249C16.1771 62.6842 16.5154 61.2971 16.5972 59.6749H16.5898Z" fill="#A3CC01"/>
</g>
<defs>
<clipPath id="clip0_240_3383">
<rect width="95" height="81" fill="white" transform="translate(0.650391 0.0566406)"/>
</clipPath>
</defs>
</svg>
