<svg width="87" height="87" viewBox="0 0 87 87" fill="none" xmlns="http://www.w3.org/2000/svg">
<path d="M32.5511 5.54545C33.9599 4.98958 35.1966 4.52054 36.4091 3.99594C36.6001 3.91429 36.7738 3.58773 36.7947 3.35844C36.8485 2.7574 36.7947 2.14248 36.8173 1.53971C36.8485 0.606888 37.3384 0.0562174 38.259 0.0510061C41.9276 0.0324771 45.5962 0.0324771 49.2648 0.0510061C50.1333 0.0510061 50.7899 0.6364 50.6457 1.47715C50.3105 3.42617 51.1321 4.36768 52.9646 4.73768C53.5952 4.86449 54.2309 5.51244 54.7677 5.40996C55.3044 5.30747 55.7439 4.57616 56.2181 4.11409C57.1404 3.21254 57.8144 3.20212 58.735 4.11409C61.1669 6.53907 63.5987 8.971 66.0305 11.4099C66.9407 12.3236 66.9251 13.0045 66.0305 13.9304C65.5685 14.4046 64.8389 14.8354 64.7364 15.3809C64.634 15.9263 65.2888 16.5552 65.4121 17.1857C65.7734 19.0392 66.7496 19.8139 68.6777 19.496C69.5167 19.357 70.0917 20.0171 70.0969 20.8857C70.1177 24.5544 70.1177 28.2232 70.0969 31.8919C70.0969 32.7605 69.515 33.4449 68.6916 33.292C66.6645 32.9133 65.7839 33.8601 65.3913 35.6753C65.2645 36.252 64.9032 36.7784 64.5384 37.5687C65.0317 38.0013 65.6171 38.4616 66.1417 38.9828C66.9077 39.7453 66.9233 40.4871 66.1712 41.241C63.6699 43.7632 61.157 46.2751 58.6325 48.7765C57.8405 49.5616 57.1179 49.5373 56.3067 48.7313C55.8168 48.2432 55.3635 47.7186 54.9327 47.2513C53.5552 47.795 52.2959 48.2745 51.0556 48.8008C50.9583 48.8661 50.8766 48.9521 50.8166 49.0527C50.7565 49.1534 50.7195 49.266 50.7082 49.3827C50.6631 49.9855 50.7082 50.5987 50.6874 51.2014C50.6596 52.1829 50.1559 52.7301 49.197 52.7336C45.5574 52.7509 41.9177 52.7509 38.2781 52.7336C37.3644 52.7336 36.7148 52.1534 36.8572 51.257C37.1542 49.4105 36.4647 48.4447 34.6581 48.0851C33.9981 47.9548 33.3936 47.5431 32.6102 47.1905C32.136 47.7116 31.6566 48.2953 31.1233 48.8199C30.4007 49.5321 29.652 49.5338 28.9225 48.8199C26.3749 46.2976 23.8429 43.7644 21.3265 41.2201C20.6126 40.501 20.6213 39.7453 21.3439 39.0244C21.865 38.5033 22.4573 38.0239 22.9176 37.6174C22.3531 36.1982 21.8962 34.9839 21.3769 33.7958C21.3028 33.6771 21.2036 33.576 21.0863 33.4998C20.9689 33.4236 20.8363 33.374 20.6977 33.3545C20.0689 33.292 19.4279 33.3546 18.787 33.3233C17.9619 33.2799 17.4165 32.7692 17.413 31.9475C17.391 28.2498 17.391 24.5521 17.413 20.8544C17.413 19.998 17.981 19.503 18.8686 19.4648C19.4748 19.4422 20.0845 19.5013 20.6873 19.4387C20.8258 19.4198 20.9586 19.3708 21.0762 19.2952C21.1938 19.2196 21.2935 19.1192 21.3682 19.001C21.8893 17.8145 22.3444 16.6003 22.9141 15.1672C22.4608 14.7677 21.8719 14.2986 21.3508 13.7775C20.6247 13.0549 20.6126 12.3027 21.3248 11.5819C23.8469 9.03412 26.3795 6.50144 28.9225 3.98381C29.6764 3.23686 30.4129 3.2577 31.1806 4.02724C31.6792 4.53099 32.1395 5.09555 32.5511 5.54545ZM39.5861 2.83383C39.5861 3.50609 39.5757 4.10539 39.5861 4.70642C39.6035 5.54197 39.2022 6.01272 38.424 6.31497C36.687 6.99244 34.9587 7.71679 33.2477 8.46895C32.5529 8.77642 31.9501 8.73475 31.4342 8.18409C30.9861 7.70291 30.5848 7.17481 30.2809 6.81176L24.2308 12.8482C24.5782 13.173 25.009 13.5604 25.4311 13.953C26.0929 14.5696 26.1381 15.2211 25.7507 16.0549C25.0003 17.6721 24.3159 19.3223 23.6958 20.9934C23.3762 21.862 22.8794 22.2684 21.9727 22.2372C21.3821 22.2146 20.7898 22.2372 20.2148 22.2372V30.5596C20.8627 30.5596 21.462 30.5683 22.063 30.5596C22.8968 30.544 23.3658 30.9435 23.6663 31.7269C24.3263 33.4432 25.0281 35.1472 25.7854 36.8253C26.1328 37.5965 26.0842 38.2149 25.4745 38.7795C25.009 39.2033 24.5035 39.5838 24.1717 39.8548L30.2096 45.9172C30.4945 45.6045 30.828 45.205 31.1945 44.8385C32.0752 43.9508 32.4104 43.9595 33.5638 44.4824C35.108 45.1772 36.6905 45.8269 38.2677 46.4279C39.2891 46.8153 39.5791 47.1228 39.5861 48.2623C39.5861 48.8251 39.5861 49.3879 39.5861 49.9299H47.9134C47.9134 49.282 47.9221 48.6809 47.9134 48.0799C47.8995 47.2461 48.2973 46.7788 49.0824 46.48C50.7742 45.8356 52.4574 45.1564 54.1006 44.3955C54.9396 44.0064 55.5962 44.0585 56.199 44.7273C56.602 45.172 56.9737 45.6462 57.2412 45.9572L63.2912 39.9468L62.0753 38.8368C61.4048 38.2236 61.3666 37.5739 61.754 36.7384C62.5044 35.1229 63.1887 33.4709 63.8071 31.7981C64.125 30.9296 64.6183 30.5214 65.5285 30.5579C66.1191 30.5804 66.7132 30.5579 67.2899 30.5579V22.2354H65.3444C64.5871 22.2354 64.1285 21.8602 63.854 21.1549C63.1592 19.3918 62.4297 17.6356 61.6689 15.8968C61.3614 15.2019 61.4066 14.5992 61.9555 14.0832C62.4349 13.6316 62.9577 13.2286 63.4476 12.8152L57.3784 6.75273C56.9928 7.18352 56.5967 7.63689 56.1885 8.07985C55.5754 8.74341 54.9223 8.79207 54.0867 8.40296C52.4713 7.6508 50.8211 6.9629 49.1501 6.34623C48.2816 6.02834 47.8717 5.53503 47.9029 4.62826C47.9238 4.03591 47.9029 3.44356 47.9029 2.83731L39.5861 2.83383Z" fill="#A3CC01"/>
<path d="M72.9043 58.333H45.1588V63.7771H42.3796V58.3382H14.6602V63.7857H11.8584C11.8584 61.4355 11.8306 59.0956 11.874 56.7748C11.8879 56.0609 12.3951 55.6388 13.1056 55.5363C13.3648 55.5128 13.6255 55.5076 13.8855 55.5207H73.5887C75.2545 55.5207 75.6436 55.9028 75.6436 57.5391C75.6436 59.6097 75.6436 61.6821 75.6436 63.7927H72.9043V58.333Z" fill="#A3CC01"/>
<path d="M13.2444 86.0342C10.5572 86.0342 7.87179 86.0342 5.18636 86.0342C2.50092 86.0342 0.758685 84.2832 0.755211 81.5768C0.748263 78.0529 0.748263 74.5289 0.755211 71.0049C0.755211 68.3697 2.51829 66.6222 5.16899 66.6204C10.5399 66.6135 15.9113 66.6135 21.2833 66.6204C23.9862 66.6204 25.7093 68.3576 25.7162 71.0744C25.7232 74.5984 25.7232 78.1223 25.7162 81.6463C25.7162 84.2902 23.9601 86.0255 21.3025 86.0342C18.6153 86.0446 15.9298 86.0342 13.2444 86.0342ZM13.2444 69.3894C10.581 69.3894 7.92275 69.3894 5.26973 69.3894C4.01908 69.3894 3.53271 69.8723 3.53271 71.1143C3.52576 74.5816 3.52576 78.0488 3.53271 81.516C3.53271 82.765 4.01734 83.2531 5.25584 83.2531C10.5723 83.2531 15.8882 83.2531 21.2034 83.2531C22.4524 83.2531 22.9405 82.765 22.9405 81.5265C22.9474 78.0592 22.9474 74.5926 22.9405 71.1265C22.9405 69.8758 22.4558 69.3894 21.2156 69.3894C18.558 69.3859 15.9003 69.3894 13.2427 69.3894H13.2444Z" fill="#A3CC01"/>
<path d="M43.7433 86.0346C41.0868 86.0346 38.4298 86.0346 35.7721 86.0346C32.9929 86.0346 31.2663 84.3201 31.2559 81.5703C31.2559 78.0753 31.2559 74.5808 31.2559 71.0869C31.2559 68.3354 32.9929 66.6209 35.7721 66.6191C41.0851 66.6191 46.3992 66.6191 51.7145 66.6191C54.4938 66.6191 56.2204 68.3302 56.2308 71.0818C56.2377 74.5768 56.2377 78.0718 56.2308 81.5668C56.2308 84.3201 54.4938 86.0294 51.7145 86.0346C49.0638 86.0416 46.4068 86.0416 43.7433 86.0346ZM43.7312 83.2553C46.361 83.2553 48.9903 83.2553 51.619 83.2553C52.9825 83.2553 53.4481 82.795 53.4498 81.4453C53.4498 78.0348 53.4498 74.6254 53.4498 71.2172C53.4498 69.8519 52.9912 69.3898 51.6398 69.3881C46.3801 69.3881 41.1216 69.3881 35.8642 69.3881C34.4971 69.3881 34.0368 69.8432 34.0351 71.1964C34.0351 74.6069 34.0351 78.0162 34.0351 81.4244C34.0351 82.7897 34.4937 83.2536 35.8433 83.2553C38.4755 83.2622 41.1088 83.2657 43.7433 83.2657L43.7312 83.2553Z" fill="#A3CC01"/>
<path d="M74.2103 86.034C71.5231 86.034 68.8377 86.034 66.1523 86.034C63.5467 86.0235 61.7889 84.276 61.7802 81.6912C61.7686 78.1117 61.7686 74.5304 61.7802 70.9474C61.7889 68.406 63.5502 66.6272 66.0776 66.622C71.5353 66.6104 76.9936 66.6104 82.4525 66.622C84.9416 66.622 86.7238 68.3938 86.736 70.8726C86.7533 74.5113 86.7533 78.1505 86.736 81.7903C86.7221 84.2621 84.9364 86.0183 82.4403 86.0322C79.701 86.0444 76.9531 86.034 74.2103 86.034ZM74.2381 83.2546C76.8656 83.2546 79.4943 83.2546 82.1242 83.2546C83.4964 83.2546 83.9637 82.7978 83.9654 81.455C83.9654 78.0445 83.9654 74.6352 83.9654 71.227C83.9654 69.8547 83.5103 69.3892 82.1659 69.3874C76.9085 69.3874 71.6505 69.3874 66.392 69.3874C65.018 69.3874 64.5542 69.8408 64.5525 71.1853C64.5525 74.5958 64.5525 78.0052 64.5525 81.4133C64.5525 82.8134 65.0058 83.2529 66.4371 83.2546C69.038 83.2616 71.6384 83.2651 74.2381 83.2651V83.2546Z" fill="#A3CC01"/>
<path d="M43.6919 8.36928C53.817 8.40923 61.8073 16.4641 61.7726 26.5983C61.7396 36.4285 53.5617 44.4608 43.6294 44.4226C33.7631 44.3861 25.6738 36.227 25.7189 26.3568C25.7641 16.4259 33.8447 8.33106 43.6919 8.36928ZM54.7255 36.8472C59.6795 32.1136 61.1038 22.5821 54.8071 15.8926C48.8109 9.52267 38.5416 9.56612 32.6219 15.9569C26.353 22.7316 27.8954 32.2282 32.8199 36.8889C33.5911 33.3313 35.5609 30.684 38.7588 28.9591C34.0566 24.9985 34.8887 19.2313 37.8903 16.3043C39.4422 14.7797 41.5275 13.9203 43.703 13.909C45.8785 13.8976 47.9727 14.7351 49.5405 16.2435C52.5837 19.1653 53.4714 24.9533 48.7883 28.9243C52.7922 31.9381 52.7922 31.9382 54.7255 36.8472ZM43.6815 41.6554C46.0838 41.6311 48.3715 41.1656 50.4698 40.0573C52.3023 39.0932 52.2884 39.5623 51.8889 37.2502C51.1941 33.201 47.3379 30.3018 43.1361 30.5745C39.0124 30.849 35.587 34.3701 35.4254 38.4575C35.4028 38.9994 35.58 39.2878 36.0334 39.5484C38.3596 40.8957 40.9935 41.6213 43.6815 41.6554ZM49.0472 23.6209C46.8759 23.4368 45.125 22.5422 43.744 20.8225C42.37 22.5752 40.5757 23.4385 38.4531 23.6314C38.7445 24.8172 39.4253 25.8709 40.3866 26.6238C41.3479 27.3767 42.534 27.7853 43.7551 27.7841C44.9761 27.7829 46.1614 27.372 47.1212 26.6172C48.081 25.8623 48.7598 24.8073 49.0489 23.6209H49.0472ZM38.5347 20.7947C40.7737 20.4681 42.2172 18.9794 42.2484 17.0304C40.5496 17.2684 38.797 19.0177 38.5347 20.7947ZM48.995 20.7704C48.6042 18.896 46.8377 17.1781 45.2327 17.0547C45.3699 19.0993 46.8359 20.5706 48.9898 20.7704H48.995Z" fill="#A3CC01"/>
</svg>
