<svg width="77" height="90" viewBox="0 0 77 90" fill="none" xmlns="http://www.w3.org/2000/svg">
<path d="M11.2413 89.135C10.681 88.9992 10.1172 88.8791 9.56046 88.7293C4.28683 87.3071 0.631006 82.377 0.86037 77.017C0.958374 74.3319 1.97558 71.7605 3.74362 69.7285C5.51166 67.6964 7.92455 66.3255 10.583 65.8426C10.8508 65.7922 11.2833 65.5101 11.2833 65.3308C11.3271 62.3558 11.3148 59.3772 11.3148 56.3412C7.85684 55.8068 5.06946 54.2313 3.04721 51.432C1.55091 49.3735 0.778087 46.8823 0.848123 44.3434C0.912905 39.671 4.25706 34.0498 11.3043 32.9461C11.3621 32.6206 11.4041 32.2794 11.4794 31.9452C12.1798 28.9005 14.7518 26.8846 18.0171 26.8637C21.8918 26.8411 25.7647 26.8637 29.6377 26.8637H37.5166C37.5166 25.8331 37.5499 24.8861 37.4851 23.9461C37.4728 23.772 37.0771 23.53 36.825 23.476C32.2325 22.4942 29.0827 19.8568 27.6084 15.4055C26.5579 12.225 26.9361 9.12286 28.5504 6.17911C29.0756 5.22166 29.7987 4.94489 30.5324 5.37836C31.2327 5.79616 31.3448 6.48204 30.8458 7.42209C28.7447 11.3825 29.5151 15.8825 32.8365 18.7514L34.1672 17.6477C32.4828 15.0887 32.8558 12.2633 33.2742 9.55635C33.7242 6.65439 36.5711 4.88917 39.6054 5.23211C40.9623 5.39894 42.2138 6.04463 43.1322 7.0517C44.0506 8.05876 44.5748 9.36025 44.6094 10.7192C44.6304 11.4713 44.5971 12.225 44.6234 12.9823C44.6794 14.6274 44.6006 16.2342 43.4415 17.5955L44.8597 18.7897C47.5946 16.2098 48.6399 13.1163 47.6611 9.54067C46.6719 5.93715 44.2014 3.73151 40.5053 2.9638C38.336 2.51467 36.284 2.91506 34.3475 3.96304C33.6857 4.32165 33.0466 4.32514 32.5406 3.71237C32.3384 3.49623 32.226 3.21198 32.226 2.9168C32.226 2.62161 32.3384 2.33736 32.5406 2.12123C32.732 1.90252 32.9661 1.72483 33.2287 1.59898C37.2294 -0.418648 41.2249 -0.396001 45.0348 1.96457C48.8447 4.32514 50.7041 7.89732 50.6061 12.4096C50.5956 12.9318 50.5273 13.4541 50.4765 14.0808H51.5271C54.1761 14.0808 56.8269 14.0808 59.4778 14.0808C63.2334 14.0895 65.8264 16.3264 66.3202 20.01C66.3814 20.4696 66.5513 20.621 67.0065 20.7063C72.6356 21.7508 76.6976 26.4616 76.7728 31.9974C76.8499 37.6743 73.019 42.5712 67.4005 43.6906C62.5243 44.6602 58.4167 43.1074 55.4945 39.1244C52.5723 35.1413 52.4287 30.8258 54.7381 26.4476C55.0656 25.8261 55.5506 25.3457 56.2544 25.5876C56.713 25.7821 57.0764 26.1478 57.2664 26.6061C57.3872 26.9264 57.1561 27.4416 56.9618 27.8072C55.0813 31.3655 55.5278 35.3241 58.1611 38.3166C58.3954 38.614 58.6134 38.9237 58.8142 39.2445L60.3672 37.9267C59.3412 36.6472 59.1206 35.1831 59.1766 33.6442C59.2169 32.5475 59.1591 31.4369 59.2992 30.3523C59.6669 27.527 62.0883 25.5233 65.0123 25.5302C67.8907 25.5302 70.3419 27.5339 70.6588 30.3175C70.8321 31.8997 70.8497 33.4949 70.7113 35.0804C70.6325 36.05 70.1493 36.9849 69.8009 38.0816L70.981 39.1017C72.9069 37.4393 73.9925 35.3537 74.1325 32.8539C74.3199 29.4105 72.9717 26.6078 70.0845 24.6894C67.1413 22.7327 63.9985 22.6004 60.8049 24.1306C60.6298 24.2194 60.4547 24.3273 60.2586 24.4004C59.5583 24.6807 58.8404 24.4491 58.5533 23.8085C58.2539 23.14 58.3782 22.4559 59.0365 22.1582C60.3007 21.5942 61.6261 21.166 62.9305 20.6977C63.1701 20.6304 63.4149 20.5826 63.6623 20.5549C63.6858 20.0661 63.6107 19.5775 63.4415 19.118C63.2722 18.6584 63.0123 18.2372 62.6768 17.8791C62.3414 17.5209 61.9373 17.2331 61.4884 17.0325C61.0394 16.8319 60.5546 16.7227 60.0625 16.7111C56.7359 16.6502 53.4215 16.6816 50.1018 16.7111C49.9588 16.735 49.8228 16.79 49.7035 16.8721C49.5843 16.9543 49.4847 17.0616 49.412 17.1864C47.5386 20.6454 44.6847 22.7483 40.7995 23.4952C40.5631 23.5404 40.2164 23.899 40.2129 24.1149C40.1744 27.0378 40.1867 29.9606 40.1867 32.9618C44.2732 33.6268 47.4108 35.6497 49.349 39.3124C50.6901 41.8453 50.993 44.5453 50.3592 47.3202C49.0496 53.0493 43.7707 56.7729 37.6724 56.3133C32.1887 55.9007 27.5909 51.1813 27.1199 45.6472C26.6594 40.2507 30.2015 34.1334 37.4938 32.9671V29.5376C37.2553 29.5032 37.0151 29.4811 36.7742 29.4715C30.5411 29.4715 24.3086 29.4715 18.0767 29.4715C15.8461 29.4715 14.265 30.8467 14.0497 32.9879C14.4261 33.0593 14.8148 33.1255 15.2018 33.2073C22.5869 34.774 26.6139 43.0464 23.2715 49.7869C22.79 50.7566 22.0879 51.0978 21.3456 50.7288C20.6032 50.3597 20.4701 49.6442 20.9166 48.6293C22.4644 45.1372 22.1422 41.8139 19.705 38.8632C17.3028 35.9647 14.1022 34.9429 10.4499 35.8429C6.76081 36.7551 4.44791 39.2131 3.69329 42.9194C3.01045 46.2687 4.08722 49.1272 6.62948 51.5278C6.8816 51.3189 7.09697 51.1396 7.31408 50.962L7.99517 50.3945C6.31608 47.8372 6.69778 45.0171 7.10748 42.3118C7.5312 39.5056 10.3764 37.6481 13.1707 37.9598C16.1963 38.294 18.3603 40.5414 18.4391 43.4695C18.4724 44.7124 18.5599 45.9728 18.4111 47.2001C18.2815 48.2846 17.8578 49.3344 17.6162 50.2065C18.1415 50.8419 18.7192 51.5347 19.3058 52.2154C20.1094 53.1502 20.0534 54.0067 18.9434 54.5551C17.3991 55.3193 15.769 55.9112 14.0409 56.6337V59.7462H15.193C29.9003 59.7462 44.6076 59.7462 59.3149 59.7462C62.6924 59.7462 65.2679 61.4871 66.0243 64.4604C66.2764 65.4492 66.6668 65.7939 67.6543 66.0132C73.2484 67.2579 77.0793 72.1827 76.8779 77.7151C76.6678 83.4703 72.632 88.0278 66.8979 88.9922C66.761 89.0286 66.6279 89.0782 66.5005 89.1402H63.6991C63.513 89.0695 63.3223 89.0113 63.1283 88.9661C60.6719 88.5444 58.4114 87.364 56.668 85.5924C54.9246 83.8209 53.7868 81.5483 53.4163 79.0974C52.6984 74.0663 55.3422 69.0545 59.9155 66.9115C61.0798 66.3666 62.3509 66.0411 63.5923 65.6181C63.3262 63.6457 61.8029 62.3557 59.6038 62.3523C53.4011 62.3383 47.1983 62.3383 40.9956 62.3523C40.7487 62.3523 40.5001 62.3906 40.2059 62.4149V63.9712C40.2059 65.6442 40.2059 65.6442 41.8255 66.0602C49.004 67.8829 52.7684 75.9238 49.496 82.5076C49.2842 82.9324 48.8587 83.4024 48.435 83.526C48.0673 83.6322 47.4545 83.3937 47.1446 83.103C46.6334 82.6243 46.861 82.001 47.1254 81.4144C48.6539 78.0354 48.4017 74.7818 46.1134 71.8503C43.8757 68.9796 40.8275 67.8063 37.2259 68.4818C33.5193 69.1781 31.0559 71.4412 30.0684 75.0447C29.0896 78.6186 30.1297 81.7138 32.8698 84.292L34.2127 83.1552C33.1114 81.0088 33.1114 81.0088 33.1131 78.4898C33.1131 77.7378 33.1009 76.984 33.1131 76.2267C33.1459 74.8678 33.6684 73.5657 34.5855 72.5577C35.5027 71.5496 36.7535 70.9026 38.1101 70.7344C41.1426 70.3862 43.9913 72.1497 44.4448 75.0499C44.8703 77.7587 45.2344 80.5823 43.5816 83.1134C44.1892 83.6827 44.8072 84.2102 45.3658 84.7986C46.4163 85.9057 46.3462 86.7657 44.9841 87.4098C43.4766 88.1062 41.857 88.5779 40.2865 89.1507H37.4851C37.2689 89.0811 37.0491 89.023 36.8268 88.9766C30.4063 87.8938 26.0046 81.491 27.3248 75.1439C28.3263 70.3305 32.0031 66.7775 36.9003 65.8531C37.1437 65.8078 37.5236 65.5432 37.5358 65.3622C37.5989 64.3943 37.5656 63.4194 37.5656 62.441H13.9516C13.9516 63.3532 13.9831 64.1923 13.9411 65.0279C13.9096 65.6181 14.1355 65.7974 14.7133 65.8984C20.183 66.8506 24.1785 71.469 24.4166 77.0501C24.6424 82.4102 20.9884 87.321 15.7147 88.7503C15.1597 88.9 14.596 89.0201 14.0374 89.1559L11.2413 89.135ZM18.6282 84.2606C19.5766 83.4489 20.3467 82.4518 20.8907 81.3313C21.4347 80.2108 21.7409 78.991 21.7902 77.7478C21.8394 76.5046 21.6308 75.2645 21.1772 74.105C20.7235 72.9454 20.0347 71.8911 19.1535 71.0077C15.3926 67.2266 9.30132 67.4164 5.7278 71.4272C2.40114 75.1683 2.83359 81.3221 6.675 84.2398L7.77456 83.2997C7.44014 82.0689 7.02168 81.0158 6.89912 79.9295C6.7538 78.7109 6.84134 77.4453 6.87285 76.2023C6.90854 74.8444 7.43447 73.5445 8.35451 72.5402C9.27455 71.5359 10.5273 70.8944 11.8838 70.7326C14.9251 70.3984 17.7528 72.1566 18.2045 75.0603C18.6247 77.7656 18.9941 80.5875 17.315 83.143L18.6282 84.2606ZM71.0545 84.2606C71.9972 83.4552 72.7641 82.4663 73.3078 81.355C73.8516 80.2437 74.1607 79.0334 74.2161 77.7988C74.2716 76.5642 74.0722 75.3314 73.6302 74.1763C73.1882 73.0212 72.5131 71.9683 71.6463 71.0826C67.924 67.2527 61.8309 67.3867 58.2189 71.3611C54.8222 75.0986 55.2196 81.2072 59.0943 84.2432L60.4565 83.0873C59.3517 81.7678 59.2309 80.2306 59.2817 78.6412C59.3114 77.8317 59.2817 77.0205 59.2974 76.2041C59.333 74.8482 59.8564 73.5499 60.7727 72.5451C61.6889 71.5402 62.9372 70.8952 64.2909 70.7274C67.3269 70.3792 70.1651 72.1427 70.6203 75.0429C71.0458 77.7499 71.4064 80.5718 69.7344 83.1413L71.0545 84.2606ZM44.8142 51.4843C47.5788 49.4457 48.7414 45.2051 47.5263 41.7095C46.8915 39.8763 45.6854 38.292 44.0833 37.1867C42.4812 36.0813 40.5665 35.5125 38.6171 35.5627C36.6678 35.613 34.7853 36.2797 33.2429 37.4661C31.7006 38.6526 30.5788 40.2969 30.0404 42.1604C29.0476 45.5968 30.3258 49.78 32.917 51.4686L34.2285 50.3405C33.2742 49.1428 33.0029 47.8128 33.0606 46.3801C33.0956 45.3966 33.0501 44.4113 33.0799 43.4207C33.1692 40.5118 35.356 38.2626 38.3885 37.951C41.1496 37.6673 43.8495 39.5178 44.4255 42.2631C44.6759 43.4625 44.5744 44.7351 44.6356 45.9745C44.7144 47.5413 44.5393 49.0367 43.4643 50.3371L44.8142 51.4843ZM68.7154 40.5483C68.0255 40.0783 67.5125 39.7058 66.9785 39.3681C65.7424 38.5847 65.6653 37.5977 66.8717 36.8004C67.8014 36.1859 68.1638 35.3624 68.1638 34.311C68.1638 33.3274 68.1883 32.3438 68.1638 31.362C68.1043 29.4245 66.8419 28.1502 65.0123 28.1397C63.1336 28.1293 61.8607 29.4123 61.8012 31.3916C61.7767 32.3456 61.8012 33.3065 61.8012 34.2553C61.8012 35.3398 62.1618 36.1858 63.1196 36.8178C64.2909 37.5889 64.2174 38.5777 63.0355 39.3385C62.4682 39.7023 61.9272 40.1079 61.2636 40.571C63.8042 41.5876 66.1626 41.6085 68.7154 40.5397V40.5483ZM42.5801 20.2259C41.9691 19.7976 41.4666 19.4199 40.9378 19.0839C39.5371 18.2013 39.4951 17.3135 40.8695 16.3682C41.2365 16.1334 41.5351 15.8069 41.7355 15.4214C41.9358 15.0358 42.0308 14.6048 42.0111 14.1713C42.0111 13.0432 42.0373 11.9082 42.0006 10.7888C41.9463 9.03582 40.5999 7.79288 38.8175 7.80507C37.0806 7.81551 35.7605 9.05324 35.6992 10.7645C35.6642 11.7463 35.7254 12.7316 35.6782 13.7117C35.6204 14.939 36.0021 15.8651 37.0946 16.5632C38.1451 17.2282 38.0454 18.2431 37.0036 18.9342C36.4083 19.3294 35.8183 19.7332 35.1162 20.2102C37.6654 21.2878 40.0396 21.2686 42.5801 20.2259ZM16.3783 52.9709C15.7463 52.5288 15.2665 52.1614 14.757 51.8411C13.3441 50.9481 13.2793 50.0707 14.631 49.1324C15.4189 48.5858 15.804 47.8825 15.8005 46.9425C15.8005 45.8144 15.8233 44.6793 15.8005 43.5583C15.798 42.7272 15.4635 41.9312 14.8707 41.3454C14.2778 40.7595 13.4752 40.4318 12.6394 40.4344C11.8035 40.4369 11.0029 40.7694 10.4137 41.3589C9.82446 41.9483 9.49485 42.7464 9.49741 43.5774C9.46939 44.5314 9.52717 45.4923 9.47815 46.4393C9.41687 47.6684 9.7898 48.6014 10.8788 49.3012C11.9294 49.9715 11.8453 50.9846 10.8106 51.6705C10.2188 52.0622 9.63222 52.4644 8.8846 52.9692C11.4689 53.9998 13.8308 54.0154 16.3783 52.9709ZM35.1021 52.957C37.6619 54.0015 40.0221 54.0015 42.5784 52.9744C41.9603 52.5375 41.4876 52.1719 40.9851 51.8533C39.5354 50.9342 39.4863 50.0829 40.8958 49.0924C41.2504 48.8635 41.5395 48.5473 41.7349 48.1746C41.9303 47.8018 42.0255 47.3852 42.0111 46.9651C42.0111 45.8387 42.0338 44.7107 42.0111 43.5826C42.0107 43.1762 41.9289 42.7738 41.7704 42.3991C41.6119 42.0244 41.3799 41.6849 41.088 41.4003C40.796 41.1157 40.45 40.8918 40.0701 40.7417C39.6902 40.5915 39.284 40.5181 38.8753 40.5257C37.0894 40.5135 35.7447 41.8209 35.7009 43.6349C35.6799 44.5297 35.7377 45.4297 35.6852 46.3227C35.6081 47.6092 35.9723 48.5997 37.1332 49.3344C38.1329 49.968 38.0401 50.9864 37.0491 51.6514C36.4451 52.057 35.8498 52.4609 35.1021 52.9709V52.957ZM16.3678 85.7125C15.7865 85.3034 15.3086 84.9378 14.8043 84.6175C13.3336 83.6827 13.2653 82.8279 14.6695 81.8583C15.0359 81.6226 15.3338 81.2957 15.5334 80.9099C15.7331 80.5241 15.8276 80.093 15.8075 79.6596C15.8075 78.5612 15.8268 77.4609 15.8075 76.3642C15.7638 74.5468 14.4314 73.2847 12.6122 73.2986C10.8403 73.3126 9.54293 74.5729 9.49916 76.3573C9.4729 77.4018 9.51142 78.4463 9.48516 79.4786C9.45715 80.5475 9.83534 81.3448 10.7633 81.961C11.9767 82.7722 11.8996 83.7367 10.653 84.5305C10.0997 84.8786 9.56571 85.2686 8.90213 85.7195C11.4514 86.7622 13.8256 86.7884 16.3608 85.7195L16.3678 85.7125ZM42.6134 85.7125C41.9515 85.2599 41.4403 84.8873 40.9063 84.5496C39.5669 83.7036 39.5161 82.7862 40.8432 81.8827C41.2246 81.6419 41.5347 81.3046 41.7418 80.9054C41.9488 80.5062 42.0454 80.0594 42.0216 79.6109C42.0128 78.5124 42.0408 77.4122 42.0111 76.3138C41.9603 74.5451 40.6349 73.2934 38.8595 73.2934C37.0841 73.2934 35.757 74.5451 35.7079 76.3172C35.6782 77.3861 35.7079 78.4585 35.6939 79.5273C35.6628 80.0043 35.7631 80.4806 35.984 80.9052C36.2049 81.3297 36.538 81.6863 36.9476 81.9366C38.1732 82.7618 38.1171 83.7192 36.8845 84.5096C36.3207 84.8717 35.7797 85.2686 35.1337 85.7281C37.6724 86.7692 40.0396 86.7674 42.6064 85.7247L42.6134 85.7125ZM68.8046 85.7125C68.1726 85.2721 67.6893 84.91 67.1816 84.5879C65.7686 83.6932 65.7056 82.8088 67.066 81.8757C67.4352 81.644 67.7369 81.3203 67.9412 80.9367C68.1455 80.5531 68.2452 80.123 68.2304 79.6892C68.2304 78.5612 68.2531 77.4261 68.2304 76.3068C68.1796 74.5416 66.8507 73.2934 65.0788 73.2951C63.3069 73.2969 61.9815 74.5503 61.9272 76.319C61.8975 77.3879 61.9272 78.4585 61.9132 79.5273C61.8939 80.5631 62.2739 81.3378 63.1633 81.9366C64.4187 82.7809 64.3382 83.7349 63.0373 84.5583C62.4945 84.9065 61.9868 85.286 61.3564 85.7195C63.8865 86.7744 66.2519 86.7709 68.7976 85.7229L68.8046 85.7125Z" fill="#A3CC01"/>
</svg>
