<svg width="560" height="346" viewBox="0 0 560 346" fill="none" xmlns="http://www.w3.org/2000/svg">
<g filter="url(#filter0_d_240_3379)">
<path d="M223.972 284V287H226.972V284H223.972ZM175.012 284H172.012V287H175.012V284ZM175.012 195.296H178.012V192.296H175.012V195.296ZM89.764 195.296V192.296H86.764V195.296H89.764ZM89.764 284V287H92.764V284H89.764ZM40.804 284H37.804V287H40.804V284ZM40.804 74.192V71.192H37.804V74.192H40.804ZM89.764 74.192H92.764V71.192H89.764V74.192ZM89.764 161.888H86.764V164.888H89.764V161.888ZM175.012 161.888V164.888H178.012V161.888H175.012ZM175.012 74.192V71.192H172.012V74.192H175.012ZM223.972 74.192H226.972V71.192H223.972V74.192ZM223.972 281H175.012V287H223.972V281ZM178.012 284V195.296H172.012V284H178.012ZM175.012 192.296H89.764V198.296H175.012V192.296ZM86.764 195.296V284H92.764V195.296H86.764ZM89.764 281H40.804V287H89.764V281ZM43.804 284V74.192H37.804V284H43.804ZM40.804 77.192H89.764V71.192H40.804V77.192ZM86.764 74.192V161.888H92.764V74.192H86.764ZM89.764 164.888H175.012V158.888H89.764V164.888ZM178.012 161.888V74.192H172.012V161.888H178.012ZM175.012 77.192H223.972V71.192H175.012V77.192ZM220.972 74.192V284H226.972V74.192H220.972ZM339.271 245.12H336.271V248.12H339.271V245.12ZM417.031 245.12H420.031V242.12H417.031V245.12ZM417.031 284V287H420.031V284H417.031ZM290.599 284H287.599V287H290.599V284ZM290.599 74.192V71.192H287.599V74.192H290.599ZM339.271 74.192H342.271V71.192H339.271V74.192ZM339.271 248.12H417.031V242.12H339.271V248.12ZM414.031 245.12V284H420.031V245.12H414.031ZM417.031 281H290.599V287H417.031V281ZM293.599 284V74.192H287.599V284H293.599ZM290.599 77.192H339.271V71.192H290.599V77.192ZM336.271 74.192V245.12H342.271V74.192H336.271ZM516.792 284V287H519.792V284H516.792ZM467.831 284H464.831V287H467.831V284ZM467.831 74.192V71.192H464.831V74.192H467.831ZM516.792 74.192H519.792V71.192H516.792V74.192ZM516.792 281H467.831V287H516.792V281ZM470.831 284V74.192H464.831V284H470.831ZM467.831 77.192H516.792V71.192H467.831V77.192ZM513.792 74.192V284H519.792V74.192H513.792Z" fill="#A3CC01"/>
</g>
<g filter="url(#filter1_d_240_3379)">
<path d="M38.3735 185.436C38.6295 185.436 38.8855 185.489 39.1415 185.596C39.3975 185.681 39.6428 185.841 39.8775 186.076L44.1655 190.588C42.2882 193.041 39.9308 194.897 37.0935 196.156C34.2775 197.393 30.9388 198.012 27.0775 198.012C23.5362 198.012 20.3575 197.415 17.5415 196.22C14.7468 195.004 12.3682 193.34 10.4055 191.228C8.46417 189.095 6.97083 186.577 5.9255 183.676C4.88017 180.753 4.3575 177.585 4.3575 174.172C4.3575 170.695 4.92283 167.505 6.0535 164.604C7.18417 161.681 8.7735 159.164 10.8215 157.052C12.8695 154.94 15.3228 153.297 18.1815 152.124C21.0402 150.951 24.1868 150.364 27.6215 150.364C29.3708 150.364 31.0135 150.524 32.5495 150.844C34.1068 151.143 35.5575 151.569 36.9015 152.124C38.2455 152.657 39.4828 153.308 40.6135 154.076C41.7442 154.844 42.7468 155.676 43.6215 156.572L39.9735 161.468C39.7388 161.767 39.4615 162.044 39.1415 162.3C38.8215 162.535 38.3735 162.652 37.7975 162.652C37.4135 162.652 37.0508 162.567 36.7095 162.396C36.3682 162.225 36.0055 162.023 35.6215 161.788C35.2375 161.532 34.8108 161.265 34.3415 160.988C33.8935 160.689 33.3495 160.423 32.7095 160.188C32.0908 159.932 31.3548 159.719 30.5015 159.548C29.6695 159.377 28.6882 159.292 27.5575 159.292C25.7655 159.292 24.1228 159.623 22.6295 160.284C21.1575 160.945 19.8775 161.916 18.7895 163.196C17.7228 164.455 16.8908 166.012 16.2935 167.868C15.7175 169.703 15.4295 171.804 15.4295 174.172C15.4295 176.561 15.7495 178.684 16.3895 180.54C17.0508 182.396 17.9362 183.964 19.0455 185.244C20.1762 186.503 21.4882 187.463 22.9815 188.124C24.4748 188.785 26.0748 189.116 27.7815 189.116C28.7628 189.116 29.6588 189.073 30.4695 188.988C31.2802 188.881 32.0375 188.721 32.7415 188.508C33.4455 188.273 34.1068 187.975 34.7255 187.612C35.3442 187.228 35.9735 186.748 36.6135 186.172C36.8695 185.959 37.1468 185.788 37.4455 185.66C37.7442 185.511 38.0535 185.436 38.3735 185.436ZM93.5845 174.172C93.5845 177.543 92.9978 180.679 91.8245 183.58C90.6725 186.481 89.0405 189.009 86.9285 191.164C84.8165 193.297 82.2672 194.972 79.2805 196.188C76.3152 197.404 73.0192 198.012 69.3925 198.012C65.7658 198.012 62.4592 197.404 59.4725 196.188C56.4858 194.972 53.9258 193.297 51.7925 191.164C49.6805 189.009 48.0378 186.481 46.8645 183.58C45.7125 180.679 45.1365 177.543 45.1365 174.172C45.1365 170.801 45.7125 167.665 46.8645 164.764C48.0378 161.863 49.6805 159.345 51.7925 157.212C53.9258 155.079 56.4858 153.404 59.4725 152.188C62.4592 150.972 65.7658 150.364 69.3925 150.364C72.9978 150.364 76.2618 150.961 79.1845 152.156C82.1072 153.329 84.6352 154.972 86.7685 157.084C87.5152 156.807 88.0698 156.433 88.4325 155.964C88.7952 155.473 88.9765 154.951 88.9765 154.396C88.9765 154.033 88.9125 153.703 88.7845 153.404C88.6565 153.105 88.5178 152.785 88.3685 152.444C88.2192 152.103 88.0805 151.74 87.9525 151.356C87.8245 150.951 87.7605 150.471 87.7605 149.916C87.7605 148.636 88.1658 147.687 88.9765 147.068C89.8085 146.428 91.1205 146.108 92.9125 146.108H98.0325C98.1605 146.556 98.2672 147.121 98.3525 147.804C98.4378 148.465 98.4805 149.148 98.4805 149.852C98.4805 151.132 98.3205 152.369 98.0005 153.564C97.6805 154.759 97.1792 155.857 96.4965 156.86C95.8138 157.863 94.9498 158.759 93.9045 159.548C92.8592 160.316 91.6112 160.935 90.1605 161.404C91.2698 163.239 92.1125 165.233 92.6885 167.388C93.2858 169.521 93.5845 171.783 93.5845 174.172ZM82.5125 174.172C82.5125 171.868 82.2138 169.799 81.6165 167.964C81.0192 166.108 80.1552 164.54 79.0245 163.26C77.9152 161.98 76.5498 160.999 74.9285 160.316C73.3072 159.633 71.4618 159.292 69.3925 159.292C67.3018 159.292 65.4352 159.633 63.7925 160.316C62.1712 160.999 60.7952 161.98 59.6645 163.26C58.5552 164.54 57.7018 166.108 57.1045 167.964C56.5072 169.799 56.2085 171.868 56.2085 174.172C56.2085 176.497 56.5072 178.588 57.1045 180.444C57.7018 182.279 58.5552 183.836 59.6645 185.116C60.7952 186.396 62.1712 187.377 63.7925 188.06C65.4352 188.721 67.3018 189.052 69.3925 189.052C71.4618 189.052 73.3072 188.721 74.9285 188.06C76.5498 187.377 77.9152 186.396 79.0245 185.116C80.1552 183.836 81.0192 182.279 81.6165 180.444C82.2138 178.588 82.5125 176.497 82.5125 174.172ZM149.936 185.436C150.192 185.436 150.448 185.489 150.704 185.596C150.96 185.681 151.205 185.841 151.44 186.076L155.728 190.588C153.851 193.041 151.493 194.897 148.656 196.156C145.84 197.393 142.501 198.012 138.64 198.012C135.099 198.012 131.92 197.415 129.104 196.22C126.309 195.004 123.931 193.34 121.968 191.228C120.027 189.095 118.533 186.577 117.488 183.676C116.443 180.753 115.92 177.585 115.92 174.172C115.92 170.695 116.485 167.505 117.616 164.604C118.747 161.681 120.336 159.164 122.384 157.052C124.432 154.94 126.885 153.297 129.744 152.124C132.603 150.951 135.749 150.364 139.184 150.364C140.933 150.364 142.576 150.524 144.112 150.844C145.669 151.143 147.12 151.569 148.464 152.124C149.808 152.657 151.045 153.308 152.176 154.076C153.307 154.844 154.309 155.676 155.184 156.572L151.536 161.468C151.301 161.767 151.024 162.044 150.704 162.3C150.384 162.535 149.936 162.652 149.36 162.652C148.976 162.652 148.613 162.567 148.272 162.396C147.931 162.225 147.568 162.023 147.184 161.788C146.8 161.532 146.373 161.265 145.904 160.988C145.456 160.689 144.912 160.423 144.272 160.188C143.653 159.932 142.917 159.719 142.064 159.548C141.232 159.377 140.251 159.292 139.12 159.292C137.328 159.292 135.685 159.623 134.192 160.284C132.72 160.945 131.44 161.916 130.352 163.196C129.285 164.455 128.453 166.012 127.856 167.868C127.28 169.703 126.992 171.804 126.992 174.172C126.992 176.561 127.312 178.684 127.952 180.54C128.613 182.396 129.499 183.964 130.608 185.244C131.739 186.503 133.051 187.463 134.544 188.124C136.037 188.785 137.637 189.116 139.344 189.116C140.325 189.116 141.221 189.073 142.032 188.988C142.843 188.881 143.6 188.721 144.304 188.508C145.008 188.273 145.669 187.975 146.288 187.612C146.907 187.228 147.536 186.748 148.176 186.172C148.432 185.959 148.709 185.788 149.008 185.66C149.307 185.511 149.616 185.436 149.936 185.436ZM202.274 197.5H193.89C192.951 197.5 192.194 197.287 191.618 196.86C191.042 196.412 190.604 195.847 190.306 195.164L187.554 187.036H169.826L167.074 195.164C166.839 195.761 166.412 196.305 165.794 196.796C165.196 197.265 164.45 197.5 163.554 197.5H155.105L173.154 150.876H184.226L202.274 197.5ZM172.322 179.676H185.058L180.77 166.908C180.45 166.097 180.108 165.148 179.746 164.06C179.383 162.951 179.02 161.756 178.658 160.476C178.316 161.777 177.964 162.983 177.602 164.092C177.26 165.201 176.93 166.161 176.61 166.972L172.322 179.676ZM191.138 147.868H183.97C183.586 147.868 183.116 147.804 182.562 147.676C182.007 147.527 181.431 147.1 180.834 146.396L179.234 143.9C179.127 143.751 179.02 143.612 178.914 143.484C178.828 143.356 178.743 143.228 178.658 143.1L178.082 143.9L176.482 146.396C175.884 147.1 175.308 147.527 174.753 147.676C174.199 147.804 173.73 147.868 173.346 147.868H166.498L174.306 138.972H183.33L191.138 147.868ZM202.53 134.524L194.242 141.788C193.132 142.876 192.076 143.356 191.074 143.228C190.071 143.1 189.196 142.567 188.45 141.628L187.106 140.028L189.41 136.444C189.602 136.145 189.804 135.879 190.018 135.644C190.231 135.388 190.466 135.185 190.722 135.036C190.999 134.865 191.308 134.737 191.65 134.652C192.012 134.567 192.439 134.524 192.93 134.524H202.53ZM224.218 188.956C225.669 188.956 226.959 188.721 228.09 188.252C229.242 187.761 230.213 187.068 231.002 186.172C231.791 185.276 232.389 184.188 232.794 182.908C233.221 181.607 233.434 180.135 233.434 178.492V150.876H244.25V178.492C244.25 181.351 243.781 183.975 242.842 186.364C241.925 188.753 240.602 190.812 238.874 192.54C237.146 194.268 235.045 195.612 232.57 196.572C230.095 197.532 227.311 198.012 224.218 198.012C221.103 198.012 218.309 197.532 215.834 196.572C213.359 195.612 211.258 194.268 209.53 192.54C207.802 190.812 206.479 188.753 205.562 186.364C204.645 183.975 204.186 181.351 204.186 178.492V150.876H215.002V178.46C215.002 180.103 215.205 181.575 215.61 182.876C216.037 184.156 216.645 185.255 217.434 186.172C218.223 187.068 219.183 187.761 220.314 188.252C221.466 188.721 222.767 188.956 224.218 188.956ZM299.079 150.876V159.452H285.959V197.5H275.143V159.452H262.023V150.876H299.079ZM349.272 174.172C349.272 177.543 348.685 180.679 347.512 183.58C346.36 186.481 344.728 189.009 342.616 191.164C340.504 193.297 337.955 194.972 334.968 196.188C332.003 197.404 328.707 198.012 325.08 198.012C321.453 198.012 318.147 197.404 315.16 196.188C312.173 194.972 309.613 193.297 307.48 191.164C305.368 189.009 303.725 186.481 302.552 183.58C301.4 180.679 300.824 177.543 300.824 174.172C300.824 170.801 301.4 167.665 302.552 164.764C303.725 161.863 305.368 159.345 307.48 157.212C309.613 155.079 312.173 153.404 315.16 152.188C318.147 150.972 321.453 150.364 325.08 150.364C328.707 150.364 332.003 150.983 334.968 152.22C337.955 153.436 340.504 155.111 342.616 157.244C344.728 159.377 346.36 161.895 347.512 164.796C348.685 167.697 349.272 170.823 349.272 174.172ZM338.2 174.172C338.2 171.868 337.901 169.799 337.304 167.964C336.707 166.108 335.843 164.54 334.712 163.26C333.603 161.98 332.237 160.999 330.616 160.316C328.995 159.633 327.149 159.292 325.08 159.292C322.989 159.292 321.123 159.633 319.48 160.316C317.859 160.999 316.483 161.98 315.352 163.26C314.243 164.54 313.389 166.108 312.792 167.964C312.195 169.799 311.896 171.868 311.896 174.172C311.896 176.497 312.195 178.588 312.792 180.444C313.389 182.279 314.243 183.836 315.352 185.116C316.483 186.396 317.859 187.377 319.48 188.06C321.123 188.721 322.989 189.052 325.08 189.052C327.149 189.052 328.995 188.721 330.616 188.06C332.237 187.377 333.603 186.396 334.712 185.116C335.843 183.836 336.707 182.279 337.304 180.444C337.901 178.588 338.2 176.497 338.2 174.172ZM337.624 147.868H330.456C330.072 147.868 329.603 147.804 329.048 147.676C328.493 147.527 327.917 147.1 327.32 146.396L325.72 143.9C325.613 143.751 325.507 143.612 325.4 143.484C325.315 143.356 325.229 143.228 325.144 143.1L324.568 143.9L322.968 146.396C322.371 147.1 321.795 147.527 321.24 147.676C320.685 147.804 320.216 147.868 319.832 147.868H312.984L320.792 138.972H329.816L337.624 147.868ZM331 133.116C331.747 132.561 332.621 132.113 333.624 131.772C334.648 131.409 335.779 131.228 337.016 131.228C337.955 131.228 338.829 131.335 339.64 131.548C340.451 131.761 341.155 132.092 341.752 132.54C342.371 132.988 342.851 133.553 343.192 134.236C343.533 134.897 343.704 135.687 343.704 136.604C343.704 137.777 343.288 138.812 342.456 139.708C341.645 140.583 340.632 141.265 339.416 141.756L338.808 143.068H335.064V138.908C336.152 138.78 336.973 138.535 337.528 138.172C338.083 137.809 338.36 137.415 338.36 136.988C338.36 136.604 338.211 136.295 337.912 136.06C337.613 135.804 337.208 135.676 336.696 135.676C336.461 135.676 336.227 135.719 335.992 135.804C335.779 135.889 335.555 135.985 335.32 136.092C335.107 136.199 334.893 136.295 334.68 136.38C334.467 136.465 334.253 136.508 334.04 136.508C333.741 136.508 333.496 136.433 333.304 136.284C333.133 136.113 332.963 135.9 332.792 135.644L331 133.116ZM401.874 185.436C402.13 185.436 402.386 185.489 402.642 185.596C402.898 185.681 403.143 185.841 403.378 186.076L407.666 190.588C405.788 193.041 403.431 194.897 400.594 196.156C397.778 197.393 394.439 198.012 390.578 198.012C387.036 198.012 383.858 197.415 381.042 196.22C378.247 195.004 375.868 193.34 373.906 191.228C371.964 189.095 370.471 186.577 369.426 183.676C368.38 180.753 367.858 177.585 367.858 174.172C367.858 170.695 368.423 167.505 369.554 164.604C370.684 161.681 372.274 159.164 374.322 157.052C376.37 154.94 378.823 153.297 381.682 152.124C384.54 150.951 387.687 150.364 391.122 150.364C392.871 150.364 394.514 150.524 396.05 150.844C397.607 151.143 399.058 151.569 400.402 152.124C401.746 152.657 402.983 153.308 404.114 154.076C405.244 154.844 406.247 155.676 407.122 156.572L403.474 161.468C403.239 161.767 402.962 162.044 402.642 162.3C402.322 162.535 401.874 162.652 401.298 162.652C400.914 162.652 400.551 162.567 400.21 162.396C399.868 162.225 399.506 162.023 399.122 161.788C398.738 161.532 398.311 161.265 397.842 160.988C397.394 160.689 396.85 160.423 396.21 160.188C395.591 159.932 394.855 159.719 394.002 159.548C393.17 159.377 392.188 159.292 391.058 159.292C389.266 159.292 387.623 159.623 386.13 160.284C384.658 160.945 383.378 161.916 382.29 163.196C381.223 164.455 380.391 166.012 379.794 167.868C379.218 169.703 378.93 171.804 378.93 174.172C378.93 176.561 379.25 178.684 379.89 180.54C380.551 182.396 381.436 183.964 382.546 185.244C383.676 186.503 384.988 187.463 386.482 188.124C387.975 188.785 389.575 189.116 391.282 189.116C392.263 189.116 393.159 189.073 393.97 188.988C394.78 188.881 395.538 188.721 396.242 188.508C396.946 188.273 397.607 187.975 398.226 187.612C398.844 187.228 399.474 186.748 400.114 186.172C400.37 185.959 400.647 185.788 400.946 185.66C401.244 185.511 401.554 185.436 401.874 185.436ZM453.091 197.5H442.211V177.788H423.267V197.5H412.387V150.876H423.267V170.364H442.211V150.876H453.091V197.5ZM481.593 188.956C483.044 188.956 484.334 188.721 485.465 188.252C486.617 187.761 487.588 187.068 488.377 186.172C489.166 185.276 489.764 184.188 490.169 182.908C490.596 181.607 490.809 180.135 490.809 178.492V150.876H501.625V157.5C503.332 157.457 504.569 157.137 505.337 156.54C506.105 155.943 506.489 155.228 506.489 154.396C506.489 154.033 506.425 153.703 506.297 153.404C506.169 153.105 506.03 152.785 505.881 152.444C505.732 152.103 505.593 151.74 505.465 151.356C505.337 150.951 505.273 150.471 505.273 149.916C505.273 148.636 505.678 147.687 506.489 147.068C507.321 146.428 508.633 146.108 510.425 146.108H515.545C515.673 146.556 515.78 147.121 515.865 147.804C515.95 148.465 515.993 149.148 515.993 149.852C515.993 151.516 515.716 153.095 515.161 154.588C514.628 156.081 513.774 157.404 512.601 158.556C511.428 159.687 509.934 160.593 508.121 161.276C506.308 161.937 504.142 162.279 501.625 162.3V178.492C501.625 181.351 501.156 183.975 500.217 186.364C499.3 188.753 497.977 190.812 496.249 192.54C494.521 194.268 492.42 195.612 489.945 196.572C487.47 197.532 484.686 198.012 481.593 198.012C478.478 198.012 475.684 197.532 473.209 196.572C470.734 195.612 468.633 194.268 466.905 192.54C465.177 190.812 463.854 188.753 462.937 186.364C462.02 183.975 461.561 181.351 461.561 178.492V150.876H472.377V178.46C472.377 180.103 472.58 181.575 472.985 182.876C473.412 184.156 474.02 185.255 474.809 186.172C475.598 187.068 476.558 187.761 477.689 188.252C478.841 188.721 480.142 188.956 481.593 188.956ZM496.601 137.756L486.265 146.876C486.009 147.111 485.764 147.292 485.529 147.42C485.294 147.548 485.049 147.644 484.793 147.708C484.537 147.772 484.26 147.815 483.961 147.836C483.684 147.857 483.364 147.868 483.001 147.868H475.769L481.817 139.228C482.073 138.887 482.318 138.62 482.553 138.428C482.809 138.215 483.076 138.065 483.353 137.98C483.652 137.873 483.982 137.809 484.345 137.788C484.729 137.767 485.166 137.756 485.657 137.756H496.601ZM549.561 185.436C549.817 185.436 550.073 185.489 550.329 185.596C550.585 185.681 550.83 185.841 551.065 186.076L555.353 190.588C553.476 193.041 551.118 194.897 548.281 196.156C545.465 197.393 542.126 198.012 538.265 198.012C534.724 198.012 531.545 197.415 528.729 196.22C525.934 195.004 523.556 193.34 521.593 191.228C519.652 189.095 518.158 186.577 517.113 183.676C516.068 180.753 515.545 177.585 515.545 174.172C515.545 170.695 516.11 167.505 517.241 164.604C518.372 161.681 519.961 159.164 522.009 157.052C524.057 154.94 526.51 153.297 529.369 152.124C532.228 150.951 535.374 150.364 538.809 150.364C540.558 150.364 542.201 150.524 543.737 150.844C545.294 151.143 546.745 151.569 548.089 152.124C549.433 152.657 550.67 153.308 551.801 154.076C552.932 154.844 553.934 155.676 554.809 156.572L551.161 161.468C550.926 161.767 550.649 162.044 550.329 162.3C550.009 162.535 549.561 162.652 548.985 162.652C548.601 162.652 548.238 162.567 547.897 162.396C547.556 162.225 547.193 162.023 546.809 161.788C546.425 161.532 545.998 161.265 545.529 160.988C545.081 160.689 544.537 160.423 543.897 160.188C543.278 159.932 542.542 159.719 541.689 159.548C540.857 159.377 539.876 159.292 538.745 159.292C536.953 159.292 535.31 159.623 533.817 160.284C532.345 160.945 531.065 161.916 529.977 163.196C528.91 164.455 528.078 166.012 527.481 167.868C526.905 169.703 526.617 171.804 526.617 174.172C526.617 176.561 526.937 178.684 527.577 180.54C528.238 182.396 529.124 183.964 530.233 185.244C531.364 186.503 532.676 187.463 534.169 188.124C535.662 188.785 537.262 189.116 538.969 189.116C539.95 189.116 540.846 189.073 541.657 188.988C542.468 188.881 543.225 188.721 543.929 188.508C544.633 188.273 545.294 187.975 545.913 187.612C546.532 187.228 547.161 186.748 547.801 186.172C548.057 185.959 548.334 185.788 548.633 185.66C548.932 185.511 549.241 185.436 549.561 185.436Z" fill="white"/>
</g>
<defs>
<filter id="filter0_d_240_3379" x="36.8047" y="74.1914" width="483.986" height="217.809" filterUnits="userSpaceOnUse" color-interpolation-filters="sRGB">
<feFlood flood-opacity="0" result="BackgroundImageFix"/>
<feColorMatrix in="SourceAlpha" type="matrix" values="0 0 0 0 0 0 0 0 0 0 0 0 0 0 0 0 0 0 127 0" result="hardAlpha"/>
<feOffset dy="4"/>
<feGaussianBlur stdDeviation="2"/>
<feComposite in2="hardAlpha" operator="out"/>
<feColorMatrix type="matrix" values="0 0 0 0 0 0 0 0 0 0 0 0 0 0 0 0 0 0 0.25 0"/>
<feBlend mode="normal" in2="BackgroundImageFix" result="effect1_dropShadow_240_3379"/>
<feBlend mode="normal" in="SourceGraphic" in2="effect1_dropShadow_240_3379" result="shape"/>
</filter>
<filter id="filter1_d_240_3379" x="0.357422" y="131.229" width="558.996" height="74.7832" filterUnits="userSpaceOnUse" color-interpolation-filters="sRGB">
<feFlood flood-opacity="0" result="BackgroundImageFix"/>
<feColorMatrix in="SourceAlpha" type="matrix" values="0 0 0 0 0 0 0 0 0 0 0 0 0 0 0 0 0 0 127 0" result="hardAlpha"/>
<feOffset dy="4"/>
<feGaussianBlur stdDeviation="2"/>
<feComposite in2="hardAlpha" operator="out"/>
<feColorMatrix type="matrix" values="0 0 0 0 0 0 0 0 0 0 0 0 0 0 0 0 0 0 0.25 0"/>
<feBlend mode="normal" in2="BackgroundImageFix" result="effect1_dropShadow_240_3379"/>
<feBlend mode="normal" in="SourceGraphic" in2="effect1_dropShadow_240_3379" result="shape"/>
</filter>
</defs>
</svg>
