<svg width="67" height="85" viewBox="0 0 67 85" fill="none" xmlns="http://www.w3.org/2000/svg">
<g clip-path="url(#clip0_240_2995)">
<path d="M18.3391 84.9997C17.9939 84.5473 17.59 84.1266 17.3152 83.636C15.6393 80.6426 14.0003 77.6292 12.3143 74.5609C10.2212 75.301 8.15813 76.0277 6.09848 76.7594C4.81475 77.2151 3.52991 77.6763 2.24395 78.1431C1.59204 78.3825 0.946819 78.5572 0.37702 77.9901C-0.192779 77.423 -0.0285284 76.8093 0.224529 76.1491C3.29139 68.1766 6.35489 60.2036 9.41505 52.23C9.66308 51.588 9.6061 51.2721 9.01619 50.8197C6.38338 48.8008 5.27899 46.0951 5.92588 42.8473C6.42864 40.2962 5.82699 38.2756 3.83772 36.5278C2.98315 35.7787 2.29883 34.858 1.83012 33.8265C1.3614 32.7951 1.11899 31.6766 1.11899 30.5451C1.11899 29.4136 1.3614 28.2951 1.83012 27.2637C2.29883 26.2323 2.98315 25.3115 3.83772 24.5624C5.82531 22.8179 6.46383 20.7974 5.92252 18.243C4.93543 13.6015 8.35255 9.04981 13.1288 8.6141C15.6661 8.38294 17.4241 7.19556 18.5067 4.88564C20.6619 0.284078 25.9644 -1.35234 30.4256 1.17211C32.5255 2.36117 34.5817 2.35618 36.6866 1.17211C41.2115 -1.36565 46.4386 0.277408 48.6457 4.95048C49.6898 7.16062 51.3807 8.33806 53.8158 8.5925C58.887 9.12134 62.15 13.4485 61.1679 18.396C60.6786 20.8556 61.3053 22.8179 63.2175 24.4859C64.0846 25.2315 64.7813 26.1522 65.2608 27.1865C65.7404 28.2209 65.9917 29.3449 65.998 30.4835C66.0044 31.622 65.7656 32.7487 65.2976 33.7883C64.8297 34.8278 64.1433 35.7561 63.2845 36.5112C61.2969 38.259 60.6785 40.2696 61.1863 42.8207C61.8382 46.1051 60.707 48.8175 58.044 50.853C57.5178 51.2554 57.4424 51.5498 57.6686 52.1335C60.7154 60.0251 63.7487 67.9211 66.7687 75.8215C66.8491 76.0277 67.01 76.2406 66.9933 76.4385C66.9497 76.9557 66.9933 77.6325 66.6933 77.9352C66.3933 78.2379 65.6408 78.3443 65.2001 78.1996C62.584 77.3415 60.0048 76.3836 57.4089 75.4606L54.8415 74.5509C54.6739 74.822 54.518 75.0732 54.3756 75.3326C52.8555 78.0982 51.3472 80.8704 49.8088 83.626C49.5339 84.1166 49.1284 84.5373 48.7848 84.9897H47.7793C47.4441 84.4991 47.0134 84.0484 46.8056 83.5113C43.9332 76.0887 41.0774 68.6606 38.2385 61.2269C38.1329 60.9525 38.0206 60.5717 37.8011 60.4669C36.7537 59.968 35.7029 59.4158 34.5901 59.1248C33.0986 58.734 31.7093 59.2296 30.3401 59.9065C29.4167 60.3621 28.9324 60.9807 28.5804 61.912C25.8554 69.124 23.0981 76.3237 20.3083 83.5113C20.1005 84.0484 19.6647 84.4991 19.3346 84.9897L18.3391 84.9997ZM58.7278 16.7429C58.6725 16.3122 58.6541 15.923 58.5602 15.5489C57.9753 13.0543 56.1905 11.5776 53.2192 11.1984C49.9596 10.7827 47.662 9.11301 46.2743 6.16948C44.6923 2.81851 41.2467 1.74087 37.9469 3.50866C37.2204 3.9139 36.448 4.2321 35.6459 4.45657C33.2913 5.06856 31.0909 4.61291 28.9776 3.43549C26.0046 1.77248 22.4065 2.83513 21.0256 5.83188C19.4854 9.17121 16.9431 10.9207 13.2847 11.2882C10.0502 11.6125 7.87157 14.709 8.55868 17.8804C9.29271 21.268 8.39108 24.0885 5.76498 26.3934C3.13887 28.6983 3.13887 32.3802 5.76498 34.6902C8.39108 37.0001 9.28433 39.8139 8.57879 43.2048C8.42286 43.9893 8.42799 44.797 8.59386 45.5796C9.1335 48.0741 10.9569 49.5193 13.945 49.9034C17.2079 50.3192 19.4753 52.0171 20.8647 54.9607C22.3998 58.2318 25.8923 59.3743 29.0547 57.6215C32.0914 55.9369 35.0711 55.9585 38.1162 57.6215C38.9204 58.0557 39.8066 58.3195 40.7188 58.3964C43.1572 58.5877 45.185 57.2739 46.2727 54.9274C47.4709 52.343 49.4367 50.6983 52.2287 50.0564C52.8991 49.9001 53.613 49.8901 54.2918 49.7488C55.0098 49.5997 55.6908 49.3103 56.2951 48.8974C56.8994 48.4846 57.4148 47.9566 57.8114 47.3442C58.2081 46.7317 58.478 46.0471 58.6054 45.3302C58.7328 44.6132 58.7151 43.8783 58.5535 43.1682C57.8362 39.8156 58.7211 36.9984 61.3288 34.7284C61.6239 34.4767 61.8949 34.1983 62.1382 33.8969C63.9683 31.5587 63.6465 28.409 61.3288 26.3734C58.7882 24.1383 57.8564 21.3844 58.5167 18.0949C58.6105 17.636 58.6608 17.1687 58.7278 16.7429ZM12.2054 52.3929C9.36645 59.7983 6.52584 67.2121 3.61819 74.7954C4.08408 74.6457 4.36731 74.5642 4.6455 74.4628C7.10905 73.5869 9.5709 72.7094 12.0311 71.8303C13.2847 71.3846 13.707 71.5409 14.3354 72.6884C15.618 75.0166 16.8979 77.3448 18.1749 79.673C18.2972 79.8959 18.4397 80.1071 18.6441 80.4414L26.0515 61.1238C22.2975 60.8311 19.7586 59.0567 18.2386 55.7373C17.8648 54.9207 17.1492 54.204 16.4487 53.602C15.2739 52.5975 13.7589 52.5143 12.2054 52.3929ZM41.0724 61.1221C43.541 67.5613 45.9911 73.9489 48.4898 80.4613C48.6977 80.1087 48.8385 79.8809 48.9675 79.6481C50.2479 77.3199 51.5277 74.9917 52.8069 72.6634C53.4153 71.5609 53.8594 71.3912 55.0493 71.8136C57.5631 72.705 60.0769 73.6064 62.5907 74.4994C62.8371 74.5876 63.0935 74.6507 63.499 74.7705C60.5947 67.1971 57.7508 59.7801 54.9118 52.3797C54.5096 52.4212 54.2063 52.4611 53.9063 52.4844C51.3925 52.6856 49.6345 53.903 48.6189 56.2063C48.3719 56.7622 48.0609 57.2878 47.6921 57.7728C46.0632 59.9231 43.8276 60.9458 41.0724 61.1221Z" fill="#A3CC01"/>
<path d="M13.4785 30.5518C13.4796 27.933 14.0008 25.3401 15.0122 22.9213C16.0237 20.5024 17.5056 18.3051 19.3733 16.4549C21.2409 14.6046 23.4577 13.1378 25.8969 12.1381C28.3362 11.1385 30.95 10.6256 33.5891 10.6289C44.6398 10.6389 53.646 19.5876 53.631 30.5419C53.6272 33.168 53.1012 35.7676 52.083 38.1916C51.0648 40.6157 49.5745 42.8164 47.6975 44.6677C45.8204 46.5191 43.5937 47.9845 41.1447 48.9802C38.6958 49.9758 36.073 50.482 33.4265 50.4698C22.4512 50.4432 13.4785 41.4895 13.4785 30.5518ZM16.1599 30.6317C16.1398 40.0493 23.9746 47.7873 33.5573 47.8139C43.0763 47.8405 50.9395 40.0776 50.9579 30.6333C50.9763 21.1541 43.2355 13.3247 33.8086 13.2864C23.9813 13.2465 16.1851 20.908 16.1599 30.6317Z" fill="#A3CC01"/>
<path d="M45.3361 27.7308C45.1528 28.0632 44.9336 28.375 44.6825 28.6604C43.3652 29.9726 42.0011 31.2331 40.6939 32.5602C40.5696 32.7063 40.4759 32.8755 40.4183 33.058C40.3608 33.2405 40.3405 33.4325 40.3587 33.6229C40.6268 35.4821 40.957 37.3314 41.2905 39.1807C41.4044 39.8076 41.319 40.3448 40.7777 40.729C40.2363 41.1131 39.6867 40.9867 39.132 40.6924C37.4879 39.8193 35.8238 38.9828 34.1864 38.0964C34.0037 37.9791 33.7907 37.9167 33.573 37.9167C33.3554 37.9167 33.1424 37.9791 32.9597 38.0964C31.3224 38.9811 29.6565 39.816 28.0108 40.6857C27.4293 40.995 26.8662 41.1381 26.2964 40.7007C25.7635 40.2916 25.7249 39.7461 25.8372 39.1308C26.1724 37.3015 26.4439 35.4722 26.7924 33.6611C26.851 33.4518 26.8465 33.2299 26.7795 33.0231C26.7125 32.8162 26.5859 32.6333 26.4154 32.497C25.0747 31.2448 23.7809 29.9509 22.4502 28.6904C21.9475 28.2164 21.6274 27.7026 21.8654 27.0041C22.1033 26.3056 22.6865 26.1726 23.3217 26.0778C25.1652 25.82 27.017 25.5789 28.8521 25.2613C29.0262 25.2192 29.1901 25.1429 29.334 25.037C29.478 24.931 29.599 24.7975 29.69 24.6443C30.5431 23.0312 31.3491 21.3931 32.1452 19.75C32.4452 19.1314 32.8407 18.6624 33.5798 18.674C34.2769 18.6857 34.6607 19.133 34.949 19.7234C35.7484 21.3648 36.5863 22.9862 37.3773 24.631C37.4502 24.8197 37.5771 24.9832 37.7423 25.1013C37.9076 25.2195 38.1039 25.2872 38.3074 25.2962C40.1509 25.529 41.9944 25.8184 43.8462 26.0878C44.8484 26.2308 45.3378 26.6898 45.3361 27.7308ZM33.5647 22.9364C32.9865 24.1005 32.4184 25.0517 32.0262 26.0711C31.5452 27.3267 30.6855 27.8472 29.3784 27.9187C28.2974 27.977 27.2298 28.2214 26.2511 28.3678C27.2181 29.3938 28.1365 30.39 29.0817 31.3612C29.5409 31.8351 29.7521 32.3291 29.613 33.0043C29.3465 34.3613 29.1454 35.7316 28.8974 37.2117C30.1107 36.583 31.2285 36.0775 32.2659 35.4422C33.1943 34.8735 33.9988 34.925 34.9088 35.4622C35.9545 36.0808 37.0622 36.5947 38.2303 37.2C37.994 35.7898 37.8231 34.476 37.5416 33.1855C37.3572 32.344 37.6237 31.7703 38.2119 31.1899C39.137 30.2852 39.9984 29.3123 40.8933 28.3628C39.628 28.1715 38.2907 27.9387 36.9449 27.7807C36.1925 27.6926 35.7349 27.3317 35.4215 26.6748C34.8517 25.4841 34.2468 24.3 33.5647 22.9364Z" fill="#A3CC01"/>
</g>
<defs>
<clipPath id="clip0_240_2995">
<rect width="67" height="85" fill="white"/>
</clipPath>
</defs>
</svg>
