<svg width="86" height="70" viewBox="0 0 86 70" fill="none" xmlns="http://www.w3.org/2000/svg">
<g clip-path="url(#clip0_240_3015)">
<path d="M0.955078 2.83981C1.68851 0.717476 3.24019 0.0549792 5.39392 0.0566438C30.7841 0.0899353 56.1782 0.0982419 81.5761 0.0815961C82.0206 0.0768503 82.4649 0.0990692 82.9066 0.148163C83.712 0.232027 84.461 0.601201 85.0184 1.18905C85.5759 1.7769 85.9051 2.54474 85.9468 3.35414C85.9684 3.65709 85.9618 3.96337 85.9618 4.26799V55.6086C85.9618 58.47 84.6612 59.78 81.8189 59.785C80.8577 59.785 79.8964 59.785 78.7971 59.785C79.3858 61.0251 79.908 62.1453 80.4502 63.2556C80.7712 63.9115 80.9574 64.559 80.4502 65.1982C79.9729 65.7974 79.3376 65.8324 78.6424 65.6826C78.185 65.5844 77.7144 65.5411 77.2504 65.4712C75.6056 65.2248 75.6055 65.2248 74.7657 66.6047C74.4929 67.0542 74.2102 67.497 73.9524 67.9547C73.5915 68.5889 73.1525 69.0983 72.3409 69.0483C71.5293 68.9984 71.1767 68.4175 70.8673 67.765C69.8695 65.641 68.85 63.5236 67.7756 61.2731C67.6093 61.5927 67.4779 61.8108 67.3698 62.0388C66.4751 63.9081 65.577 65.7774 64.6955 67.6534C64.3629 68.3509 64.0303 69.0251 63.1322 69.0567C62.2341 69.0883 61.8383 68.4424 61.4525 67.7799C61.0916 67.159 60.6591 66.5731 60.3548 65.9256C60.0604 65.3047 59.6696 65.1782 59.0376 65.323C58.2576 65.5028 57.4543 65.5711 56.666 65.7192C56.0091 65.844 55.4486 65.7109 55.0378 65.1699C54.627 64.6289 54.6869 64.0363 54.9713 63.447C55.4148 62.526 55.8544 61.6027 56.2902 60.6772C56.4049 60.4342 56.503 60.1778 56.6743 59.7883H55.5218C38.8142 59.7883 22.106 59.795 5.39725 59.8083C3.24518 59.8083 1.69182 59.1425 0.963382 57.0185L0.955078 2.83981ZM77.0042 55.9231C77.5032 57.2848 77.5032 57.2848 78.8603 57.2848C79.8282 57.2848 80.7961 57.2848 81.7657 57.2848C83.2509 57.2848 83.4638 57.0734 83.4638 55.6202C83.4638 38.4806 83.4638 21.3399 83.4638 4.19809C83.4638 2.79319 83.2475 2.57846 81.8106 2.57846H5.12949C3.64765 2.57846 3.44642 2.78154 3.44642 4.24304V55.5836C3.44642 55.805 3.44642 56.0263 3.44642 56.2494C3.48134 56.8287 3.78902 57.1749 4.36612 57.2481C4.69788 57.2775 5.03107 57.2875 5.36399 57.2781H56.7342C58.0481 57.2781 58.0481 57.2781 58.4605 55.9032C56.6311 54.9228 55.7896 53.3864 55.8511 51.289C55.8661 50.8046 55.5966 50.2769 55.3522 49.8275C54.5106 48.2878 54.5322 46.7946 55.3339 45.2382C55.6468 44.6313 55.8266 43.9645 55.8611 43.2824C55.9293 41.5196 56.6926 40.2545 58.1695 39.314C58.7193 38.9584 59.1866 38.489 59.5399 37.9374C60.4746 36.4509 61.7718 35.7268 63.5081 35.607C64.2132 35.5522 64.9013 35.363 65.5354 35.0494C67.0139 34.3269 68.4242 34.3253 69.9127 35.026C70.603 35.3441 71.3428 35.5411 72.0997 35.6086C73.7628 35.7568 75.0118 36.4743 75.9249 37.8891C76.2945 38.4613 76.7794 38.95 77.3485 39.324C78.8253 40.2711 79.5554 41.5678 79.6486 43.3106C79.6778 43.9632 79.8439 44.6024 80.1359 45.1866C80.9674 46.768 80.994 48.2877 80.1242 49.8474C79.9014 50.2469 79.6519 50.7164 79.6619 51.1475C79.7184 53.3081 78.9235 54.9277 77.0042 55.9231ZM67.6725 58.1487C68.0949 58.0072 68.4941 57.9506 68.8067 57.7558C69.7199 57.171 70.7903 56.8806 71.8735 56.9236C72.277 56.9543 72.6803 56.8615 73.0299 56.6576C73.3794 56.4536 73.6588 56.1482 73.831 55.7817C74.3167 54.8411 75.0843 54.0762 76.0263 53.5944C76.3913 53.4184 76.6935 53.1346 76.8922 52.7813C77.0908 52.428 77.1764 52.0221 77.1373 51.6186C77.0746 50.5895 77.3459 49.5678 77.9106 48.7056C78.4096 47.9315 78.2965 47.1891 77.9356 46.3535C77.5469 45.452 77.2908 44.4988 77.1755 43.5237C77.0691 42.5899 76.7248 41.9623 75.9698 41.3997C75.1808 40.8187 74.4825 40.1236 73.8975 39.3373C73.3387 38.5716 72.7334 38.0956 71.7854 38.1355C70.7568 38.1804 69.74 37.9028 68.8766 37.3415C68.5435 37.1117 68.1485 36.9887 67.744 36.9887C67.3395 36.9887 66.9445 37.1117 66.6114 37.3415C65.7496 37.904 64.7319 38.179 63.7043 38.1272C63.2726 38.0903 62.84 38.1887 62.4667 38.4088C62.0933 38.6289 61.7976 38.9598 61.6204 39.3556C61.1634 40.2482 60.4341 40.9719 59.5382 41.4214C58.7349 41.8475 58.4389 42.5283 58.3424 43.4455C58.2428 44.422 57.9909 45.3769 57.5957 46.2753C57.3977 46.6645 57.2944 47.0952 57.2944 47.532C57.2944 47.9689 57.3977 48.3995 57.5957 48.7888C57.9899 49.6575 58.2404 50.5845 58.3374 51.5337C58.4272 52.4758 58.7682 53.0983 59.5216 53.6626C60.3074 54.248 61.0048 54.9438 61.5922 55.7284C62.1726 56.5174 62.8212 56.8587 63.7908 56.9452C64.6972 57.0268 65.582 57.3813 66.4667 57.6493C66.877 57.795 67.2794 57.9616 67.6725 58.1487ZM62.9609 65.4728L65.6069 59.9198C65.0215 59.7417 64.5375 59.4804 64.0453 59.4654C62.6566 59.4221 61.3643 59.1724 60.2783 58.1021L57.9583 62.9826C58.7033 62.8645 59.2704 62.7846 59.8359 62.6847C60.7323 62.5182 61.3976 62.8145 61.8466 63.6251C62.1659 64.1944 62.5268 64.7487 62.9609 65.4595V65.4728ZM72.5321 65.4612C72.9579 64.7687 73.3238 64.246 73.6165 63.6851C74.0838 62.7862 74.8039 62.5199 75.7569 62.6963C76.3057 62.7995 76.8612 62.8777 77.5464 62.9893L75.218 58.1121C74.147 59.1108 72.9612 59.4171 71.6423 59.4438C71.0802 59.4571 70.5247 59.735 69.8894 59.9131L72.5321 65.4612Z" fill="#A3CC01"/>
<path d="M77.4884 14.72C75.2099 14.3039 73.4437 13.2219 72.2912 11.2677C71.9618 10.7247 71.7104 10.138 71.5444 9.52491C71.4014 8.95729 71.1686 8.8008 70.5931 8.80247C65.667 8.8291 60.7425 8.81746 55.818 8.81746H15.2963C14.5413 11.9802 12.622 13.9377 9.45878 14.6718V45.1835C12.5888 45.9175 14.5346 47.8468 15.2913 51.0428H16.2792C27.6782 51.0428 39.0777 51.0428 50.4778 51.0428C50.8358 51.0263 51.1943 51.0583 51.5438 51.1376C51.8197 51.1968 52.0629 51.3586 52.224 51.5904C52.3852 51.8222 52.4524 52.1066 52.412 52.3861C52.3654 53.0153 51.9846 53.3848 51.3725 53.5063C51.1255 53.5383 50.8762 53.5478 50.6275 53.5347H15.0236C13.4719 53.5347 13.1126 53.2267 12.8316 51.6736C12.4241 49.4331 11.0421 48.0565 8.78688 47.6487C7.26347 47.3724 6.9375 46.9829 6.9375 45.4348V14.4454C6.9375 12.8774 7.25349 12.4962 8.76692 12.2165C11.0737 11.792 12.4258 10.4338 12.8415 8.12501C13.1076 6.64354 13.4885 6.32227 15.0036 6.32227C33.8733 6.32227 52.7435 6.32227 71.6143 6.32227C73.1394 6.32227 73.5684 6.6918 73.8096 8.19325C74.1688 10.4404 75.6573 11.9003 77.9191 12.2232C79.717 12.4812 79.988 12.7975 79.988 14.6368C79.988 21.4782 79.988 28.3196 79.988 35.161C80.0065 35.465 79.9948 35.77 79.9531 36.0716C79.8234 36.7158 79.4209 37.1036 78.744 37.1053C78.0672 37.1069 77.6647 36.7174 77.535 36.0732C77.4927 35.7717 77.4805 35.4667 77.4984 35.1627C77.4984 28.6809 77.4984 22.1995 77.4984 15.7188L77.4884 14.72Z" fill="#A3CC01"/>
<path d="M43.3713 17.3141H20.0462C19.7422 17.3281 19.4376 17.3203 19.1348 17.2909C18.4795 17.1976 18.082 16.8148 18.0455 16.1389C18.0089 15.4631 18.3781 15.0386 19.0167 14.8838C19.2906 14.8315 19.5697 14.8114 19.8483 14.8239C35.5924 14.8239 51.3365 14.8239 67.0807 14.8239C67.3592 14.8114 67.6383 14.8315 67.9122 14.8838C68.5558 15.0386 68.9101 15.4598 68.8818 16.1389C68.8535 16.8181 68.4477 17.1976 67.7925 17.2909C67.4896 17.3203 67.185 17.3281 66.8811 17.3141H43.3713Z" fill="#A3CC01"/>
<path d="M43.4985 28.4211H66.822C67.098 28.4211 67.3758 28.4095 67.6535 28.4311C68.3487 28.486 68.7928 28.8389 68.8659 29.5563C68.9358 30.2405 68.5067 30.7615 67.7766 30.888C67.5007 30.9212 67.2226 30.9318 66.945 30.9196H19.9671C18.6266 30.9196 18.0279 30.5201 18.0412 29.6429C18.0529 28.7973 18.625 28.4261 19.9255 28.4261L43.4985 28.4211Z" fill="#A3CC01"/>
<path d="M49.6623 21.6029H67.0035C67.3062 21.6029 67.6954 21.513 67.895 21.6628C68.2758 21.9508 68.6932 22.3287 68.8296 22.7631C69.0059 23.3124 68.6384 23.7852 68.0729 23.9683C67.7551 24.0589 67.4253 24.0998 67.095 24.0898C55.4233 24.0965 43.7516 24.0965 32.0798 24.0898C31.8043 24.099 31.5287 24.0727 31.2599 24.0116C30.613 23.8368 30.2837 23.3873 30.3452 22.7182C30.4034 22.089 30.7892 21.7194 31.4096 21.6262C31.6858 21.5977 31.9637 21.5894 32.2411 21.6013L49.6623 21.6029Z" fill="#A3CC01"/>
<path d="M43.5061 37.2324H51.627C52.2341 37.2324 52.8012 37.4405 52.896 38.0647C52.9397 38.5335 52.8127 39.0023 52.5384 39.3847C52.3605 39.6261 51.8516 39.7043 51.4857 39.7177C50.2167 39.7559 48.9444 39.7326 47.6738 39.7326H35.8225C35.574 39.7424 35.3251 39.7363 35.0774 39.7143C34.3606 39.6261 33.8783 39.1001 33.8949 38.4509C33.9116 37.8017 34.3939 37.2857 35.134 37.2541C36.0454 37.2175 36.9634 37.2408 37.8698 37.2391L43.5061 37.2324Z" fill="#A3CC01"/>
<path d="M22.4293 24.0962C21.4631 24.0962 20.4968 24.1112 19.5322 24.0962C18.5676 24.0812 18.0221 23.5968 18.0354 22.8095C18.0537 22.0588 18.5776 21.6177 19.5139 21.6127C21.5008 21.6005 23.4882 21.6005 25.4762 21.6127C26.4025 21.6127 26.953 22.0654 26.9846 22.7962C27.0162 23.5535 26.4341 24.0779 25.4878 24.0962C24.4717 24.1112 23.4505 24.0962 22.4293 24.0962Z" fill="#A3CC01"/>
<path d="M75.3701 47.5754C75.3335 51.8217 71.8776 55.279 67.655 55.2774C63.4323 55.2757 59.8533 51.6802 59.9148 47.4938C59.978 43.2575 63.4589 39.7902 67.6533 39.7852C71.8909 39.7818 75.4067 43.329 75.3701 47.5754ZM72.8755 47.5005C72.8505 44.6191 70.4856 42.2604 67.6367 42.2787C66.2534 42.3006 64.933 42.8608 63.9553 43.8406C62.9777 44.8203 62.4197 46.1426 62.3995 47.5271C62.3895 50.4035 64.8443 52.8304 67.7065 52.7738C69.0904 52.7585 70.4118 52.1949 71.3815 51.2066C72.3512 50.2183 72.8902 48.8857 72.8805 47.5005H72.8755Z" fill="#A3CC01"/>
</g>
<defs>
<clipPath id="clip0_240_3015">
<rect width="85" height="69" fill="white" transform="translate(0.955078 0.0566406)"/>
</clipPath>
</defs>
</svg>
