<svg width="79" height="59" viewBox="0 0 79 59" fill="none" xmlns="http://www.w3.org/2000/svg">
<g clip-path="url(#clip0_240_3036)">
<path d="M-0.00121688 3.27317C0.125554 2.95846 0.232221 2.64373 0.37909 2.34633C1.16291 0.75863 2.47083 0.0301021 4.18069 0.009646C5.51797 -0.00766297 6.85524 0.009646 8.19252 0.009646C30.2249 0.009646 52.2568 0.009646 74.2882 0.009646C74.8786 -0.00525059 75.4687 0.0475331 76.0475 0.167C77.6213 0.53993 78.7855 1.95455 78.9679 3.6288C78.9937 3.91544 79.004 4.2033 78.9988 4.49109C78.9988 21.1602 78.9988 37.8282 78.9988 54.4952C78.9988 56.6981 78.0016 58.2433 76.1928 58.772C75.6725 58.916 75.135 58.9859 74.5958 58.9797C51.1999 58.9892 27.8039 58.9939 4.40795 58.9939C2.12297 58.9939 0.697565 57.8736 -0.00585938 55.7209L-0.00121688 3.27317ZM31.6915 37.364C31.9374 37.0178 32.0889 36.7346 32.3099 36.5127C39.3256 29.3646 46.3449 22.2207 53.3678 15.081C55.5183 12.8938 57.7322 12.8922 59.878 15.081C65.1344 20.4311 70.3907 25.7775 75.6471 31.1202C75.8481 31.3247 76.0599 31.5151 76.3814 31.822V30.9046C76.3814 22.162 76.3814 13.4199 76.3814 4.67834C76.3814 3.10479 75.9779 2.69254 74.4041 2.69254H4.57492C3.02894 2.69254 2.62851 3.1095 2.62851 4.70822C2.62851 14.3415 2.62851 23.9737 2.62851 33.6048V34.508C2.92998 34.2232 3.11705 34.0595 3.29175 33.8786C6.40331 30.7158 9.51536 27.5535 12.628 24.3917C12.9798 24.0117 13.3772 23.6781 13.8107 23.3988C15.4695 22.4106 17.3664 22.7426 18.8583 24.2674C23.0742 28.56 27.2824 32.8652 31.6854 37.364H31.6915ZM16.5594 55.9711L16.8346 56.3126H17.368C36.4207 56.3126 55.474 56.3126 74.5278 56.3126C75.9347 56.3126 76.383 55.8578 76.383 54.4322C76.383 48.4401 76.383 42.4465 76.3953 36.4529C76.4075 36.1975 76.3644 35.9425 76.269 35.7059C76.1736 35.4693 76.0284 35.257 75.8434 35.0839C69.8821 29.0499 63.9311 23.0043 57.9903 16.9472C56.8695 15.8064 56.3763 15.8127 55.2292 16.9787C42.5913 29.8377 29.9502 42.6946 17.3061 55.5494C17.1005 55.7445 16.8083 55.8326 16.5532 55.9711H16.5594ZM29.7003 39.1625C29.6523 39.0691 29.5965 38.9801 29.5334 38.8966C25.318 34.605 21.0995 30.3161 16.8779 26.0297C16.1265 25.2681 15.4355 25.3264 14.6146 26.1603C10.7589 30.0785 6.91036 34.004 3.0691 37.9368C2.81847 38.212 2.67217 38.5689 2.65633 38.9438C2.63005 44.1223 2.63625 49.3024 2.63934 54.481C2.63934 55.8437 3.10314 56.3079 4.45743 56.311C7.00212 56.311 9.5468 56.3 12.09 56.3252C12.3293 56.3368 12.5682 56.2946 12.7897 56.2016C13.0112 56.1086 13.2099 55.967 13.3716 55.787C17.4313 51.6329 21.5025 47.4892 25.5849 43.356L29.7003 39.1625Z" fill="#A3CC01"/>
<path d="M40.8102 17.4129C40.8049 19.543 39.9721 21.5846 38.4936 23.0922C37.015 24.5997 35.0107 25.4509 32.9179 25.46C28.5891 25.46 25.0009 21.8063 25.0117 17.4176C25.021 13.0715 28.6061 9.41618 32.8746 9.39258C34.9679 9.39827 36.9747 10.2433 38.4601 11.7446C39.9455 13.2459 40.7899 15.2824 40.8102 17.4129ZM38.1619 17.4129C38.1619 15.994 37.6081 14.6332 36.6224 13.6299C35.6366 12.6266 34.2996 12.0629 32.9056 12.0629C31.5115 12.0629 30.1745 12.6266 29.1887 13.6299C28.203 14.6332 27.6492 15.994 27.6492 17.4129C27.6245 20.3429 30.0532 22.7944 32.955 22.7724C34.3422 22.762 35.6688 22.1928 36.6447 21.1892C37.6205 20.1857 38.1661 18.8296 38.1619 17.4176V17.4129Z" fill="#A3CC01"/>
</g>
<defs>
<clipPath id="clip0_240_3036">
<rect width="79" height="59" fill="white"/>
</clipPath>
</defs>
</svg>
