<svg width="75" height="75" viewBox="0 0 75 75" fill="none" xmlns="http://www.w3.org/2000/svg">
<g clip-path="url(#clip0_240_3025)">
<path d="M59.5062 8.95292H60.7131C64.6372 8.95292 68.5612 8.95292 72.4833 8.95292C73.8052 8.95292 74.2947 9.43047 74.2947 10.7224C74.2947 29.0835 74.2947 47.4446 74.2947 65.8058C74.2947 70.7593 70.4479 74.5973 65.5032 74.6052C46.7101 74.629 27.917 74.629 9.12381 74.6052C7.96474 74.6185 6.81473 74.4001 5.74127 73.9628C4.66782 73.5255 3.69256 72.8782 2.87283 72.0588C2.0531 71.2394 1.4054 70.2645 0.967773 69.1914C0.530146 68.1183 0.311434 66.9686 0.324448 65.8097C0.303309 44.6746 0.303309 23.5395 0.324448 2.40437C0.324448 1.09663 0.802072 0.621094 2.10811 0.621094H57.6948C59.0702 0.621094 59.5062 1.0649 59.5101 2.46774C59.5121 4.58786 59.5062 6.6941 59.5062 8.95292ZM59.1514 71.859C57.0447 69.5585 56.7157 66.9787 56.7217 64.2384C56.7521 44.3899 56.7574 24.5427 56.7376 4.69683V3.47035H3.07522V65.1459C3.07522 69.4555 5.4911 71.8531 9.82737 71.8531H59.1514V71.859ZM59.5082 11.7646V13.003C59.5082 30.3404 59.5082 47.6784 59.5082 65.0172C59.5082 65.3461 59.5082 65.677 59.5201 66.0079C59.7183 69.2812 62.2035 71.7738 65.3486 71.8531C68.8089 71.9383 71.5221 69.2514 71.5241 65.669C71.5347 47.9353 71.5347 30.2016 71.5241 12.4679C71.5241 12.246 71.4983 12.0261 71.4824 11.7666L59.5082 11.7646Z" fill="#A3CC01"/>
<path d="M29.9837 9.25391H48.6745C50.5275 9.25391 50.8307 9.54916 50.8307 11.3562C50.8307 16.3666 50.8307 21.3769 50.8307 26.3872C50.8307 28.1071 50.4661 28.4637 48.73 28.4637C36.2021 28.4637 23.6755 28.4637 11.1503 28.4637C9.34283 28.4637 9 28.1249 9 26.3436C9 21.3346 9 16.3243 9 11.3126C9 9.57889 9.32895 9.25589 11.0948 9.25589L29.9837 9.25391ZM11.8399 12.0814V25.6343H47.9828V12.0814H11.8399Z" fill="#A3CC01"/>
<path d="M29.8866 32.1012H48.8786C50.4046 32.1012 50.8188 32.5074 50.8267 34.0251C50.8347 35.9035 50.8347 37.7826 50.8267 39.6623C50.8168 41.0354 50.4086 41.4713 49.0728 41.4733C36.3111 41.4733 23.5506 41.4733 10.7916 41.4733C9.43598 41.4733 9.0079 41.0335 9.0079 39.7059C8.99997 37.7602 8.99997 35.815 9.0079 33.8706C9.0079 32.5629 9.47761 32.1032 10.8074 32.1032C17.1678 32.0992 23.5275 32.0986 29.8866 32.1012ZM11.8003 38.6399H48.0026V34.9386H11.8043L11.8003 38.6399Z" fill="#A3CC01"/>
<path d="M41.5604 67.3227C39.0236 67.3227 36.4849 67.3227 33.9482 67.3227C32.6976 67.3227 32.2141 66.8511 32.2101 65.5889C32.1982 61.5032 32.1982 57.4175 32.2101 53.3319C32.2101 52.1173 32.6917 51.6398 33.8847 51.6378C38.9926 51.6285 44.0992 51.6285 49.2044 51.6378C50.3677 51.6378 50.8176 52.0876 50.8215 53.2685C50.8374 57.4202 50.8374 61.5719 50.8215 65.7237C50.8215 66.8749 50.336 67.3088 49.1707 67.3227C46.6339 67.3286 44.0972 67.3227 41.5604 67.3227ZM35.0481 54.4435V64.4734H47.9856V54.4435H35.0481Z" fill="#A3CC01"/>
<path d="M41.4712 47.9025C38.9344 47.9025 36.3977 47.9164 33.8609 47.9025C32.5509 47.9025 31.7721 46.7612 32.4618 45.83C32.6258 45.6376 32.8268 45.4801 33.0529 45.3667C33.2789 45.2534 33.5253 45.1865 33.7777 45.1701C38.9483 45.1245 44.1209 45.1345 49.2935 45.1484C50.2428 45.1484 50.7879 45.6655 50.8097 46.4759C50.8315 47.324 50.2587 47.8946 49.2777 47.9005C46.6755 47.9144 44.0734 47.9025 41.4712 47.9025Z" fill="#A3CC01"/>
<path d="M18.4058 45.1354C20.8772 45.1354 23.3485 45.1354 25.8199 45.1354C26.9595 45.1354 27.6036 45.6525 27.6036 46.5224C27.6036 47.3922 26.9436 47.9094 25.808 47.9094C20.7992 47.9094 15.7911 47.9094 10.7837 47.9094C9.63818 47.9094 8.99999 47.3981 9.01188 46.5224C9.02377 45.6466 9.62229 45.1571 10.7955 45.1552C13.3323 45.1294 15.8691 45.1354 18.4058 45.1354Z" fill="#A3CC01"/>
<path d="M18.3147 67.3237C15.7779 67.3237 13.2391 67.3237 10.7024 67.3237C9.60443 67.3237 9.01582 66.8383 9.00789 65.9704C8.99996 65.1025 9.61833 64.5656 10.6746 64.5636C15.7482 64.5517 20.8224 64.5517 25.8972 64.5636C26.9495 64.5636 27.5896 65.1105 27.5996 65.9506C27.6095 66.7907 26.9832 67.3376 25.9249 67.3376C23.3882 67.3297 20.8514 67.3237 18.3147 67.3237Z" fill="#A3CC01"/>
<path d="M18.2682 54.392C15.8642 54.392 13.4583 54.392 11.0543 54.392C10.6579 54.392 10.1506 54.4455 9.91277 54.2335C9.5164 53.8808 9.04473 53.3082 9.08437 52.8723C9.12401 52.4364 9.71457 52.0103 10.1446 51.6834C10.3428 51.5368 10.7194 51.6319 11.0147 51.6319H25.5436C25.8072 51.6319 26.0707 51.6319 26.3363 51.6497C27.1092 51.723 27.5432 52.1867 27.5908 52.9297C27.6317 53.2487 27.5477 53.5711 27.3564 53.8295C27.1651 54.088 26.8812 54.2626 26.5642 54.3167C26.2104 54.3899 25.8491 54.4205 25.4881 54.4079C23.0782 54.4019 20.6742 54.392 18.2682 54.392Z" fill="#A3CC01"/>
<path d="M18.3007 60.8441C15.7977 60.8441 13.2946 60.8441 10.7895 60.8441C9.60041 60.8441 9.00586 60.3706 9.00586 59.4769C9.00586 58.5833 9.62023 58.09 10.7895 58.09C15.7957 58.0794 20.8025 58.0794 25.8099 58.09C27.2448 58.09 28.0791 59.1401 27.3954 60.1091C27.114 60.5053 26.4322 60.8065 25.9209 60.8203C23.3762 60.8818 20.8375 60.8441 18.3007 60.8441Z" fill="#A3CC01"/>
</g>
<defs>
<clipPath id="clip0_240_3025">
<rect width="74" height="74" fill="white" transform="translate(0.302734 0.634766)"/>
</clipPath>
</defs>
</svg>
