<svg width="518" height="347" viewBox="0 0 518 347" fill="none" xmlns="http://www.w3.org/2000/svg">
<path d="M204.318 284.885V287.885H207.318V284.885H204.318ZM155.358 284.885H152.358V287.885H155.358V284.885ZM155.358 196.181H158.358V193.181H155.358V196.181ZM70.1097 196.181V193.181H67.1097V196.181H70.1097ZM70.1097 284.885V287.885H73.1097V284.885H70.1097ZM21.1497 284.885H18.1497V287.885H21.1497V284.885ZM21.1497 75.0768V72.0768H18.1497V75.0768H21.1497ZM70.1097 75.0768H73.1097V72.0768H70.1097V75.0768ZM70.1097 162.773H67.1097V165.773H70.1097V162.773ZM155.358 162.773V165.773H158.358V162.773H155.358ZM155.358 75.0768V72.0768H152.358V75.0768H155.358ZM204.318 75.0768H207.318V72.0768H204.318V75.0768ZM204.318 281.885H155.358V287.885H204.318V281.885ZM158.358 284.885V196.181H152.358V284.885H158.358ZM155.358 193.181H70.1097V199.181H155.358V193.181ZM67.1097 196.181V284.885H73.1097V196.181H67.1097ZM70.1097 281.885H21.1497V287.885H70.1097V281.885ZM24.1497 284.885V75.0768H18.1497V284.885H24.1497ZM21.1497 78.0768H70.1097V72.0768H21.1497V78.0768ZM67.1097 75.0768V162.773H73.1097V75.0768H67.1097ZM70.1097 165.773H155.358V159.773H70.1097V165.773ZM158.358 162.773V75.0768H152.358V162.773H158.358ZM155.358 78.0768H204.318V72.0768H155.358V78.0768ZM201.318 75.0768V284.885H207.318V75.0768H201.318ZM319.617 246.005H316.617V249.005H319.617V246.005ZM397.377 246.005H400.377V243.005H397.377V246.005ZM397.377 284.885V287.885H400.377V284.885H397.377ZM270.945 284.885H267.945V287.885H270.945V284.885ZM270.945 75.0768V72.0768H267.945V75.0768H270.945ZM319.617 75.0768H322.617V72.0768H319.617V75.0768ZM319.617 249.005H397.377V243.005H319.617V249.005ZM394.377 246.005V284.885H400.377V246.005H394.377ZM397.377 281.885H270.945V287.885H397.377V281.885ZM273.945 284.885V75.0768H267.945V284.885H273.945ZM270.945 78.0768H319.617V72.0768H270.945V78.0768ZM316.617 75.0768V246.005H322.617V75.0768H316.617ZM497.137 284.885V287.885H500.137V284.885H497.137ZM448.177 284.885H445.177V287.885H448.177V284.885ZM448.177 75.0768V72.0768H445.177V75.0768H448.177ZM497.137 75.0768H500.137V72.0768H497.137V75.0768ZM497.137 281.885H448.177V287.885H497.137V281.885ZM451.177 284.885V75.0768H445.177V284.885H451.177ZM448.177 78.0768H497.137V72.0768H448.177V78.0768ZM494.137 75.0768V284.885H500.137V75.0768H494.137Z" fill="#A3CC01"/>
<g filter="url(#filter0_d_682_309)">
<path d="M101.862 150.556V159.132H88.7417V197.18H77.9257V159.132H64.8057V150.556H101.862ZM148.062 197.18H137.182V177.468H118.238V197.18H107.358V150.556H118.238V170.044H137.182V150.556H148.062V197.18ZM198.932 197.18H190.548C189.609 197.18 188.852 196.966 188.276 196.54C187.7 196.092 187.262 195.526 186.964 194.844L184.212 186.716H166.484L163.732 194.844C163.497 195.441 163.07 195.985 162.452 196.476C161.854 196.945 161.108 197.18 160.212 197.18H151.764L169.812 150.556H180.884L198.932 197.18ZM168.98 179.356H181.716L177.428 166.588C177.108 165.777 176.766 164.828 176.404 163.74C176.041 162.63 175.678 161.436 175.316 160.156C174.974 161.457 174.622 162.662 174.26 163.772C173.918 164.881 173.588 165.841 173.268 166.652L168.98 179.356ZM170.484 137.436C170.974 137.436 171.401 137.457 171.764 137.5C172.126 137.521 172.446 137.585 172.724 137.692C173.022 137.777 173.289 137.916 173.524 138.108C173.78 138.3 174.046 138.566 174.324 138.908L181.012 147.548H173.78C173.396 147.548 173.065 147.548 172.788 147.548C172.51 147.526 172.244 147.484 171.988 147.42C171.753 147.356 171.518 147.27 171.284 147.164C171.07 147.036 170.836 146.854 170.58 146.62L160.18 137.436H170.484ZM208.304 150.556C208.773 150.556 209.168 150.577 209.488 150.62C209.808 150.662 210.096 150.748 210.352 150.876C210.608 150.982 210.853 151.142 211.088 151.356C211.322 151.569 211.589 151.857 211.888 152.22L234.032 180.22C233.946 179.324 233.882 178.46 233.84 177.628C233.797 176.774 233.776 175.974 233.776 175.228V150.556H243.312V197.18H237.68C236.848 197.18 236.144 197.052 235.568 196.796C235.013 196.518 234.458 196.049 233.904 195.388L211.92 167.612C211.984 168.422 212.037 169.222 212.08 170.012C212.122 170.78 212.144 171.505 212.144 172.188V197.18H202.608V150.556H208.304ZM293.062 197.18H282.182V177.468H263.238V197.18H252.358V150.556H263.238V170.044H282.182V150.556H293.062V197.18ZM348.487 150.556V159.132H335.367V197.18H324.551V159.132H311.431V150.556H348.487ZM373.439 188.636C374.889 188.636 376.18 188.401 377.311 187.932C378.463 187.441 379.433 186.748 380.223 185.852C381.012 184.956 381.609 183.868 382.015 182.588C382.441 181.286 382.655 179.814 382.655 178.172V150.556H393.471V157.18C395.177 157.137 396.415 156.817 397.183 156.22C397.951 155.622 398.335 154.908 398.335 154.076C398.335 153.713 398.271 153.382 398.143 153.084C398.015 152.785 397.876 152.465 397.727 152.124C397.577 151.782 397.439 151.42 397.311 151.036C397.183 150.63 397.119 150.15 397.119 149.596C397.119 148.316 397.524 147.366 398.335 146.748C399.167 146.108 400.479 145.788 402.271 145.788H407.391C407.519 146.236 407.625 146.801 407.711 147.484C407.796 148.145 407.839 148.828 407.839 149.532C407.839 151.196 407.561 152.774 407.007 154.268C406.473 155.761 405.62 157.084 404.447 158.236C403.273 159.366 401.78 160.273 399.967 160.956C398.153 161.617 395.988 161.958 393.471 161.98V178.172C393.471 181.03 393.001 183.654 392.063 186.044C391.145 188.433 389.823 190.492 388.095 192.22C386.367 193.948 384.265 195.292 381.791 196.252C379.316 197.212 376.532 197.692 373.439 197.692C370.324 197.692 367.529 197.212 365.055 196.252C362.58 195.292 360.479 193.948 358.751 192.22C357.023 190.492 355.7 188.433 354.783 186.044C353.865 183.654 353.407 181.03 353.407 178.172V150.556H364.223V178.14C364.223 179.782 364.425 181.254 364.831 182.556C365.257 183.836 365.865 184.934 366.655 185.852C367.444 186.748 368.404 187.441 369.535 187.932C370.687 188.401 371.988 188.636 373.439 188.636ZM379.135 204.54C379.135 205.222 378.996 205.862 378.719 206.46C378.441 207.078 378.057 207.612 377.567 208.06C377.097 208.529 376.543 208.892 375.903 209.148C375.263 209.425 374.58 209.564 373.855 209.564C373.151 209.564 372.489 209.425 371.871 209.148C371.252 208.892 370.708 208.529 370.239 208.06C369.791 207.612 369.428 207.078 369.151 206.46C368.873 205.862 368.735 205.222 368.735 204.54C368.735 203.836 368.873 203.174 369.151 202.556C369.428 201.958 369.791 201.425 370.239 200.956C370.708 200.508 371.252 200.145 371.871 199.868C372.489 199.612 373.151 199.484 373.855 199.484C374.58 199.484 375.263 199.612 375.903 199.868C376.543 200.145 377.097 200.508 377.567 200.956C378.057 201.425 378.441 201.958 378.719 202.556C378.996 203.174 379.135 203.836 379.135 204.54ZM430.814 188.636C432.264 188.636 433.555 188.401 434.686 187.932C435.838 187.441 436.808 186.748 437.598 185.852C438.387 184.956 438.984 183.868 439.39 182.588C439.816 181.286 440.03 179.814 440.03 178.172V150.556H450.846V178.172C450.846 181.03 450.376 183.654 449.438 186.044C448.52 188.433 447.198 190.492 445.47 192.22C443.742 193.948 441.64 195.292 439.166 196.252C436.691 197.212 433.907 197.692 430.814 197.692C427.699 197.692 424.904 197.212 422.43 196.252C419.955 195.292 417.854 193.948 416.126 192.22C414.398 190.492 413.075 188.433 412.158 186.044C411.24 183.654 410.782 181.03 410.782 178.172V150.556H421.598V178.14C421.598 179.782 421.8 181.254 422.206 182.556C422.632 183.836 423.24 184.934 424.03 185.852C424.819 186.748 425.779 187.441 426.91 187.932C428.062 188.401 429.363 188.636 430.814 188.636Z" fill="white"/>
</g>
<defs>
<filter id="filter0_d_682_309" x="60.8066" y="137.436" width="394.039" height="80.1289" filterUnits="userSpaceOnUse" color-interpolation-filters="sRGB">
<feFlood flood-opacity="0" result="BackgroundImageFix"/>
<feColorMatrix in="SourceAlpha" type="matrix" values="0 0 0 0 0 0 0 0 0 0 0 0 0 0 0 0 0 0 127 0" result="hardAlpha"/>
<feOffset dy="4"/>
<feGaussianBlur stdDeviation="2"/>
<feComposite in2="hardAlpha" operator="out"/>
<feColorMatrix type="matrix" values="0 0 0 0 0 0 0 0 0 0 0 0 0 0 0 0 0 0 0.25 0"/>
<feBlend mode="normal" in2="BackgroundImageFix" result="effect1_dropShadow_682_309"/>
<feBlend mode="normal" in="SourceGraphic" in2="effect1_dropShadow_682_309" result="shape"/>
</filter>
</defs>
</svg>
