<svg width="54" height="54" viewBox="0 0 54 54" fill="none" xmlns="http://www.w3.org/2000/svg">
<g clip-path="url(#clip0_240_2253)">
<path d="M53.8394 15.5322C53.665 16.6307 53.4875 17.7282 53.3143 18.8278C53.2344 19.3445 53.1767 19.8654 53.0926 20.3822C52.9876 21.0459 52.5759 21.3389 51.9027 21.2434C50.8665 21.0977 49.8303 20.9486 48.7941 20.796C48.3677 20.7329 47.9875 20.7865 47.7365 21.1835C47.4729 21.6036 47.6 21.9785 47.8741 22.3388C48.486 23.1468 49.0941 23.9568 49.6983 24.769C50.2098 25.4569 50.1457 25.8854 49.4547 26.4063C48.1853 27.3621 46.9139 28.3146 45.6403 29.264C44.9419 29.7892 44.5208 29.7261 44.0009 29.0414C43.3988 28.2481 42.8012 27.452 42.2082 26.6531C41.9404 26.2908 41.6222 26.0314 41.1496 26.1438C40.6497 26.2635 40.4911 26.6689 40.427 27.1257C40.287 28.1291 40.1469 29.1314 40.0069 30.1326C39.9019 30.8594 39.5532 31.1555 38.8317 31.0599C37.1703 30.8394 35.5117 30.6038 33.8558 30.3531C33.1112 30.2387 32.8718 29.9005 32.9652 29.1485C33.0807 28.2138 33.2236 27.2822 33.3538 26.3486C33.3759 26.1931 33.4452 26.0188 33.399 25.8844C33.2939 25.5693 33.1963 25.2112 32.9715 25.0022C32.6774 24.7291 32.2794 24.832 31.9581 25.0694C31.1578 25.6607 30.3628 26.2593 29.5657 26.8548C28.7066 27.4997 28.3432 27.4503 27.7047 26.6006C26.7819 25.3718 25.8594 24.1427 24.9373 22.9133C24.4059 22.2001 24.4689 21.7758 25.1789 21.2413C25.9729 20.6416 26.7668 20.0408 27.5681 19.4559C27.9368 19.1828 28.1647 18.8467 28.0397 18.3815C27.92 17.9383 27.5681 17.7702 27.1344 17.7125C26.1493 17.5822 25.1642 17.4384 24.1801 17.2924C23.2938 17.1621 23.0249 16.8261 23.1436 15.946C23.3641 14.3391 23.5973 12.7333 23.843 11.1285C23.9585 10.3744 24.3398 10.1077 25.0823 10.2116C26.102 10.3555 27.1218 10.4942 28.1384 10.6569C28.5774 10.7263 28.9481 10.657 29.1939 10.2705C29.4575 9.85877 29.3315 9.47754 29.0542 9.1152C28.4503 8.32332 27.8464 7.53249 27.2688 6.72276C27.0735 6.44969 26.9538 6.12309 26.8015 5.81957L26.8582 5.63262C25.7303 5.79856 24.5845 5.88676 23.4775 6.14302C17.5144 7.51884 12.8399 12.5495 12.0774 18.6157C11.3181 24.6482 13.4427 29.5297 18.3567 33.1688C19.0551 33.6866 19.7661 34.2117 20.3521 34.8408C21.2784 35.827 21.7174 37.0642 21.7562 38.4179C21.7898 39.6225 21.7625 40.8282 21.773 42.0328C21.7835 43.2375 22.4756 43.9705 23.6855 43.98C25.9736 43.9989 28.262 43.9989 30.5508 43.98C31.769 43.9695 32.4517 43.2532 32.459 42.037C32.459 40.9721 32.4464 39.9061 32.459 38.8412C32.4937 36.6913 33.3612 34.9668 35.1203 33.7034C35.8134 33.2056 36.4971 32.6941 37.2375 32.1512L38.4137 33.4682C37.7385 33.9754 37.1262 34.4932 36.4593 34.9269C34.8976 35.9415 34.1772 37.3614 34.2307 39.2109C34.2591 40.1886 34.2391 41.1674 34.2307 42.1463C34.2255 43.3624 33.7214 44.3245 32.7709 45.0869C32.5916 45.2497 32.4821 45.4755 32.4653 45.7171C32.4391 47.1486 32.458 48.5811 32.4506 50.0136C32.439 52.2601 30.9477 53.765 28.7129 53.7881C27.6466 53.7986 26.5809 53.7986 25.516 53.7881C23.2843 53.7661 21.7835 52.2601 21.7646 50.0168C21.7531 48.5674 21.7741 47.1171 21.7489 45.6677C21.7318 45.4413 21.6261 45.2307 21.4548 45.0817C20.4949 44.3297 20.0087 43.354 19.9845 42.141C19.9698 41.3733 19.9845 40.6045 19.9845 39.6971C19.5571 40.1172 19.2074 40.4564 18.8597 40.7999C18.2139 41.4394 17.9261 41.4678 17.1794 40.9563C16.4789 40.4774 15.7805 39.9954 15.0191 39.4724C14.809 40.4354 14.6263 41.3166 14.431 42.1956C14.2797 42.8772 14.0109 43.0946 13.302 43.0978C12.2518 43.102 11.2036 43.102 10.1576 43.0978C9.48864 43.0978 9.21243 42.8699 9.06435 42.2135C8.86901 41.347 8.68522 40.4774 8.49513 39.6089C8.49513 39.5952 8.47202 39.5858 8.40166 39.5186L6.4577 40.8534C5.50515 41.5088 5.31822 41.4909 4.49485 40.6675C3.81501 39.9877 3.13586 39.3082 2.45742 38.629C1.82729 37.9915 1.79789 37.7038 2.3146 36.9486C2.78614 36.2576 3.25979 35.5686 3.7849 34.7999L1.51328 34.3052C1.34314 34.2674 1.17091 34.238 1.00182 34.2002C0.413701 34.0552 0.1711 33.7706 0.161648 33.1709C0.151846 32.0717 0.151846 30.9714 0.161648 29.87C0.161648 29.2745 0.413701 28.9784 1.00182 28.8461C1.89766 28.6455 2.7977 28.4606 3.77756 28.2505C3.25245 27.4881 2.77355 26.7897 2.29465 26.0892C1.78424 25.3425 1.81155 25.0484 2.45008 24.4088C3.20203 23.6547 3.95293 22.8985 4.71119 22.1497C5.2363 21.6299 5.57027 21.6036 6.18885 22.0227C6.92401 22.5205 7.65916 23.0256 8.46363 23.5812C8.64532 22.72 8.827 21.9292 8.97403 21.132C9.10216 20.4336 9.3395 19.8718 10.2038 19.9463C10.3624 17.8269 10.8025 15.8252 11.6741 13.9348C13.6535 9.63509 16.8573 6.64469 21.2857 4.96361C23.4453 4.13511 25.7642 3.80553 28.0691 3.99949C28.3172 4.03055 28.569 4.00841 28.8079 3.93452C29.0467 3.86064 29.2671 3.7367 29.4543 3.57099C30.0257 3.08578 30.6463 2.65833 31.2481 2.20568C31.9696 1.66796 32.3918 1.72153 32.9285 2.42729C33.5299 3.22057 34.1275 4.0163 34.7212 4.81448C34.9753 5.15686 35.2746 5.41102 35.7336 5.31334C36.2135 5.20832 36.4026 4.86173 36.4687 4.40697C36.6158 3.37144 36.7618 2.33382 36.9298 1.30039C37.0527 0.542113 37.4192 0.292147 38.1701 0.398221C39.7594 0.624373 41.3491 0.848439 42.9391 1.07039C43.7888 1.18802 44.0776 1.5661 43.9568 2.4357C43.8192 3.42082 43.6816 4.40594 43.5367 5.39001C43.4695 5.83846 43.5283 6.23754 43.9568 6.4833C44.3853 6.72905 44.7581 6.55893 45.112 6.29007C45.9197 5.67883 46.7273 5.06863 47.5422 4.4679C48.1724 4.00159 48.6303 4.0667 49.1081 4.69789C50.0883 5.99249 51.0626 7.29164 52.0309 8.59534C52.5255 9.26119 52.4562 9.67813 51.7799 10.1917C50.988 10.7945 50.1916 11.3897 49.3906 11.9771C49.0115 12.2575 48.7553 12.5905 48.8991 13.0883C49.0357 13.5619 49.419 13.6974 49.8622 13.7573C50.8473 13.8885 51.8303 14.0492 52.8175 14.169C53.023 14.1929 53.2207 14.2617 53.3965 14.3706C53.5724 14.4795 53.7222 14.6258 53.8352 14.7991L53.8394 15.5322ZM47.8993 25.3424C47.3889 24.6619 46.9132 24.037 46.449 23.4048C45.6928 22.3755 45.6088 21.2476 46.1948 20.2729C46.7808 19.2983 47.8636 18.8499 49.1417 19.0494C49.8916 19.166 50.6467 19.2595 51.4312 19.3645C51.6045 18.1672 51.7673 17.034 51.9374 15.8556C51.1403 15.7412 50.3852 15.6256 49.6269 15.5248C47.8804 15.2917 46.8228 13.9358 47.1306 12.3132C47.2713 11.5675 47.7019 11.0183 48.2995 10.5761C48.938 10.1035 49.5702 9.62141 50.2182 9.13305L48.0873 6.2974C47.2955 6.87504 46.5613 7.46634 45.7768 7.97045C44.504 8.78439 42.8709 8.34539 42.0958 7.04834C41.661 6.32053 41.7156 5.5486 41.8312 4.76197C41.9278 4.09822 42.017 3.43237 42.1137 2.74762L38.6028 2.25714C38.4778 3.08998 38.3518 3.86087 38.2489 4.63489C38.0892 5.84687 37.4507 6.67235 36.2755 7.01788C35.1539 7.3487 34.1047 6.92021 33.3065 5.86998C32.8339 5.24718 32.3613 4.62123 31.8772 3.97008L29.0343 6.10313C29.5741 6.82464 30.0845 7.48523 30.5739 8.16578C31.2565 9.12465 31.3437 10.1612 30.7367 11.1642C30.117 12.1914 29.1508 12.5852 27.9609 12.4182C27.1533 12.3058 26.3457 12.1966 25.4992 12.08C25.3322 13.2731 25.1705 14.42 25.0046 15.5941C25.8647 15.718 26.6565 15.8294 27.4484 15.9481C28.4703 16.1024 29.2338 16.6118 29.6539 17.5822C30.1485 18.748 29.8062 19.9526 28.7381 20.796C28.0869 21.3095 27.4159 21.7989 26.728 22.3199L28.8631 25.1629C29.5163 24.6724 30.1118 24.1504 30.7797 23.7492C31.287 23.4447 31.8761 23.1432 32.4485 23.1023C34.2339 22.9731 35.45 24.5285 35.1581 26.42C35.0425 27.1688 34.948 27.9218 34.8367 28.699L38.3497 29.1916C38.4547 28.4102 38.5597 27.7034 38.6532 26.9955C38.7414 26.3055 38.9357 25.6649 39.4367 25.1513C40.5856 23.9708 42.4109 24.0674 43.481 25.3876C44.0272 26.0629 44.5313 26.7697 45.0658 27.4723L47.8993 25.3424ZM3.95819 37.7122C4.25435 37.9716 4.54001 38.2005 4.79836 38.4547C5.05672 38.7088 5.31716 39.0092 5.57867 39.2949C6.23611 38.8454 6.80428 38.441 7.38715 38.0608C8.60226 37.2658 9.91502 37.8025 10.2427 39.2245C10.4023 39.9145 10.5441 40.6087 10.6901 41.2819H12.8084C12.9607 40.5793 13.0961 39.9166 13.2495 39.2508C13.5939 37.7647 14.9015 37.249 16.1712 38.0955C16.7341 38.4715 17.2886 38.8611 17.925 39.2991C18.467 38.732 18.9816 38.1638 19.5308 37.6313C19.7493 37.4212 19.7409 37.2564 19.6359 37.0011C19.0215 35.5256 17.6163 34.9185 16.4747 34.0017C14.9666 36.5894 12.3862 37.2448 10.332 36.6934C9.22896 36.3912 8.25084 35.7456 7.53935 34.8501C6.82786 33.9547 6.41996 32.856 6.37474 31.7132C6.33192 30.5513 6.68151 29.4089 7.36719 28.4701C8.26828 27.193 9.52014 26.4746 11.043 26.2194C10.8161 25.2668 10.5987 24.3552 10.3729 23.409C10.3309 23.5245 10.29 23.619 10.2679 23.7146C9.83101 25.3782 8.6075 25.8298 7.1792 24.8541C6.66354 24.5012 6.14999 24.1462 5.55346 23.7366C5.29406 24.0307 5.06827 24.3206 4.80781 24.5768C4.54736 24.8331 4.2323 25.0746 3.94454 25.3193C4.41293 26.0009 4.80467 26.5555 5.17959 27.1215C6.00507 28.365 5.48835 29.681 4.0422 30.0181C3.35326 30.1788 2.65907 30.3227 1.97643 30.4729V32.5817C2.67167 32.733 3.35117 32.8737 4.02751 33.0291C5.47786 33.36 6.01137 34.6791 5.19325 35.9162C4.82042 36.4781 4.42659 37.0316 3.95819 37.7122ZM11.9987 35.055C13.1276 35.0172 14.1926 34.3966 14.8941 33.1415C15.0684 32.8264 15.038 32.6342 14.7891 32.3748C13.6969 31.2364 12.7622 29.9729 12.1037 28.5373C11.8422 27.968 11.4977 27.9271 10.9915 28.0437C9.22923 28.449 8.04459 30.0517 8.21368 31.8172C8.39116 33.6677 9.83415 35.0036 11.9987 35.055ZM30.6736 49.3698H23.5595C23.5595 49.6922 23.5458 49.9716 23.5595 50.2478C23.6183 51.2582 24.3345 51.9776 25.3448 51.9965C26.5295 52.0196 27.7148 52.0196 28.9009 51.9965C29.3514 51.9993 29.7857 51.8286 30.1138 51.5199C30.4419 51.2112 30.6386 50.788 30.6631 50.3381C30.6904 50.0283 30.6736 49.7153 30.6736 49.3698ZM30.6537 47.5162V45.799H23.5983V47.5172L30.6537 47.5162Z" fill="#A3CC01"/>
<path d="M11.9109 0.122559C12.5138 2.48034 13.1166 4.83706 13.7331 7.24526L12.017 7.69897C11.4089 5.32753 10.8071 2.9729 10.2012 0.610909L11.7019 0.122559H11.9109Z" fill="#A3CC01"/>
<path d="M28.0017 37.7391H26.3287C26.1491 37.0207 26.0367 36.295 25.7847 35.6228C25.2722 34.2575 24.3259 33.2314 22.9911 32.6528C21.1007 31.8304 19.3741 30.7938 17.9437 29.2752C13.2387 24.2834 13.6599 15.9707 18.8732 11.502C19.372 11.0745 19.9076 10.6901 20.4548 10.2627C20.7888 10.7878 21.0849 11.2583 21.4 11.7562C21.2792 11.8612 21.19 11.9536 21.0765 12.0292C14.8424 16.4245 14.8802 25.3746 21.1753 29.6932C21.902 30.192 22.7285 30.5554 23.533 30.9282C25.9632 32.0552 27.3988 33.9424 27.9071 36.5523C27.9796 36.9241 27.9691 37.3116 28.0017 37.7391Z" fill="#A3CC01"/>
<path d="M3.59486 4.97168L9.82581 9.42153L8.79344 10.8719L2.5625 6.42101L3.59486 4.97168Z" fill="#A3CC01"/>
<path d="M8.20566 13.7358C8.35269 14.3418 8.48396 14.8785 8.62574 15.4635L1.51996 17.2426C1.37503 16.6734 1.23746 16.1283 1.08203 15.5181L8.20566 13.7358Z" fill="#A3CC01"/>
<path d="M42.584 39.3302C42.9778 38.8554 43.3401 38.4185 43.7193 37.9648L49.0565 42.4116C48.6784 42.8705 48.3213 43.3064 47.9222 43.7842L42.584 39.3302Z" fill="#A3CC01"/>
<path d="M38.7461 40.4565H40.4475V46.6267H38.7461V40.4565Z" fill="#A3CC01"/>
<path d="M44.0742 35.0444V33.3389H50.2411V35.0444H44.0742Z" fill="#A3CC01"/>
<path d="M27.9748 42.1703H26.2734V39.5688H27.9748V42.1703Z" fill="#A3CC01"/>
<path d="M45.5762 15.7492C45.5678 19.6802 42.3447 22.8845 38.4285 22.8541C34.5122 22.8236 31.3374 19.6267 31.3363 15.7292C31.3263 14.787 31.5034 13.8521 31.8573 12.9788C32.2112 12.1055 32.735 11.3111 33.3982 10.6417C34.0614 9.97226 34.8509 9.44116 35.7209 9.07915C36.5909 8.71713 37.5241 8.5314 38.4664 8.53272C39.4087 8.53404 40.3414 8.72239 41.2103 9.08684C42.0793 9.45129 42.8673 9.98461 43.5287 10.6559C44.19 11.3271 44.7115 12.123 45.063 12.9973C45.4145 13.8716 45.5889 14.807 45.5762 15.7492ZM43.7909 15.724C43.7745 14.3211 43.2064 12.981 42.2097 11.9937C41.2129 11.0064 39.8675 10.4511 38.4645 10.4481C37.0616 10.445 35.7138 10.9944 34.7127 11.9775C33.7117 12.9605 33.1379 14.2981 33.1154 15.7009C33.0892 18.6027 35.5624 21.0834 38.4715 21.075C41.3806 21.0666 43.7951 18.6384 43.794 15.724H43.7909Z" fill="#A3CC01"/>
</g>
<defs>
<clipPath id="clip0_240_2253">
<rect width="53.6704" height="53.6704" fill="white" transform="translate(0.167969 0.122559)"/>
</clipPath>
</defs>
</svg>
