<svg width="54" height="54" viewBox="0 0 54 54" fill="none" xmlns="http://www.w3.org/2000/svg">
<g clip-path="url(#clip0_240_2265)">
<path d="M53.7495 15.5322C53.5752 16.6307 53.3977 17.7282 53.2244 18.8278C53.1446 19.3445 53.0868 19.8654 53.0028 20.3822C52.8978 21.0459 52.4861 21.3389 51.8129 21.2434C50.7767 21.0977 49.7405 20.9486 48.7043 20.796C48.2779 20.7329 47.8977 20.7865 47.6467 21.1835C47.3831 21.6036 47.5102 21.9785 47.7843 22.3388C48.3962 23.1468 49.0043 23.9568 49.6085 24.769C50.1199 25.4569 50.0559 25.8854 49.3649 26.4063C48.0955 27.3621 46.824 28.3146 45.5505 29.264C44.8521 29.7892 44.4309 29.7261 43.9111 29.0414C43.3089 28.2481 42.7114 27.452 42.1184 26.6531C41.8505 26.2908 41.5323 26.0314 41.0597 26.1438C40.5598 26.2635 40.4012 26.6689 40.3372 27.1257C40.1971 28.1291 40.0571 29.1314 39.9171 30.1326C39.812 30.8594 39.4634 31.1555 38.7419 31.0599C37.0804 30.8394 35.4218 30.6038 33.766 30.3531C33.0214 30.2387 32.7819 29.9005 32.8754 29.1485C32.9909 28.2138 33.1337 27.2822 33.264 26.3486C33.286 26.1931 33.3553 26.0188 33.3091 25.8844C33.2041 25.5693 33.1064 25.2112 32.8817 25.0022C32.5876 24.7291 32.1896 24.832 31.8682 25.0694C31.0679 25.6607 30.2729 26.2593 29.4758 26.8548C28.6167 27.4997 28.2534 27.4503 27.6148 26.6006C26.692 25.3718 25.7696 24.1427 24.8475 22.9133C24.3161 22.2001 24.3791 21.7758 25.089 21.2413C25.883 20.6416 26.677 20.0408 27.4783 19.4559C27.8469 19.1828 28.0748 18.8467 27.9498 18.3815C27.8301 17.9383 27.4783 17.7702 27.0446 17.7125C26.0595 17.5822 25.0743 17.4384 24.0903 17.2924C23.2039 17.1621 22.9351 16.8261 23.0537 15.946C23.2743 14.3391 23.5074 12.7333 23.7532 11.1285C23.8687 10.3744 24.2499 10.1077 24.9924 10.2116C26.0122 10.3555 27.032 10.4942 28.0486 10.6569C28.4876 10.7263 28.8583 10.657 29.104 10.2705C29.3676 9.85877 29.2416 9.47754 28.9644 9.1152C28.3605 8.32332 27.7566 7.53249 27.179 6.72276C26.9836 6.44969 26.8639 6.12309 26.7116 5.81957L26.7683 5.63262C25.6404 5.79856 24.4946 5.88676 23.3877 6.14302C17.4246 7.51884 12.75 12.5495 11.9876 18.6157C11.2283 24.6482 13.3529 29.5297 18.2668 33.1688C18.9652 33.6866 19.6762 34.2117 20.2623 34.8408C21.1885 35.827 21.6275 37.0642 21.6664 38.4179C21.7 39.6225 21.6727 40.8282 21.6832 42.0328C21.6937 43.2375 22.3858 43.9705 23.5956 43.98C25.8837 43.9989 28.1721 43.9989 30.4609 43.98C31.6792 43.9695 32.3618 43.2532 32.3692 42.037C32.3692 40.9721 32.3566 39.9061 32.3692 38.8412C32.4038 36.6913 33.2713 34.9668 35.0304 33.7034C35.7236 33.2056 36.4073 32.6941 37.1477 32.1512L38.3239 33.4682C37.6486 33.9754 37.0363 34.4932 36.3695 34.9269C34.8078 35.9415 34.0873 37.3614 34.1409 39.2109C34.1692 40.1886 34.1493 41.1674 34.1409 42.1463C34.1356 43.3624 33.6315 44.3245 32.6811 45.0869C32.5018 45.2497 32.3923 45.4755 32.3755 45.7171C32.3492 47.1486 32.3681 48.5811 32.3608 50.0136C32.3492 52.2601 30.8579 53.765 28.623 53.7881C27.5567 53.7986 26.4911 53.7986 25.4262 53.7881C23.1945 53.7661 21.6937 52.2601 21.6748 50.0168C21.6632 48.5674 21.6842 47.1171 21.659 45.6677C21.6419 45.4413 21.5363 45.2307 21.365 45.0817C20.4051 44.3297 19.9188 43.354 19.8947 42.141C19.88 41.3733 19.8947 40.6045 19.8947 39.6971C19.4672 40.1172 19.1175 40.4564 18.7699 40.7999C18.124 41.4394 17.8363 41.4678 17.0895 40.9563C16.389 40.4774 15.6906 39.9954 14.9292 39.4724C14.7192 40.4354 14.5365 41.3166 14.3411 42.1956C14.1899 42.8772 13.921 43.0946 13.2121 43.0978C12.1619 43.102 11.1138 43.102 10.0678 43.0978C9.3988 43.0978 9.12259 42.8699 8.97451 42.2135C8.77917 41.347 8.59537 40.4774 8.40528 39.6089C8.40528 39.5952 8.38218 39.5858 8.31181 39.5186L6.36786 40.8534C5.41531 41.5088 5.22838 41.4909 4.40501 40.6675C3.72516 39.9877 3.04602 39.3082 2.36758 38.629C1.73745 37.9915 1.70804 37.7038 2.22475 36.9486C2.6963 36.2576 3.16995 35.5686 3.69506 34.7999L1.42343 34.3052C1.2533 34.2674 1.08106 34.238 0.911979 34.2002C0.323857 34.0552 0.0812566 33.7706 0.0718047 33.1709C0.0620026 32.0717 0.0620026 30.9714 0.0718047 29.87C0.0718047 29.2745 0.323857 28.9784 0.911979 28.8461C1.80782 28.6455 2.70786 28.4606 3.68771 28.2505C3.1626 27.4881 2.6837 26.7897 2.2048 26.0892C1.6944 25.3425 1.7217 25.0484 2.36023 24.4088C3.11219 23.6547 3.86309 22.8985 4.62134 22.1497C5.14645 21.6299 5.48043 21.6036 6.09901 22.0227C6.83416 22.5205 7.56932 23.0256 8.37379 23.5812C8.55547 22.72 8.73716 21.9292 8.88419 21.132C9.01232 20.4336 9.24966 19.8718 10.114 19.9463C10.2726 17.8269 10.7126 15.8252 11.5843 13.9348C13.5636 9.63509 16.7675 6.64469 21.1959 4.96361C23.3555 4.13511 25.6744 3.80553 27.9793 3.99949C28.2273 4.03055 28.4792 4.00841 28.718 3.93452C28.9569 3.86064 29.1773 3.7367 29.3645 3.57099C29.9358 3.08578 30.5565 2.65833 31.1583 2.20568C31.8798 1.66796 32.302 1.72153 32.8386 2.42729C33.44 3.22057 34.0376 4.0163 34.6313 4.81448C34.8855 5.15686 35.1848 5.41102 35.6437 5.31334C36.1237 5.20832 36.3127 4.86173 36.3789 4.40697C36.5259 3.37144 36.6719 2.33382 36.84 1.30039C36.9628 0.542113 37.3293 0.292147 38.0802 0.398221C39.6696 0.624373 41.2593 0.848439 42.8493 1.07039C43.6989 1.18802 43.9877 1.5661 43.867 2.4357C43.7294 3.42082 43.5918 4.40594 43.4469 5.39001C43.3797 5.83846 43.4385 6.23754 43.867 6.4833C44.2954 6.72905 44.6683 6.55893 45.0222 6.29007C45.8298 5.67883 46.6374 5.06863 47.4524 4.4679C48.0825 4.00159 48.5404 4.0667 49.0183 4.69789C49.9985 5.99249 50.9727 7.29164 51.941 8.59534C52.4357 9.26119 52.3664 9.67813 51.69 10.1917C50.8982 10.7945 50.1017 11.3897 49.3008 11.9771C48.9217 12.2575 48.6654 12.5905 48.8093 13.0883C48.9458 13.5619 49.3291 13.6974 49.7723 13.7573C50.7574 13.8885 51.7404 14.0492 52.7276 14.169C52.9331 14.1929 53.1308 14.2617 53.3067 14.3706C53.4826 14.4795 53.6323 14.6258 53.7453 14.7991L53.7495 15.5322ZM47.8095 25.3424C47.2991 24.6619 46.8233 24.037 46.3591 23.4048C45.603 22.3755 45.519 21.2476 46.105 20.2729C46.691 19.2983 47.7738 18.8499 49.0519 19.0494C49.8017 19.166 50.5568 19.2595 51.3414 19.3645C51.5146 18.1672 51.6774 17.034 51.8476 15.8556C51.0504 15.7412 50.2953 15.6256 49.5371 15.5248C47.7906 15.2917 46.733 13.9358 47.0407 12.3132C47.1814 11.5675 47.612 11.0183 48.2096 10.5761C48.8482 10.1035 49.4804 9.62141 50.1283 9.13305L47.9975 6.2974C47.2056 6.87504 46.4715 7.46634 45.687 7.97045C44.4141 8.78439 42.781 8.34539 42.006 7.04834C41.5712 6.32053 41.6258 5.5486 41.7413 4.76197C41.8379 4.09822 41.9272 3.43237 42.0238 2.74762L38.5129 2.25714C38.388 3.08998 38.2619 3.86087 38.159 4.63489C37.9994 5.84687 37.3609 6.67235 36.1857 7.01788C35.064 7.3487 34.0149 6.92021 33.2167 5.86998C32.7441 5.24718 32.2715 4.62123 31.7873 3.97008L28.9444 6.10313C29.4842 6.82464 29.9946 7.48523 30.484 8.16578C31.1667 9.12465 31.2538 10.1612 30.6468 11.1642C30.0272 12.1914 29.061 12.5852 27.8711 12.4182C27.0635 12.3058 26.2558 12.1966 25.4094 12.08C25.2424 13.2731 25.0807 14.42 24.9147 15.5941C25.7749 15.718 26.5667 15.8294 27.3586 15.9481C28.3804 16.1024 29.1439 16.6118 29.564 17.5822C30.0587 18.748 29.7163 19.9526 28.6482 20.796C27.9971 21.3095 27.326 21.7989 26.6381 22.3199L28.7732 25.1629C29.4265 24.6724 30.0219 24.1504 30.6899 23.7492C31.1971 23.4447 31.7863 23.1432 32.3587 23.1023C34.144 22.9731 35.3602 24.5285 35.0682 26.42C34.9527 27.1688 34.8582 27.9218 34.7469 28.699L38.2599 29.1916C38.3649 28.4102 38.4699 27.7034 38.5634 26.9955C38.6516 26.3055 38.8459 25.6649 39.3468 25.1513C40.4958 23.9708 42.321 24.0674 43.3912 25.3876C43.9373 26.0629 44.4414 26.7697 44.976 27.4723L47.8095 25.3424ZM3.86835 37.7122C4.16451 37.9716 4.45017 38.2005 4.70852 38.4547C4.96687 38.7088 5.22732 39.0092 5.48883 39.2949C6.14626 38.8454 6.71444 38.441 7.29731 38.0608C8.51241 37.2658 9.82518 37.8025 10.1528 39.2245C10.3125 39.9145 10.4543 40.6087 10.6002 41.2819H12.7185C12.8708 40.5793 13.0063 39.9166 13.1596 39.2508C13.5041 37.7647 14.8116 37.249 16.0813 38.0955C16.6442 38.4715 17.1988 38.8611 17.8352 39.2991C18.3771 38.732 18.8917 38.1638 19.441 37.6313C19.6594 37.4212 19.651 37.2564 19.546 37.0011C18.9316 35.5256 17.5264 34.9185 16.3848 34.0017C14.8767 36.5894 12.2963 37.2448 10.2421 36.6934C9.13911 36.3912 8.161 35.7456 7.44951 34.8501C6.73802 33.9547 6.33012 32.856 6.2849 31.7132C6.24207 30.5513 6.59167 29.4089 7.27735 28.4701C8.17844 27.193 9.4303 26.4746 10.9531 26.2194C10.7263 25.2668 10.5089 24.3552 10.2831 23.409C10.2411 23.5245 10.2001 23.619 10.1781 23.7146C9.74116 25.3782 8.51765 25.8298 7.08936 24.8541C6.5737 24.5012 6.06015 24.1462 5.46362 23.7366C5.20422 24.0307 4.97842 24.3206 4.71797 24.5768C4.45751 24.8331 4.14245 25.0746 3.85469 25.3193C4.32309 26.0009 4.71482 26.5555 5.08975 27.1215C5.91522 28.365 5.39851 29.681 3.95236 30.0181C3.26341 30.1788 2.56923 30.3227 1.88658 30.4729V32.5817C2.58183 32.733 3.26132 32.8737 3.93766 33.0291C5.38802 33.36 5.92152 34.6791 5.1034 35.9162C4.73058 36.4781 4.33674 37.0316 3.86835 37.7122ZM11.9088 35.055C13.0378 35.0172 14.1027 34.3966 14.8043 33.1415C14.9786 32.8264 14.9481 32.6342 14.6992 32.3748C13.607 31.2364 12.6723 29.9729 12.0138 28.5373C11.7523 27.968 11.4079 27.9271 10.9017 28.0437C9.13939 28.449 7.95475 30.0517 8.12383 31.8172C8.30132 33.6677 9.74431 35.0036 11.9088 35.055ZM30.5838 49.3698H23.4696C23.4696 49.6922 23.456 49.9716 23.4696 50.2478C23.5284 51.2582 24.2447 51.9776 25.255 51.9965C26.4396 52.0196 27.625 52.0196 28.811 51.9965C29.2615 51.9993 29.6959 51.8286 30.0239 51.5199C30.352 51.2112 30.5488 50.788 30.5733 50.3381C30.6006 50.0283 30.5838 49.7153 30.5838 49.3698ZM30.5638 47.5162V45.799H23.5085V47.5172L30.5638 47.5162Z" fill="white"/>
<path d="M11.8211 0.122559C12.4239 2.48034 13.0267 4.83706 13.6432 7.24526L11.9272 7.69897C11.3191 5.32753 10.7173 2.9729 10.1113 0.610909L11.6121 0.122559H11.8211Z" fill="white"/>
<path d="M27.9118 37.7391H26.2388C26.0592 37.0207 25.9469 36.295 25.6948 35.6228C25.1823 34.2575 24.2361 33.2314 22.9012 32.6528C21.0108 31.8304 19.2843 30.7938 17.8539 29.2752C13.1489 24.2834 13.5701 15.9707 18.7833 11.502C19.2822 11.0745 19.8178 10.6901 20.365 10.2627C20.6989 10.7878 20.9951 11.2583 21.3102 11.7562C21.1894 11.8612 21.1001 11.9536 20.9867 12.0292C14.7526 16.4245 14.7904 25.3746 21.0854 29.6932C21.8122 30.192 22.6387 30.5554 23.4432 30.9282C25.8734 32.0552 27.309 33.9424 27.8173 36.5523C27.8898 36.9241 27.8793 37.3116 27.9118 37.7391Z" fill="white"/>
<path d="M3.50502 4.97168L9.73597 9.42153L8.7036 10.8719L2.47266 6.42101L3.50502 4.97168Z" fill="white"/>
<path d="M8.11581 13.7358C8.26284 14.3418 8.39412 14.8785 8.5359 15.4635L1.43012 17.2426C1.28519 16.6734 1.14762 16.1283 0.992188 15.5181L8.11581 13.7358Z" fill="white"/>
<path d="M42.4941 39.3302C42.888 38.8554 43.2503 38.4185 43.6294 37.9648L48.9666 42.4116C48.5886 42.8705 48.2315 43.3064 47.8324 43.7842L42.4941 39.3302Z" fill="white"/>
<path d="M38.6562 40.4565H40.3576V46.6267H38.6562V40.4565Z" fill="white"/>
<path d="M43.9844 35.0444V33.3389H50.1513V35.0444H43.9844Z" fill="white"/>
<path d="M27.8849 42.1703H26.1836V39.5688H27.8849V42.1703Z" fill="white"/>
<path d="M45.4864 15.7492C45.478 19.6802 42.2549 22.8845 38.3386 22.8541C34.4224 22.8236 31.2475 19.6267 31.2465 15.7292C31.2365 14.787 31.4135 13.8521 31.7675 12.9788C32.1214 12.1055 32.6452 11.3111 33.3084 10.6417C33.9716 9.97226 34.7611 9.44116 35.6311 9.07915C36.5011 8.71713 37.4343 8.5314 38.3766 8.53272C39.3189 8.53404 40.2515 8.72239 41.1205 9.08684C41.9895 9.45129 42.7775 9.98461 43.4388 10.6559C44.1001 11.3271 44.6217 12.123 44.9732 12.9973C45.3246 13.8716 45.4991 14.807 45.4864 15.7492ZM43.701 15.724C43.6846 14.3211 43.1166 12.981 42.1198 11.9937C41.1231 11.0064 39.7777 10.4511 38.3747 10.4481C36.9717 10.445 35.6239 10.9944 34.6229 11.9775C33.6219 12.9605 33.0481 14.2981 33.0256 15.7009C32.9993 18.6027 35.4726 21.0834 38.3817 21.075C41.2908 21.0666 43.7052 18.6384 43.7042 15.724H43.701Z" fill="white"/>
</g>
<defs>
<clipPath id="clip0_240_2265">
<rect width="53.6704" height="53.6704" fill="white" transform="translate(0.078125 0.122559)"/>
</clipPath>
</defs>
</svg>
