<svg width="25" height="25" viewBox="0 0 25 25" fill="none" xmlns="http://www.w3.org/2000/svg">
<path d="M13.2931 18.2695L18.2931 13.2695C18.3842 13.1744 18.4555 13.0623 18.5031 12.9395C18.6031 12.6961 18.6031 12.423 18.5031 12.1795C18.4555 12.0568 18.3842 11.9446 18.2931 11.8495L13.2931 6.84951C13.1999 6.75627 13.0892 6.68231 12.9674 6.63185C12.8455 6.58139 12.715 6.55542 12.5831 6.55542C12.3168 6.55542 12.0614 6.66121 11.8731 6.84951C11.6848 7.03782 11.579 7.29321 11.579 7.55951C11.579 7.82581 11.6848 8.08121 11.8731 8.26951L15.1731 11.5595L7.58311 11.5595C7.31789 11.5595 7.06354 11.6649 6.876 11.8524C6.68847 12.0399 6.58311 12.2943 6.58311 12.5595C6.58311 12.8247 6.68847 13.0791 6.876 13.2666C7.06354 13.4542 7.31789 13.5595 7.58311 13.5595L15.1731 13.5595L11.8731 16.8495C11.7794 16.9425 11.705 17.0531 11.6542 17.1749C11.6035 17.2968 11.5773 17.4275 11.5773 17.5595C11.5773 17.6915 11.6035 17.8222 11.6542 17.9441C11.705 18.0659 11.7794 18.1765 11.8731 18.2695C11.9661 18.3632 12.0767 18.4376 12.1985 18.4884C12.3204 18.5392 12.4511 18.5653 12.5831 18.5653C12.7151 18.5653 12.8458 18.5392 12.9677 18.4884C13.0895 18.4376 13.2001 18.3632 13.2931 18.2695Z" fill="#A3CC01"/>
</svg>
