<svg width="25" height="25" viewBox="0 0 25 25" fill="none" xmlns="http://www.w3.org/2000/svg">
<path d="M13.0685 7.27614L18.0685 12.2761C18.1595 12.3712 18.2309 12.4834 18.2785 12.6061C18.3785 12.8496 18.3785 13.1227 18.2785 13.3661C18.2309 13.4889 18.1595 13.601 18.0685 13.6961L13.0685 18.6961C12.9753 18.7894 12.8646 18.8633 12.7428 18.9138C12.6209 18.9643 12.4904 18.9902 12.3585 18.9902C12.0922 18.9902 11.8368 18.8844 11.6485 18.6961C11.4602 18.5078 11.3544 18.2524 11.3544 17.9861C11.3544 17.7198 11.4602 17.4644 11.6485 17.2761L14.9485 13.9861L7.3585 13.9861C7.09329 13.9861 6.83893 13.8808 6.6514 13.6932C6.46386 13.5057 6.3585 13.2514 6.3585 12.9861C6.3585 12.7209 6.46386 12.4666 6.6514 12.279C6.83893 12.0915 7.09329 11.9861 7.3585 11.9861L14.9485 11.9861L11.6485 8.69614C11.5548 8.60318 11.4804 8.49258 11.4296 8.37072C11.3788 8.24886 11.3527 8.11815 11.3527 7.98614C11.3527 7.85413 11.3788 7.72343 11.4296 7.60157C11.4804 7.47971 11.5548 7.36911 11.6485 7.27614C11.7415 7.18242 11.8521 7.10802 11.9739 7.05725C12.0958 7.00648 12.2265 6.98034 12.3585 6.98034C12.4905 6.98034 12.6212 7.00648 12.7431 7.05725C12.8649 7.10802 12.9755 7.18242 13.0685 7.27614Z" fill="white"/>
</svg>
