<svg width="86" height="85" viewBox="0 0 86 85" fill="none" xmlns="http://www.w3.org/2000/svg">
<g clip-path="url(#clip0_240_3245)">
<path d="M8.62782 16.4035H30.5374V5.46613H36.0307V2.72962H38.7568V5.38361H41.4811V0H44.2363V5.36815H46.9915V2.73306H49.7176V5.42315H55.2109V16.3898H77.1789V17.4744C77.1789 26.9135 77.1743 36.352 77.1651 45.79C77.1502 46.0536 77.2001 46.3169 77.3106 46.5566C77.421 46.7964 77.5886 47.0054 77.7986 47.1651C81.0001 49.9411 82.6361 53.4632 82.6584 57.7123C82.6756 61.0298 82.6584 64.3473 82.6584 67.6648C82.6584 70.5509 82.2224 71.6888 80.2551 73.8288C83.9682 76.5945 85.6574 80.3142 85.3724 85.0017H0.44454C0.216225 81.9575 0.908035 79.1849 2.67619 76.6719C2.95906 76.2614 3.11815 75.7781 3.13453 75.2796C3.16543 69.5029 3.17116 63.7256 3.1517 57.9478C3.1414 53.5302 4.82544 49.9119 8.12999 47.0104C8.42879 46.7013 8.59987 46.2905 8.60893 45.8605C8.63526 36.4225 8.64212 26.984 8.62953 17.5449L8.62782 16.4035ZM56.3507 52.131C58.0039 48.6623 60.4621 46.218 63.904 44.848C67.3768 43.4729 70.8633 43.5709 74.3756 44.9855V19.2191H49.8275C49.7897 19.2999 49.7691 19.324 49.7691 19.3497C49.7599 27.6108 49.7599 35.873 49.7691 44.1364C49.789 44.2636 49.8377 44.3846 49.9115 44.4901C49.9853 44.5955 50.0822 44.6827 50.1948 44.7449C53.3483 46.2025 55.3602 48.6176 56.3559 52.131H56.3507ZM11.4088 44.8721C19.3535 42.3986 25.3549 44.7672 29.4748 51.978C29.6276 51.5208 29.6997 51.0447 29.9297 50.6648C30.5735 49.6042 30.5666 48.4577 30.5649 47.2803C30.55 38.2491 30.55 29.218 30.5649 20.1869V19.2329H11.4139L11.4088 44.8721ZM33.3562 13.71V46.0891C35.0059 44.8549 36.7552 44.0848 38.6915 43.9559C40.5953 43.8304 42.5128 43.8923 44.4234 43.8751C45.268 43.8751 46.1126 43.8751 47.0379 43.8751V16.3726H52.4488V13.71H33.3562ZM27.8045 73.3561C27.8045 73.3424 27.8183 73.2031 27.8183 73.0639C27.8183 67.859 27.8303 62.6559 27.8063 57.4528C27.7977 56.6815 27.7032 55.9135 27.5247 55.1632C26.2613 49.7452 21.1371 46.053 15.7811 46.6615C10.0921 47.3129 5.91207 51.9299 5.88975 57.6264C5.87087 62.7161 5.88975 67.8058 5.88975 72.8954C5.89571 73.0442 5.91177 73.1924 5.93782 73.3389C7.62186 72.7957 9.2544 72.2268 10.9161 71.7575C11.4757 71.5994 11.6749 71.3312 11.8277 70.8138C11.9993 70.2569 11.632 70.1143 11.3281 69.8736C9.66296 68.5621 8.70336 66.8483 8.65701 64.7272C8.59349 61.8412 8.61924 58.9517 8.64671 56.0639C8.66035 55.2278 8.93409 54.4169 9.4298 53.7439C9.92552 53.071 10.6185 52.5697 11.4122 52.3098C13.0379 51.7735 14.8455 52.2565 15.8532 53.6849C17.1922 55.5585 18.9569 56.3544 21.2229 56.2427C22.4932 56.1791 23.767 56.2306 25.0871 56.2306C25.0871 58.9809 25.0871 61.6022 25.0871 64.2287C25.0871 66.5888 24.1755 68.4847 22.3284 69.9527C22.2098 70.0501 22.1124 70.1709 22.0421 70.3074C21.9718 70.444 21.9302 70.5935 21.9198 70.7468C21.9404 71.1765 22.0503 71.565 22.6529 71.73C24.3626 72.201 26.0484 72.794 27.8045 73.3578V73.3561ZM77.1789 56.3114C77.1789 59.0273 77.1892 61.7122 77.1789 64.3903C77.1668 66.6507 76.2536 68.4796 74.4854 69.8805C74.1799 70.1228 73.8383 70.2758 73.9928 70.8276C74.1473 71.3794 74.3361 71.6647 74.9163 71.7592C75.5601 71.8641 76.1798 72.1219 76.8252 72.2182C77.2002 72.2842 77.5864 72.2281 77.9273 72.0583C79.2835 71.2401 79.9221 69.9871 79.9238 68.4074C79.9238 64.8338 79.9238 61.2584 79.9238 57.6848C79.9178 57.0851 79.8697 56.4866 79.7796 55.8937C78.971 50.364 73.9842 46.3469 68.2969 46.6288C62.8671 46.8987 58.1944 51.5225 58.033 56.9629C57.9163 60.8768 57.9816 64.7977 58.0176 68.7151C58.0313 70.1916 58.7712 71.333 60.0329 72.091C60.3213 72.253 60.6555 72.3135 60.9823 72.2629C61.7417 72.1392 62.4866 71.9382 63.2053 71.663C63.5126 71.5358 63.7855 71.1129 63.892 70.7674C63.9555 70.5526 63.7409 70.1418 63.5298 69.9785C62.0715 68.8861 61.0975 67.2662 60.8157 65.4646C60.8087 65.437 60.8041 65.4088 60.802 65.3804C60.802 62.3585 60.802 59.3367 60.802 56.2306C61.2775 56.2306 61.7273 56.2444 62.1753 56.2306C64.2353 56.1602 65.9331 55.3368 67.1536 53.6626C67.403 53.2952 67.5478 52.8668 67.5725 52.4233C67.6326 51.4349 67.5914 50.4396 67.5914 49.4272H70.338C70.338 50.4774 70.3191 51.4744 70.35 52.4697C70.3434 52.8061 70.4276 53.1381 70.5938 53.4305C71.55 54.8297 72.8512 55.7734 74.5421 56.0708C75.3506 56.2117 76.209 56.2272 77.1789 56.3114ZM42.9076 80.4793L39.5069 75.9431C38.2263 74.2345 38.2229 74.2242 36.1698 74.7759C32.891 75.6629 30.7103 77.7256 29.6276 80.964C29.5052 81.3997 29.4055 81.8415 29.3289 82.2876H56.4005C56.3833 81.05 55.6727 79.3534 54.6839 78.0573C53.0393 75.907 50.7476 74.9495 48.1966 74.4046C47.6816 74.2946 47.4379 74.4218 47.1495 74.8137C45.7727 76.6702 44.3754 78.5128 42.8991 80.4793H42.9076ZM43.1634 51.6377C43.4093 51.96 43.6711 52.2698 43.9479 52.5659C45.2284 53.8563 46.9228 54.6525 48.7322 54.8142C50.4077 54.9861 52.1449 54.5994 53.7208 55.5379C54.5242 51.6858 51.5355 47.3215 47.5134 46.8488C44.5121 46.5025 41.4815 46.4956 38.4787 46.8282C35.1312 47.1978 33.0541 49.4358 32.182 52.6725C31.9468 53.5457 31.9914 54.4945 31.9228 55.2233C33.4832 55.0876 34.8583 55.0171 36.2144 54.8349C37.3062 54.6888 38.4718 54.6011 39.4366 54.137C40.6897 53.5371 41.7832 52.5865 43.1548 51.6377H43.1634ZM28.0088 77.4454C26.8072 75.9173 24.5343 74.7605 22.0881 74.4768C20.7542 76.9882 19.2419 78.145 17.0909 78.1828C14.4009 78.2309 12.6637 76.8163 11.6371 74.4407C6.9043 75.3088 3.47443 78.5472 3.34225 82.2601H26.366C26.9187 80.6151 27.4475 79.0629 28.0002 77.4454H28.0088ZM37.4504 57.5628C37.4504 60.0672 37.3525 62.5218 37.4813 64.9644C37.586 66.9687 39.3696 68.5088 41.3953 68.5741C42.3617 68.6085 43.3334 68.5999 44.3016 68.5741C45.384 68.5696 46.4209 68.1369 47.1861 67.3703C47.9514 66.6037 48.3831 65.5653 48.3872 64.4814C48.4112 63.3125 48.3872 62.142 48.3872 60.9714V57.5559C46.5086 57.3306 44.7166 56.6368 43.1754 55.5379C43.0975 55.4935 43.01 55.4685 42.9204 55.4649C42.8308 55.4613 42.7417 55.4793 42.6604 55.5173C41.1069 56.65 39.361 57.286 37.4401 57.5628H37.4504ZM22.3198 58.9757C21.9902 58.9757 21.7636 58.9654 21.537 58.9757C18.3149 59.1648 15.6747 58.1163 13.7177 55.4417C13.4722 55.0979 12.7701 54.9088 12.3152 54.9604C11.656 55.036 11.3779 55.6273 11.3796 56.3045C11.3796 59.0789 11.347 61.8532 11.3951 64.6258C11.4328 66.7813 13.201 68.5054 15.3622 68.5793C16.3596 68.6102 17.3604 68.6102 18.3595 68.5793C20.3852 68.5157 22.1568 66.9858 22.2924 64.9696C22.4177 63.0134 22.3095 61.0401 22.3095 58.9757H22.3198ZM69.0522 55.9419C68.1407 56.6139 67.3476 57.3273 66.4395 57.8326C65.5314 58.338 64.5117 58.6165 63.4886 59.0153C63.4886 60.9284 63.4113 62.9 63.5092 64.8595C63.6104 66.8947 65.3735 68.5019 67.4248 68.5758C68.393 68.6102 69.3647 68.5999 70.3346 68.5758C72.3379 68.538 74.1112 67.2316 74.3086 65.2532C74.5215 63.1441 74.3567 60.9954 74.3567 58.8571C72.3065 58.5162 70.4326 57.4884 69.0419 55.9419H69.0522ZM82.4661 82.2772C82.3065 78.5833 78.4355 74.8722 74.3876 74.5748C74.2333 77.315 73.3735 79.9685 71.8916 82.2772H82.4661ZM33.3699 8.2181V10.8601H52.4471V8.21294L33.3699 8.2181ZM55.2383 63.9571C54.7042 64.5477 54.0551 65.0226 53.331 65.3528C52.6068 65.683 51.8229 65.8614 51.0274 65.8771C50.2137 68.1788 49.982 68.5019 48.1984 70.0833C48.0353 70.2294 47.8979 70.599 47.9718 70.7709C48.116 71.1147 48.3683 71.5925 48.6584 71.6613C51.3587 72.2938 53.9062 73.2083 55.8838 75.2985L57.6674 73.7979C55.7156 72.079 55.0924 69.877 55.2298 67.3812C55.2847 66.312 55.2366 65.2377 55.2366 63.952L55.2383 63.9571ZM30.5941 74.6298C32.2987 73.2547 34.0737 72.3952 36.0668 71.9827C36.4858 71.8999 36.8997 71.7925 37.3062 71.6613C37.8401 71.4894 38.1199 70.434 37.6907 70.1332C36.1766 69.076 35.2462 67.6253 34.7913 65.86C33.1365 65.8445 31.794 65.1999 30.5941 64.0293V74.6298ZM66.0653 82.3202C64.4293 79.8639 63.6946 77.2632 63.4697 74.5009C61.1436 74.9048 59.1952 75.797 57.7876 77.411C58.3609 79.0973 58.8948 80.6769 59.4459 82.2961C59.5008 82.2961 59.6416 82.3185 59.7806 82.3185L66.0653 82.3202ZM19.156 71.345H14.5211C13.9615 73.2014 14.1778 74.1812 15.3159 74.9547C15.7849 75.2857 16.3479 75.4566 16.9214 75.442C17.495 75.4275 18.0487 75.2283 18.5003 74.8739C19.568 74.0643 19.7603 73.0381 19.156 71.345ZM42.9059 75.9053C43.6561 74.9031 44.2792 73.9852 44.9934 73.143C45.5084 72.5345 45.6114 71.9775 45.165 71.3398H40.4769C40.4769 71.8108 40.3052 72.3454 40.5078 72.6479C41.2116 73.7411 42.039 74.7536 42.8991 75.9053H42.9059ZM66.5253 71.3175C66.3949 72.2371 66.2695 73.112 66.1408 74.0196H71.7972C71.6392 73.0622 71.4967 72.1873 71.3543 71.3175H66.5253ZM68.7055 81.5553L69.0402 81.4865C70.1126 80.1327 70.8718 78.5576 71.2633 76.8747H66.4103C67.2223 78.5403 67.9587 80.0427 68.6986 81.5553H68.7055ZM51.1664 63.053C52.514 63.1372 53.8908 61.8497 53.865 60.3268C53.841 58.8554 52.7355 57.7295 51.1664 57.6453V63.053ZM34.6385 63.0805V57.6642C33.1485 57.678 32.0052 58.766 31.9365 60.2116C31.8593 61.7088 32.9133 62.8656 34.6385 63.0805V63.0805Z" fill="#A3CC01"/>
<path d="M71.6407 30.1088H69.0039V27.4531H71.6407V30.1088Z" fill="#A3CC01"/>
<path d="M52.5273 30.1049V27.4561H55.1882V30.1049H52.5273Z" fill="#A3CC01"/>
<path d="M60.6992 32.9639V35.5732H58.0332V32.9639H60.6992Z" fill="#A3CC01"/>
<path d="M66.1615 35.6018H63.5195V32.9443H66.1615V35.6018Z" fill="#A3CC01"/>
<path d="M68.9922 32.9326H71.6221V35.5815H68.9922V32.9326Z" fill="#A3CC01"/>
<path d="M55.2206 38.4453V41.0701H52.5547V38.4453H55.2206Z" fill="#A3CC01"/>
<path d="M60.6568 41.0924H58.0234V38.4453H60.6568V41.0924Z" fill="#A3CC01"/>
<path d="M63.5117 38.4258H66.1382V41.0712H63.5117V38.4258Z" fill="#A3CC01"/>
<path d="M69.0137 38.4141H71.6333V41.0835H69.0137V38.4141Z" fill="#A3CC01"/>
<path d="M71.6454 21.957V24.5904H69V21.957H71.6454Z" fill="#A3CC01"/>
<path d="M63.5332 21.9268H66.1391V24.5979H63.5332V21.9268Z" fill="#A3CC01"/>
<path d="M66.1352 30.1155H63.5156V27.4443H66.1352V30.1155Z" fill="#A3CC01"/>
<path d="M60.6771 27.4443V30.0743H58.0352V27.4443H60.6771Z" fill="#A3CC01"/>
<path d="M58.0137 24.5904V21.957H60.6779V24.5904H58.0137Z" fill="#A3CC01"/>
<path d="M55.2052 21.9541V24.5943H52.5547V21.9541H55.2052Z" fill="#A3CC01"/>
<path d="M55.1744 35.6004H52.541V32.9619H55.1744V35.6004Z" fill="#A3CC01"/>
<path d="M16.8094 32.9443V35.5743H14.1777V32.9443H16.8094Z" fill="#A3CC01"/>
<path d="M19.6406 32.9326H22.2722V35.5815H19.6406V32.9326Z" fill="#A3CC01"/>
<path d="M27.771 35.5949H25.1445V32.9443H27.771V35.5949Z" fill="#A3CC01"/>
<path d="M16.8178 38.4258V41.0695H14.1621V38.4258H16.8178Z" fill="#A3CC01"/>
<path d="M22.2906 41.0935H19.6504V38.4326H22.2906V41.0935Z" fill="#A3CC01"/>
<path d="M25.1348 38.4248H27.7767V41.065H25.1348V38.4248Z" fill="#A3CC01"/>
<path d="M27.7659 30.1314H25.1445V27.4619H27.7659V30.1314Z" fill="#A3CC01"/>
<path d="M22.281 30.1289H19.6699V27.4629H22.2878L22.281 30.1289Z" fill="#A3CC01"/>
<path d="M16.8042 30.1049H14.1777V27.4561H16.8076L16.8042 30.1049Z" fill="#A3CC01"/>
<path d="M27.7769 24.6181H25.1367V21.959H27.7769V24.6181Z" fill="#A3CC01"/>
<path d="M19.6699 21.9268H22.2758V24.5979H19.6699V21.9268Z" fill="#A3CC01"/>
<path d="M14.1289 24.5991V21.9795H16.7914V24.5991H14.1289Z" fill="#A3CC01"/>
<path d="M38.7695 32.9639V35.5732H36.1035V32.9639H38.7695Z" fill="#A3CC01"/>
<path d="M44.2014 35.6069H41.5801V32.9443H44.2014V35.6069Z" fill="#A3CC01"/>
<path d="M38.7373 41.089H36.1074V38.4453H38.7373V41.089Z" fill="#A3CC01"/>
<path d="M44.2014 41.0992H41.5801V38.4297H44.2014V41.0992Z" fill="#A3CC01"/>
<path d="M41.5977 27.418H44.2035V30.0874H41.5977V27.418Z" fill="#A3CC01"/>
<path d="M38.7259 30.1121H36.0977V27.4443H38.7259V30.1121Z" fill="#A3CC01"/>
<path d="M44.2176 24.6144H41.5859V21.9639H44.2176V24.6144Z" fill="#A3CC01"/>
<path d="M36.1055 21.9434H38.7388V24.5836H36.1055V21.9434Z" fill="#A3CC01"/>
<path d="M44.1977 19.1448H41.5918V16.4736H44.1977V19.1448Z" fill="#A3CC01"/>
<path d="M36.0781 19.1232V16.4727H38.7372V19.1232H36.0781Z" fill="#A3CC01"/>
</g>
<defs>
<clipPath id="clip0_240_3245">
<rect width="85" height="85" fill="white" transform="translate(0.398438)"/>
</clipPath>
</defs>
</svg>
