<svg width="90" height="87" viewBox="0 0 90 87" fill="none" xmlns="http://www.w3.org/2000/svg">
<g clip-path="url(#clip0_240_3286)">
<path d="M9.96109 57.4881C6.76043 42.6733 3.59016 28.0061 0.398438 13.2335L22.0667 8.69701V0H67.7194V8.68295L89.3984 13.2195C89.1214 14.5512 88.8623 15.8268 88.5907 17.0989C85.667 30.6053 82.7481 44.11 79.834 57.6129C79.7464 58.0059 79.7464 58.4129 79.834 58.8059C83.1258 72.0007 74.6729 84.5789 61.0554 86.7294C49.5127 88.5532 38.2219 80.9543 35.5199 69.5111C35.3572 68.8259 35.0838 68.6976 34.4601 68.7099C32.7427 68.7451 31.0254 68.7222 29.2419 68.7222V71.4315C29.0301 71.4737 28.8158 71.5024 28.6003 71.5176C21.6432 71.5176 14.6879 71.5369 7.73082 71.5176C6.21572 71.5111 4.74281 71.0263 3.52918 70.1346C2.31555 69.2429 1.42542 67.9914 0.98997 66.5647C0.5379 65.145 0.55976 63.6205 1.05238 62.214C1.54501 60.8075 2.48253 59.5929 3.72776 58.7479C4.87849 57.9466 6.24936 57.5074 7.65933 57.4881C8.39024 57.4758 9.1301 57.4881 9.96109 57.4881ZM27.8444 54.677V33.6689H62.0347V34.5667C62.0347 36.9632 62.024 39.3615 62.049 41.7597C62.049 42.0197 62.2099 42.4467 62.3957 42.5082C63.1749 42.7682 63.9916 42.9193 64.8208 43.1161V2.78656H24.9851V57.4846H29.2419V60.2958C30.5214 60.2958 31.733 60.2958 32.9465 60.2958C33.7149 60.2958 34.6692 60.5189 35.1964 60.1587C35.6682 59.8354 35.6396 58.8375 35.8791 58.154C36.2794 57.0102 36.7172 55.87 37.1604 54.6822L27.8444 54.677ZM67.7748 11.5714C67.7551 11.8192 67.7373 11.9334 67.7373 12.0476C67.7373 22.5976 67.7319 33.1476 67.7212 43.6977C67.7212 44.2406 67.9553 44.4549 68.386 44.6798C72.0647 46.5792 75.1472 49.4286 77.3017 52.9218C77.4107 53.0975 77.5519 53.2556 77.7771 53.5525C80.547 40.7266 83.2795 28.0764 86.0226 15.384L67.7748 11.5714ZM57.7868 44.8537C46.7802 44.8362 37.793 53.6246 37.7716 64.437C37.7501 75.2494 46.6712 84.115 57.6653 84.1519C68.7077 84.1924 77.7252 75.3671 77.7342 64.5213C77.7413 53.6983 68.7934 44.8713 57.794 44.8537H57.7868ZM30.6644 51.8711C33.0841 51.8711 35.4269 51.8395 37.768 51.8887C38.5543 51.9045 39.0368 51.6708 39.5229 51.0418C43.1864 46.298 47.9972 43.3621 53.9839 42.3905C55.6656 42.1164 57.3794 42.0812 59.1253 41.9337V36.487H30.6644V51.8711ZM3.77781 15.3928C6.81584 29.4732 9.84135 43.4517 12.8615 57.4249H15.7727C14.8791 53.2591 13.9856 49.1671 13.1081 45.0417C13.4137 44.9609 13.6121 44.8994 13.8122 44.866C16.3374 44.339 18.8607 43.7978 21.3912 43.2953C21.888 43.1969 22.1061 43.0282 22.0739 42.5029C22.031 41.7843 22.0632 41.0622 22.0632 40.2839L12.5774 42.2534C10.81 36.7769 11.5051 31.9822 16.1944 28.1976C13.0081 25.7168 11.9787 22.8529 13.0956 19.7449C13.5728 18.3792 14.479 17.1979 15.6833 16.3715C17.6134 15.0362 19.7489 14.7656 22.006 15.3928V11.5855L3.77781 15.3928ZM26.3146 60.301C19.9848 60.301 13.7515 60.2624 7.51993 60.345C6.68001 60.3573 5.73287 60.8316 5.03591 61.3447C3.60625 62.3989 3.16483 64.2788 3.76886 65.9269C4.05774 66.7318 4.59148 67.43 5.29767 67.9266C6.00386 68.4232 6.84834 68.6942 7.71653 68.7029C13.8033 68.724 19.8901 68.7117 25.9769 68.7029C26.0917 68.6894 26.2048 68.6647 26.3146 68.6291V60.301ZM22.0256 28.9004C17.1201 29.2712 13.4673 34.4788 14.8291 38.9152L22.0256 37.3989V28.9004ZM22.0256 46.0151L16.4857 47.1782L18.7035 57.4302H22.0274L22.0256 46.0151ZM22.0632 22.0658C22.0632 21.0714 22.0918 20.0769 22.0435 19.079C22.031 18.9335 21.9874 18.7924 21.9157 18.6646C21.8439 18.5368 21.7456 18.4254 21.6271 18.3375C20.0616 17.4344 17.8743 17.8684 16.609 19.2863C15.9453 20.0267 15.5667 20.9726 15.5393 21.9591C15.5119 22.9457 15.8373 23.9105 16.4589 24.6855C17.6902 26.1982 19.874 26.7411 21.5003 25.8802C21.6457 25.7854 21.7687 25.6611 21.8612 25.5156C21.9537 25.3701 22.0134 25.2069 22.0364 25.0369C22.1132 24.0547 22.0703 23.0585 22.0703 22.0658H22.0632ZM29.2436 65.8619H34.8926V63.1473H29.249L29.2436 65.8619Z" fill="#A3CC01"/>
<path d="M44.0306 17.8139C49.3525 20.5583 51.1146 25.0597 50.5427 30.7523H27.8969C27.3321 26.2369 28.2328 21.052 34.3983 17.7647C32.7166 16.1044 31.8392 14.1296 32.109 11.777C32.2951 10.0099 33.1755 8.38414 34.5627 7.24575C35.8946 6.11963 37.6034 5.51822 39.3596 5.55747C41.1158 5.59673 42.795 6.27388 44.0735 7.45835C47.0561 10.2168 47.0436 13.8028 44.0306 17.8139ZM30.6704 27.9499H47.7209C47.8228 23.4591 43.8912 19.6113 39.2412 19.592C34.5501 19.5709 30.5685 23.4275 30.6704 27.9499ZM39.2341 16.7791C40.3586 16.7626 41.4318 16.3135 42.2236 15.5282C43.0153 14.7429 43.4626 13.6839 43.4695 12.5782C43.4695 12.0222 43.3576 11.4717 43.1404 10.9584C42.9232 10.445 42.6049 9.97903 42.2038 9.58712C41.8027 9.19521 41.3267 8.88516 40.8032 8.67481C40.2798 8.46446 39.7191 8.35795 39.1537 8.36142C38.0276 8.37387 36.9517 8.82122 36.1583 9.60687C35.3649 10.3925 34.9176 11.4535 34.9129 12.5606C34.9141 13.1168 35.0269 13.6672 35.2448 14.1805C35.4628 14.6937 35.7816 15.1596 36.183 15.5515C36.5844 15.9434 37.0606 16.2536 37.5841 16.4642C38.1077 16.6748 38.6684 16.7819 39.2341 16.7791V16.7791Z" fill="#A3CC01"/>
<path d="M61.969 8.32273H53.5215V5.62402H61.969V8.32273Z" fill="#A3CC01"/>
<path d="M53.5117 13.9132V11.2197H61.9628V13.9202L53.5117 13.9132Z" fill="#A3CC01"/>
<path d="M61.9921 16.8418V19.544H53.541V16.8418H61.9921Z" fill="#A3CC01"/>
<path d="M61.9921 22.4648V25.1671H53.541V22.4648H61.9921Z" fill="#A3CC01"/>
<path d="M53.5117 30.7553V28.0566H61.9628V30.7553H53.5117Z" fill="#A3CC01"/>
<path d="M72.502 24.0461C72.7039 23.1167 72.8915 22.2488 73.0971 21.3018L81.4516 23.0587C81.2497 23.997 81.0692 24.8403 80.8637 25.7926L72.502 24.0461Z" fill="#A3CC01"/>
<path d="M82.6351 17.5449C82.4332 18.5007 82.2544 19.3475 82.0561 20.2928L73.7051 18.5534C73.8838 17.6556 74.0625 16.8157 74.2644 15.8125L82.6351 17.5449Z" fill="#A3CC01"/>
<path d="M77.2953 42.2641L68.9336 40.5071C69.132 39.5847 69.3196 38.7202 69.5251 37.7627L77.8797 39.5197C77.6796 40.4614 77.4991 41.3047 77.2953 42.2641Z" fill="#A3CC01"/>
<path d="M80.2841 28.5443C80.0643 29.5176 79.8749 30.3628 79.6676 31.2816L71.3184 29.5352C71.5203 28.6058 71.7079 27.7361 71.9134 26.7979L80.2841 28.5443Z" fill="#A3CC01"/>
<path d="M70.1309 35.0294C70.3257 34.1034 70.499 33.2829 70.7045 32.3096C72.1235 32.5942 73.5031 32.8648 74.8791 33.1494C76.2552 33.434 77.5955 33.7292 79.0591 34.0419C78.8679 34.9661 78.6874 35.834 78.4908 36.7793L70.1309 35.0294Z" fill="#A3CC01"/>
<path d="M57.7663 81.3442C53.2258 81.3415 48.8717 79.5692 45.6579 76.4159C42.4442 73.2625 40.6329 68.9852 40.6211 64.5212C40.6211 60.056 42.4219 55.773 45.6289 52.6112C48.8358 49.4494 53.1871 47.6669 57.7288 47.6543C62.2689 47.6571 66.6228 49.4291 69.8365 52.5821C73.0502 55.7351 74.8617 60.0119 74.874 64.4755C74.8745 68.941 73.0738 73.2245 69.8668 76.3867C66.6598 79.5489 62.3083 81.3317 57.7663 81.3442V81.3442ZM57.7252 78.5331C65.5723 78.5331 71.995 72.2625 72.0218 64.5599C72.0318 60.8327 70.5356 57.2542 67.8622 54.6114C65.1889 51.9686 61.5574 50.4779 57.7663 50.4672C53.9897 50.4671 50.3665 51.9362 47.6879 54.5536C45.0093 57.1709 43.4928 60.724 43.4697 64.4369C43.4636 66.2835 43.8276 68.1131 44.541 69.8213C45.2544 71.5295 46.3031 73.0828 47.6273 74.3923C48.9515 75.7019 50.5252 76.7421 52.2585 77.4535C53.9917 78.1649 55.8506 78.5335 57.7288 78.5384L57.7252 78.5331Z" fill="#A3CC01"/>
<path d="M64.0221 73.8279L62.5013 71.5772C65.7466 69.0595 67.1316 65.8688 65.8753 61.9718C64.6618 58.2049 61.7739 56.3495 57.7852 56.0315V53.4048C61.286 52.9621 66.4078 55.5817 68.3289 60.2781C70.3412 65.2117 68.5255 71.0923 64.0221 73.8279Z" fill="#A3CC01"/>
<path d="M57.8223 72.9879L60.2241 72.626C60.4779 73.4307 60.7423 74.274 61.064 75.2966L57.8223 75.8237V72.9879Z" fill="#A3CC01"/>
</g>
<defs>
<clipPath id="clip0_240_3286">
<rect width="89" height="87" fill="white" transform="translate(0.398438)"/>
</clipPath>
</defs>
</svg>
