<svg width="518" height="347" viewBox="0 0 518 347" fill="none" xmlns="http://www.w3.org/2000/svg">
<path d="M204.46 284.942V287.942H207.46V284.942H204.46ZM155.5 284.942H152.5V287.942H155.5V284.942ZM155.5 196.238H158.5V193.238H155.5V196.238ZM70.2523 196.238V193.238H67.2523V196.238H70.2523ZM70.2523 284.942V287.942H73.2523V284.942H70.2523ZM21.2923 284.942H18.2923V287.942H21.2923V284.942ZM21.2923 75.1344V72.1344H18.2923V75.1344H21.2923ZM70.2523 75.1344H73.2523V72.1344H70.2523V75.1344ZM70.2523 162.83H67.2523V165.83H70.2523V162.83ZM155.5 162.83V165.83H158.5V162.83H155.5ZM155.5 75.1344V72.1344H152.5V75.1344H155.5ZM204.46 75.1344H207.46V72.1344H204.46V75.1344ZM204.46 281.942H155.5V287.942H204.46V281.942ZM158.5 284.942V196.238H152.5V284.942H158.5ZM155.5 193.238H70.2523V199.238H155.5V193.238ZM67.2523 196.238V284.942H73.2523V196.238H67.2523ZM70.2523 281.942H21.2923V287.942H70.2523V281.942ZM24.2923 284.942V75.1344H18.2923V284.942H24.2923ZM21.2923 78.1344H70.2523V72.1344H21.2923V78.1344ZM67.2523 75.1344V162.83H73.2523V75.1344H67.2523ZM70.2523 165.83H155.5V159.83H70.2523V165.83ZM158.5 162.83V75.1344H152.5V162.83H158.5ZM155.5 78.1344H204.46V72.1344H155.5V78.1344ZM201.46 75.1344V284.942H207.46V75.1344H201.46ZM319.759 246.062H316.759V249.062H319.759V246.062ZM397.519 246.062H400.519V243.062H397.519V246.062ZM397.519 284.942V287.942H400.519V284.942H397.519ZM271.087 284.942H268.087V287.942H271.087V284.942ZM271.087 75.1344V72.1344H268.087V75.1344H271.087ZM319.759 75.1344H322.759V72.1344H319.759V75.1344ZM319.759 249.062H397.519V243.062H319.759V249.062ZM394.519 246.062V284.942H400.519V246.062H394.519ZM397.519 281.942H271.087V287.942H397.519V281.942ZM274.087 284.942V75.1344H268.087V284.942H274.087ZM271.087 78.1344H319.759V72.1344H271.087V78.1344ZM316.759 75.1344V246.062H322.759V75.1344H316.759ZM497.28 284.942V287.942H500.28V284.942H497.28ZM448.32 284.942H445.32V287.942H448.32V284.942ZM448.32 75.1344V72.1344H445.32V75.1344H448.32ZM497.28 75.1344H500.28V72.1344H497.28V75.1344ZM497.28 281.942H448.32V287.942H497.28V281.942ZM451.32 284.942V75.1344H445.32V284.942H451.32ZM448.32 78.1344H497.28V72.1344H448.32V78.1344ZM494.28 75.1344V284.942H500.28V75.1344H494.28Z" fill="#A3CC01"/>
<g filter="url(#filter0_d_565_309)">
<path d="M85.6605 151.818V160.394H72.5405V198.442H61.7245V160.394H48.6045V151.818H85.6605ZM110.613 189.898C112.063 189.898 113.354 189.664 114.485 189.194C115.637 188.704 116.607 188.01 117.397 187.114C118.186 186.218 118.783 185.13 119.189 183.85C119.615 182.549 119.829 181.077 119.829 179.434V151.818H130.645V179.434C130.645 182.293 130.175 184.917 129.237 187.306C128.319 189.696 126.997 191.754 125.269 193.482C123.541 195.21 121.439 196.554 118.965 197.514C116.49 198.474 113.706 198.954 110.613 198.954C107.498 198.954 104.703 198.474 102.229 197.514C99.7539 196.554 97.6525 195.21 95.9245 193.482C94.1965 191.754 92.8739 189.696 91.9565 187.306C91.0392 184.917 90.5805 182.293 90.5805 179.434V151.818H101.397V179.402C101.397 181.045 101.599 182.517 102.005 183.818C102.431 185.098 103.039 186.197 103.829 187.114C104.618 188.01 105.578 188.704 106.709 189.194C107.861 189.664 109.162 189.898 110.613 189.898ZM161.43 180.714V198.442H150.614V180.714L133.718 151.818H143.254C144.193 151.818 144.929 152.042 145.462 152.49C146.017 152.917 146.475 153.472 146.838 154.154L153.43 167.722C153.985 168.789 154.475 169.792 154.902 170.73C155.35 171.648 155.745 172.554 156.086 173.45C156.406 172.533 156.779 171.616 157.206 170.698C157.633 169.76 158.123 168.768 158.678 167.722L165.206 154.154C165.355 153.877 165.537 153.6 165.75 153.322C165.963 153.045 166.209 152.8 166.486 152.586C166.785 152.352 167.115 152.17 167.478 152.042C167.862 151.893 168.278 151.818 168.726 151.818H178.326L161.43 180.714ZM211.985 151.818V160.138H192.849V171.018H207.505V179.018H192.849V190.122H211.985V198.442H181.969V151.818H211.985ZM210.001 148.81H202.833C202.449 148.81 201.98 148.746 201.425 148.618C200.87 148.469 200.294 148.042 199.697 147.338L198.097 144.842C197.99 144.693 197.884 144.554 197.777 144.426C197.692 144.298 197.606 144.17 197.521 144.042L196.945 144.842L195.345 147.338C194.748 148.042 194.172 148.469 193.617 148.618C193.062 148.746 192.593 148.81 192.209 148.81H185.361L193.169 139.914H202.193L210.001 148.81ZM203.377 134.058C204.124 133.504 204.998 133.056 206.001 132.714C207.025 132.352 208.156 132.17 209.393 132.17C210.332 132.17 211.206 132.277 212.017 132.49C212.828 132.704 213.532 133.034 214.129 133.482C214.748 133.93 215.228 134.496 215.569 135.178C215.91 135.84 216.081 136.629 216.081 137.546C216.081 138.72 215.665 139.754 214.833 140.65C214.022 141.525 213.009 142.208 211.793 142.698L211.185 144.01H207.441V139.85C208.529 139.722 209.35 139.477 209.905 139.114C210.46 138.752 210.737 138.357 210.737 137.93C210.737 137.546 210.588 137.237 210.289 137.002C209.99 136.746 209.585 136.618 209.073 136.618C208.838 136.618 208.604 136.661 208.369 136.746C208.156 136.832 207.932 136.928 207.697 137.034C207.484 137.141 207.27 137.237 207.057 137.322C206.844 137.408 206.63 137.45 206.417 137.45C206.118 137.45 205.873 137.376 205.681 137.226C205.51 137.056 205.34 136.842 205.169 136.586L203.377 134.058ZM224.353 151.818C224.822 151.818 225.217 151.84 225.537 151.882C225.857 151.925 226.145 152.01 226.401 152.138C226.657 152.245 226.902 152.405 227.137 152.618C227.371 152.832 227.638 153.12 227.937 153.482L250.081 181.482C249.995 180.586 249.931 179.722 249.889 178.89C249.846 178.037 249.825 177.237 249.825 176.49V151.818H259.361V198.442H253.729C252.897 198.442 252.193 198.314 251.617 198.058C251.062 197.781 250.507 197.312 249.953 196.65L227.969 168.874C228.033 169.685 228.086 170.485 228.129 171.274C228.171 172.042 228.193 172.768 228.193 173.45V198.442H218.657V151.818H224.353ZM325.523 175.114C325.523 178.485 324.936 181.6 323.763 184.458C322.611 187.296 320.979 189.76 318.867 191.85C316.755 193.92 314.206 195.541 311.219 196.714C308.254 197.866 304.958 198.442 301.331 198.442H283.219V151.818H301.331C304.958 151.818 308.254 152.405 311.219 153.578C314.206 154.752 316.755 156.373 318.867 158.442C320.979 160.512 322.611 162.976 323.763 165.834C324.936 168.672 325.523 171.765 325.523 175.114ZM314.451 175.114C314.451 172.81 314.152 170.73 313.555 168.874C312.958 167.018 312.094 165.45 310.963 164.17C309.854 162.869 308.488 161.877 306.867 161.194C305.246 160.49 303.4 160.138 301.331 160.138H294.099V190.122H301.331C303.4 190.122 305.246 189.781 306.867 189.098C308.488 188.394 309.854 187.402 310.963 186.122C312.094 184.821 312.958 183.242 313.555 181.386C314.152 179.53 314.451 177.44 314.451 175.114ZM351.363 189.898C352.813 189.898 354.104 189.664 355.235 189.194C356.387 188.704 357.357 188.01 358.147 187.114C358.936 186.218 359.533 185.13 359.939 183.85C360.365 182.549 360.579 181.077 360.579 179.434V151.818H371.395V179.434C371.395 182.293 370.925 184.917 369.987 187.306C369.069 189.696 367.747 191.754 366.019 193.482C364.291 195.21 362.189 196.554 359.715 197.514C357.24 198.474 354.456 198.954 351.363 198.954C348.248 198.954 345.453 198.474 342.979 197.514C340.504 196.554 338.403 195.21 336.675 193.482C334.947 191.754 333.624 189.696 332.707 187.306C331.789 184.917 331.331 182.293 331.331 179.434V151.818H342.147V179.402C342.147 181.045 342.349 182.517 342.755 183.818C343.181 185.098 343.789 186.197 344.579 187.114C345.368 188.01 346.328 188.704 347.459 189.194C348.611 189.664 349.912 189.898 351.363 189.898ZM356.547 205.802C356.547 206.485 356.408 207.125 356.131 207.722C355.853 208.341 355.469 208.874 354.979 209.322C354.509 209.792 353.955 210.154 353.315 210.41C352.675 210.688 351.992 210.826 351.267 210.826C350.563 210.826 349.901 210.688 349.283 210.41C348.664 210.154 348.12 209.792 347.651 209.322C347.203 208.874 346.84 208.341 346.563 207.722C346.285 207.125 346.147 206.485 346.147 205.802C346.147 205.098 346.285 204.437 346.563 203.818C346.84 203.221 347.203 202.688 347.651 202.218C348.12 201.77 348.664 201.408 349.283 201.13C349.901 200.874 350.563 200.746 351.267 200.746C351.992 200.746 352.675 200.874 353.315 201.13C353.955 201.408 354.509 201.77 354.979 202.218C355.469 202.688 355.853 203.221 356.131 203.818C356.408 204.437 356.547 205.098 356.547 205.802ZM385.54 151.818C386.009 151.818 386.404 151.84 386.724 151.882C387.044 151.925 387.332 152.01 387.588 152.138C387.844 152.245 388.089 152.405 388.324 152.618C388.559 152.832 388.825 153.12 389.124 153.482L411.268 181.482C411.183 180.586 411.119 179.722 411.076 178.89C411.033 178.037 411.012 177.237 411.012 176.49V151.818H420.548V198.442H414.916C414.084 198.442 413.38 198.314 412.804 198.058C412.249 197.781 411.695 197.312 411.14 196.65L389.156 168.874C389.22 169.685 389.273 170.485 389.316 171.274C389.359 172.042 389.38 172.768 389.38 173.45V198.442H379.844V151.818H385.54ZM468.57 193.962C466.181 195.712 463.631 196.981 460.922 197.77C458.234 198.56 455.418 198.954 452.474 198.954C448.634 198.954 445.135 198.357 441.978 197.162C438.842 195.946 436.154 194.282 433.914 192.17C431.674 190.037 429.946 187.52 428.73 184.618C427.514 181.696 426.906 178.528 426.906 175.114C426.906 171.637 427.482 168.448 428.634 165.546C429.786 162.624 431.429 160.106 433.562 157.994C435.717 155.882 438.309 154.24 441.338 153.066C444.389 151.893 447.791 151.306 451.546 151.306C453.487 151.306 455.311 151.466 457.018 151.786C458.725 152.106 460.293 152.544 461.722 153.098C463.173 153.653 464.495 154.314 465.69 155.082C466.885 155.85 467.951 156.682 468.89 157.578L465.754 162.346C465.263 163.093 464.623 163.552 463.834 163.722C463.066 163.893 462.234 163.701 461.338 163.146C460.485 162.634 459.674 162.197 458.906 161.834C458.159 161.45 457.391 161.141 456.602 160.906C455.813 160.672 454.981 160.501 454.106 160.394C453.231 160.288 452.25 160.234 451.162 160.234C449.135 160.234 447.311 160.597 445.69 161.322C444.069 162.026 442.682 163.029 441.53 164.33C440.399 165.632 439.525 167.2 438.906 169.034C438.287 170.848 437.978 172.874 437.978 175.114C437.978 177.589 438.319 179.786 439.002 181.706C439.685 183.626 440.645 185.248 441.882 186.57C443.141 187.893 444.634 188.906 446.362 189.61C448.111 190.293 450.042 190.634 452.154 190.634C453.455 190.634 454.629 190.506 455.674 190.25C456.741 189.994 457.775 189.653 458.778 189.226V182.154H454.17C453.487 182.154 452.954 181.973 452.57 181.61C452.186 181.248 451.994 180.789 451.994 180.234V174.282H468.57V193.962Z" fill="white"/>
</g>
<defs>
<filter id="filter0_d_565_309" x="44.6055" y="132.17" width="428.285" height="86.6562" filterUnits="userSpaceOnUse" color-interpolation-filters="sRGB">
<feFlood flood-opacity="0" result="BackgroundImageFix"/>
<feColorMatrix in="SourceAlpha" type="matrix" values="0 0 0 0 0 0 0 0 0 0 0 0 0 0 0 0 0 0 127 0" result="hardAlpha"/>
<feOffset dy="4"/>
<feGaussianBlur stdDeviation="2"/>
<feComposite in2="hardAlpha" operator="out"/>
<feColorMatrix type="matrix" values="0 0 0 0 0 0 0 0 0 0 0 0 0 0 0 0 0 0 0.25 0"/>
<feBlend mode="normal" in2="BackgroundImageFix" result="effect1_dropShadow_565_309"/>
<feBlend mode="normal" in="SourceGraphic" in2="effect1_dropShadow_565_309" result="shape"/>
</filter>
</defs>
</svg>
