<svg width="18" height="18" viewBox="0 0 18 18" fill="none" xmlns="http://www.w3.org/2000/svg">
<path d="M9.73496 5.30701L13.2766 8.84868C13.3411 8.91604 13.3917 8.99548 13.4254 9.08243C13.4962 9.25488 13.4962 9.44831 13.4254 9.62076C13.3917 9.70771 13.3411 9.78715 13.2766 9.85451L9.73496 13.3962C9.66892 13.4622 9.59051 13.5146 9.50422 13.5504C9.41793 13.5861 9.32545 13.6045 9.23205 13.6045C9.04342 13.6045 8.86251 13.5296 8.72913 13.3962C8.59575 13.2628 8.52082 13.0819 8.52082 12.8933C8.52082 12.7046 8.59575 12.5237 8.72913 12.3903L11.0666 10.0599L5.69038 10.0599C5.50252 10.0599 5.32235 9.9853 5.18951 9.85246C5.05667 9.71962 4.98205 9.53946 4.98205 9.35159C4.98205 9.16373 5.05667 8.98356 5.18951 8.85073C5.32235 8.71789 5.50252 8.64326 5.69038 8.64326L11.0666 8.64326L8.72913 6.31284C8.66274 6.24699 8.61004 6.16865 8.57408 6.08234C8.53812 5.99602 8.51961 5.90344 8.51961 5.80993C8.51961 5.71642 8.53812 5.62384 8.57408 5.53752C8.61004 5.4512 8.66274 5.37286 8.72913 5.30701C8.79498 5.24062 8.87332 5.18792 8.95964 5.15196C9.04596 5.116 9.13854 5.09749 9.23205 5.09749C9.32556 5.09749 9.41814 5.116 9.50446 5.15196C9.59077 5.18792 9.66912 5.24062 9.73496 5.30701Z" fill="white"/>
</svg>
