<svg width="79" height="78" viewBox="0 0 79 78" fill="none" xmlns="http://www.w3.org/2000/svg">
<g clip-path="url(#clip0_240_3051)">
<path d="M21.2924 0.0234375H22.0637C22.3986 0.123778 22.7394 0.235929 23.0803 0.324465C26.5103 1.17162 29.6806 2.82845 32.3184 5.15257C36.3366 8.74712 38.5789 13.3156 39.7867 18.4388C40.1275 19.8613 40.3308 21.3192 40.6059 22.8066C40.7733 22.6945 40.9168 22.6118 41.0543 22.5056C48.9113 16.5265 57.8685 13.7701 67.7166 13.593C68.9543 13.593 69.3131 13.9295 69.319 15.1631C69.319 17.2466 69.319 19.3242 69.319 21.4078C69.3004 21.5226 69.3052 21.6401 69.3332 21.7531C69.3612 21.8661 69.4118 21.9725 69.482 22.0659C69.5521 22.1594 69.6405 22.2381 69.7419 22.2974C69.8433 22.3567 69.9557 22.3954 70.0724 22.4112C71.0518 22.7163 72.0139 23.0729 72.9546 23.4795C73.3014 23.6271 73.7498 23.9458 73.8216 24.2587C73.971 24.9197 74.3477 24.9492 74.8739 24.9197C75.2327 24.9197 75.5915 24.9197 75.9503 24.9197C77.9474 24.9197 79.0117 25.9703 79.0117 27.9181V74.9719C79.0117 76.961 77.9414 78.0057 75.9024 78.0057C64.9242 78.0057 53.946 78.0057 42.9678 78.0057C42.6635 78.0208 42.3597 77.9687 42.0783 77.8533C41.797 77.738 41.5453 77.5622 41.3414 77.3387C41.1091 77.0902 40.827 76.8918 40.5131 76.7561C40.1992 76.6204 39.8603 76.5504 39.5177 76.5504C39.175 76.5504 38.8361 76.6204 38.5222 76.7561C38.2083 76.8918 37.9263 77.0902 37.6939 77.3387C37.4799 77.5692 37.2162 77.7492 36.9223 77.8656C36.6284 77.9821 36.3118 78.032 35.9958 78.0116C25.197 78.0116 14.3982 78.0116 3.59937 78.0116C1.93111 78.0116 0.705331 77.5571 0.0117188 76.0107V69.0046C0.169697 68.7397 0.415113 68.5364 0.706884 68.429C0.998655 68.3215 1.31899 68.3163 1.61416 68.4143C2.30179 68.6563 2.33173 69.2466 2.32575 69.8604C2.32575 71.4895 2.32575 73.1126 2.32575 74.7358C2.32575 75.4677 2.53502 75.692 3.28843 75.692C13.9876 75.692 24.6847 75.692 35.3799 75.692C35.774 75.6778 36.1542 75.5439 36.4682 75.3084C37.3347 74.6597 38.3895 74.3032 39.4769 74.2915C40.5644 74.2798 41.6268 74.6135 42.5074 75.2434C42.8854 75.5154 43.3374 75.6696 43.8049 75.6861C54.3765 75.7175 64.9402 75.7175 75.4958 75.6861C76.6917 75.6861 76.6917 75.6861 76.6917 74.5056V28.2781C76.7264 28.0829 76.7264 27.8832 76.6917 27.6879C76.614 27.4931 76.4226 27.2039 76.2671 27.1921C75.5316 27.139 74.7962 27.1921 73.977 27.1921V71.46C73.977 73.0005 73.696 73.2779 72.1413 73.2779H6.96571C5.33931 73.2779 5.08225 73.0241 5.08225 71.4305V27.1744H3.45579C2.3496 27.1744 2.34962 27.1744 2.34962 28.2663C2.34962 39.5359 2.34962 50.8056 2.34962 62.0752C2.34962 62.6654 2.31375 63.2557 1.61416 63.5095C1.32278 63.6107 1.00458 63.6069 0.715716 63.4989C0.426854 63.3909 0.185921 63.1856 0.0355868 62.9193V26.9737C0.633528 25.3978 1.8294 24.7721 3.46776 24.902C3.85113 24.9462 4.23845 24.9462 4.62182 24.902C4.72043 24.8826 4.81317 24.841 4.89298 24.7807C4.9728 24.7203 5.03758 24.6427 5.08225 24.5538C5.15337 24.268 5.30237 24.0068 5.51319 23.7987C5.72401 23.5906 5.98859 23.4435 6.27813 23.3733C8.12577 22.7831 9.96141 22.1161 11.8389 21.6026C12.5923 21.396 12.8256 21.1186 12.8196 20.3395C12.7777 15.5467 12.8196 10.7481 12.8196 5.95536C12.8196 4.72767 13.3697 4.28494 14.5716 4.58006C15.8631 4.89879 17.1427 5.26476 18.4223 5.63661C19.098 5.83139 19.7617 6.07926 20.533 6.34487C20.533 4.65679 20.533 3.09271 20.533 1.52857C20.4876 1.23107 20.5361 0.926942 20.6719 0.657627C20.8078 0.388311 21.0245 0.166866 21.2924 0.0234375ZM69.3071 24.542C69.3071 25.687 69.3071 26.6786 69.3071 27.6584C69.312 27.7938 69.2889 27.9289 69.2392 28.0552C69.1895 28.1816 69.1142 28.2965 69.018 28.3932C68.9217 28.4899 68.8064 28.5662 68.6793 28.6174C68.5522 28.6687 68.4159 28.6938 68.2786 28.6913C68.1387 28.7094 67.9965 28.6999 67.8603 28.6633C67.7241 28.6267 67.5967 28.5638 67.4854 28.4781C67.3741 28.3924 67.2812 28.2857 67.2121 28.1642C67.143 28.0428 67.099 27.9089 67.0827 27.7705C67.0397 27.4953 67.0237 27.2166 67.0349 26.9383V15.8772C64.1449 15.9547 61.2693 16.3085 58.4485 16.9338C52.1213 18.3091 46.2289 21.1858 41.2816 25.3151C41.0821 25.4669 40.9233 25.6647 40.8191 25.891C40.7149 26.1174 40.6683 26.3655 40.6836 26.6137C40.6836 40.4213 40.6836 54.227 40.6836 68.0307V69.0223C48.5107 63.0078 57.2885 60.1688 67.029 59.8205V35.2016C67.029 34.0211 67.3877 33.4781 68.1651 33.4309C68.9424 33.3837 69.3609 33.9444 69.3609 35.2016V60.3281C69.3609 61.8214 69.0919 62.0988 67.5671 62.0988C62.9067 62.1423 58.2851 62.9398 53.8862 64.4598C53.1029 64.7313 52.3316 65.05 51.5542 65.3451C58.3021 64.3345 65.1959 64.8923 71.6869 66.9742V26.2478C71.7172 26.0739 71.7172 25.8963 71.6869 25.7224C71.6332 25.5224 71.5078 25.3483 71.3341 25.2325C70.6823 24.9905 70.0725 24.8134 69.337 24.5183L69.3071 24.542ZM22.8291 2.63822C22.8291 2.89793 22.7933 3.09861 22.7933 3.29929C22.7933 17.465 22.7933 31.6307 22.7933 45.7964C22.7746 45.8984 22.7774 46.0031 22.8014 46.104C22.8255 46.2048 22.8703 46.2998 22.9331 46.3828C22.9959 46.4658 23.0754 46.5352 23.1665 46.5866C23.2577 46.6381 23.3586 46.6705 23.463 46.6818C30.2496 48.5588 34.9972 52.7731 37.9152 59.0768C38.0108 59.2834 38.1125 59.49 38.2141 59.667L38.3517 59.6198V58.7993C38.3517 47.9153 38.3935 37.0255 38.3218 26.1415C38.3038 23.8598 38.0655 21.5849 37.6102 19.3478C36.5758 14.3131 34.3993 9.83319 30.3393 6.43342C28.1589 4.61881 25.5917 3.31344 22.8291 2.61459V2.63822ZM36.0975 68.2314C35.9121 67.9186 35.8703 67.8241 35.8105 67.7474C30.4649 60.3458 23.4868 55.2697 14.4519 53.1331C12.8435 52.7494 12.7598 52.6609 12.7598 51.0436V23.6093C11.1155 24.1406 9.62059 24.6423 8.10779 25.0908C7.9853 25.1121 7.86833 25.1573 7.76364 25.2236C7.65896 25.2899 7.56868 25.3761 7.49803 25.4771C7.42737 25.5781 7.37773 25.6921 7.35205 25.8122C7.32637 25.9323 7.32512 26.0563 7.3484 26.1769C7.3484 39.477 7.3484 52.775 7.3484 66.0711V66.9683C17.0889 64.0525 26.5902 63.9226 36.0975 68.2078V68.2314ZM37.6999 66.3485L37.8793 66.2777C37.389 64.684 36.9884 63.0609 36.4024 61.5027C33.8612 54.7858 29.1853 50.359 22.0518 48.6532C20.5869 48.299 20.4912 48.1928 20.4912 46.7054V9.85683C20.5122 9.63104 20.5122 9.40382 20.4912 9.17804C20.4912 9.02458 20.3656 8.80622 20.246 8.7649C18.5778 8.17466 16.9035 7.58437 15.1516 6.94101C15.1516 7.28925 15.1097 7.4427 15.1097 7.59026C15.1097 21.8268 15.1097 36.0614 15.1097 50.2941C15.0927 50.3845 15.095 50.4775 15.1165 50.567C15.1379 50.6565 15.1781 50.7406 15.2343 50.814C15.2906 50.8873 15.3618 50.9482 15.4433 50.9929C15.5248 51.0375 15.6149 51.0648 15.7077 51.0731C23.9533 53.1744 30.6562 57.6602 35.9958 64.141C36.5578 64.8375 37.1199 65.5871 37.6999 66.3249V66.3485ZM36.0317 70.9641L36.0735 70.8225C35.5772 70.5805 35.0809 70.3208 34.5787 70.0906C31.0483 68.4798 27.248 67.5235 23.3673 67.2693C18.1024 66.9268 12.8206 67.6065 7.82079 69.2702C7.72371 69.3069 7.63623 69.3647 7.56482 69.4393C7.4934 69.5138 7.43991 69.6033 7.40825 69.7011C7.37815 70.1216 7.37815 70.5436 7.40825 70.9641H36.0317ZM71.5553 70.9641C71.7646 69.4354 71.7646 69.4355 70.3595 69.0164C65.9618 67.647 61.3584 67.0341 56.7503 67.2043C52.1391 67.3512 47.6157 68.4871 43.494 70.5333C43.2847 70.6336 43.0934 70.7635 42.7406 70.9641H71.5553Z" fill="#A3CC01"/>
</g>
<defs>
<clipPath id="clip0_240_3051">
<rect width="79" height="78" fill="white"/>
</clipPath>
</defs>
</svg>
