<svg width="86" height="83" viewBox="0 0 86 83" fill="none" xmlns="http://www.w3.org/2000/svg">
<g clip-path="url(#clip0_240_3110)">
<path d="M85.2127 66.6079C84.2799 66.8514 83.2864 67.4027 82.3863 67.2924C69.7137 65.758 58.4917 70.7057 47.0691 74.8036C39.8956 77.3808 32.6521 79.7743 25.5392 82.4894C22.4889 83.6517 21.1409 82.834 20.1428 79.9305C17.5168 72.2861 14.6577 64.7243 11.9478 57.1121C11.6516 56.0407 11.438 54.9488 11.3088 53.8457L12.4002 53.3542C12.9926 54.273 13.7668 55.1596 14.1493 56.1749C16.7939 63.2313 19.3592 70.3199 21.9571 77.3946C22.3209 78.3915 22.7407 79.3655 23.2491 80.638L48.3331 71.7394L48.2211 71.28C42.3396 72.2769 36.4488 73.2509 30.5672 74.2753C25.6745 75.1298 25.376 74.9553 24.5318 70.1407L15.7631 20.1257L2.76402 24.4946C5.56253 33.3564 9.34521 41.5797 11.7193 50.221L10.3807 50.8045C9.83495 50.0281 9.08398 49.3252 8.76681 48.4662C6.02428 41.1157 3.44035 33.6643 0.627845 26.323C-0.39361 23.6585 0.506588 22.5697 3.02991 21.7933C7.12506 20.5345 11.1409 19.0369 15.1288 17.6587C14.3032 10.1107 14.4805 11.6589 21.043 10.2807C23.2025 9.82133 25.4086 9.55948 27.5728 9.19196C28.4404 9.04495 29.2939 8.84738 30.5672 8.59011C30.5672 6.9914 30.6792 5.37432 30.5672 3.7802C30.334 1.05595 31.5514 0.10501 34.2426 0.12798C44.7743 0.210672 55.3154 0.472497 65.8237 0.0360662C71.4861 -0.202822 75.8844 1.08813 79.4711 5.46622C81.1176 7.4784 83.2864 9.08172 85.2221 10.8734L85.2127 66.6079ZM82.4142 64.7336V12.9912C79.8816 12.9912 77.5681 12.9223 75.264 12.9912C72.3536 13.0969 70.903 11.9254 71.0663 8.93007C71.1782 6.90411 71.0663 4.86896 71.0663 2.73275H33.0252V6.7663C33.0252 15.8349 33.0532 24.9081 32.9646 33.9812C32.9646 34.7622 32.1997 35.5432 31.7892 36.3242C31.3741 35.5753 30.7258 34.8633 30.5999 34.0685C30.3993 32.7868 30.5439 31.4545 30.5439 30.1406V11.1903L17.125 13.4414L27.3862 72.2448L52.7734 67.8896C46.5494 67.3663 40.3005 67.1853 34.056 67.3475C31.4861 67.3935 30.4832 66.4701 30.5205 63.902C30.6278 56.7997 30.5206 49.6927 30.5812 42.5904C30.5812 41.644 30.9497 40.6977 31.1456 39.7513L32.7967 39.7789C33.4217 48.0205 32.7174 56.3587 33.1838 64.7014L82.4142 64.7336ZM73.8601 3.72967C72.9273 10.9469 74.5131 12.2883 80.4599 9.89025L73.8601 3.72967Z" fill="#A3CC01"/>
<path d="M58.0534 55.4086C52.6289 55.4086 47.2092 55.4637 41.7894 55.3442C40.9452 55.3442 40.1149 54.5036 39.2754 54.0533C40.073 53.6628 40.8659 52.9462 41.6634 52.937C52.618 52.8635 63.5711 52.8635 74.5226 52.937C75.3715 52.937 76.2157 53.7914 77.0646 54.2462C76.1317 54.6321 75.2362 55.3304 74.3127 55.3442C68.8929 55.4591 63.4732 55.4086 58.0534 55.4086Z" fill="#A3CC01"/>
<path d="M58.1984 20.4806C52.7833 20.4806 47.3682 20.5357 41.9531 20.4255C41.0575 20.4255 40.176 19.6629 39.2852 19.254C40.1434 18.8452 40.9922 18.0871 41.8505 18.0825C52.6807 17.9998 63.5109 17.9998 74.3411 18.0825C75.274 18.0825 76.1555 18.79 77.0603 19.1667C76.0762 19.6261 75.1014 20.4025 74.1126 20.4255C68.8094 20.5495 63.5016 20.4806 58.1984 20.4806Z" fill="#A3CC01"/>
<path d="M58.2625 26.7001C63.687 26.7001 69.1068 26.6404 74.5265 26.7598C75.3801 26.7598 76.2196 27.6189 77.0638 28.0783C76.2569 28.455 75.45 29.1579 74.6385 29.1671C63.687 29.2406 52.7354 29.2406 41.784 29.1671C40.9444 29.1671 40.1142 28.3218 39.2793 27.8716C40.2121 27.4811 41.089 26.7782 42.0032 26.7598C47.4229 26.6312 52.8428 26.7001 58.2625 26.7001Z" fill="#A3CC01"/>
<path d="M77.2293 45.8763C76.2079 46.1565 75.1864 46.671 74.1603 46.6756C63.442 46.7338 52.7144 46.7338 41.9775 46.6756C41.0726 46.6756 40.1724 45.9268 39.2676 45.5271C40.2004 45.0999 41.1333 44.3052 42.1081 44.3006C52.8357 44.2087 63.5633 44.227 74.2909 44.2684C75.2518 44.2684 76.2172 44.6313 77.178 44.8242L77.2293 45.8763Z" fill="#A3CC01"/>
<path d="M77.2126 37.1295C76.2798 37.373 75.375 37.8324 74.4561 37.837C63.5979 37.886 52.7412 37.886 41.8861 37.837C41.0093 37.837 40.1417 37.0698 39.2695 36.6564C40.0718 36.2797 40.874 35.5813 41.6809 35.5767C52.6464 35.5032 63.6026 35.517 74.5821 35.5446C75.4124 35.6238 76.2336 35.7776 77.0354 36.004L77.2126 37.1295Z" fill="#A3CC01"/>
</g>
<defs>
<clipPath id="clip0_240_3110">
<rect width="85" height="83" fill="white" transform="translate(0.212891)"/>
</clipPath>
</defs>
</svg>
