<svg width="82" height="81" viewBox="0 0 82 81" fill="none" xmlns="http://www.w3.org/2000/svg">
<g clip-path="url(#clip0_240_3043)">
<path d="M0.424794 46.8313C0.554785 46.2987 0.672089 45.7645 0.816347 45.2462C1.66181 42.1491 3.47059 39.7868 6.24267 38.1595C8.53811 36.8154 10.8542 35.5078 13.1496 34.1637C13.5121 33.9506 13.8398 33.6833 14.1214 33.3711C16.4992 30.7273 18.8644 28.0644 21.255 25.4254C21.5234 25.106 21.8664 24.8577 22.2537 24.7026C22.9417 24.4728 23.5584 24.7026 23.9816 25.3176C24.4049 25.9326 24.3462 26.6807 23.7597 27.3464C22.3837 28.9109 20.9871 30.4547 19.6 32.008C18.7392 32.9717 17.8657 33.9243 17.0335 34.9102C16.894 35.0687 16.8084 35.4618 16.9035 35.6282C19.7411 40.5862 22.5945 45.5358 25.4638 50.4768C25.4876 50.5181 25.5431 50.5418 25.6224 50.6052L59.4627 43.5486C52.8728 32.1364 46.3368 20.8177 39.7644 9.43553C37.6845 11.7608 35.6729 14.0321 33.6374 16.2686C33.3457 16.5856 32.9827 16.9185 32.588 17.0611C31.9063 17.2957 31.2849 17.0611 30.8537 16.4557C30.4463 15.8803 30.4938 15.0893 31.0122 14.4855C32.0141 13.33 33.0445 12.2014 34.0622 11.0602C35.2924 9.68438 36.5384 8.32284 37.7337 6.9185C37.9629 6.62903 38.076 6.26451 38.0507 5.89616C37.7543 3.28877 39.0526 1.08399 41.4131 0.283544C43.7228 -0.508973 46.1355 0.421442 47.4291 2.6611C54.6673 15.1744 61.8966 27.6962 69.1169 40.2264C70.4565 42.5501 70.0586 45.1115 68.1658 46.752C66.273 48.3925 63.7271 48.3481 61.5648 46.7203C61.3254 46.5412 60.8799 46.5111 60.5645 46.5761C55.6645 47.581 50.7724 48.616 45.8755 49.6399C42.9904 50.2423 40.1036 50.8409 37.2153 51.4358C37.0901 51.4627 36.9696 51.5039 36.773 51.5578C37.2866 52.6674 37.6211 53.7769 37.3294 54.9974C37.0378 56.2178 36.3133 57.1118 35.2908 57.8615C36.2689 59.5528 37.2296 61.2139 38.1887 62.8766C39.3475 64.8832 40.5539 66.8645 41.6461 68.8997C42.2802 70.0964 43.0807 71.057 44.276 71.7306C44.7461 71.9804 45.1391 72.3538 45.4125 72.8105C45.686 73.2672 45.8297 73.7898 45.828 74.3221C45.8565 75.4316 45.4428 76.3827 44.4948 76.9453C42.1169 78.3449 39.6883 79.6621 37.2803 81.0125H36.0121C34.8248 80.5988 34.1209 79.7096 33.5153 78.6461C30.8886 74.0273 28.2174 69.4339 25.5605 64.8325C25.3656 64.4965 25.1579 64.1684 24.9645 63.8498C21.8796 64.8769 20.1533 64.2128 18.5379 61.4247C18.0132 60.5196 17.4853 59.6161 16.9526 58.7L16.3835 58.9251C14.8559 59.5494 13.2126 59.8403 11.5635 59.7783C9.91436 59.7163 8.29751 59.3029 6.82113 58.5656C5.34474 57.8283 4.04288 56.7842 3.00266 55.5033C1.96244 54.2223 1.20785 52.7339 0.7894 51.1378C0.646727 50.6068 0.537344 50.0679 0.412109 49.5322L0.424794 46.8313ZM14.142 37.2244C11.7641 38.616 9.44646 39.8666 7.24296 41.2979C4.90155 42.818 3.70785 45.1147 3.61273 47.8869C3.38446 54.4141 10.2232 58.6651 16.0078 55.587C18.1447 54.4521 20.2119 53.1825 22.3092 51.9699C22.393 51.9108 22.472 51.8451 22.5454 51.7734C19.7458 46.9248 16.9701 42.119 14.142 37.2244ZM66.7438 42.6769C66.5941 42.2733 66.4183 41.8799 66.2175 41.4992C59.5594 29.9549 52.9014 18.4148 46.2433 6.87887C45.7043 5.9437 45.1844 4.99585 44.6105 4.08287C44.0367 3.16989 43.0126 2.91945 42.1359 3.40764C41.2593 3.89583 40.9407 4.96573 41.4226 5.9437C41.5145 6.13232 41.6255 6.31144 41.7317 6.49372C48.5916 18.3751 55.4515 30.256 62.3114 42.1364C62.6681 42.753 63.0042 43.3806 63.3989 43.9703C63.6155 44.3059 63.9387 44.559 64.3164 44.6889C64.6942 44.8188 65.1047 44.8181 65.4819 44.6867C66.2444 44.4283 66.7279 43.7753 66.7374 42.6769H66.7438ZM27.7054 62.1918L36.7271 77.8108L42.6099 74.4093C42.3359 74.1993 42.0512 74.0035 41.7571 73.8228C40.6981 73.2554 40.0133 72.3852 39.422 71.3438C37.3057 67.5825 35.1244 63.8609 32.9637 60.1249C32.8258 59.8872 32.6688 59.6605 32.5087 59.4133L27.7054 62.1918ZM19.7411 57.1071C19.8346 57.2989 19.8663 57.3717 19.8996 57.4399C20.4132 58.3275 20.9274 59.2151 21.4421 60.1028C22.1554 61.3296 22.6342 61.4596 23.8707 60.7463C26.8795 59.0102 29.8867 57.2735 32.8923 55.5363C34.5568 54.5742 34.6472 54.2159 33.6422 52.5596C33.5772 52.4502 33.5027 52.3456 33.417 52.2172C32.366 52.4312 31.3388 52.6357 30.3115 52.8512C28.6391 53.2031 26.8731 53.3267 25.3228 53.9814C23.3808 54.7961 21.6133 56.0356 19.7411 57.1071Z" fill="#A3CC01"/>
<path d="M64.9238 19.3322C63.9869 19.3322 63.4083 18.8995 63.207 18.1894C63.0057 17.4793 63.2625 16.8009 63.9774 16.3793C65.8147 15.2967 67.6663 14.2379 69.5131 13.1712C70.9737 12.3258 72.4342 11.4852 73.8947 10.6494C74.8966 10.0788 75.8224 10.2531 76.2996 11.0837C76.7767 11.9142 76.4771 12.8082 75.4737 13.3899C72.2154 15.2761 68.9525 17.1543 65.6847 19.0247C65.4403 19.1487 65.1858 19.2516 64.9238 19.3322Z" fill="#A3CC01"/>
<path d="M67.3714 3.67449C67.2811 3.9583 67.1671 4.234 67.0306 4.4987C65.5151 7.14782 63.9911 9.78955 62.4587 12.4239C61.8722 13.4335 60.9923 13.741 60.1617 13.256C59.331 12.771 59.1535 11.8485 59.7257 10.8499C61.2698 8.15856 62.8201 5.47034 64.3769 2.78529C64.8191 2.02606 65.5151 1.73441 66.2364 1.93413C66.9117 2.12909 67.3714 2.75042 67.3714 3.67449Z" fill="#A3CC01"/>
<path d="M72.8256 22.4009C74.0114 22.4009 75.2035 22.3882 76.3829 22.4009C77.5021 22.4167 78.1932 23.0095 78.2202 23.9352C78.2471 24.8608 77.5243 25.5472 76.3813 25.5535C73.9844 25.5715 71.587 25.5715 69.189 25.5535C68.0477 25.5535 67.3327 24.8894 67.3581 23.9352C67.3834 22.981 68.0651 22.4167 69.1906 22.4009C70.4017 22.3866 71.6145 22.4009 72.8256 22.4009Z" fill="#A3CC01"/>
<path d="M81.4265 9.06357C81.4218 9.27311 81.3756 9.47963 81.2905 9.67119C81.2055 9.86275 81.0833 10.0355 80.931 10.1796C80.7787 10.3236 80.5993 10.436 80.4033 10.5102C80.2073 10.5845 79.9985 10.6191 79.7889 10.6122C79.3807 10.5942 78.9952 10.4193 78.7128 10.1239C78.4305 9.82862 78.273 9.43569 78.2734 9.02712C78.2867 8.6043 78.466 8.20373 78.7725 7.91212C79.079 7.62051 79.488 7.46131 79.911 7.46902C80.3193 7.49164 80.7035 7.66929 80.9852 7.96566C81.2669 8.26202 81.4247 8.65474 81.4265 9.06357Z" fill="#A3CC01"/>
<path d="M27.3852 19.3059C27.7984 19.299 28.1978 19.4549 28.4971 19.7399C28.7963 20.0249 28.9715 20.4161 28.9847 20.8291C28.9896 21.0407 28.9522 21.2511 28.8748 21.4481C28.7974 21.645 28.6816 21.8246 28.534 21.9763C28.3864 22.128 28.2101 22.2488 28.0153 22.3316C27.8205 22.4144 27.6111 22.4575 27.3995 22.4585C26.9866 22.4539 26.5923 22.2861 26.3027 21.9918C26.0131 21.6975 25.8518 21.3006 25.8539 20.8877C25.8495 20.6831 25.8857 20.4795 25.9605 20.2889C26.0352 20.0983 26.147 19.9245 26.2895 19.7773C26.4319 19.6302 26.602 19.5128 26.7901 19.4319C26.9782 19.351 27.1805 19.3081 27.3852 19.3059Z" fill="#A3CC01"/>
</g>
<defs>
<clipPath id="clip0_240_3043">
<rect width="81" height="81" fill="white" transform="translate(0.425781)"/>
</clipPath>
</defs>
</svg>
