<svg width="77" height="76" viewBox="0 0 77 76" fill="none" xmlns="http://www.w3.org/2000/svg">
<g clip-path="url(#clip0_240_3102)">
<path d="M7.76102 71.3916C7.52372 71.2673 7.27308 71.1702 7.01387 71.1022C0.490195 70.7064 0.490234 70.7064 0.490234 64.0163C0.490234 46.142 0.490234 28.2775 0.490234 10.4231C0.490234 3.15842 3.66238 0.00913861 10.9674 0.00488281C26.5337 0.00488281 42.1 0.00488281 57.6663 0.00488281C61.3722 0.00488281 64.2327 1.49866 65.9106 4.8352C67.4775 7.94193 67.0889 10.9721 65.014 13.7724C64.5358 14.4193 63.9467 15.2789 63.2678 15.4321C58.8105 16.4408 59.3271 19.7815 59.4638 23.0202C59.5363 24.7225 59.4638 26.4249 59.4638 29.1231C62.1876 26.3355 64.2626 24.1565 66.4058 22.0414C69.0529 19.4198 71.6145 18.9517 74.0908 20.5263C76.5671 22.101 77.0794 24.6544 75.837 28.0718C75.572 28.8352 75.4041 29.6288 75.3375 30.4338C74.5818 37.6687 69.5481 42.1373 64.6639 46.6654C64.3522 46.9548 63.2763 46.4229 62.1321 46.1845C65.9746 41.4734 71.0979 38.4092 72.4257 31.7531C67.9855 36.1706 63.9936 40.0434 60.1511 44.0609C59.5705 44.6652 59.5022 45.9249 59.4936 46.8867C59.4467 55.5601 59.3826 64.2418 59.5193 72.9152C59.5577 75.4005 58.7038 76.0389 56.3215 76.0262C41.6773 75.9325 27.0332 75.9794 12.3891 75.9794C7.99588 75.9538 7.99584 75.9538 7.76102 71.3916ZM15.5527 41.6521C25.3169 41.6521 34.9359 41.7074 44.5549 41.5882C45.9169 41.5882 47.2746 40.7031 48.6322 40.2264L48.3505 39.2008H45.4003C36.0801 39.2008 26.76 39.2008 17.4398 39.2008C15.7321 39.2008 14.4512 39.0305 15.7705 36.7409H49.1574C51.4885 36.7409 56.7954 33.0256 56.9106 30.8551C57.154 26.327 56.9832 21.7775 56.9832 17.3217H10.5575V73.3578H56.8167V47.691C56.5555 47.7799 56.3061 47.8999 56.0738 48.0486C52.5857 51.5 49.4477 55.4196 45.5326 58.2922C41.6901 61.1096 37.092 62.9098 32.7542 65.0164C32.2376 65.2675 31.2898 64.6377 31.2002 64.5908C33.3349 56.2963 37.2201 49.5806 43.9401 44.6865L43.4449 44.0821H40.4904C32.8055 44.0821 25.1205 44.0821 17.4356 44.0821C15.8687 44.1247 14.7159 43.9672 15.5527 41.6521ZM15.288 14.6789C30.0645 14.6789 44.2689 14.764 58.4732 14.6278C59.4283 14.6235 60.3682 14.3899 61.2135 13.9467C62.0587 13.5034 62.7843 12.8637 63.3289 12.0816C63.8734 11.2996 64.2209 10.3982 64.3418 9.45382C64.4627 8.50949 64.3535 7.55004 64.0235 6.65669C62.9433 3.70743 60.6933 2.44345 57.6194 2.44771C44.017 2.44771 30.4146 2.44771 16.8122 2.44771C16.3579 2.48673 15.9061 2.55064 15.4588 2.6392C18.362 6.66518 18.3962 10.4529 15.288 14.6789ZM15.7406 7.18867C14.1097 5.48635 13.1789 3.97976 11.8341 3.21798C7.56465 0.787918 2.96646 4.09895 2.95792 9.56764C2.9323 28.5201 2.9323 47.4726 2.95792 66.4251C2.99268 67.1125 3.06681 67.7974 3.17994 68.4764H7.87631V52.8576C7.87631 39.3043 7.87631 25.751 7.87631 12.1977C7.87631 8.61862 9.0547 7.46955 12.6069 7.35039C13.307 7.32486 14.0115 7.27804 15.7406 7.18867ZM50.942 49.3934L47.693 45.3461L39.8073 52.6321L43.6498 56.8155L50.942 49.3934ZM50.34 44.0438C50.8139 43.6183 51.1939 43.2906 51.5483 42.9416C55.8177 38.6858 60.0871 34.43 64.3565 30.1487C64.7835 29.689 64.8731 28.872 65.1207 28.2038C64.3864 28.4464 63.5154 28.5144 62.9519 28.9655C61.8763 29.9021 60.853 30.8966 59.8864 31.9446C56.6331 35.1918 53.3628 38.4305 50.1393 41.7074C49.7729 42.1301 49.5397 42.6513 49.469 43.2055C49.4093 43.431 49.9686 43.7204 50.34 44.0438ZM52.6498 47.3081C53.1288 47.1017 53.5888 46.854 54.0245 46.5676C58.738 41.8805 63.4343 37.1807 68.1136 32.4681C68.3228 32.2553 68.1136 31.6169 68.0923 31.1914C67.5757 31.2722 66.8755 31.1616 66.5723 31.4552C61.9756 35.9607 57.4216 40.5101 52.9102 45.1035C52.5729 45.4397 52.748 46.2696 52.6498 47.3081ZM66.3802 24.9098C68.0453 26.9654 69.2877 28.4932 71.1492 30.7956C72.3531 28.1272 73.4034 26.2631 73.9371 24.2629C74.0652 23.7863 72.2293 22.0967 71.7298 22.2627C69.7616 22.9138 67.9642 24.0799 66.3802 24.9098ZM37.8306 54.6025C36.9767 56.2708 36.3149 57.3943 35.8154 58.5859C35.6105 59.0711 35.5678 60.0882 35.777 60.1861C36.3649 60.4533 37.0315 60.4928 37.647 60.2968C38.7705 59.8073 39.8665 59.2574 40.9302 58.6497L37.8306 54.6025ZM15.2539 10.6529C10.1605 9.63576 9.92562 9.89109 10.8051 15.0491L15.2539 10.6529Z" fill="#A3CC01"/>
<path d="M15.7335 22.1172H51.7589C52.4292 23.6961 52.2456 24.5217 50.2518 24.5175C39.1982 24.4792 28.1447 24.5175 17.0869 24.4366C16.3824 24.4366 15.6865 23.5088 14.9863 23.0152L15.7335 22.1172Z" fill="#A3CC01"/>
<path d="M15.6802 27.0332H51.697C52.4058 28.51 52.3972 29.4207 50.3009 29.4164C39.2474 29.3824 28.1896 29.4164 17.1361 29.3398C16.406 29.3398 15.6844 28.4461 14.9629 27.9695L15.6802 27.0332Z" fill="#A3CC01"/>
<path d="M51.6418 34.2298H15.6207C14.9162 32.7062 14.9973 31.8294 17.0552 31.838C28.113 31.872 39.1665 31.838 50.2243 31.9146C50.9416 31.9146 51.6503 32.8211 52.359 33.3062L51.6418 34.2298Z" fill="#A3CC01"/>
<path d="M15.6798 66.2158H51.6881C52.4011 67.7096 52.4054 68.6246 50.3048 68.6161C39.247 68.5821 28.1935 68.6161 17.1357 68.5395C16.4099 68.5395 15.6883 67.65 14.9668 67.1734L15.6798 66.2158Z" fill="#A3CC01"/>
<path d="M28.9837 62.1348C28.3177 62.6582 27.6687 63.603 26.9856 63.6286C22.9896 63.8281 18.9835 63.6156 15.0312 62.9945C15.6375 62.4157 16.2267 61.3602 16.8543 61.3347C20.6968 61.1772 24.5905 61.2581 28.4586 61.2581L28.9837 62.1348Z" fill="#A3CC01"/>
</g>
<defs>
<clipPath id="clip0_240_3102">
<rect width="76" height="76" fill="white" transform="translate(0.490234)"/>
</clipPath>
</defs>
</svg>
