<svg width="72" height="72" viewBox="0 0 72 72" fill="none" xmlns="http://www.w3.org/2000/svg">
<path d="M71.9968 40.3534C71.7794 40.9399 71.5184 41.5093 71.2161 42.0568C70.6226 42.9803 69.7147 43.6575 68.6604 43.9634C67.6061 44.2692 66.4767 44.1829 65.4811 43.7205C65.3231 43.6206 65.1348 43.5801 64.9497 43.6061C64.7646 43.6321 64.5947 43.7229 64.4704 43.8624C58.6028 49.0578 52.7353 54.2484 46.8678 59.4344C46.6352 59.6543 46.4926 59.9527 46.4675 60.2719C46.4164 62.3216 45.3319 63.9938 43.5489 64.7177C42.6893 65.0568 41.7487 65.1351 40.8449 64.9427C39.941 64.7503 39.1139 64.2958 38.4669 63.6361C37.1041 62.2166 36.7946 60.3031 37.6151 58.401C37.6435 58.3357 37.6719 58.2675 37.7344 58.1171L31.5451 52.8053C30.523 53.921 29.3079 54.6166 27.752 54.574C26.1962 54.5314 24.9896 53.8188 24.0214 52.5867L18.8174 55.1787C15.8391 56.6692 12.8552 58.1682 9.87698 59.6444C9.46815 59.846 9.26372 60.0419 9.25804 60.5501C9.23248 63.1052 7.09747 65.0669 4.45426 65.0187C3.25056 64.9667 2.11415 64.4491 1.28493 63.5751C0.4557 62.7011 -0.00144667 61.5391 0.00997459 60.3344C0.0213959 59.1297 0.5005 57.9765 1.34615 57.1184C2.1918 56.2602 3.33781 55.7643 4.54227 55.7351C6.1634 55.7181 7.42397 56.4108 8.4489 57.6884C8.64196 57.6117 8.84353 57.5464 9.01672 57.4527C13.5309 55.1986 18.0394 52.933 22.5593 50.6931C22.7684 50.6212 22.9475 50.4817 23.0683 50.2966C23.1892 50.1114 23.2448 49.8913 23.2265 49.671C23.2577 47.238 25.3814 45.2763 27.8997 45.2848C30.3555 45.2848 32.465 47.2919 32.4707 49.6937C32.4551 49.9636 32.5069 50.233 32.6214 50.4778C32.7359 50.7227 32.9094 50.9352 33.1265 51.0962C35.0741 52.7258 36.9849 54.398 38.9296 56.0276C39.0398 56.1139 39.1677 56.1748 39.3042 56.2057C39.4407 56.2366 39.5823 56.2369 39.7189 56.2064C41.8454 55.332 43.6028 55.6556 45.2183 57.2654C45.2864 57.3307 45.3574 57.3903 45.4625 57.484L63.2836 41.7616C62.7264 40.7563 62.5548 39.5825 62.8009 38.4598C63.2978 36.3873 65.0524 34.894 67.0596 34.8372C68.1063 34.7753 69.1434 35.0681 70.0032 35.6682C70.863 36.2684 71.4953 37.1408 71.7981 38.1447C71.8492 38.3008 71.9145 38.4513 71.9741 38.6046L71.9968 40.3534ZM67.3691 41.8041C67.8284 41.8008 68.2764 41.6613 68.6564 41.4033C69.0364 41.1453 69.3314 40.7804 69.5041 40.3548C69.6767 39.9292 69.7193 39.4619 69.6264 39.0121C69.5335 38.5623 69.3092 38.1502 68.9821 37.8278C68.6549 37.5054 68.2395 37.2873 67.7884 37.201C67.3372 37.1147 66.8706 37.1641 66.4476 37.3429C66.0245 37.5218 65.664 37.8221 65.4116 38.2059C65.1592 38.5896 65.0263 39.0396 65.0296 39.4989C65.0499 40.1097 65.3039 40.6894 65.7393 41.1184C66.1746 41.5474 66.758 41.7928 67.3691 41.8041ZM30.188 49.9493C30.1891 49.4899 30.054 49.0406 29.7998 48.6581C29.5455 48.2756 29.1835 47.977 28.7596 47.8002C28.3357 47.6234 27.8688 47.5763 27.4181 47.6648C26.9674 47.7533 26.553 47.9735 26.2275 48.2975C25.9019 48.6214 25.6797 49.0347 25.589 49.485C25.4983 49.9352 25.5431 50.4023 25.7178 50.827C25.8926 51.2518 26.1894 51.6152 26.5707 51.8713C26.9519 52.1275 27.4006 52.2648 27.8599 52.2659C28.4714 52.253 29.0543 52.0051 29.4879 51.5737C29.9214 51.1423 30.1721 50.5606 30.188 49.9493ZM4.67572 58.0745C4.21581 58.0644 3.76326 58.1911 3.37548 58.4386C2.9877 58.6861 2.68217 59.0431 2.4976 59.4645C2.31303 59.8858 2.25775 60.3525 2.33878 60.8053C2.41981 61.2581 2.63349 61.6767 2.95273 62.0079C3.27197 62.3391 3.68239 62.568 4.13193 62.6656C4.58146 62.7633 5.04988 62.7252 5.47775 62.5563C5.90563 62.3873 6.27369 62.0951 6.53526 61.7167C6.79684 61.3383 6.94015 60.8908 6.94701 60.4309C6.94197 59.8209 6.70396 59.236 6.28171 58.7958C5.85947 58.3556 5.28493 58.0935 4.67572 58.0631V58.0745ZM44.1224 60.4138C44.1258 59.9552 43.9931 59.5059 43.7411 59.1227C43.4892 58.7395 43.1293 58.4395 42.7069 58.2608C42.2845 58.0821 41.8186 58.0326 41.3681 58.1185C40.9176 58.2045 40.5027 58.4221 40.1758 58.7438C39.8489 59.0655 39.6248 59.4769 39.5317 59.9259C39.4385 60.375 39.4806 60.8416 39.6526 61.2667C39.8246 61.6919 40.1188 62.0565 40.498 62.3145C40.8772 62.5725 41.3243 62.7123 41.783 62.7163C42.3957 62.7055 42.9807 62.4591 43.4164 62.0282C43.8521 61.5973 44.105 61.015 44.1224 60.4025V60.4138Z" fill="#A3CC01"/>
<path d="M71.9968 71.9971H0.0507812V69.6748H71.9968V71.9971Z" fill="#A3CC01"/>
<path d="M31.3529 0V4.64745C31.7049 4.64745 32.0116 4.64745 32.3153 4.64745C33.2693 4.64745 33.6696 5.05627 33.6696 6.02437C33.6696 10.1882 33.6696 14.3521 33.6696 18.516V21.7014C33.6696 22.8597 33.3119 23.2174 32.162 23.2202H31.3643V27.8222H29.0617V23.2202C28.6784 23.2202 28.3718 23.2202 28.068 23.2202C27.1112 23.2202 26.7109 22.8114 26.7109 21.8461C26.7109 17.6614 26.7109 13.4758 26.7109 9.28922C26.7109 8.25015 26.7109 7.20823 26.7109 6.16632C26.7109 5.00233 27.063 4.65029 28.21 4.64461C28.4513 4.64461 28.6898 4.64461 29.0305 4.64461V0H31.3529ZM29.0816 6.99815V20.8468H31.3188V6.99815H29.0816Z" fill="#A3CC01"/>
<path d="M54.5784 0V4.64745C54.9304 4.64745 55.2371 4.64745 55.5408 4.64745C56.4948 4.64745 56.8951 5.05627 56.8951 6.02437C56.8951 10.1882 56.8951 14.3521 56.8951 18.516V21.7014C56.8951 22.8597 56.5374 23.2174 55.3875 23.2202H54.5898V27.8222H52.2844V23.2202C51.8983 23.2202 51.5945 23.2202 51.2907 23.2202C50.3339 23.2202 49.9336 22.8114 49.9336 21.8461C49.9336 17.6614 49.9336 13.4758 49.9336 9.28922V6.16632C49.9336 5.00233 50.2856 4.65029 51.4355 4.64461C51.674 4.64461 51.9153 4.64461 52.2531 4.64461V0H54.5784ZM54.5301 20.8724V7.02086H52.2901V20.8724H54.5301Z" fill="#A3CC01"/>
<path d="M5.83423 27.9024C5.69872 27.8837 5.56219 27.8733 5.4254 27.8712C3.78155 28.0074 3.43803 27.4766 3.46642 25.9179C3.50901 20.9639 3.48345 16.007 3.48345 11.0529C3.48345 9.55392 3.72193 9.3126 5.24938 9.29273C5.41405 9.29273 5.57588 9.29273 5.78882 9.29273V4.69922H8.11689V9.29273C8.52573 9.29273 8.85789 9.29273 9.19007 9.29273C10.0106 9.3126 10.4365 9.72426 10.4421 10.5504C10.4421 12.4838 10.4421 14.4171 10.4421 16.3505V26.1394C10.4421 27.5844 10.1752 27.8428 8.71026 27.8655H8.11974V32.4704H5.83141L5.83423 27.9024ZM5.85127 11.6434V25.4921H8.08849V11.6434H5.85127Z" fill="#A3CC01"/>
<path d="M63.8494 4.67578H66.1775V9.292C66.5608 9.292 66.8702 9.292 67.1768 9.292C68.0939 9.292 68.5055 9.7065 68.5084 10.615C68.5084 12.1622 68.5084 13.7095 68.5084 15.2568V26.0592C68.5084 27.6149 68.2756 27.8477 66.7112 27.8676C66.5693 27.8676 66.4273 27.8676 66.2059 27.8903V32.4696H63.9033V27.8676C63.5229 27.8676 63.2191 27.8676 62.9182 27.8676C61.9557 27.8676 61.5497 27.4645 61.5469 26.5077C61.5469 23.0536 61.5469 19.5976 61.5469 16.1397C61.5469 14.3511 61.5469 12.5625 61.5469 10.774C61.5469 9.66391 61.9103 9.30052 63.0147 9.29484H63.8466L63.8494 4.67578ZM66.1661 11.6654H63.8948V25.5084H66.1661V11.6654Z" fill="#A3CC01"/>
<path d="M19.7425 44.092C19.5522 44.092 19.4387 44.1204 19.3223 44.1232C18.7204 44.1232 18.1213 44.1232 17.4399 44.1232V39.4786H16.4462C15.4951 39.4644 15.0977 39.0669 15.0977 38.0988C15.0977 33.4088 15.0977 28.7197 15.0977 24.0316C15.0977 23.4638 15.0977 22.8733 15.0977 22.2913C15.0977 21.2919 15.4951 20.9115 16.5172 20.903H17.3917V16.3066H19.7197V20.903C20.1229 20.903 20.4721 20.903 20.8213 20.903C21.6106 20.9257 22.0592 21.3317 22.0592 22.0982C22.0705 27.4904 22.0705 32.8845 22.0592 38.2805C22.0592 39.0527 21.6134 39.4616 20.827 39.4843C20.4948 39.4843 20.1598 39.4843 19.7481 39.4843L19.7425 44.092ZM17.4712 23.2537V37.1024H19.7056V23.2622L17.4712 23.2537Z" fill="#A3CC01"/>
<path d="M42.9672 48.7683V53.3561H40.6647V48.7569C40.2616 48.7569 39.9124 48.7569 39.5603 48.7569C38.7739 48.7342 38.3281 48.3254 38.3281 47.556C38.3281 42.1638 38.3281 36.7697 38.3281 31.3737C38.3281 30.6015 38.771 30.1927 39.5603 30.17C39.8925 30.17 40.2275 30.17 40.6392 30.17V25.585H42.9417V30.1955H43.7934C44.9291 30.1955 45.2868 30.5589 45.2868 31.7229C45.2868 36.1688 45.2868 40.6165 45.2868 45.0662C45.2868 45.793 45.2868 46.5169 45.2868 47.2409C45.2868 48.4049 44.9319 48.7654 43.7934 48.7711L42.9672 48.7683ZM42.9161 46.4204V32.5718H40.6789V46.4204H42.9161Z" fill="#A3CC01"/>
</svg>
