<svg width="620" height="346" viewBox="0 0 620 346" fill="none" xmlns="http://www.w3.org/2000/svg">
<path d="M254.972 284V287H257.972V284H254.972ZM206.012 284H203.012V287H206.012V284ZM206.012 195.296H209.012V192.296H206.012V195.296ZM120.764 195.296V192.296H117.764V195.296H120.764ZM120.764 284V287H123.764V284H120.764ZM71.804 284H68.804V287H71.804V284ZM71.804 74.192V71.192H68.804V74.192H71.804ZM120.764 74.192H123.764V71.192H120.764V74.192ZM120.764 161.888H117.764V164.888H120.764V161.888ZM206.012 161.888V164.888H209.012V161.888H206.012ZM206.012 74.192V71.192H203.012V74.192H206.012ZM254.972 74.192H257.972V71.192H254.972V74.192ZM254.972 281H206.012V287H254.972V281ZM209.012 284V195.296H203.012V284H209.012ZM206.012 192.296H120.764V198.296H206.012V192.296ZM117.764 195.296V284H123.764V195.296H117.764ZM120.764 281H71.804V287H120.764V281ZM74.804 284V74.192H68.804V284H74.804ZM71.804 77.192H120.764V71.192H71.804V77.192ZM117.764 74.192V161.888H123.764V74.192H117.764ZM120.764 164.888H206.012V158.888H120.764V164.888ZM209.012 161.888V74.192H203.012V161.888H209.012ZM206.012 77.192H254.972V71.192H206.012V77.192ZM251.972 74.192V284H257.972V74.192H251.972ZM370.271 245.12H367.271V248.12H370.271V245.12ZM448.031 245.12H451.031V242.12H448.031V245.12ZM448.031 284V287H451.031V284H448.031ZM321.599 284H318.599V287H321.599V284ZM321.599 74.192V71.192H318.599V74.192H321.599ZM370.271 74.192H373.271V71.192H370.271V74.192ZM370.271 248.12H448.031V242.12H370.271V248.12ZM445.031 245.12V284H451.031V245.12H445.031ZM448.031 281H321.599V287H448.031V281ZM324.599 284V74.192H318.599V284H324.599ZM321.599 77.192H370.271V71.192H321.599V77.192ZM367.271 74.192V245.12H373.271V74.192H367.271ZM547.792 284V287H550.792V284H547.792ZM498.831 284H495.831V287H498.831V284ZM498.831 74.192V71.192H495.831V74.192H498.831ZM547.792 74.192H550.792V71.192H547.792V74.192ZM547.792 281H498.831V287H547.792V281ZM501.831 284V74.192H495.831V284H501.831ZM498.831 77.192H547.792V71.192H498.831V77.192ZM544.792 74.192V284H550.792V74.192H544.792Z" fill="#A3CC01"/>
<g filter="url(#filter0_d_656_309)">
<path d="M52.5228 175.299C52.5228 177.304 52.3094 179.235 51.8828 181.091C51.4774 182.926 50.8801 184.654 50.0908 186.275C49.3228 187.896 48.3628 189.4 47.2108 190.787C46.0801 192.174 44.7894 193.4 43.3388 194.467L55.1468 207.363H46.2508C44.9708 207.363 43.8188 207.192 42.7948 206.851C41.7921 206.531 40.8534 205.923 39.9788 205.027L34.1868 198.531C33.2481 198.723 32.2881 198.872 31.3068 198.979C30.3468 199.086 29.3548 199.139 28.3308 199.139C24.7041 199.139 21.3974 198.531 18.4108 197.315C15.4241 196.099 12.8641 194.424 10.7308 192.291C8.61875 190.136 6.97608 187.608 5.80275 184.707C4.65075 181.806 4.07475 178.67 4.07475 175.299C4.07475 171.928 4.65075 168.792 5.80275 165.891C6.97608 162.99 8.61875 160.472 10.7308 158.339C12.8641 156.206 15.4241 154.531 18.4108 153.315C21.3974 152.099 24.7041 151.491 28.3308 151.491C31.9574 151.491 35.2534 152.11 38.2188 153.347C41.2054 154.563 43.7548 156.238 45.8668 158.371C47.9788 160.504 49.6108 163.022 50.7628 165.923C51.9361 168.824 52.5228 171.95 52.5228 175.299ZM41.4508 175.299C41.4508 172.995 41.1521 170.926 40.5548 169.091C39.9574 167.235 39.0934 165.667 37.9628 164.387C36.8534 163.107 35.4881 162.126 33.8668 161.443C32.2454 160.76 30.4001 160.419 28.3308 160.419C26.2401 160.419 24.3734 160.76 22.7308 161.443C21.1094 162.126 19.7334 163.107 18.6028 164.387C17.4934 165.667 16.6401 167.235 16.0428 169.091C15.4454 170.926 15.1468 172.995 15.1468 175.299C15.1468 177.624 15.4454 179.715 16.0428 181.571C16.6401 183.406 17.4934 184.963 18.6028 186.243C19.7334 187.523 21.1094 188.504 22.7308 189.187C24.3734 189.848 26.2401 190.179 28.3308 190.179C30.4001 190.179 32.2454 189.848 33.8668 189.187C35.4881 188.504 36.8534 187.523 37.9628 186.243C39.0934 184.963 39.9574 183.406 40.5548 181.571C41.1521 179.715 41.4508 177.624 41.4508 175.299ZM78.3743 190.083C79.8249 190.083 81.1156 189.848 82.2463 189.379C83.3983 188.888 84.3689 188.195 85.1583 187.299C85.9476 186.403 86.5449 185.315 86.9503 184.035C87.3769 182.734 87.5903 181.262 87.5903 179.619V152.003H98.4063V179.619C98.4063 182.478 97.9369 185.102 96.9983 187.491C96.0809 189.88 94.7583 191.939 93.0303 193.667C91.3023 195.395 89.2009 196.739 86.7262 197.699C84.2516 198.659 81.4676 199.139 78.3743 199.139C75.2596 199.139 72.4649 198.659 69.9903 197.699C67.5156 196.739 65.4143 195.395 63.6863 193.667C61.9583 191.939 60.6356 189.88 59.7183 187.491C58.8009 185.102 58.3423 182.478 58.3423 179.619V152.003H69.1583V179.587C69.1583 181.23 69.3609 182.702 69.7663 184.003C70.1929 185.283 70.8009 186.382 71.5903 187.299C72.3796 188.195 73.3396 188.888 74.4703 189.379C75.6223 189.848 76.9236 190.083 78.3743 190.083ZM147.492 198.627H139.108C138.17 198.627 137.412 198.414 136.836 197.987C136.26 197.539 135.823 196.974 135.524 196.291L132.772 188.163H115.044L112.292 196.291C112.058 196.888 111.631 197.432 111.012 197.923C110.415 198.392 109.668 198.627 108.772 198.627H100.324L118.372 152.003H129.444L147.492 198.627ZM117.54 180.803H130.276L125.988 168.035C125.668 167.224 125.327 166.275 124.964 165.187C124.602 164.078 124.239 162.883 123.876 161.603C123.535 162.904 123.183 164.11 122.82 165.219C122.479 166.328 122.148 167.288 121.828 168.099L117.54 180.803ZM156.864 152.003C157.334 152.003 157.728 152.024 158.048 152.067C158.368 152.11 158.656 152.195 158.912 152.323C159.168 152.43 159.414 152.59 159.648 152.803C159.883 153.016 160.15 153.304 160.448 153.667L182.592 181.667C182.507 180.771 182.443 179.907 182.4 179.075C182.358 178.222 182.336 177.422 182.336 176.675V152.003H191.872V198.627H186.24C185.408 198.627 184.704 198.499 184.128 198.243C183.574 197.966 183.019 197.496 182.464 196.835L160.48 169.059C160.544 169.87 160.598 170.67 160.64 171.459C160.683 172.227 160.704 172.952 160.704 173.635V198.627H151.168V152.003H156.864ZM256.435 198.627H245.555V178.915H226.611V198.627H215.731V152.003H226.611V171.491H245.555V152.003H256.435V198.627ZM295.497 152.003V160.323H276.361V171.203H291.017V179.203H276.361V190.307H295.497V198.627H265.481V152.003H295.497ZM293.513 148.995H286.345C285.961 148.995 285.491 148.931 284.937 148.803C284.382 148.654 283.806 148.227 283.209 147.523L281.609 145.027C281.502 144.878 281.395 144.739 281.289 144.611C281.203 144.483 281.118 144.355 281.033 144.227L280.457 145.027L278.857 147.523C278.259 148.227 277.683 148.654 277.129 148.803C276.574 148.931 276.105 148.995 275.721 148.995H268.873L276.681 140.099H285.705L293.513 148.995ZM286.889 205.987C286.889 206.67 286.75 207.31 286.473 207.907C286.195 208.526 285.811 209.059 285.321 209.507C284.851 209.976 284.297 210.339 283.657 210.595C283.017 210.872 282.334 211.011 281.609 211.011C280.905 211.011 280.243 210.872 279.625 210.595C279.006 210.339 278.462 209.976 277.993 209.507C277.545 209.059 277.182 208.526 276.905 207.907C276.627 207.31 276.489 206.67 276.489 205.987C276.489 205.283 276.627 204.622 276.905 204.003C277.182 203.406 277.545 202.872 277.993 202.403C278.462 201.955 279.006 201.592 279.625 201.315C280.243 201.059 280.905 200.931 281.609 200.931C282.334 200.931 283.017 201.059 283.657 201.315C284.297 201.592 284.851 201.955 285.321 202.403C285.811 202.872 286.195 203.406 286.473 204.003C286.75 204.622 286.889 205.283 286.889 205.987ZM348.405 186.563C348.661 186.563 348.917 186.616 349.173 186.723C349.429 186.808 349.674 186.968 349.909 187.203L354.197 191.715C352.319 194.168 349.962 196.024 347.125 197.283C344.309 198.52 340.97 199.139 337.109 199.139C333.567 199.139 330.389 198.542 327.573 197.347C324.778 196.131 322.399 194.467 320.437 192.355C318.495 190.222 317.002 187.704 315.957 184.803C314.911 181.88 314.389 178.712 314.389 175.299C314.389 171.822 314.954 168.632 316.085 165.731C317.215 162.808 318.805 160.291 320.853 158.179C322.901 156.067 325.354 154.424 328.213 153.251C331.071 152.078 334.218 151.491 337.653 151.491C339.402 151.491 341.045 151.651 342.581 151.971C344.138 152.27 345.589 152.696 346.933 153.251C348.277 153.784 349.514 154.435 350.645 155.203C351.775 155.971 352.778 156.803 353.653 157.699L350.005 162.595C349.77 162.894 349.493 163.171 349.173 163.427C348.853 163.662 348.405 163.779 347.829 163.779C347.445 163.779 347.082 163.694 346.741 163.523C346.399 163.352 346.037 163.15 345.653 162.915C345.269 162.659 344.842 162.392 344.373 162.115C343.925 161.816 343.381 161.55 342.741 161.315C342.122 161.059 341.386 160.846 340.533 160.675C339.701 160.504 338.719 160.419 337.589 160.419C335.797 160.419 334.154 160.75 332.661 161.411C331.189 162.072 329.909 163.043 328.821 164.323C327.754 165.582 326.922 167.139 326.325 168.995C325.749 170.83 325.461 172.931 325.461 175.299C325.461 177.688 325.781 179.811 326.421 181.667C327.082 183.523 327.967 185.091 329.077 186.371C330.207 187.63 331.519 188.59 333.013 189.251C334.506 189.912 336.106 190.243 337.813 190.243C338.794 190.243 339.69 190.2 340.501 190.115C341.311 190.008 342.069 189.848 342.773 189.635C343.477 189.4 344.138 189.102 344.757 188.739C345.375 188.355 346.005 187.875 346.645 187.299C346.901 187.086 347.178 186.915 347.477 186.787C347.775 186.638 348.085 186.563 348.405 186.563ZM403.616 175.299C403.616 178.67 403.029 181.806 401.856 184.707C400.704 187.608 399.072 190.136 396.96 192.291C394.848 194.424 392.298 196.099 389.312 197.315C386.346 198.531 383.05 199.139 379.424 199.139C375.797 199.139 372.49 198.531 369.504 197.315C366.517 196.099 363.957 194.424 361.824 192.291C359.712 190.136 358.069 187.608 356.896 184.707C355.744 181.806 355.168 178.67 355.168 175.299C355.168 171.928 355.744 168.792 356.896 165.891C358.069 162.99 359.712 160.472 361.824 158.339C363.957 156.206 366.517 154.531 369.504 153.315C372.49 152.099 375.797 151.491 379.424 151.491C383.05 151.491 386.346 152.11 389.312 153.347C392.298 154.563 394.848 156.238 396.96 158.371C399.072 160.504 400.704 163.022 401.856 165.923C403.029 168.824 403.616 171.95 403.616 175.299ZM392.544 175.299C392.544 172.995 392.245 170.926 391.648 169.091C391.05 167.235 390.186 165.667 389.056 164.387C387.946 163.107 386.581 162.126 384.96 161.443C383.338 160.76 381.493 160.419 379.424 160.419C377.333 160.419 375.466 160.76 373.824 161.443C372.202 162.126 370.826 163.107 369.696 164.387C368.586 165.667 367.733 167.235 367.136 169.091C366.538 170.926 366.24 172.995 366.24 175.299C366.24 177.624 366.538 179.715 367.136 181.571C367.733 183.406 368.586 184.963 369.696 186.243C370.826 187.523 372.202 188.504 373.824 189.187C375.466 189.848 377.333 190.179 379.424 190.179C381.493 190.179 383.338 189.848 384.96 189.187C386.581 188.504 387.946 187.523 389.056 186.243C390.186 184.963 391.05 183.406 391.648 181.571C392.245 179.715 392.544 177.624 392.544 175.299ZM391.968 148.995H384.8C384.416 148.995 383.946 148.931 383.392 148.803C382.837 148.654 382.261 148.227 381.664 147.523L380.064 145.027C379.957 144.878 379.85 144.739 379.744 144.611C379.658 144.483 379.573 144.355 379.488 144.227L378.912 145.027L377.312 147.523C376.714 148.227 376.138 148.654 375.584 148.803C375.029 148.931 374.56 148.995 374.176 148.995H367.328L375.136 140.099H384.16L391.968 148.995ZM385.344 134.243C386.09 133.688 386.965 133.24 387.968 132.899C388.992 132.536 390.122 132.355 391.36 132.355C392.298 132.355 393.173 132.462 393.984 132.675C394.794 132.888 395.498 133.219 396.096 133.667C396.714 134.115 397.194 134.68 397.536 135.363C397.877 136.024 398.048 136.814 398.048 137.731C398.048 138.904 397.632 139.939 396.8 140.835C395.989 141.71 394.976 142.392 393.76 142.883L393.152 144.195H389.408V140.035C390.496 139.907 391.317 139.662 391.872 139.299C392.426 138.936 392.704 138.542 392.704 138.115C392.704 137.731 392.554 137.422 392.256 137.187C391.957 136.931 391.552 136.803 391.04 136.803C390.805 136.803 390.57 136.846 390.336 136.931C390.122 137.016 389.898 137.112 389.664 137.219C389.45 137.326 389.237 137.422 389.024 137.507C388.81 137.592 388.597 137.635 388.384 137.635C388.085 137.635 387.84 137.56 387.648 137.411C387.477 137.24 387.306 137.027 387.136 136.771L385.344 134.243ZM420.153 172.291H425.465V152.003H443.577C447.204 152.003 450.5 152.59 453.465 153.763C456.452 154.936 459.001 156.558 461.113 158.627C463.225 160.696 464.857 163.16 466.009 166.019C467.183 168.856 467.769 171.95 467.769 175.299C467.769 178.67 467.183 181.784 466.009 184.643C464.857 187.48 463.225 189.944 461.113 192.035C459.001 194.104 456.452 195.726 453.465 196.899C450.5 198.051 447.204 198.627 443.577 198.627H425.465V178.179H420.153V172.291ZM456.697 175.299C456.697 172.995 456.399 170.915 455.801 169.059C455.204 167.203 454.34 165.635 453.209 164.355C452.1 163.054 450.735 162.062 449.113 161.379C447.492 160.675 445.647 160.323 443.577 160.323H436.345V172.291H444.153V178.179H436.345V190.307H443.577C445.647 190.307 447.492 189.966 449.113 189.283C450.735 188.579 452.1 187.587 453.209 186.307C454.34 185.006 455.204 183.427 455.801 181.571C456.399 179.715 456.697 177.624 456.697 175.299ZM519.928 175.299C519.928 178.67 519.342 181.806 518.168 184.707C517.016 187.608 515.384 190.136 513.272 192.291C511.16 194.424 508.611 196.099 505.624 197.315C502.659 198.531 499.363 199.139 495.736 199.139C492.11 199.139 488.803 198.531 485.816 197.315C482.83 196.099 480.27 194.424 478.136 192.291C476.024 190.136 474.382 187.608 473.208 184.707C472.056 181.806 471.48 178.67 471.48 175.299C471.48 171.928 472.056 168.792 473.208 165.891C474.382 162.99 476.024 160.472 478.136 158.339C480.27 156.206 482.83 154.531 485.816 153.315C488.803 152.099 492.11 151.491 495.736 151.491C499.363 151.491 502.659 152.11 505.624 153.347C508.611 154.563 511.16 156.238 513.272 158.371C515.384 160.504 517.016 163.022 518.168 165.923C519.342 168.824 519.928 171.95 519.928 175.299ZM508.856 175.299C508.856 172.995 508.558 170.926 507.96 169.091C507.363 167.235 506.499 165.667 505.368 164.387C504.259 163.107 502.894 162.126 501.272 161.443C499.651 160.76 497.806 160.419 495.736 160.419C493.646 160.419 491.779 160.76 490.136 161.443C488.515 162.126 487.139 163.107 486.008 164.387C484.899 165.667 484.046 167.235 483.448 169.091C482.851 170.926 482.552 172.995 482.552 175.299C482.552 177.624 482.851 179.715 483.448 181.571C484.046 183.406 484.899 184.963 486.008 186.243C487.139 187.523 488.515 188.504 490.136 189.187C491.779 189.848 493.646 190.179 495.736 190.179C497.806 190.179 499.651 189.848 501.272 189.187C502.894 188.504 504.259 187.523 505.368 186.243C506.499 184.963 507.363 183.406 507.96 181.571C508.558 179.715 508.856 177.624 508.856 175.299ZM508.28 148.995H501.112C500.728 148.995 500.259 148.931 499.704 148.803C499.15 148.654 498.574 148.227 497.976 147.523L496.376 145.027C496.27 144.878 496.163 144.739 496.056 144.611C495.971 144.483 495.886 144.355 495.8 144.227L495.224 145.027L493.624 147.523C493.027 148.227 492.451 148.654 491.896 148.803C491.342 148.931 490.872 148.995 490.488 148.995H483.64L491.448 140.099H500.472L508.28 148.995ZM531.989 152.003C532.459 152.003 532.853 152.024 533.173 152.067C533.493 152.11 533.781 152.195 534.037 152.323C534.293 152.43 534.539 152.59 534.773 152.803C535.008 153.016 535.275 153.304 535.573 153.667L557.717 181.667C557.632 180.771 557.568 179.907 557.525 179.075C557.483 178.222 557.461 177.422 557.461 176.675V152.003H566.997V198.627H561.365C560.533 198.627 559.829 198.499 559.253 198.243C558.699 197.966 558.144 197.496 557.589 196.835L535.605 169.059C535.669 169.87 535.723 170.67 535.765 171.459C535.808 172.227 535.829 172.952 535.829 173.635V198.627H526.293V152.003H531.989ZM615.019 194.147C612.63 195.896 610.081 197.166 607.371 197.955C604.683 198.744 601.867 199.139 598.923 199.139C595.083 199.139 591.585 198.542 588.427 197.347C585.291 196.131 582.603 194.467 580.363 192.355C578.123 190.222 576.395 187.704 575.179 184.803C573.963 181.88 573.355 178.712 573.355 175.299C573.355 171.822 573.931 168.632 575.083 165.731C576.235 162.808 577.878 160.291 580.011 158.179C582.166 156.067 584.758 154.424 587.787 153.251C590.838 152.078 594.241 151.491 597.995 151.491C599.937 151.491 601.761 151.651 603.467 151.971C605.174 152.291 606.742 152.728 608.171 153.283C609.622 153.838 610.945 154.499 612.139 155.267C613.334 156.035 614.401 156.867 615.339 157.763L612.203 162.531C611.713 163.278 611.073 163.736 610.283 163.907C609.515 164.078 608.683 163.886 607.787 163.331C606.934 162.819 606.123 162.382 605.355 162.019C604.609 161.635 603.841 161.326 603.051 161.091C602.262 160.856 601.43 160.686 600.555 160.579C599.681 160.472 598.699 160.419 597.611 160.419C595.585 160.419 593.761 160.782 592.139 161.507C590.518 162.211 589.131 163.214 587.979 164.515C586.849 165.816 585.974 167.384 585.355 169.219C584.737 171.032 584.427 173.059 584.427 175.299C584.427 177.774 584.769 179.971 585.451 181.891C586.134 183.811 587.094 185.432 588.331 186.755C589.59 188.078 591.083 189.091 592.811 189.795C594.561 190.478 596.491 190.819 598.603 190.819C599.905 190.819 601.078 190.691 602.123 190.435C603.19 190.179 604.225 189.838 605.227 189.411V182.339H600.619C599.937 182.339 599.403 182.158 599.019 181.795C598.635 181.432 598.443 180.974 598.443 180.419V174.467H615.019V194.147Z" fill="white"/>
</g>
<defs>
<filter id="filter0_d_656_309" x="0.0742188" y="132.354" width="619.266" height="86.6562" filterUnits="userSpaceOnUse" color-interpolation-filters="sRGB">
<feFlood flood-opacity="0" result="BackgroundImageFix"/>
<feColorMatrix in="SourceAlpha" type="matrix" values="0 0 0 0 0 0 0 0 0 0 0 0 0 0 0 0 0 0 127 0" result="hardAlpha"/>
<feOffset dy="4"/>
<feGaussianBlur stdDeviation="2"/>
<feComposite in2="hardAlpha" operator="out"/>
<feColorMatrix type="matrix" values="0 0 0 0 0 0 0 0 0 0 0 0 0 0 0 0 0 0 0.25 0"/>
<feBlend mode="normal" in2="BackgroundImageFix" result="effect1_dropShadow_656_309"/>
<feBlend mode="normal" in="SourceGraphic" in2="effect1_dropShadow_656_309" result="shape"/>
</filter>
</defs>
</svg>
