<svg width="518" height="347" viewBox="0 0 518 347" fill="none" xmlns="http://www.w3.org/2000/svg">
<path d="M203.972 284.066V287.066H206.972V284.066H203.972ZM155.012 284.066H152.012V287.066H155.012V284.066ZM155.012 195.362H158.012V192.362H155.012V195.362ZM69.764 195.362V192.362H66.764V195.362H69.764ZM69.764 284.066V287.066H72.764V284.066H69.764ZM20.804 284.066H17.804V287.066H20.804V284.066ZM20.804 74.2584V71.2584H17.804V74.2584H20.804ZM69.764 74.2584H72.764V71.2584H69.764V74.2584ZM69.764 161.954H66.764V164.954H69.764V161.954ZM155.012 161.954V164.954H158.012V161.954H155.012ZM155.012 74.2584V71.2584H152.012V74.2584H155.012ZM203.972 74.2584H206.972V71.2584H203.972V74.2584ZM203.972 281.066H155.012V287.066H203.972V281.066ZM158.012 284.066V195.362H152.012V284.066H158.012ZM155.012 192.362H69.764V198.362H155.012V192.362ZM66.764 195.362V284.066H72.764V195.362H66.764ZM69.764 281.066H20.804V287.066H69.764V281.066ZM23.804 284.066V74.2584H17.804V284.066H23.804ZM20.804 77.2584H69.764V71.2584H20.804V77.2584ZM66.764 74.2584V161.954H72.764V74.2584H66.764ZM69.764 164.954H155.012V158.954H69.764V164.954ZM158.012 161.954V74.2584H152.012V161.954H158.012ZM155.012 77.2584H203.972V71.2584H155.012V77.2584ZM200.972 74.2584V284.066H206.972V74.2584H200.972ZM319.271 245.186H316.271V248.186H319.271V245.186ZM397.031 245.186H400.031V242.186H397.031V245.186ZM397.031 284.066V287.066H400.031V284.066H397.031ZM270.599 284.066H267.599V287.066H270.599V284.066ZM270.599 74.2584V71.2584H267.599V74.2584H270.599ZM319.271 74.2584H322.271V71.2584H319.271V74.2584ZM319.271 248.186H397.031V242.186H319.271V248.186ZM394.031 245.186V284.066H400.031V245.186H394.031ZM397.031 281.066H270.599V287.066H397.031V281.066ZM273.599 284.066V74.2584H267.599V284.066H273.599ZM270.599 77.2584H319.271V71.2584H270.599V77.2584ZM316.271 74.2584V245.186H322.271V74.2584H316.271ZM496.792 284.066V287.066H499.792V284.066H496.792ZM447.831 284.066H444.831V287.066H447.831V284.066ZM447.831 74.2584V71.2584H444.831V74.2584H447.831ZM496.792 74.2584H499.792V71.2584H496.792V74.2584ZM496.792 281.066H447.831V287.066H496.792V281.066ZM450.831 284.066V74.2584H444.831V284.066H450.831ZM447.831 77.2584H496.792V71.2584H447.831V77.2584ZM493.792 74.2584V284.066H499.792V74.2584H493.792Z" fill="#A3CC01"/>
<g filter="url(#filter0_d_539_807)">
<path d="M66.103 160.005H52.535V198.693H42.903V160.005H29.335V152.261H66.103V160.005ZM81.528 198.693H71.864V152.261H81.528V198.693ZM131.015 152.261V198.693H126.055C125.308 198.693 124.679 198.576 124.167 198.341C123.655 198.085 123.154 197.659 122.663 197.061L99.527 167.621C99.591 168.368 99.6337 169.104 99.655 169.829C99.6977 170.555 99.719 171.227 99.719 171.845V198.693H91.239V152.261H96.295C96.7003 152.261 97.0417 152.283 97.319 152.325C97.6177 152.347 97.8843 152.421 98.119 152.549C98.3537 152.656 98.5777 152.805 98.791 152.997C99.0043 153.189 99.239 153.445 99.495 153.765L122.791 183.333C122.706 182.523 122.642 181.744 122.599 180.997C122.556 180.229 122.535 179.504 122.535 178.821V152.261H131.015ZM195.703 152.261V198.693H186.039V178.693H165.591V198.693H155.927V152.261H165.591V171.973H186.039V152.261H195.703ZM250.291 175.461C250.291 178.853 249.715 182 248.563 184.901C247.432 187.803 245.821 190.309 243.731 192.421C241.661 194.533 239.165 196.197 236.243 197.413C233.32 198.608 230.077 199.205 226.515 199.205C222.952 199.205 219.709 198.608 216.787 197.413C213.864 196.197 211.357 194.533 209.267 192.421C207.176 190.309 205.555 187.803 204.403 184.901C203.272 182 202.707 178.853 202.707 175.461C202.707 172.069 203.272 168.933 204.403 166.053C205.555 163.152 207.176 160.645 209.267 158.533C211.357 156.421 213.864 154.768 216.787 153.573C219.709 152.357 222.952 151.749 226.515 151.749C230.077 151.749 233.32 152.357 236.243 153.573C239.165 154.768 241.661 156.432 243.731 158.565C245.821 160.677 247.432 163.184 248.563 166.085C249.715 168.965 250.291 172.091 250.291 175.461ZM240.467 175.461C240.467 173.029 240.147 170.853 239.507 168.933C238.867 166.992 237.939 165.349 236.722 164.005C235.528 162.64 234.067 161.605 232.339 160.901C230.632 160.176 228.691 159.813 226.515 159.813C224.339 159.813 222.387 160.176 220.659 160.901C218.931 161.605 217.459 162.64 216.243 164.005C215.048 165.349 214.131 166.992 213.491 168.933C212.851 170.853 212.531 173.029 212.531 175.461C212.531 177.915 212.851 180.112 213.491 182.053C214.131 183.973 215.048 185.605 216.243 186.949C217.459 188.293 218.931 189.328 220.659 190.053C222.387 190.757 224.339 191.109 226.515 191.109C228.691 191.109 230.632 190.757 232.339 190.053C234.067 189.328 235.528 188.293 236.722 186.949C237.939 185.605 238.867 183.973 239.507 182.053C240.147 180.112 240.467 177.915 240.467 175.461ZM280.314 181.061L275.29 166.853C274.991 166.107 274.671 165.232 274.33 164.229C274.01 163.227 273.7 162.139 273.402 160.965C273.103 162.16 272.783 163.269 272.442 164.293C272.122 165.296 271.812 166.171 271.514 166.917L266.522 181.061H280.314ZM296.442 198.693H288.986C288.154 198.693 287.471 198.501 286.938 198.117C286.426 197.712 286.042 197.2 285.786 196.581L282.65 187.717H264.154L261.018 196.581C260.804 197.115 260.431 197.605 259.898 198.053C259.364 198.48 258.692 198.693 257.882 198.693H250.361L268.506 152.261H278.33L296.442 198.693ZM268.346 139.045C268.794 139.045 269.178 139.056 269.498 139.077C269.839 139.099 270.138 139.163 270.394 139.269C270.671 139.355 270.927 139.493 271.162 139.685C271.396 139.856 271.642 140.101 271.898 140.421L278.714 149.093H272.314C271.972 149.093 271.674 149.093 271.418 149.093C271.162 149.072 270.927 149.04 270.714 148.997C270.5 148.933 270.287 148.848 270.074 148.741C269.882 148.613 269.668 148.453 269.434 148.261L259.13 139.045H268.346ZM341.291 190.885V198.693H313.739V152.261H323.339V190.885H341.291ZM390.603 175.461C390.603 178.853 390.027 182 388.875 184.901C387.744 187.803 386.134 190.309 384.043 192.421C381.974 194.533 379.478 196.197 376.555 197.413C373.632 198.608 370.39 199.205 366.827 199.205C363.264 199.205 360.022 198.608 357.099 197.413C354.176 196.197 351.67 194.533 349.579 192.421C347.488 190.309 345.867 187.803 344.715 184.901C343.584 182 343.019 178.853 343.019 175.461C343.019 172.069 343.584 168.933 344.715 166.053C345.867 163.152 347.488 160.645 349.579 158.533C351.67 156.421 354.176 154.768 357.099 153.573C360.022 152.357 363.264 151.749 366.827 151.749C370.39 151.749 373.632 152.357 376.555 153.573C379.478 154.768 381.974 156.432 384.043 158.565C386.134 160.677 387.744 163.184 388.875 166.085C390.027 168.965 390.603 172.091 390.603 175.461ZM380.779 175.461C380.779 173.029 380.459 170.853 379.819 168.933C379.179 166.992 378.251 165.349 377.035 164.005C375.84 162.64 374.379 161.605 372.651 160.901C370.944 160.176 369.003 159.813 366.827 159.813C364.651 159.813 362.699 160.176 360.971 160.901C359.243 161.605 357.771 162.64 356.555 164.005C355.36 165.349 354.443 166.992 353.803 168.933C353.163 170.853 352.843 173.029 352.843 175.461C352.843 177.915 353.163 180.112 353.803 182.053C354.443 183.973 355.36 185.605 356.555 186.949C357.771 188.293 359.243 189.328 360.971 190.053C362.699 190.757 364.651 191.109 366.827 191.109C369.003 191.109 370.944 190.757 372.651 190.053C374.379 189.328 375.84 188.293 377.035 186.949C378.251 185.605 379.179 183.973 379.819 182.053C380.459 180.112 380.779 177.915 380.779 175.461ZM437.39 152.261V198.693H432.43C431.683 198.693 431.054 198.576 430.542 198.341C430.03 198.085 429.529 197.659 429.038 197.061L405.902 167.621C405.966 168.368 406.009 169.104 406.03 169.829C406.073 170.555 406.094 171.227 406.094 171.845V198.693H397.614V152.261H402.67C403.075 152.261 403.417 152.283 403.694 152.325C403.993 152.347 404.259 152.421 404.494 152.549C404.729 152.656 404.953 152.805 405.166 152.997C405.379 153.189 405.614 153.445 405.87 153.765L429.166 183.333C429.081 182.523 429.017 181.744 428.974 180.997C428.931 180.229 428.91 179.504 428.91 178.821V152.261H437.39ZM469.706 175.045H485.642V194.213C483.274 195.941 480.746 197.211 478.058 198.021C475.391 198.811 472.565 199.205 469.578 199.205C465.759 199.205 462.303 198.619 459.21 197.445C456.117 196.251 453.471 194.597 451.274 192.485C449.077 190.373 447.381 187.867 446.186 184.965C444.991 182.064 444.394 178.896 444.394 175.461C444.394 171.984 444.959 168.795 446.09 165.893C447.242 162.992 448.874 160.496 450.986 158.405C453.098 156.315 455.647 154.683 458.634 153.509C461.642 152.336 465.002 151.749 468.714 151.749C470.634 151.749 472.426 151.909 474.09 152.229C475.754 152.528 477.29 152.955 478.698 153.509C480.106 154.043 481.397 154.683 482.57 155.429C483.743 156.176 484.81 156.997 485.77 157.893L482.986 162.181C482.559 162.864 482.005 163.28 481.322 163.429C480.639 163.579 479.893 163.408 479.082 162.917C478.314 162.448 477.557 162.032 476.81 161.669C476.085 161.285 475.306 160.955 474.474 160.677C473.642 160.4 472.735 160.187 471.754 160.037C470.773 159.888 469.642 159.813 468.362 159.813C466.207 159.813 464.255 160.187 462.506 160.933C460.757 161.68 459.263 162.736 458.026 164.101C456.81 165.467 455.871 167.109 455.21 169.029C454.549 170.949 454.218 173.093 454.218 175.461C454.218 178.021 454.581 180.315 455.306 182.341C456.031 184.347 457.055 186.043 458.378 187.429C459.701 188.816 461.279 189.872 463.114 190.597C464.97 191.323 467.029 191.685 469.29 191.685C470.826 191.685 472.191 191.536 473.386 191.237C474.602 190.917 475.786 190.491 476.938 189.957V182.149H471.69C471.071 182.149 470.581 181.989 470.218 181.669C469.877 181.328 469.706 180.901 469.706 180.389V175.045Z" fill="white"/>
</g>
<defs>
<filter id="filter0_d_539_807" x="25.3359" y="139.045" width="464.434" height="68.1602" filterUnits="userSpaceOnUse" color-interpolation-filters="sRGB">
<feFlood flood-opacity="0" result="BackgroundImageFix"/>
<feColorMatrix in="SourceAlpha" type="matrix" values="0 0 0 0 0 0 0 0 0 0 0 0 0 0 0 0 0 0 127 0" result="hardAlpha"/>
<feOffset dy="4"/>
<feGaussianBlur stdDeviation="2"/>
<feComposite in2="hardAlpha" operator="out"/>
<feColorMatrix type="matrix" values="0 0 0 0 0 0 0 0 0 0 0 0 0 0 0 0 0 0 0.25 0"/>
<feBlend mode="normal" in2="BackgroundImageFix" result="effect1_dropShadow_539_807"/>
<feBlend mode="normal" in="SourceGraphic" in2="effect1_dropShadow_539_807" result="shape"/>
</filter>
</defs>
</svg>
