<svg width="71" height="70" viewBox="0 0 71 70" fill="none" xmlns="http://www.w3.org/2000/svg">
<g clip-path="url(#clip0_240_3158)">
<path d="M66.5641 69.9997H4.42969C3.75551 69.6974 3.53271 69.1668 3.54139 68.4567C3.56743 66.7254 3.54139 64.9942 3.54139 63.2629V61.8369H1.70114C0.329639 61.8369 -0.0175781 61.4946 -0.0175781 60.1427V19.1974C-0.0175781 17.8512 0.341212 17.4861 1.7185 17.4861H18.9318V1.75659C18.9318 0.307707 19.2587 -0.0117188 20.7199 -0.0117188H50.2333C51.7293 -0.0117188 52.0475 0.302012 52.0475 1.80224V17.489H52.8809C58.3553 17.489 63.8298 17.489 69.3042 17.489C70.042 17.489 70.6121 17.6744 70.9824 18.319V60.9755C70.8486 61.2669 70.6227 61.5078 70.3384 61.6621C70.0541 61.8163 69.7268 61.8756 69.4055 61.8312C68.7458 61.7941 68.0803 61.8312 67.3974 61.8312C67.3974 62.0508 67.3743 62.182 67.3743 62.316C67.3916 64.3667 67.3945 66.4145 67.4321 68.4652C67.4611 69.164 67.244 69.7002 66.5641 69.9997ZM49.6546 2.36695H21.3681V45.6282C23.4485 45.266 25.1874 45.7793 26.3593 47.4764C27.7568 49.4957 27.4646 51.5036 26.0092 53.3033L28.214 55.2541L31.5155 52.1168C28.5583 49.2276 29.49 45.5911 31.122 43.8941C33.3412 41.5981 36.6774 41.2958 39.1369 43.1982C40.3123 44.0771 41.093 45.3737 41.3128 46.8118C41.4869 47.7728 41.4105 48.7618 41.0906 49.6857C40.7708 50.6097 40.218 51.4384 39.4841 52.094C40.6415 53.1892 41.7236 54.2331 42.7797 55.2313L45.0077 53.269C43.6565 51.5977 43.3266 49.7495 44.429 47.85C45.5662 45.8877 47.4006 45.2574 49.6373 45.5968L49.6546 2.36695ZM56.8883 56.8628C55.1725 54.4014 55.2738 51.9371 57.1198 50.2714C57.9543 49.4845 59.0547 49.0296 60.209 48.9943C61.3634 48.9591 62.4902 49.3459 63.3726 50.0804C64.2336 50.7525 64.8127 51.7143 64.9987 52.7813C65.1394 53.4715 65.1163 54.1843 64.931 54.8642C64.7458 55.544 64.4036 56.1724 63.931 56.7002C64.7701 57.5957 65.5572 58.4428 66.35 59.2671C66.4351 59.3674 66.5525 59.4359 66.6827 59.461C67.3222 59.481 67.9587 59.461 68.6011 59.461V19.8563H52.0736V20.6206C52.0736 29.2284 52.0736 37.8371 52.0736 46.4467C52.0856 46.8451 52.2055 47.2331 52.4208 47.5705C53.202 48.7997 53.4914 50.0946 52.9995 51.4779C52.7222 52.1493 52.4023 52.8027 52.0417 53.4345C52.8773 53.921 53.6064 54.5664 54.1865 55.3332C54.7667 56.1 55.1865 56.9728 55.4213 57.9009L56.8883 56.8628ZM18.9462 19.8791H2.40426V59.4839C3.03214 59.4839 3.61083 59.4839 4.18663 59.4839C4.34121 59.4838 4.49042 59.428 4.60618 59.327C5.41925 58.4713 6.21785 57.6157 7.04827 56.7201C5.47133 54.2645 5.55524 51.9514 7.36944 50.3028C8.16668 49.5473 9.20792 49.0919 10.3112 49.0163C11.4145 48.9407 12.5096 49.2497 13.4052 49.8893C14.3167 50.5312 14.9621 51.4763 15.2223 52.5503C15.6274 54.1646 15.1529 55.5907 14.0997 56.8684C14.606 57.2278 15.0603 57.5444 15.5638 57.898C15.8047 56.9559 16.2338 56.0706 16.826 55.2939C17.4182 54.5172 18.1617 53.8647 19.0128 53.3746C18.9231 53.2434 18.8739 53.1664 18.8218 53.0894C17.4387 51.3096 17.3953 49.3103 18.6511 47.4535C18.8269 47.1683 18.9181 46.8403 18.9144 46.5066C18.9279 37.8532 18.9279 29.2018 18.9144 20.5522L18.9462 19.8791ZM41.362 67.6495C41.3922 67.5681 41.4145 67.4841 41.4285 67.3985C41.4285 64.7803 41.5124 62.1591 41.4111 59.5466C41.2809 56.1468 38.9633 53.8423 35.6907 53.6969C32.6729 53.5514 29.8488 55.893 29.6926 58.8535C29.5479 61.6002 29.6116 64.3582 29.5855 67.1247C29.5947 67.3052 29.613 67.4851 29.6405 67.6638L41.362 67.6495ZM53.2599 67.6495C53.2599 65.2138 53.2599 62.8266 53.2599 60.4422C53.2751 59.8511 53.2422 59.2598 53.1615 58.6739C52.9513 57.495 52.2844 56.4429 51.3017 55.7399C50.3191 55.0368 49.0976 54.7378 47.8954 54.9062C45.4649 55.257 43.8445 57.1137 43.8156 59.6521C43.7867 62.1905 43.8156 64.709 43.8156 67.236C43.8156 67.3643 43.8388 67.4927 43.8561 67.6495H53.2599ZM17.7802 67.6495H27.1724C27.1918 67.5487 27.2054 67.4468 27.2129 67.3444C27.2129 64.6805 27.2563 62.0166 27.1868 59.3584C27.1575 58.1601 26.6554 57.0202 25.7872 56.1809C24.919 55.3416 23.7531 54.869 22.537 54.8634C21.3314 54.8418 20.1643 55.2828 19.2822 56.0932C18.4001 56.9037 17.8719 58.0202 17.8091 59.2072C17.6847 61.9709 17.7715 64.7746 17.7715 67.6267L17.7802 67.6495ZM65.0508 67.6495C65.0508 65.9611 65.1116 64.3068 65.0508 62.6554C64.9841 61.5543 64.5151 60.5143 63.7304 59.7277C62.9458 58.9412 61.8987 58.4614 60.7829 58.3772C58.3322 58.2175 56.0782 59.7377 55.7975 62.0479C55.5747 63.8761 55.7541 65.7557 55.7541 67.6381L65.0508 67.6495ZM15.3467 67.6495C15.3467 65.8926 15.4625 64.1813 15.3178 62.4957C15.2261 61.4062 14.735 60.3868 13.9362 59.6283C13.1374 58.8698 12.0856 58.424 10.9776 58.3744C8.61654 58.2403 6.48115 59.6265 6.12526 61.9424C5.83591 63.7934 6.0645 65.7243 6.0645 67.6467L15.3467 67.6495ZM35.4795 51.3182C36.4126 51.3281 37.3117 50.9738 37.9807 50.3325C38.6496 49.6913 39.0341 48.8153 39.0501 47.8956C39.0562 46.9624 38.6864 46.0649 38.0219 45.4002C37.3573 44.7355 36.4523 44.3579 35.5056 44.3504C34.5703 44.3593 33.6759 44.7293 33.0143 45.3809C32.3527 46.0325 31.9766 46.9139 31.9668 47.8357C31.9698 48.753 32.3392 49.6321 32.9951 50.2829C33.6509 50.9336 34.5404 51.3035 35.4709 51.3125L35.4795 51.3182ZM22.5081 47.8528C22.196 47.8517 21.8868 47.9113 21.5981 48.0281C21.3094 48.145 21.047 48.3168 20.8258 48.5338C20.6046 48.7508 20.429 49.0086 20.309 49.2926C20.1891 49.5766 20.1271 49.8811 20.1268 50.1887C20.1379 50.799 20.3893 51.3811 20.8276 51.8121C21.266 52.2432 21.8571 52.4895 22.4763 52.499C23.0957 52.5021 23.6914 52.2642 24.134 51.837C24.5765 51.4098 24.8303 50.8278 24.8402 50.2173C24.8495 49.9088 24.7958 49.6016 24.6823 49.3141C24.5688 49.0265 24.3977 48.7643 24.1793 48.5432C23.961 48.3221 23.6997 48.1466 23.4111 48.027C23.1225 47.9074 22.8125 47.8462 22.4994 47.8471L22.5081 47.8528ZM46.1767 50.183C46.1781 50.7909 46.4214 51.374 46.8542 51.8071C47.287 52.2401 47.8749 52.4885 48.4915 52.499C49.1225 52.5005 49.7284 52.255 50.176 51.8165C50.6236 51.378 50.8763 50.7823 50.8786 50.1602C50.8703 49.5508 50.6211 48.9686 50.1839 48.5376C49.7466 48.1067 49.156 47.861 48.5378 47.8528C48.2263 47.8482 47.917 47.9052 47.6281 48.0202C47.3393 48.1353 47.0767 48.3061 46.8559 48.5228C46.635 48.7394 46.4604 48.9974 46.3423 49.2815C46.2241 49.5657 46.1649 49.8703 46.168 50.1773L46.1767 50.183ZM8.30982 53.6598C8.30789 53.9675 8.36808 54.2726 8.48685 54.5573C8.60562 54.8419 8.78061 55.1004 9.00167 55.3178C9.22272 55.5352 9.48542 55.707 9.77447 55.8234C10.0635 55.9398 10.3731 55.9983 10.6854 55.9957C11.3037 55.984 11.8934 55.7364 12.3305 55.3051C12.7676 54.8737 13.018 54.2922 13.0291 53.6826C13.0279 53.3745 12.9651 53.0697 12.8441 52.7856C12.7231 52.5015 12.5463 52.2438 12.3239 52.0273C12.1016 51.8108 11.838 51.6397 11.5484 51.5239C11.2587 51.4081 10.9487 51.3498 10.6362 51.3524C10.3295 51.3524 10.0259 51.4119 9.74261 51.5276C9.45931 51.6433 9.20189 51.8128 8.98507 52.0266C8.76824 52.2403 8.59623 52.494 8.47888 52.7733C8.36154 53.0525 8.30115 53.3518 8.30115 53.6541L8.30982 53.6598ZM62.7071 53.6598C62.7094 53.0508 62.4674 52.4655 62.0338 52.0317C61.6001 51.5979 61.0101 51.3506 60.3923 51.3438C60.0801 51.3408 59.7704 51.3985 59.4808 51.5136C59.1912 51.6287 58.9275 51.7989 58.7047 52.0145C58.4819 52.2302 58.3045 52.487 58.1824 52.7703C58.0604 53.0535 57.9963 53.3577 57.9936 53.6655C58.0017 54.2753 58.2497 54.8582 58.6853 55.2913C59.1209 55.7244 59.7101 55.9739 60.3287 55.9871C60.6398 55.9898 60.9483 55.9316 61.2364 55.8159C61.5246 55.7002 61.7866 55.5292 62.0072 55.3131C62.2279 55.0969 62.4028 54.8397 62.522 54.5564C62.6411 54.2731 62.7021 53.9693 62.7013 53.6626L62.7071 53.6598Z" fill="#A3CC01"/>
<path d="M35.4303 16.3282C33.237 16.3282 31.0438 16.3282 28.8476 16.3282C27.5919 16.3282 27.2099 15.9374 27.207 14.6796C27.207 11.8788 27.207 9.07897 27.207 6.28008C27.207 5.05651 27.6208 4.65723 28.8824 4.65723H42.1142C43.3787 4.65723 43.7866 5.05366 43.7895 6.28008C43.7895 9.10369 43.7895 11.9273 43.7895 14.7509C43.7895 15.9146 43.3845 16.3225 42.2155 16.3253C39.9557 16.3339 37.7046 16.3282 35.4303 16.3282ZM29.6115 13.9438H41.3764V7.03019H29.6028L29.6115 13.9438Z" fill="#A3CC01"/>
<path d="M36.6452 34.9755H34.3594V32.7109H36.6452V34.9755Z" fill="#A3CC01"/>
<path d="M34.3711 37.3545H36.6425V39.6219H34.3711V37.3545Z" fill="#A3CC01"/>
<path d="M36.6512 30.3212H34.377V28.0566H36.6512V30.3212Z" fill="#A3CC01"/>
<path d="M34.3633 23.373H36.6404V25.6548H34.3633V23.373Z" fill="#A3CC01"/>
<path d="M34.3574 20.9549V18.7217H36.649V20.9549H34.3574Z" fill="#A3CC01"/>
<path d="M24.873 30.3042V28.0596H27.1647V30.3042H24.873Z" fill="#A3CC01"/>
<path d="M29.623 28.0449H31.8944V30.3067H29.623V28.0449Z" fill="#A3CC01"/>
<path d="M41.3854 30.3042H39.0996V28.0596H41.3854V30.3042Z" fill="#A3CC01"/>
<path d="M46.1179 25.6402H43.8379V23.3984H46.1179V25.6402Z" fill="#A3CC01"/>
<path d="M27.1707 34.9699H24.8906V32.7139H27.1707V34.9699Z" fill="#A3CC01"/>
<path d="M31.9176 32.708V34.9555H29.623V32.7109L31.9176 32.708Z" fill="#A3CC01"/>
<path d="M41.3875 34.9727H39.1074V32.7109H41.3875V34.9727Z" fill="#A3CC01"/>
<path d="M46.1334 32.7051V34.9554H43.8359V32.7079L46.1334 32.7051Z" fill="#A3CC01"/>
<path d="M27.1698 37.374V39.6215H24.8926V37.374H27.1698Z" fill="#A3CC01"/>
<path d="M31.8838 39.6308H29.6211V37.3662H31.8838V39.6308Z" fill="#A3CC01"/>
<path d="M39.0996 39.6132V37.3857H41.3768V39.6132H39.0996Z" fill="#A3CC01"/>
<path d="M43.8535 37.3545H46.1162V39.6191H43.8535V37.3545Z" fill="#A3CC01"/>
<path d="M27.1698 23.3818V25.635H24.8926V23.3818H27.1698Z" fill="#A3CC01"/>
<path d="M43.8242 30.2841V28.0537H46.1216V30.2841H43.8242Z" fill="#A3CC01"/>
<path d="M39.1055 23.376H41.3826V25.6149H39.1055V23.376Z" fill="#A3CC01"/>
<path d="M29.6172 25.6349V23.3789H31.8915V25.6349H29.6172Z" fill="#A3CC01"/>
<path d="M39.0996 20.9628V18.6811C39.7738 18.6811 40.4103 18.6612 41.044 18.6983C41.1296 18.7203 41.2081 18.7636 41.2719 18.824C41.3357 18.8844 41.3828 18.9599 41.4086 19.0434C41.4462 19.668 41.426 20.2983 41.426 20.9714L39.0996 20.9628Z" fill="#A3CC01"/>
<path d="M31.8983 18.7363V20.981H29.627V18.7477L31.8983 18.7363Z" fill="#A3CC01"/>
<path d="M65.034 45.4709H62.7598V26.875H65.034V45.4709Z" fill="#A3CC01"/>
<path d="M55.6738 26.8584H57.9278V45.4657H55.6738V26.8584Z" fill="#A3CC01"/>
<path d="M5.99219 26.8613H8.2433V45.463H5.99219V26.8613Z" fill="#A3CC01"/>
<path d="M13.0879 26.8555H15.3419V45.4657H13.0879V26.8555Z" fill="#A3CC01"/>
</g>
<defs>
<clipPath id="clip0_240_3158">
<rect width="71" height="70" fill="white"/>
</clipPath>
</defs>
</svg>
