<svg width="69" height="64" viewBox="0 0 69 64" fill="none" xmlns="http://www.w3.org/2000/svg">
<g clip-path="url(#clip0_240_3189)">
<path d="M0.000861586 11.615C0.478896 10.1778 1.33372 9.13158 2.89998 8.84752C3.21054 8.79867 3.52491 8.77793 3.8392 8.78562C6.15064 8.78562 8.46393 8.78562 10.7791 8.78562H11.5665C11.5665 6.95754 11.5496 5.20821 11.5665 3.45887C11.5643 2.6556 11.8448 1.87719 12.359 1.2601C12.8731 0.64301 13.5881 0.226618 14.3784 0.0839349C14.6875 0.030413 15.0012 0.00780472 15.3148 0.0164389H65.2412C67.533 0.0164389 68.984 1.47328 68.9868 3.77105C68.9868 21.5063 68.9868 39.2407 68.9868 56.9741C68.9868 61.0465 66.0398 64.0052 61.9766 64.0052C56.8775 64.0164 51.7794 64.0164 46.6823 64.0052C46.4376 64.0052 46.1199 64.0361 45.9709 63.9011C45.66 63.6477 45.4359 63.3036 45.3297 62.9168C45.2707 62.4415 45.6334 62.0731 46.1424 62.0056C46.3879 61.9783 46.6352 61.9708 46.8819 61.983H61.7854C65.0107 61.983 66.9819 60.0143 66.9819 56.7603V4.02699C66.9819 2.51108 66.5207 2.03857 65.0135 2.03857H15.5032C14.0354 2.03857 13.5883 2.4942 13.5854 3.98761V28.8356C13.5854 29.0156 13.5854 29.1956 13.5854 29.3756C13.5854 30.2643 13.2058 30.748 12.5422 30.734C11.8786 30.7199 11.5665 30.2755 11.5665 29.398C11.5665 23.5013 11.5665 17.6045 11.5665 11.7078V10.864C11.3387 10.8443 11.1672 10.8191 11.0041 10.8191C8.60077 10.8191 6.19749 10.8191 3.7942 10.8191C2.57662 10.8191 2.03672 11.3675 2.03672 12.5993C2.03672 27.4115 2.03672 42.2237 2.03672 57.036C2.03672 59.8203 4.08945 61.9521 6.76082 61.9859C9.43219 62.0196 11.5636 59.8597 11.5693 57.0472C11.5861 49.507 11.5693 41.9669 11.5693 34.4295C11.5693 34.2045 11.5693 33.9795 11.5693 33.7545C11.5833 32.9445 11.9348 32.5199 12.5844 32.5283C13.234 32.5367 13.5854 32.9811 13.5854 33.7855C13.5854 41.5703 13.5854 49.357 13.5854 57.1456C13.5854 58.9428 12.9556 60.5206 11.6171 61.9915H41.9863C43.0773 61.9915 43.5554 62.3121 43.5357 63.0265C43.516 63.7408 43.0492 64.0164 41.9947 64.0164H7.2979C3.45113 64.0164 0.951291 62.0224 0.0908294 58.2706C0.0678305 58.2069 0.0366496 58.1463 -0.00195312 58.0906L0.000861586 11.615Z" fill="#A3CC01"/>
<path d="M29.0825 40.4036C26.8798 40.4036 24.679 40.4036 22.48 40.4036C20.6916 40.4036 19.7665 39.498 19.7637 37.7262C19.7637 33.2937 19.7637 28.8604 19.7637 24.4261C19.7637 22.6459 20.6888 21.7402 22.4716 21.7402H35.7413C37.4509 21.7402 38.4014 22.6965 38.4042 24.4177C38.4042 28.8501 38.4042 33.2825 38.4042 37.7149C38.4042 39.4446 37.4622 40.398 35.7497 40.4036C33.5282 40.4092 31.3096 40.4036 29.0825 40.4036ZM21.7714 30.9932C21.7714 33.1728 21.7911 35.3553 21.7714 37.5377C21.7714 38.1705 21.9458 38.3815 22.615 38.3815C26.9267 38.3571 31.2384 38.3571 35.55 38.3815C36.1771 38.3815 36.4161 38.2212 36.4133 37.5377C36.3871 33.2253 36.3871 28.9073 36.4133 24.5836C36.4133 23.9452 36.239 23.723 35.5697 23.7399C31.2581 23.7643 26.9464 23.7643 22.6347 23.7399C21.9233 23.7399 21.7686 23.993 21.7911 24.6427C21.8024 26.7632 21.7827 28.8782 21.7827 30.9932H21.7714Z" fill="#A3CC01"/>
<path d="M40.8391 46.7229H60.2416C60.4654 46.7089 60.6899 46.7089 60.9137 46.7229C61.0388 46.7266 61.1619 46.755 61.2759 46.8066C61.3899 46.8582 61.4925 46.9319 61.5778 47.0235C61.6631 47.1151 61.7293 47.2227 61.7727 47.3401C61.816 47.4575 61.8356 47.5823 61.8304 47.7073C61.8451 47.959 61.7601 48.2064 61.5938 48.3959C61.4275 48.5854 61.1932 48.7017 60.9418 48.7198C60.7411 48.7423 60.5389 48.748 60.3372 48.7367H21.2509C21.0044 48.7559 20.7565 48.7407 20.5142 48.6917C20.2788 48.6432 20.0707 48.5069 19.9323 48.3105C19.7939 48.114 19.7355 47.8722 19.769 47.6342C19.776 47.4066 19.8654 47.1893 20.0206 47.0228C20.1758 46.8562 20.3861 46.7516 20.6126 46.7286C20.8358 46.7046 21.0605 46.699 21.2847 46.7117L40.8391 46.7229Z" fill="#A3CC01"/>
<path d="M40.7977 55.0556H60.0625C60.2874 55.0556 60.5124 55.0556 60.7345 55.0556C61.4122 55.0894 61.8593 55.4944 61.8425 56.0681C61.8256 56.6419 61.415 57.0159 60.7795 57.0694C60.5996 57.0694 60.4196 57.0694 60.2396 57.0694H21.3726C21.0815 57.0819 20.7899 57.0602 20.5038 57.0047C20.2786 56.9621 20.0782 56.8349 19.9439 56.6493C19.8095 56.4636 19.7512 56.2335 19.7811 56.0063C19.7722 55.7777 19.8512 55.5544 20.0018 55.3823C20.1524 55.2102 20.3632 55.1024 20.5909 55.081C20.8576 55.0472 21.1266 55.0359 21.3951 55.0472L40.7977 55.0556Z" fill="#A3CC01"/>
<path d="M45.3695 12.2896C45.0349 13.6958 44.7453 14.9051 44.4556 16.1145C44.2419 17.006 43.9382 17.2676 43.0918 17.3041C42.1217 17.3435 41.7224 17.0763 41.444 16.1792C40.4373 12.9917 39.4325 9.80428 38.4296 6.61685C38.1821 5.82374 38.3537 5.49188 39.1241 5.25845C39.8946 5.02502 40.2264 5.20219 40.457 5.98968C41.2725 8.76837 42.0823 11.5443 42.9484 14.5058C43.3477 12.897 43.702 11.4627 44.0563 10.0283C44.121 9.76679 44.1913 9.50525 44.2335 9.23806C44.3375 8.5687 44.6609 8.20588 45.3948 8.20588C46.1287 8.20588 46.4071 8.5687 46.5562 9.23806C46.9273 10.9002 47.3576 12.5511 47.8946 14.2442C47.9649 14.0361 48.0437 13.8308 48.1055 13.6198C48.8395 11.0886 49.5565 8.55743 50.3158 6.05436C50.4142 5.73374 50.7151 5.24999 50.9428 5.23874C51.4204 5.25662 51.8856 5.39498 52.2954 5.64094C52.4275 5.71406 52.4838 6.14153 52.4191 6.35809C51.3731 9.7499 50.312 13.1361 49.236 16.5166C49.0307 17.1551 48.5386 17.3604 47.6303 17.3013C46.9892 17.2563 46.528 17.0201 46.3762 16.3113C46.1259 15.147 45.8363 13.9939 45.5607 12.8352C45.5326 12.7142 45.4792 12.6017 45.3695 12.2896Z" fill="#A3CC01"/>
<path d="M25.6149 12.1408V6.31061C25.6149 5.44438 25.8961 5.1519 26.7088 5.16033C27.5215 5.16877 27.7633 5.44158 27.7633 6.28531C27.7633 9.52525 27.7633 12.7661 27.7633 16.0079C27.7633 16.4917 27.8027 16.9641 27.2009 17.1526C26.9025 17.2618 26.5767 17.2713 26.2724 17.1795C25.9682 17.0877 25.7019 16.8996 25.5137 16.6435C25.2325 16.2048 25.016 15.7379 24.7714 15.2823L21.9875 10.0737C21.9538 10.4421 21.9228 10.6362 21.9228 10.8077C21.9228 12.5852 21.9228 14.3626 21.9228 16.1514C21.9228 16.9417 21.6023 17.2482 20.8205 17.2398C20.0388 17.2313 19.7857 16.9585 19.7857 16.1738V6.38655C19.7857 5.97031 19.6789 5.48936 20.2272 5.30655C20.8346 5.10124 21.442 5.08437 21.9144 5.5878C22.1655 5.87465 22.3748 6.19565 22.5358 6.54122C23.4244 8.22869 24.2961 9.91617 25.1763 11.6261C25.2747 11.8146 25.3844 12.0002 25.4884 12.1886L25.6149 12.1408Z" fill="#A3CC01"/>
<path d="M31.9189 7.03902V10.3549C32.6612 10.3549 33.3755 10.3549 34.0869 10.3549C34.7983 10.3549 35.043 10.6136 35.0402 11.1986C35.0374 11.7836 34.759 12.017 34.0728 12.0227C33.3867 12.0283 32.6865 12.0227 31.9357 12.0227V15.3385H32.6697C33.8591 15.3385 35.0514 15.3385 36.2409 15.3385C36.9242 15.3385 37.1913 15.6198 37.1998 16.261C37.2082 16.9023 36.9354 17.206 36.2662 17.2088C34.4468 17.2088 32.6275 17.2088 30.8081 17.2088C29.9477 17.2088 29.748 16.9754 29.748 16.1176C29.748 12.8289 29.748 9.54209 29.748 6.25715C29.748 5.38529 29.9702 5.15469 30.8728 5.14906C32.6706 5.13781 34.4675 5.13781 36.2634 5.14906C36.9382 5.14906 37.2054 5.43031 37.2026 6.09686C37.1998 6.7634 36.9214 7.02213 36.2521 7.02494C35.0402 7.02494 33.8282 7.02494 32.6134 7.02494L31.9189 7.03902Z" fill="#A3CC01"/>
<path d="M57.4407 4.99707C58.208 5.13171 58.9675 5.30822 59.7156 5.52581C60.4186 5.76487 60.6098 6.28519 60.3764 6.91236C60.143 7.53954 59.814 7.63232 59.17 7.44951C58.4282 7.22799 57.6645 7.08749 56.8923 7.03046C56.5852 6.98709 56.2732 7.06286 56.0201 7.24222C55.7671 7.42158 55.5922 7.69097 55.5314 7.99515C55.3767 8.72357 55.8435 9.12011 56.4087 9.42386C57.2523 9.85416 58.1268 10.2001 58.9395 10.667C60.4551 11.5388 61.0484 13.0126 60.6688 14.7506C60.3454 16.2187 59.2628 17.1215 57.5194 17.3184C56.1359 17.4787 54.8312 17.2622 53.6951 16.3987C53.0737 15.9291 52.919 15.3834 53.1918 14.8181C53.5208 14.1319 53.9679 14.0447 54.5978 14.461C55.1559 14.8153 55.7322 15.1401 56.3243 15.4341C56.4724 15.4893 56.631 15.5104 56.7883 15.4959C57.6937 15.4959 58.3911 15.0881 58.5795 14.4525C58.7932 13.7241 58.4305 12.9957 57.5672 12.5344C56.8164 12.1323 56.0234 11.8116 55.2783 11.4095C53.6951 10.5348 53.0793 9.26356 53.428 7.68297C53.7486 6.22331 54.9521 5.27833 56.6786 5.15177C56.9233 5.13208 57.1707 5.12646 57.4182 5.11521L57.4407 4.99707Z" fill="#A3CC01"/>
<path d="M51.4093 40.4033C48.4699 40.4033 45.5305 40.4033 42.591 40.4033C42.3689 40.4033 42.0849 40.4764 41.933 40.3695C41.5887 40.1697 41.3072 39.8774 41.1204 39.5258C40.9545 39.0617 41.2329 38.6427 41.7221 38.4767C41.9797 38.4029 42.2473 38.3697 42.5151 38.3783H60.4189C60.5538 38.3713 60.6889 38.3713 60.8238 38.3783C61.0966 38.3835 61.3563 38.4959 61.5468 38.6911C61.7373 38.8864 61.8433 39.1489 61.8417 39.4217C61.8372 39.5569 61.8054 39.6897 61.7482 39.8122C61.6911 39.9348 61.6098 40.0445 61.5092 40.1349C61.4087 40.2252 61.2909 40.2943 61.163 40.338C61.035 40.3817 60.8996 40.3991 60.7648 40.3892C59.2379 40.4033 57.7138 40.3892 56.1869 40.3892C54.5953 40.4061 53.0009 40.4033 51.4093 40.4033Z" fill="#A3CC01"/>
<path d="M51.4871 21.7375C54.5615 21.7375 57.635 21.7375 60.7075 21.7375C61.3852 21.7375 61.8323 22.1425 61.8323 22.719C61.8323 23.2956 61.4021 23.7146 60.7356 23.754C60.581 23.754 60.4235 23.754 60.266 23.754H42.6969C42.4944 23.754 42.2919 23.754 42.0923 23.754C41.4568 23.7034 41.0659 23.304 41.0744 22.7246C41.072 22.5894 41.0979 22.4552 41.1505 22.3305C41.203 22.2059 41.2811 22.0936 41.3796 22.0009C41.4781 21.9082 41.5949 21.8372 41.7225 21.7923C41.85 21.7474 41.9856 21.7297 42.1204 21.7403C43.2199 21.7403 44.3194 21.7403 45.4189 21.7403L51.4871 21.7375Z" fill="#A3CC01"/>
<path d="M51.4627 30.0703H60.3457C60.5691 30.0614 60.793 30.0708 61.0149 30.0984C61.5295 30.1856 61.8782 30.5484 61.8079 31.0237C61.7063 31.4123 61.4714 31.7527 61.1442 31.9856C60.9305 32.1459 60.5397 32.0897 60.2304 32.0897C54.3758 32.0897 48.5204 32.0897 42.664 32.0897C42.3735 32.0994 42.0828 32.0748 41.7979 32.0165C41.5738 31.9702 41.3757 31.8404 41.2436 31.6535C41.1115 31.4666 41.0554 31.2364 41.0865 31.0097C41.0833 30.7817 41.166 30.5608 41.3181 30.3909C41.4702 30.2211 41.6807 30.1147 41.9076 30.0928C42.1306 30.066 42.3553 30.0576 42.5797 30.0675L51.4627 30.0703Z" fill="#A3CC01"/>
</g>
<defs>
<clipPath id="clip0_240_3189">
<rect width="69" height="64" fill="white"/>
</clipPath>
</defs>
</svg>
