<svg width="73" height="77" viewBox="0 0 73 77" fill="none" xmlns="http://www.w3.org/2000/svg">
<g clip-path="url(#clip0_240_3202)">
<path d="M28.1162 0.556284C30.483 1.48364 31.1288 2.41102 31.1068 4.98289C31.1068 6.8376 31.1068 8.69232 30.9626 10.547C30.9027 11.1541 30.7204 11.7432 30.4265 12.2798C30.1326 12.8165 29.7329 13.2899 29.251 13.6722C29.0198 13.8357 28.848 14.0682 28.761 14.3354C28.6741 14.6026 28.6766 14.8903 28.7683 15.156C29.244 15.2027 29.717 15.2739 30.1852 15.3693C33.1162 16.1081 34.9501 18.3925 35.0253 21.3878C35.0157 22.3325 35.0618 23.2769 35.1633 24.2163C35.2322 24.0555 35.3137 23.9072 35.367 23.731C35.925 21.9103 36.4642 20.0834 37.0473 18.275C37.1263 18.0845 37.1453 17.8749 37.1017 17.6736C37.0581 17.4723 36.9539 17.2887 36.8027 17.1467C35.4799 15.6599 34.1915 14.1482 32.8843 12.649C32.4673 12.1699 32.2918 11.666 32.6899 11.1034C33.1413 10.4605 33.9721 10.4852 34.599 11.1931C36.0003 12.7758 37.3388 14.4141 38.784 15.9566C39.1374 16.2844 39.3806 16.7109 39.4809 17.179C39.5812 17.647 39.5338 18.1341 39.3451 18.5748C38.7181 20.4296 38.1727 22.343 37.5771 24.2874C38.831 24.3646 40.1507 24.0184 40.9752 25.1405C41.3343 25.6912 41.5497 26.321 41.6021 26.9736C41.7338 28.1235 41.7401 29.428 40.5332 29.9906C39.5645 30.4419 38.3858 30.4512 37.2166 30.6738V47.1282C39.7683 46.9242 41.8059 47.7464 42.9626 50.0926L45.6335 49.7495C45.7714 49.0571 45.7338 48.4852 45.0441 47.9257C44.4152 47.4263 43.9033 46.7986 43.5434 46.0858C43.1836 45.3729 42.9844 44.5918 42.9595 43.7959C42.878 41.8948 42.8216 39.9844 42.9156 38.0864C43.0504 35.36 44.8654 33.5609 47.6178 33.3229C48.716 33.2353 49.8191 33.225 50.9187 33.292C53.7965 33.4527 55.6993 35.3322 55.8153 38.1915C55.8905 40.0184 55.8404 41.8515 55.7808 43.6784C55.7467 44.4843 55.5478 45.2752 55.196 46.0035C54.8443 46.7317 54.3469 47.3824 53.7338 47.9164C52.9501 48.6491 52.9469 48.6459 53.1068 49.7495L55.6523 50.0772C55.8988 49.6716 56.1689 49.2805 56.4611 48.9056C56.8983 48.3609 57.454 47.9201 58.0873 47.6157C58.7205 47.3112 59.4149 47.151 60.1194 47.1467C61.5426 47.1467 62.9971 47.0509 64.3796 47.3044C65.476 47.5118 66.4622 48.0959 67.163 48.9528C67.8639 49.8097 68.2338 50.8839 68.2072 51.9844C68.2072 54.0833 68.2072 56.1853 68.0598 58.2781C67.9951 58.9601 67.7869 59.6214 67.4485 60.2197C67.1101 60.8179 66.6489 61.34 66.0943 61.7526C65.8266 61.9408 65.6233 62.2047 65.5114 62.5095C65.3994 62.8142 65.384 63.1454 65.4673 63.4589C66.6272 63.7464 67.8059 63.8608 68.8184 64.3245C71.5018 65.5609 72.7683 67.7711 72.8404 70.6676C72.8623 71.5331 72.7965 72.4018 72.8404 73.2642C72.9501 74.8098 72.389 75.9504 70.8874 76.5532H2.83096C1.36074 75.9721 0.758892 74.8963 0.865475 73.3507C0.928171 72.4234 0.865452 71.4713 0.881126 70.5347C0.978305 67.6939 2.26358 65.5393 4.88427 64.3337C5.89681 63.867 7.07862 63.7495 8.2479 63.4558C8.32313 62.8778 8.32312 62.3152 7.64914 61.7619C6.97103 61.2059 6.42785 60.5073 6.05951 59.7172C5.69117 58.9271 5.50704 58.0656 5.52064 57.1962C5.4987 55.5887 5.50183 53.9813 5.52064 52.3739C5.52064 49.1683 7.56763 47.156 10.8216 47.1189C11.4924 47.1189 12.1601 47.1189 12.8686 47.1189V30.4512C12.4893 30.4512 12.1413 30.4512 11.7965 30.4512C11.4517 30.4512 11.0441 30.4512 10.6711 30.4172C9.66795 30.3244 8.79021 29.6846 8.59272 28.7572C8.16325 26.5254 8.32941 24.0122 11.8968 24.2874C12.4454 24.3306 12.9971 24.2874 13.5488 24.2874H15.1664C15.1664 23.0509 15.0943 21.9411 15.1664 20.8376C15.3357 18.6954 16.3702 16.9921 18.3012 16.0184C19.3639 15.4867 20.5958 15.2889 21.8717 14.9025C21.9783 14.5687 21.8467 14.2008 21.3827 13.8268C20.3419 12.9891 19.5959 11.8886 19.5018 10.5625C19.3545 8.70775 19.3827 6.85304 19.3545 4.99832C19.3298 4.48194 19.355 3.96441 19.4297 3.45273C19.7087 1.90713 20.7996 1.06945 22.204 0.543945L28.1162 0.556284ZM50.6868 74.2812C50.6868 73.122 50.6868 72.0154 50.6868 70.9056C50.6272 66.8531 53.5081 63.9473 57.1476 63.6877C57.4611 63.666 57.7746 63.6258 58.2949 63.5733C58.0974 62.9983 58.0786 62.3585 57.7463 62.071C56.9723 61.4366 56.3525 60.639 55.9325 59.737C55.5126 58.835 55.3033 57.8516 55.32 56.8592V52.3832C54.8623 52.2812 54.4548 52.1575 54.0379 52.1081C53.3733 52.0277 52.7557 51.9597 52.2792 52.6923C51.9478 53.093 51.471 53.3503 50.9501 53.4095C49.9622 53.5546 48.9585 53.5609 47.9689 53.428C47.3419 53.3229 46.7996 52.7758 46.2134 52.4389C46.0006 52.2682 45.7506 52.1487 45.483 52.0895C44.9571 52.1066 44.4331 52.1624 43.9156 52.2564C43.5018 52.3152 43.3513 52.547 43.3608 52.9736C43.3858 54.2596 43.3608 55.5455 43.3608 56.8314C43.3608 58.816 42.7118 60.5409 41.1664 61.8237C40.483 62.3832 40.5394 62.952 40.6617 63.6104L42.1257 63.7711C45.3263 64.1235 48.041 67.19 47.972 70.377C47.9836 70.5185 47.9667 70.6609 47.9224 70.796C47.878 70.931 47.8071 71.0562 47.7136 71.1641C47.6201 71.2721 47.5059 71.3608 47.3776 71.4252C47.2493 71.4896 47.1093 71.5284 46.9658 71.5393C46.6749 71.5715 46.3829 71.4887 46.1538 71.3091C45.9247 71.1295 45.777 70.8677 45.7432 70.581C45.7233 70.4592 45.7096 70.3364 45.7024 70.2132C45.4548 67.5981 43.4642 65.8361 40.809 65.9102C40.5295 65.9362 40.271 66.0681 40.088 66.2781C38.9 67.7248 35.1883 67.8732 33.925 66.4976C33.8247 66.3894 33.7652 66.2348 33.6523 66.1483C33.5113 66.0244 33.3392 65.9401 33.1539 65.9041C30.7087 65.6753 28.3294 67.5578 28.1382 69.9226C28.0442 71.2024 28.0849 72.4945 28.1068 73.7804C28.1068 73.9597 28.3294 74.2843 28.4611 74.2905C29.3451 74.3368 30.2354 74.3152 31.1727 74.3152C31.1727 73.6568 31.1476 73.1158 31.1727 72.5718C31.2166 71.7464 31.6491 71.2951 32.3419 71.3105C33.0347 71.326 33.4046 71.7619 33.4423 72.547C33.4705 73.1096 33.4423 73.6722 33.4423 74.2719H40.2886C40.3419 74.2101 40.3701 74.1915 40.3733 74.173C40.3733 73.632 40.3733 73.088 40.4078 72.5439C40.436 71.768 40.8404 71.3074 41.5049 71.3074C42.1695 71.3074 42.6398 71.7712 42.668 72.5718C42.6868 73.1344 42.668 73.6969 42.668 74.2874L50.6868 74.2812ZM34.8623 30.4574H22.8999C22.6002 30.4641 22.3005 30.4476 22.0034 30.4079C21.7496 30.3825 21.5146 30.2643 21.3446 30.0767C21.1747 29.8891 21.082 29.6456 21.0849 29.394C21.0558 29.1439 21.1236 28.8922 21.2747 28.6892C21.4259 28.4863 21.6492 28.3472 21.9 28.2997C22.2169 28.2311 22.5411 28.201 22.8655 28.2101C28.0901 28.2101 33.3221 28.2101 38.5614 28.2101C38.8185 28.2101 39.2793 28.1483 39.2981 28.0494C39.3874 27.6169 39.3874 27.1711 39.2981 26.7387C39.273 26.6212 38.784 26.5563 38.5081 26.5563C29.7307 26.5563 20.9438 26.5563 12.1476 26.5563C10.6742 26.5563 10.6742 26.5563 10.8247 28.0246C10.8247 28.0648 10.8749 28.105 10.9532 28.2255H11.7087C13.2761 28.2255 14.8623 28.2255 16.4391 28.2255C17.3263 28.2255 17.8404 28.6645 17.8498 29.3414C17.8592 30.0184 17.3513 30.4419 16.4705 30.4728C16.0786 30.4728 15.6836 30.4728 15.2165 30.4728V33.5238C15.2165 37.9504 15.2165 42.3811 15.2165 46.816C15.2165 47.1653 15.1978 47.4682 15.6304 47.6537C16.6454 48.1024 17.4678 48.8893 17.9532 49.8762C18.0068 49.96 18.0802 50.0299 18.1669 50.0799C18.2536 50.13 18.3513 50.1587 18.4517 50.1637C19.3106 50.0555 20.1601 49.8917 21.0222 49.7464C21.1476 48.6583 21.1445 48.6614 20.367 47.9288C19.1382 46.7696 18.3796 45.3693 18.342 43.6815C18.2981 41.6568 18.2793 39.6228 18.3764 37.6011C18.4736 35.5795 20.3764 33.6166 22.4172 33.4126C23.7356 33.2766 25.0636 33.2549 26.3858 33.3477C29.2855 33.5671 31.0379 35.2889 31.204 38.1359C31.3137 40.0092 31.2542 41.8948 31.1758 43.7711C31.1501 44.5916 30.9433 45.3967 30.5697 46.1302C30.1962 46.8638 29.6648 47.5082 29.0128 48.0184C28.3231 48.5718 28.3858 49.1405 28.4987 49.7928C29.1727 49.8701 29.7902 49.9628 30.4109 50.0061C30.599 50.0061 30.8999 49.9535 30.9689 49.8268C31.8184 48.2812 33.1633 47.4497 34.8655 47.1467L34.8623 30.4574ZM25.8529 74.2905C25.8529 72.8685 25.7902 71.5084 25.8529 70.1606C25.8875 68.727 26.3962 67.3438 27.3017 66.2216C28.2071 65.0993 29.4597 64.2997 30.8686 63.9443C31.626 63.7708 32.3933 63.6428 33.1664 63.561C33.3796 62.7572 33.1256 62.2224 32.4924 61.6846C31.895 61.1878 31.4088 60.5741 31.0645 59.8824C30.7202 59.1906 30.5254 58.4359 30.4924 57.666C30.414 56.1606 30.4579 54.649 30.4015 53.1436C30.4015 52.8345 30.2792 52.3523 30.0629 52.2441C29.3231 51.8763 28.2385 52.0246 27.9282 52.4172C26.7934 53.8391 23.1194 54.0277 21.8279 52.7263C21.809 52.7078 21.784 52.6954 21.7745 52.6737C21.4767 51.9659 20.8686 51.9906 20.2667 52.0895C19.6648 52.1885 19.1068 52.343 18.4924 52.4821C18.4924 54.0277 18.4924 55.4775 18.4924 56.9334C18.4768 58.8314 17.8404 60.5038 16.3702 61.7402C16.0764 61.9451 15.8582 62.2387 15.7485 62.5766C15.6388 62.9145 15.6435 63.2784 15.762 63.6135L16.4328 63.6629C19.0723 63.8639 21.0943 65.0262 22.3326 67.3724C22.8855 68.4597 23.1569 69.665 23.1225 70.8809C23.1225 72.0061 23.1225 73.1313 23.1225 74.2812L25.8529 74.2905ZM67.5739 74.3152C68.5144 74.3152 69.32 74.3492 70.1382 74.2874C70.3106 74.2874 70.5865 73.9195 70.5959 73.7155C70.6398 72.6274 70.6586 71.5517 70.5959 70.4512C70.4548 67.734 68.5112 65.9041 65.7777 65.9041C65.4719 65.9118 65.181 66.0359 64.9658 66.2503C63.7902 67.6413 60.2448 67.8732 58.9187 66.615C58.7777 66.479 58.6836 66.3059 58.5332 66.1637C58.4016 66.03 58.2323 65.9384 58.0473 65.901C55.204 65.7711 53.273 67.6413 53.0536 69.8175C52.9527 71.1236 52.9255 72.4342 52.972 73.7433C52.9997 73.8675 53.0588 73.9828 53.1437 74.0785C53.2287 74.1741 53.3367 74.247 53.4579 74.2905C54.298 74.3492 55.1445 74.3152 56.0661 74.3152C56.0661 73.6537 56.041 73.0787 56.0661 72.4821C56.1037 71.7341 56.5739 71.2796 57.2354 71.3044C57.8968 71.3291 58.2886 71.7557 58.3137 72.4852C58.3357 73.0695 58.3137 73.6568 58.3137 74.275H65.2761C65.2761 73.6938 65.2573 73.156 65.2761 72.6181C65.3106 71.7742 65.7087 71.3198 66.389 71.3044C67.0692 71.2889 67.5206 71.7588 67.552 72.646C67.5833 73.1622 67.5676 73.6784 67.5676 74.3306L67.5739 74.3152ZM17.7871 74.3152C18.668 74.3152 19.4391 74.2966 20.2103 74.3152C20.668 74.3152 20.8372 74.1359 20.8372 73.6969C20.8153 72.5099 20.8686 71.3198 20.7777 70.139C20.5833 67.5702 18.5645 65.8113 15.9376 65.8886C15.6574 65.9115 15.397 66.04 15.2103 66.2472C14.0316 67.6599 10.389 67.8546 9.09741 66.5563C8.99977 66.4173 8.89514 66.2832 8.78394 66.1545C8.64997 66.0223 8.48019 65.931 8.29493 65.8917C5.57392 65.7773 3.64288 67.4682 3.34507 69.6011C3.15385 70.9891 3.22909 72.411 3.22909 73.8206C3.25306 73.9264 3.30391 74.0244 3.37683 74.1055C3.44976 74.1866 3.5424 74.2481 3.64604 74.2843C4.51124 74.3275 5.3827 74.3059 6.3294 74.3059C6.3294 73.663 6.3294 73.1003 6.3294 72.5377C6.35135 71.7618 6.75887 71.3013 7.42344 71.3013C8.08802 71.3013 8.56137 71.7619 8.58958 72.5656C8.60839 73.1251 8.58958 73.6877 8.58958 74.2719H15.5332C15.5332 73.6537 15.5018 73.0354 15.5332 72.4605C15.5802 71.7093 16.0598 71.2734 16.7244 71.3044C17.389 71.3353 17.7557 71.7619 17.784 72.5068C17.7965 73.0694 17.7808 73.6351 17.7808 74.3306L17.7871 74.3152ZM32.7056 24.275C32.7056 23.0385 32.8153 21.8824 32.6805 20.7449C32.5734 19.8516 32.1408 19.0271 31.4632 18.4249C30.7856 17.8227 29.9092 17.4838 28.9971 17.4713C28.8626 17.4793 28.7314 17.5158 28.6124 17.5782C28.4934 17.6406 28.3894 17.7275 28.3075 17.833C26.8028 20.2008 23.8372 20.2101 22.3513 17.833C22.2327 17.6364 22.04 17.4941 21.8153 17.4373C20.9507 17.3503 20.0813 17.5491 19.3437 18.0023C18.606 18.4555 18.042 19.1375 17.7401 19.9412C17.2322 21.3507 17.5332 22.8036 17.4924 24.2256H19.947C19.947 23.8051 19.9188 23.4342 19.947 23.0694C20.0159 22.3554 20.4674 21.9164 21.0786 21.9195C21.6899 21.9226 22.1288 22.3646 22.1946 23.0787C22.2291 23.462 22.2322 23.8453 22.251 24.2163H28.11C28.11 23.8113 28.11 23.4651 28.11 23.122C28.1444 22.4079 28.5645 21.9473 29.1789 21.9195C29.7934 21.8917 30.3075 22.3616 30.3639 23.0973C30.3952 23.4775 30.3639 23.8608 30.3639 24.2596L32.7056 24.275ZM11.9909 49.3693C11.4423 49.3693 10.8905 49.3446 10.342 49.3693C9.71194 49.4013 9.11456 49.6556 8.6588 50.0857C8.20304 50.5158 7.91925 51.0931 7.85919 51.7124C7.79649 52.3508 7.79649 52.9937 7.85919 53.632C7.94446 54.2939 8.19159 54.9255 8.57929 55.4723C8.96698 56.0191 9.48363 56.4649 10.0848 56.7712C10.6859 57.0774 11.3535 57.2351 12.0301 57.2305C12.7067 57.2259 13.3721 57.0592 13.9689 56.7449C15.6899 55.8175 16.5144 53.9628 16.1633 51.7279C15.9438 50.2781 14.9093 49.3816 13.3827 49.3538C12.9344 49.3631 12.4579 49.3724 11.9846 49.3724L11.9909 49.3693ZM65.9846 52.6645V52.2935C65.9658 50.4605 64.8968 49.3878 63.0536 49.3693C62.1507 49.3693 61.2511 49.3693 60.3482 49.3693C58.9125 49.3971 57.8247 50.2688 57.6398 51.6537C57.552 52.3893 57.5709 53.1335 57.6962 53.8639C57.8601 54.839 58.3784 55.722 59.1544 56.3477C59.9303 56.9735 60.9107 57.2993 61.9125 57.2642C64.32 57.1869 65.972 55.326 65.9783 52.6676L65.9846 52.6645ZM20.5927 38.7541C20.5927 39.0014 20.5927 39.2487 20.5927 39.496C20.6281 40.2206 20.8574 40.9229 21.2572 41.5317C21.6571 42.1406 22.2133 42.6341 22.8693 42.9623C23.5253 43.2904 24.2577 43.4415 24.9921 43.4C25.7265 43.3586 26.4366 43.1261 27.0504 42.7263C28.831 41.5609 29.1194 39.7989 28.9062 37.8793C28.8563 37.2687 28.5836 36.6967 28.1385 36.2692C27.6935 35.8418 27.1065 35.5879 26.4862 35.5548C25.6147 35.4899 24.7369 35.5146 23.8623 35.5146C21.5426 35.5239 20.5614 36.4945 20.5865 38.7634L20.5927 38.7541ZM36.9407 49.3662C36.3921 49.3662 35.8404 49.3446 35.2887 49.3662C34.6557 49.3802 34.0497 49.6217 33.5844 50.0451C33.1192 50.4686 32.8268 51.045 32.762 51.6661C32.7005 52.2828 32.7005 52.904 32.762 53.5208C32.8062 54.2678 33.0686 54.9862 33.5174 55.5895C33.9663 56.1928 34.5825 56.6552 35.2918 56.9211C35.9839 57.2277 36.7505 57.3324 37.501 57.2228C38.2516 57.1132 38.9546 56.794 39.5269 56.3028C41.0253 55.1375 41.1946 53.5208 41.0661 51.8113C41.0274 51.1625 40.7442 50.5514 40.2721 50.0979C39.8 49.6444 39.1731 49.3812 38.5144 49.36C37.9877 49.3538 37.4611 49.3755 36.9344 49.3755L36.9407 49.3662ZM49.3702 35.5517C45.5112 35.2426 44.9626 37.1127 45.2259 39.6567C45.2747 40.3995 45.5364 41.1133 45.9803 41.7152C46.4242 42.3172 47.0323 42.7824 47.7338 43.0571C48.4334 43.3756 49.2118 43.4867 49.9742 43.377C50.7367 43.2672 51.4504 42.9413 52.0285 42.4388C53.5144 41.258 53.668 39.6351 53.5238 37.9288C53.4834 37.3189 53.2227 36.7435 52.7891 36.3069C52.3555 35.8702 51.7776 35.6012 51.1601 35.5486C50.5739 35.5146 49.9626 35.5609 49.3639 35.5609L49.3702 35.5517ZM25.2542 7.14054C24.5551 7.14054 23.8529 7.11271 23.157 7.14054C22.1789 7.1869 21.6962 7.6753 21.6836 8.63976C21.6715 9.18154 21.7145 9.72315 21.8122 10.2564C22.0043 11.1049 22.5112 11.8519 23.2334 12.3507C23.9555 12.8494 24.8407 13.0639 25.715 12.952C27.809 12.6243 28.9908 10.9983 28.8498 8.62428C28.7965 7.66602 28.3326 7.18381 27.3514 7.13744C26.6492 7.12198 25.947 7.14673 25.2479 7.14982L25.2542 7.14054ZM20.7401 44.3461C20.9846 45.3158 21.6032 46.1531 22.4642 46.68C22.7676 46.8293 23.0155 47.0693 23.1725 47.3657C23.3295 47.662 23.3877 47.9998 23.3388 48.3306C23.3184 48.6508 23.3184 48.9719 23.3388 49.292C23.3796 51.6259 22.9282 51.2766 25.4924 51.3075C25.9564 51.3075 26.1821 51.1282 26.1695 50.6459C26.1476 50.0277 26.2165 49.4095 26.1507 48.7912C26.041 47.7495 26.3607 47.0138 27.32 46.4636C27.6849 46.2523 27.9929 45.9574 28.2177 45.6039C28.4425 45.2503 28.5776 44.8486 28.6115 44.4327C26.0159 46.105 23.4266 46.0772 20.7401 44.3461ZM45.4611 44.4172C45.6209 45.3445 46.088 46.0215 47.0974 46.6892C47.3952 46.8486 47.6371 47.0929 47.7915 47.3903C47.9459 47.6876 48.0056 48.024 47.9627 48.3554C47.9438 48.6766 47.9438 48.9986 47.9627 49.3198C48.0034 51.6073 47.5551 51.2796 50.0755 51.3044H50.1507C50.5865 51.3044 50.7777 51.1158 50.7777 50.6861C50.7777 49.969 50.8279 49.2456 50.7777 48.5223C50.72 48.1315 50.7883 47.7327 50.9727 47.3822C51.1572 47.0317 51.4487 46.7471 51.8059 46.5686C52.2035 46.3241 52.5459 46.0018 52.8123 45.6217C53.0786 45.2416 53.2632 44.8117 53.3545 44.3585C50.6554 46.1019 48.0661 46.0834 45.4611 44.4018V44.4172ZM40.9094 58.1792C38.2009 59.9535 35.5802 59.9412 32.8968 58.1977C33.1372 59.1644 33.7545 59.9985 34.6147 60.5192C34.9186 60.669 35.1669 60.9094 35.3245 61.2063C35.482 61.5031 35.5408 61.8414 35.4924 62.173C35.472 62.4931 35.472 62.8142 35.4924 63.1344C35.5332 65.4713 35.1037 65.0911 37.5802 65.1405C38.1445 65.1405 38.3388 64.918 38.3232 64.3894C38.3012 63.6475 38.3545 62.9025 38.3075 62.1637C38.2655 61.8324 38.3278 61.4964 38.4859 61.2011C38.6441 60.9059 38.8903 60.6657 39.1915 60.513C40.0564 59.9846 40.6741 59.1399 40.9094 58.1637V58.1792ZM8.03789 58.2719C8.29661 59.2435 8.93589 60.074 9.8153 60.581C10.0789 60.7232 10.2948 60.9381 10.4362 61.1995C10.5777 61.4609 10.6386 61.7574 10.6115 62.0524C10.5833 62.8407 10.6115 63.632 10.6115 64.4203C10.6115 64.9025 10.762 65.1684 11.3012 65.1375C11.8404 65.1065 12.3012 65.1375 12.7996 65.1375C13.2479 65.1375 13.4266 64.9551 13.4266 64.5192C13.4078 63.8299 13.4705 63.1344 13.4266 62.4481C13.3641 62.0457 13.4305 61.634 13.6165 61.2706C13.8025 60.9071 14.0988 60.6098 14.4642 60.4203C14.8539 60.1891 15.1904 59.8802 15.4522 59.5135C15.714 59.1468 15.8953 58.7302 15.9846 58.2905C12.4736 59.9412 11.7025 59.9381 8.03789 58.2565V58.2719ZM57.7965 58.2039C57.9083 58.6802 58.1157 59.1297 58.4064 59.5257C58.6972 59.9218 59.0653 60.2564 59.4893 60.5099C59.8015 60.6709 60.0557 60.9229 60.2173 61.2316C60.3789 61.5403 60.4399 61.8906 60.3921 62.2348C60.3748 62.5313 60.3748 62.8286 60.3921 63.1251C60.4485 65.5053 59.9344 65.0849 62.5363 65.1405C63.041 65.1405 63.1946 64.9118 63.1852 64.4605C63.1852 63.8422 63.2291 63.224 63.1852 62.6057C63.0912 61.5918 63.3984 60.8685 64.3325 60.3275C64.7073 60.0987 65.0273 59.7926 65.2708 59.4303C65.5143 59.068 65.6755 58.6581 65.7432 58.2286C63.0441 59.9226 60.483 59.9103 57.784 58.1885L57.7965 58.2039ZM21.7056 4.9087C22.7777 4.9087 23.8184 4.9087 24.8623 4.9087C25.0294 4.9318 25.1997 4.90316 25.3496 4.82675C25.4996 4.75034 25.6218 4.62992 25.6993 4.48212C26.11 3.81751 27.0943 3.74641 27.4517 4.39556C27.809 5.04471 28.2604 5.0138 28.7871 5.09726C28.9877 3.29819 28.5488 2.80358 26.7808 2.80049H23.7025C21.9689 2.79431 21.4893 3.35382 21.7056 4.89323V4.9087ZM24.2134 15.2333C24.2134 15.9659 23.9532 16.7572 24.7526 17.1838C24.9259 17.2632 25.1148 17.3043 25.3059 17.3043C25.497 17.3043 25.6859 17.2632 25.8592 17.1838C26.6147 16.7356 26.4172 15.9659 26.3733 15.2456L24.2134 15.2333Z" fill="#A3CC01"/>
<path d="M50.1264 17.6943C50.6311 17.1472 50.9885 16.6031 51.4869 16.2569C51.9987 15.8864 52.5932 15.6426 53.2204 15.5459C54.2438 15.4712 55.2712 15.4629 56.2957 15.5212C57.0919 15.5212 57.5496 15.9293 57.5715 16.5815C57.5935 17.2338 57.1264 17.7221 56.3176 17.75C55.5088 17.7778 54.6123 17.716 53.7659 17.7778C53.3857 17.8061 53.024 17.9509 52.7314 18.192C51.9509 18.8844 51.233 19.6449 50.49 20.3806C49.9791 20.8844 49.4054 21.1874 48.6687 20.8968C47.9321 20.6062 47.7283 19.9942 47.7283 19.2739C47.7283 18.8072 47.7283 18.3466 47.7283 17.8149C47.4618 17.7933 47.2486 17.7654 47.0355 17.7592C45.0261 17.716 43.9383 16.6433 43.9258 14.6495C43.9258 12.2508 43.9258 9.85198 43.9258 7.45012C43.9258 6.78243 43.9258 6.11473 43.9258 5.44704C43.9697 3.53977 45.0543 2.46094 46.9791 2.46094C54.5904 2.46094 62.2006 2.46094 69.8098 2.46094C71.7659 2.46094 72.8599 3.56758 72.8662 5.51503C72.8662 8.5815 72.8662 11.648 72.8662 14.7144C72.8662 16.6031 71.7377 17.7407 69.8474 17.753C67.2706 17.753 64.6907 17.753 62.1139 17.753C62.0386 17.753 61.9634 17.753 61.8881 17.753C61.1139 17.6912 60.6624 17.2677 60.6718 16.6124C60.6812 15.9571 61.1264 15.5274 61.9258 15.5212C64.3803 15.5212 66.8348 15.5212 69.2863 15.5212H69.8882C70.3835 15.5212 70.6185 15.2863 70.6185 14.7948C70.6185 11.6789 70.6185 8.56296 70.6185 5.44704C70.6185 4.71443 70.1577 4.69896 69.6123 4.69896C62.1515 4.69896 54.6917 4.69896 47.233 4.69896C47.1327 4.69896 47.0323 4.69896 46.9195 4.69896C46.8266 4.67861 46.7301 4.68098 46.6384 4.70586C46.5467 4.73074 46.4625 4.77738 46.3932 4.8417C46.324 4.90603 46.2718 4.9861 46.2411 5.0749C46.2104 5.16371 46.2022 5.25856 46.2173 5.35119V14.8504C46.2173 15.3172 46.4712 15.5212 46.9258 15.515H47.2988C48.9853 15.5274 49.512 15.9076 50.1264 17.6943Z" fill="#A3CC01"/>
<path d="M58.4644 6.78824H66.3515C66.6014 6.77201 66.8523 6.78866 67.0976 6.83771C67.3605 6.88539 67.595 7.0304 67.7529 7.24305C67.9109 7.45571 67.9804 7.71989 67.9472 7.98144C67.9425 8.23439 67.8444 8.47699 67.6713 8.66367C67.4981 8.85036 67.2618 8.96829 67.0067 8.99536C66.8338 9.02335 66.6582 9.03266 66.4832 9.02317H50.3359C50.1856 9.03397 50.0348 9.03397 49.8845 9.02317C49.605 9.01058 49.3409 8.89316 49.1463 8.69492C48.9516 8.49668 48.8411 8.23262 48.8374 7.95672C48.8299 7.8137 48.851 7.67059 48.8998 7.53568C48.9486 7.40078 49.024 7.27672 49.1216 7.17068C49.2192 7.06464 49.3372 6.97873 49.4686 6.91786C49.6001 6.85699 49.7425 6.82239 49.8876 6.81605C50.2374 6.79747 50.588 6.79747 50.9378 6.81605L58.4644 6.78824Z" fill="#A3CC01"/>
<path d="M54.1042 10.9432C55.3299 10.9432 56.5556 10.9432 57.7813 10.9432C58.6559 10.9432 59.1857 11.3822 59.1888 12.056C59.192 12.7299 58.6622 13.1689 57.7845 13.172C55.2578 13.172 52.7311 13.172 50.2045 13.172C49.3424 13.172 48.8283 12.7113 48.8503 12.0251C48.8722 11.3388 49.3707 10.9525 50.2014 10.9432C51.5149 10.937 52.8033 10.9432 54.1042 10.9432Z" fill="#A3CC01"/>
</g>
<defs>
<clipPath id="clip0_240_3202">
<rect width="72" height="76" fill="white" transform="translate(0.900391 0.556641)"/>
</clipPath>
</defs>
</svg>
