<svg width="89" height="90" viewBox="0 0 89 90" fill="none" xmlns="http://www.w3.org/2000/svg">
<g clip-path="url(#clip0_243_5706)">
<path d="M23.4722 81.4961H20.7988V84.1694H23.4722V81.4961Z" fill="white"/>
<path d="M54.5898 63.4435H29.5084V41.3126C29.5084 40.9212 29.3529 40.5459 29.0762 40.2691C28.7994 39.9924 28.4241 39.8369 28.0327 39.8369H1.47569C1.08431 39.8369 0.708964 39.9924 0.432219 40.2691C0.155474 40.5459 0 40.9212 0 41.3126V88.5257C0 88.9171 0.155474 89.2924 0.432219 89.5692C0.708964 89.8459 1.08431 90.0014 1.47569 90.0014H54.5862C54.78 90.0014 54.9719 89.9632 55.1509 89.889C55.3299 89.8149 55.4926 89.7062 55.6297 89.5692C55.7667 89.4321 55.8754 89.2695 55.9495 89.0904C56.0237 88.9114 56.0619 88.7195 56.0619 88.5257V64.9191C56.0619 64.5284 55.9069 64.1536 55.6309 63.8769C55.3549 63.6003 54.9805 63.4444 54.5898 63.4435ZM38.3607 66.3922H44.2626V72.294H38.3607V66.3922ZM11.8055 42.7856H17.7074V48.6875H11.8037L11.8055 42.7856ZM2.95316 42.7856H8.85502V50.1623C8.85502 50.5537 9.01049 50.929 9.28724 51.2057C9.56398 51.4825 9.93933 51.638 10.3307 51.638H19.183C19.5744 51.638 19.9498 51.4825 20.2265 51.2057C20.5033 50.929 20.6587 50.5537 20.6587 50.1623V42.7856H26.5552V63.4417H2.95048L2.95316 42.7856ZM11.8037 66.3922H17.7056V72.294H11.8037V66.3922ZM2.95138 66.3922H8.85323V73.7688C8.85323 74.1602 9.00871 74.5355 9.28545 74.8123C9.5622 75.089 9.93755 75.2445 10.3289 75.2445H19.1813C19.5726 75.2445 19.948 75.089 20.2247 74.8123C20.5015 74.5355 20.657 74.1602 20.657 73.7688V66.3922H26.5552V87.0482H2.95048L2.95138 66.3922ZM53.1105 87.05H29.5084V66.3922H35.4103V73.7688C35.4103 74.1602 35.5657 74.5355 35.8425 74.8123C36.1192 75.089 36.4946 75.2445 36.886 75.2445H45.7383C46.1297 75.2445 46.505 75.089 46.7818 74.8123C47.0585 74.5355 47.214 74.1602 47.214 73.7688V66.3922H53.1105V87.05Z" fill="white"/>
<path d="M50.2046 81.4961H47.5312V84.1694H50.2046V81.4961Z" fill="white"/>
<path d="M23.4722 57.4355H20.7988V60.1089H23.4722V57.4355Z" fill="white"/>
<path d="M86.7058 19.1389C86.819 19.1662 86.9351 19.18 87.0515 19.1799C87.3101 19.1796 87.564 19.1116 87.7881 18.9826C88.0121 18.8536 88.1984 18.6681 88.3285 18.4447C88.4626 18.2089 88.5309 17.9415 88.5263 17.6703V11.8032C88.5262 11.4722 88.4148 11.1509 88.21 10.8908C88.0052 10.6308 87.719 10.4471 87.3973 10.3694L44.6077 0.0413639C44.3802 -0.013788 44.1428 -0.013788 43.9153 0.0413639L1.12836 10.3694C0.8068 10.4473 0.520755 10.631 0.316161 10.8911C0.111566 11.1511 0.000291647 11.4723 0.000207526 11.8032V17.6632C-0.00487006 17.9719 0.0833328 18.2751 0.253285 18.5329C0.42205 18.7812 0.662451 18.9722 0.942477 19.0804C1.2225 19.1887 1.52886 19.2091 1.82076 19.1389L4.42638 18.5097V36.8845H7.37686V17.7986L44.2619 8.8946L81.147 17.7977V87.049H72.2946V29.5088C72.2946 29.1174 72.1392 28.742 71.8624 28.4653C71.5857 28.1886 71.2103 28.0331 70.819 28.0331H17.7085C17.3171 28.0331 16.9417 28.1886 16.665 28.4653C16.3882 28.742 16.2328 29.1174 16.2328 29.5088V35.4106C16.2328 35.802 16.3882 36.1774 16.665 36.4541C16.9417 36.7308 17.3171 36.8863 17.7085 36.8863H69.3433V39.8332H32.4582V42.7837H69.3433V45.7342H32.4582V48.6847H69.3433V51.6352H32.4582V54.5901H69.3433V87.049H59.0161V90.003H88.5236V87.0526H84.0975V18.5106L86.7058 19.1389ZM19.1833 33.9314V30.9836H69.3433V33.9341L19.1833 33.9314ZM44.2619 5.90223C44.1455 5.9021 44.0294 5.91586 43.9162 5.94322L2.9498 15.831V12.9652L44.2619 2.99363L85.5732 12.9652V15.831L44.6077 5.93966C44.4945 5.9123 44.3784 5.89854 44.2619 5.89867V5.90223Z" fill="white"/>
<path d="M47.2128 23.6062C48.3867 23.6062 49.5125 23.1399 50.3426 22.3099C51.1726 21.4798 51.639 20.354 51.639 19.1801C51.639 18.0062 51.1726 16.8804 50.3426 16.0503C49.5125 15.2202 48.3867 14.7539 47.2128 14.7539H41.3109C40.137 14.7539 39.0112 15.2202 38.1812 16.0503C37.3511 16.8804 36.8848 18.0062 36.8848 19.1801C36.8848 20.354 37.3511 21.4798 38.1812 22.3099C39.0112 23.1399 40.137 23.6062 41.3109 23.6062H47.2128ZM39.8361 19.1801C39.8366 18.7888 39.9922 18.4138 40.2689 18.1371C40.5455 17.8605 40.9206 17.7049 41.3118 17.7044H47.2137C47.4105 17.6995 47.6062 17.7341 47.7894 17.8061C47.9727 17.8781 48.1396 17.986 48.2805 18.1234C48.4214 18.2609 48.5334 18.4252 48.6098 18.6065C48.6863 18.7879 48.7256 18.9828 48.7256 19.1796C48.7256 19.3765 48.6863 19.5713 48.6098 19.7527C48.5334 19.9341 48.4214 20.0984 48.2805 20.2358C48.1396 20.3733 47.9727 20.4812 47.7894 20.5532C47.6062 20.6251 47.4105 20.6597 47.2137 20.6549H41.3118C40.9206 20.6544 40.5455 20.4988 40.2689 20.2221C39.9922 19.9455 39.8366 19.5704 39.8361 19.1792V19.1801Z" fill="white"/>
</g>
<defs>
<clipPath id="clip0_243_5706">
<rect width="88.5252" height="90" fill="white"/>
</clipPath>
</defs>
</svg>
