<svg width="91" height="90" viewBox="0 0 91 90" fill="none" xmlns="http://www.w3.org/2000/svg">
<g clip-path="url(#clip0_243_5750)">
<path d="M34.9153 10.5078C34.5674 10.5078 34.2273 10.611 33.938 10.8043C33.6488 10.9976 33.4233 11.2723 33.2902 11.5937C33.157 11.9151 33.1222 12.2688 33.1901 12.6101C33.2579 12.9513 33.4255 13.2647 33.6715 13.5107C33.9175 13.7567 34.2309 13.9243 34.5721 13.9921C34.9134 14.06 35.2671 14.0252 35.5885 13.892C35.9099 13.7589 36.1846 13.5334 36.3779 13.2442C36.5712 12.9549 36.6744 12.6148 36.6744 12.2669C36.6744 11.8003 36.489 11.3529 36.1592 11.023C35.8293 10.6931 35.3818 10.5078 34.9153 10.5078Z" fill="white"/>
<path d="M24.3645 3.47363C24.0166 3.47363 23.6765 3.5768 23.3872 3.77009C23.098 3.96338 22.8725 4.2381 22.7394 4.55953C22.6062 4.88096 22.5714 5.23465 22.6393 5.57587C22.7071 5.91709 22.8747 6.23053 23.1207 6.47654C23.3667 6.72255 23.6801 6.89008 24.0213 6.95796C24.3626 7.02583 24.7163 6.991 25.0377 6.85786C25.3591 6.72472 25.6338 6.49925 25.8271 6.20998C26.0204 5.9207 26.1236 5.58061 26.1236 5.2327C26.1236 4.76616 25.9383 4.31874 25.6084 3.98885C25.2785 3.65896 24.8311 3.47363 24.3645 3.47363Z" fill="white"/>
<path d="M88.7315 14.0253H83.6005C83.1221 12.8256 82.4784 11.6988 81.6881 10.6773L83.9792 6.7092C84.0952 6.50904 84.1706 6.28797 84.201 6.05864C84.2314 5.82931 84.2164 5.59622 84.1566 5.37273C84.0968 5.14924 83.9936 4.93973 83.8527 4.7562C83.7119 4.57267 83.5362 4.41873 83.3358 4.30319L77.2432 0.785956C77.0431 0.669953 76.822 0.594571 76.5927 0.564126C76.3634 0.533682 76.1302 0.548774 75.9068 0.608537C75.6833 0.6683 75.4738 0.771561 75.2903 0.912407C75.1067 1.05325 74.9528 1.22892 74.8372 1.42934L72.5587 5.38946C71.272 5.18368 69.9609 5.18368 68.6743 5.38946L66.393 1.43291C66.2775 1.23248 66.1235 1.05682 65.94 0.915972C65.7565 0.775126 65.547 0.671865 65.3235 0.612101C65.1 0.552338 64.8669 0.537247 64.6376 0.567691C64.4082 0.598135 64.1872 0.673517 63.987 0.789521L57.8944 4.30675C57.694 4.4223 57.5184 4.57624 57.3775 4.75977C57.2367 4.94329 57.1334 5.1528 57.0736 5.37629C57.0139 5.59978 56.9988 5.83287 57.0292 6.0622C57.0597 6.29153 57.1351 6.51261 57.2511 6.71277L59.5421 10.6809C58.7518 11.7023 58.1081 12.8292 57.6298 14.0288H52.4987C52.0336 14.03 51.5879 14.2154 51.259 14.5444C50.9302 14.8733 50.7451 15.3192 50.7441 15.7843V22.8188C50.7441 23.2853 50.9295 23.7327 51.2594 24.0626C51.5893 24.3925 52.0367 24.5779 52.5032 24.5779H57.6342C58.1126 25.7775 58.7563 26.9043 59.5466 27.9258L57.2555 31.8939C57.1395 32.0941 57.0641 32.3151 57.0337 32.5445C57.0033 32.7738 57.0183 33.0069 57.0781 33.2304C57.1379 33.4539 57.2411 33.6634 57.382 33.8469C57.5228 34.0304 57.6985 34.1844 57.8989 34.2999L63.9915 37.8172C64.1916 37.9332 64.4127 38.0085 64.642 38.039C64.8714 38.0694 65.1045 38.0543 65.3279 37.9946C65.5514 37.9348 65.7609 37.8315 65.9445 37.6907C66.128 37.5499 66.2819 37.3742 66.3975 37.1738L68.6796 33.2217C69.9662 33.4275 71.2774 33.4275 72.564 33.2217L74.8461 37.1738C74.9615 37.3744 75.1154 37.5502 75.2989 37.6912C75.4824 37.8322 75.6919 37.9355 75.9155 37.9953C76.139 38.0551 76.3722 38.0701 76.6016 38.0395C76.831 38.009 77.0521 37.9334 77.2522 37.8172L83.3447 34.2999C83.5451 34.1844 83.7208 34.0304 83.8616 33.8469C84.0025 33.6634 84.1057 33.4539 84.1655 33.2304C84.2253 33.0069 84.2404 32.7738 84.2099 32.5445C84.1795 32.3151 84.1041 32.0941 83.9881 31.8939L81.697 27.9258C82.4873 26.9043 83.131 25.7775 83.6094 24.5779H88.7404C89.2069 24.5779 89.6544 24.3925 89.9842 24.0626C90.3141 23.7327 90.4995 23.2853 90.4995 22.8188V15.7843C90.4995 15.5526 90.4537 15.3231 90.3647 15.1091C90.2758 14.8951 90.1454 14.7008 89.9811 14.5373C89.8168 14.3739 89.6218 14.2445 89.4074 14.1566C89.1929 14.0687 88.9632 14.0241 88.7315 14.0253ZM86.9724 21.0597H82.3538C81.9763 21.0595 81.6089 21.1806 81.3056 21.4053C81.0023 21.6299 80.7793 21.9462 80.6696 22.3073C80.2085 23.8799 79.3843 25.3222 78.2636 26.5178C78.0039 26.793 77.84 27.1446 77.796 27.5204C77.752 27.8962 77.8303 28.2762 78.0194 28.6039L80.052 32.1247L77.0062 33.8838L74.9753 30.3665C74.786 30.0384 74.4958 29.7802 74.1478 29.6304C73.7998 29.4806 73.4128 29.4472 73.0443 29.5351C71.452 29.9542 69.7783 29.9542 68.1859 29.5351C67.8175 29.4473 67.4305 29.4808 67.0825 29.6306C66.7346 29.7804 66.4443 30.0385 66.2549 30.3665L64.2241 33.8838L61.1782 32.1247L63.2108 28.6039C63.4 28.2762 63.4785 27.8962 63.4345 27.5204C63.3905 27.1446 63.2264 26.793 62.9667 26.5178C61.846 25.3221 61.0219 23.8798 60.5607 22.3073C60.451 21.9461 60.2281 21.6298 59.9248 21.4051C59.6215 21.1804 59.2539 21.0593 58.8765 21.0597H54.2587V17.5425H58.8774C59.2548 17.5427 59.6223 17.4216 59.9256 17.1969C60.2288 16.9723 60.4518 16.656 60.5616 16.2949C61.0227 14.7223 61.8468 13.2801 62.9676 12.0844C63.2272 11.8092 63.3912 11.4576 63.4352 11.0818C63.4791 10.706 63.4008 10.326 63.2117 9.99831L61.1791 6.47751L64.2249 4.71845L66.2558 8.23568C66.4452 8.56371 66.7355 8.82182 67.0834 8.97162C67.4314 9.12142 67.8184 9.1549 68.1868 9.06709C69.7792 8.64803 71.4529 8.64803 73.0452 9.06709C73.4137 9.15505 73.8007 9.12164 74.1487 8.97182C74.4966 8.82201 74.7869 8.56381 74.9762 8.23568L77.0071 4.71845L80.0529 6.47751L78.0194 9.99831C77.8302 10.326 77.7518 10.706 77.7958 11.0818C77.8397 11.4577 78.0038 11.8093 78.2636 12.0844C79.3842 13.2801 80.2084 14.7224 80.6696 16.2949C80.7792 16.6561 81.0022 16.9724 81.3055 17.1971C81.6088 17.4218 81.9763 17.5429 82.3538 17.5425H86.9715L86.9724 21.0597Z" fill="white"/>
<path d="M70.6165 12.2461C69.2252 12.2461 67.8652 12.6587 66.7084 13.4316C65.5516 14.2046 64.6499 15.3032 64.1175 16.5886C63.5851 17.874 63.4458 19.2884 63.7172 20.6529C63.9886 22.0175 64.6586 23.2709 65.6424 24.2547C66.6262 25.2385 67.8796 25.9084 69.2441 26.1799C70.6087 26.4513 72.0231 26.312 73.3085 25.7796C74.5939 25.2471 75.6925 24.3455 76.4654 23.1887C77.2384 22.0319 77.651 20.6719 77.651 19.2806C77.6496 17.4153 76.908 15.6269 75.5891 14.308C74.2702 12.9891 72.4817 12.2475 70.6165 12.2461ZM70.6165 22.7978C69.9209 22.7978 69.2409 22.5915 68.6624 22.205C68.084 21.8186 67.6332 21.2692 67.367 20.6266C67.1008 19.9839 67.0311 19.2767 67.1668 18.5944C67.3026 17.9121 67.6376 17.2854 68.1295 16.7935C68.6214 16.3016 69.2481 15.9666 69.9303 15.8309C70.6126 15.6952 71.3198 15.7649 71.9625 16.0311C72.6052 16.2973 73.1545 16.7481 73.541 17.3265C73.9275 17.9049 74.1337 18.5849 74.1337 19.2806C74.1335 20.2137 73.763 21.1085 73.1035 21.7686C72.4441 22.4287 71.5496 22.8002 70.6165 22.8014V22.7978Z" fill="white"/>
<path d="M89.5696 42.3795C89.2913 42.2286 88.9775 42.1555 88.6611 42.168C88.3448 42.1806 88.0377 42.2783 87.7722 42.4508L68.8583 54.7482V43.9007C68.8585 43.5839 68.773 43.2731 68.6111 43.0009C68.4492 42.7287 68.2167 42.5053 67.9383 42.3543C67.6599 42.2033 67.3458 42.1304 67.0294 42.1431C66.7129 42.1559 66.4058 42.2539 66.1404 42.4267L47.2292 54.7286V43.9015C47.229 43.5833 47.1425 43.2711 46.9789 42.9982C46.8153 42.7252 46.5807 42.5018 46.3002 42.3516C46.0196 42.2015 45.7036 42.1302 45.3857 42.1455C45.0679 42.1608 44.7601 42.262 44.4952 42.4383L26.8975 54.1681L24.3578 22.6769C24.3224 22.2364 24.1224 21.8253 23.7976 21.5256C23.4727 21.2259 23.0469 21.0595 22.605 21.0596H7.48007C7.03816 21.0597 6.61248 21.2262 6.2877 21.5258C5.96293 21.8255 5.76285 22.2365 5.72725 22.6769L4.59286 36.7388L0.450956 88.0991C0.431521 88.3411 0.462407 88.5846 0.541669 88.8141C0.620932 89.0436 0.746854 89.2542 0.911508 89.4327C1.07616 89.6112 1.27598 89.7536 1.49839 89.8511C1.72079 89.9485 1.96096 89.9989 2.20378 89.999H88.7311C89.1976 89.999 89.645 89.8136 89.9749 89.4837C90.3048 89.1539 90.4901 88.7064 90.4901 88.2399V43.922C90.4894 43.6059 90.4036 43.2959 90.2416 43.0244C90.0796 42.753 89.8475 42.5302 89.5696 42.3795ZM9.1019 24.5804H20.9823L21.2656 28.0976H8.82209L9.1019 24.5804ZM8.53426 31.6148H21.5445L21.8324 35.1285H8.25178L8.53426 31.6148ZM7.96662 38.6493H22.1166L22.4 42.1665H7.68414L7.96662 38.6493ZM4.10988 86.4826L4.4387 82.4075C4.60268 82.5836 4.80117 82.724 5.02178 82.8199C5.2424 82.9159 5.48042 82.9654 5.72101 82.9654H20.8459C21.0802 82.9707 21.3132 82.9291 21.5311 82.8431C21.7491 82.757 21.9477 82.6283 22.1153 82.4645C22.2828 82.3007 22.416 82.105 22.5068 81.8891C22.5977 81.6731 22.6446 81.4411 22.6446 81.2068C22.6446 80.9724 22.5977 80.7405 22.5068 80.5245C22.416 80.3085 22.2828 80.1128 22.1153 79.949C21.9477 79.7852 21.7491 79.6565 21.5311 79.5705C21.3132 79.4845 21.0802 79.4429 20.8459 79.4481H5.72101C5.33365 79.449 4.95754 79.5785 4.65167 79.8162L7.40076 45.6766H22.6834L25.9743 86.4782L4.10988 86.4826ZM86.972 86.4826H29.5031L27.221 58.1799L43.7066 47.1871V57.9696C43.7064 58.2863 43.7919 58.5972 43.9538 58.8694C44.1157 59.1415 44.3482 59.3649 44.6266 59.5159C44.905 59.6669 45.2191 59.7399 45.5355 59.7271C45.852 59.7144 46.1591 59.6164 46.4245 59.4435L65.3384 47.1461V57.9919C65.3383 58.3086 65.4237 58.6194 65.5856 58.8916C65.7476 59.1638 65.98 59.3872 66.2584 59.5382C66.5369 59.6892 66.8509 59.7621 67.1673 59.7494C67.4838 59.7366 67.7909 59.6387 68.0563 59.4658L86.9729 47.1639L86.972 86.4826Z" fill="white"/>
<path d="M45.467 63.7959H34.9153C34.4488 63.7959 34.0014 63.9812 33.6715 64.3111C33.3416 64.641 33.1562 65.0884 33.1562 65.555V73.117C33.1562 73.5835 33.3416 74.0309 33.6715 74.3608C34.0014 74.6907 34.4488 74.876 34.9153 74.876H45.467C45.9335 74.876 46.381 74.6907 46.7109 74.3608C47.0407 74.0309 47.2261 73.5835 47.2261 73.117V65.555C47.2261 65.0884 47.0407 64.641 46.7109 64.3111C46.381 63.9812 45.9335 63.7959 45.467 63.7959ZM43.708 71.3579H36.6735V67.3131H43.708V71.3579Z" fill="white"/>
<path d="M63.5825 63.7959H52.5032C52.0367 63.7959 51.5893 63.9812 51.2594 64.3111C50.9295 64.641 50.7441 65.0884 50.7441 65.555V73.117C50.7441 73.5835 50.9295 74.0309 51.2594 74.3608C51.5893 74.6907 52.0367 74.876 52.5032 74.876H63.5825C64.049 74.876 64.4964 74.6907 64.8263 74.3608C65.1562 74.0309 65.3415 73.5835 65.3415 73.117V65.555C65.3415 65.0884 65.1562 64.641 64.8263 64.3111C64.4964 63.9812 64.049 63.7959 63.5825 63.7959ZM61.8234 71.3579H54.2614V67.3131H61.8234V71.3579Z" fill="white"/>
<path d="M81.1682 63.7959H70.6165C70.15 63.7959 69.7025 63.9812 69.3727 64.3111C69.0428 64.641 68.8574 65.0884 68.8574 65.555V73.117C68.8574 73.5835 69.0428 74.0309 69.3727 74.3608C69.7025 74.6907 70.15 74.876 70.6165 74.876H81.1682C81.6347 74.876 82.0821 74.6907 82.412 74.3608C82.7419 74.0309 82.9272 73.5835 82.9272 73.117V65.555C82.9272 65.0884 82.7419 64.641 82.412 64.3111C82.0821 63.9812 81.6347 63.7959 81.1682 63.7959ZM79.4091 71.3579H72.3746V67.3131H79.4091V71.3579Z" fill="white"/>
<path d="M41.95 2.82473e-09H41.9286C41.6974 0.00279039 41.4691 0.051118 41.2566 0.14222C41.0441 0.233321 40.8517 0.36541 40.6903 0.530932C40.5289 0.696455 40.4018 0.892166 40.3161 1.10687C40.2304 1.32158 40.1878 1.55107 40.1909 1.78223C40.1923 1.99739 40.1509 2.21067 40.0688 2.40959C39.9868 2.60851 39.8659 2.78906 39.7133 2.94068C39.5454 3.10958 39.346 3.24374 39.1262 3.33548C38.9065 3.42723 38.6708 3.47476 38.4327 3.47535H31.3983C31.164 3.47008 30.931 3.51167 30.713 3.59767C30.4951 3.68368 30.2965 3.81238 30.1289 3.9762C29.9613 4.14003 29.8282 4.33568 29.7373 4.55167C29.6464 4.76766 29.5996 4.99963 29.5996 5.23397C29.5996 5.4683 29.6464 5.70028 29.7373 5.91627C29.8282 6.13226 29.9613 6.32791 30.1289 6.49173C30.2965 6.65556 30.4951 6.78425 30.713 6.87026C30.931 6.95627 31.164 6.99786 31.3983 6.99258H38.4327C39.136 6.99103 39.832 6.85076 40.481 6.5798C41.1299 6.30884 41.7191 5.91251 42.2146 5.41353C42.6959 4.9316 43.076 4.35829 43.3325 3.72734C43.5889 3.09638 43.7167 2.4205 43.7081 1.73946C43.7032 1.27641 43.5158 0.834007 43.1866 0.508323C42.8574 0.182638 42.413 -2.62282e-05 41.95 2.82473e-09Z" fill="white"/>
<path d="M17.3296 3.4731H16.9776C14.6462 3.4757 12.411 4.40299 10.7625 6.05153C9.11393 7.70008 8.18663 9.93524 8.18404 12.2666C8.17877 12.5009 8.22036 12.7339 8.30636 12.9519C8.39237 13.1698 8.52107 13.3684 8.68489 13.536C8.84872 13.7035 9.04437 13.8367 9.26036 13.9276C9.47635 14.0185 9.70832 14.0653 9.94265 14.0653C10.177 14.0653 10.409 14.0185 10.625 13.9276C10.8409 13.8367 11.0366 13.7035 11.2004 13.536C11.3642 13.3684 11.4929 13.1698 11.5789 12.9519C11.665 12.7339 11.7065 12.5009 11.7013 12.2666C11.7027 10.8677 12.259 9.52648 13.2482 8.53729C14.2374 7.5481 15.5786 6.99175 16.9776 6.99033H17.3296C17.5638 6.99561 17.7968 6.95402 18.0148 6.86801C18.2328 6.782 18.4314 6.65331 18.5989 6.48948C18.7665 6.32566 18.8996 6.13001 18.9905 5.91402C19.0814 5.69803 19.1282 5.46605 19.1282 5.23172C19.1282 4.99738 19.0814 4.76541 18.9905 4.54942C18.8996 4.33343 18.7665 4.13778 18.5989 3.97395C18.4314 3.81013 18.2328 3.68143 18.0148 3.59543C17.7968 3.50942 17.5638 3.46783 17.3296 3.4731Z" fill="white"/>
<path d="M45.4486 7.00994C45.2175 7.01273 44.9891 7.06106 44.7766 7.15216C44.5642 7.24326 44.3717 7.37535 44.2104 7.54088C44.049 7.7064 43.9218 7.90211 43.8361 8.11682C43.7504 8.33153 43.7079 8.56102 43.7109 8.79218C43.7123 9.00733 43.6708 9.22059 43.5888 9.41951C43.5068 9.61842 43.3859 9.79898 43.2333 9.95062C43.0654 10.1196 42.8657 10.2539 42.6459 10.3456C42.426 10.4373 42.1901 10.4848 41.9519 10.4853C41.4923 10.4956 41.0551 10.6855 40.7337 11.0141C40.4124 11.3428 40.2324 11.7842 40.2324 12.2439C40.2324 12.7036 40.4124 13.145 40.7337 13.4737C41.0551 13.8024 41.4923 13.9922 41.9519 14.0025C42.6552 14.0009 43.3513 13.8607 44.0003 13.5899C44.6494 13.3191 45.2387 12.9231 45.7347 12.4244C46.2159 11.9422 46.5958 11.3687 46.8521 10.7376C47.1084 10.1065 47.236 9.43052 47.2273 8.7494C47.2254 8.51819 47.1779 8.28963 47.0873 8.07686C46.9968 7.8641 46.8651 7.67134 46.6998 7.50967C46.5345 7.34801 46.3388 7.22063 46.1241 7.13487C45.9094 7.0491 45.6798 7.00665 45.4486 7.00994Z" fill="white"/>
<path d="M27.8807 10.5078H22.2533C20.8538 10.5092 19.512 11.0661 18.5227 12.056C17.5334 13.046 16.9775 14.3881 16.977 15.7877C16.9717 16.022 17.0133 16.2549 17.0993 16.4729C17.1853 16.6909 17.314 16.8895 17.4779 17.057C17.6417 17.2246 17.8373 17.3577 18.0533 17.4486C18.2693 17.5395 18.5013 17.5863 18.7356 17.5863C18.97 17.5863 19.2019 17.5395 19.4179 17.4486C19.6339 17.3577 19.8296 17.2246 19.9934 17.057C20.1572 16.8895 20.2859 16.6909 20.3719 16.4729C20.4579 16.2549 20.4995 16.022 20.4942 15.7877C20.4947 15.3213 20.6802 14.8741 21.01 14.5443C21.3398 14.2146 21.7869 14.0291 22.2533 14.0286H27.8807C28.115 14.0339 28.3479 13.9923 28.5659 13.9063C28.7839 13.8203 28.9825 13.6916 29.1501 13.5278C29.3176 13.3639 29.4507 13.1683 29.5416 12.9523C29.6325 12.7363 29.6793 12.5043 29.6793 12.27C29.6793 12.0357 29.6325 11.8037 29.5416 11.5877C29.4507 11.3717 29.3176 11.1761 29.1501 11.0122C28.9825 10.8484 28.7839 10.7197 28.5659 10.6337C28.3479 10.5477 28.115 10.5061 27.8807 10.5114V10.5078Z" fill="white"/>
</g>
<defs>
<clipPath id="clip0_243_5750">
<rect width="90.0436" height="90" fill="white" transform="translate(0.445312)"/>
</clipPath>
</defs>
</svg>
