<svg width="91" height="91" viewBox="0 0 91 91" fill="none" xmlns="http://www.w3.org/2000/svg">
<g clip-path="url(#clip0_243_5795)">
<path d="M89.5718 34.5539H73.3989C73.0494 34.5539 72.7141 34.6927 72.467 34.9399C72.2198 35.187 72.081 35.5223 72.081 35.8718V43.3723H62.2386V35.8727C62.2388 35.5235 62.1004 35.1884 61.8538 34.9411C61.6072 34.6939 61.2725 34.5546 60.9233 34.5539H44.7478C44.3982 34.5539 44.063 34.6927 43.8158 34.9399C43.5687 35.187 43.4298 35.5223 43.4298 35.8718V51.4512L27.3897 67.8976H25.2208L20.9488 31.9099C20.9108 31.5892 20.7564 31.2935 20.515 31.079C20.2735 30.8645 19.9618 30.7461 19.6388 30.7461H16.5351V26.3939C18.6737 26.2772 22.69 25.6739 25.3981 22.9319C29.1657 19.1171 28.7629 12.8258 28.7433 12.5602C28.7205 12.2412 28.5825 11.9413 28.3549 11.7165C28.1273 11.4917 27.8258 11.3574 27.5065 11.3385C25.6882 11.2794 23.8719 11.5049 22.1232 12.0068C21.299 5.87776 16.0708 1.27604 15.8329 1.06752C15.5911 0.857763 15.2812 0.743174 14.9611 0.745142C14.641 0.74711 14.3326 0.8655 14.0934 1.07821C13.8368 1.30633 7.80302 6.74749 7.84579 13.6269C7.88411 19.6437 12.5553 24.4985 13.9 25.7773V30.747H10.5138C10.1917 30.7466 9.8806 30.8643 9.63938 31.0778C9.39816 31.2912 9.24353 31.5857 9.20474 31.9055L7.70767 44.5361C7.68098 44.876 7.78686 45.213 8.0031 45.4766C8.21935 45.7401 8.5292 45.9098 8.86774 45.95C9.20627 45.9902 9.54723 45.8978 9.81919 45.6922C10.0911 45.4866 10.273 45.1838 10.3267 44.8471L10.6617 42.025H19.4945L22.5652 67.8967H7.58915L9.57455 51.1749C9.61008 50.8305 9.50873 50.4859 9.29238 50.2156C9.07603 49.9452 8.76203 49.7708 8.41818 49.73C8.07433 49.6891 7.72822 49.7852 7.45457 49.9973C7.18092 50.2095 7.00169 50.5208 6.95556 50.8639L4.93451 67.8967H2.20859C1.85912 67.897 1.52403 68.0359 1.27691 68.283C1.0298 68.5301 0.890869 68.8652 0.890633 69.2147V89.427C0.890046 89.6004 0.923703 89.7723 0.989675 89.9327C1.05565 90.0931 1.15263 90.2389 1.27508 90.3618C1.39752 90.4846 1.54301 90.5821 1.7032 90.6486C1.86339 90.7151 2.03514 90.7494 2.20859 90.7494H89.5718C89.9213 90.7494 90.2565 90.6105 90.5037 90.3634C90.7509 90.1162 90.8897 89.781 90.8897 89.4314V75.98C90.8808 75.6363 90.738 75.3097 90.4917 75.0697C90.2454 74.8297 89.9152 74.6955 89.5713 74.6955C89.2275 74.6955 88.8972 74.8297 88.651 75.0697C88.4047 75.3097 88.2619 75.6363 88.2529 75.98V88.109H3.52744V70.5335H27.944C28.1197 70.5335 28.2937 70.4984 28.4556 70.4301C28.6175 70.3619 28.7641 70.2619 28.8868 70.1361L45.6915 52.9064C45.9316 52.6602 46.066 52.3298 46.0657 51.9859V37.1933H59.6018V51.9859C59.6017 52.1593 59.6358 52.3311 59.7022 52.4913C59.7686 52.6516 59.866 52.7971 59.9887 52.9196C60.1115 53.0422 60.2573 53.1392 60.4176 53.2053C60.578 53.2714 60.7498 53.3052 60.9233 53.3047H73.3989C73.5722 53.3049 73.7439 53.271 73.904 53.2048C74.0642 53.1386 74.2097 53.0415 74.3323 52.919C74.4549 52.7965 74.5521 52.651 74.6184 52.4909C74.6847 52.3308 74.7188 52.1592 74.7187 51.9859V37.1933H88.2538V69.1247C88.2628 69.4684 88.4056 69.7951 88.6518 70.035C88.8981 70.275 89.2284 70.4092 89.5722 70.4092C89.9161 70.4092 90.2463 70.275 90.4926 70.035C90.7389 69.7951 90.8817 69.4684 90.8906 69.1247V35.8727C90.8907 35.6995 90.8567 35.5279 90.7905 35.3679C90.7242 35.2078 90.6271 35.0624 90.5046 34.9399C90.3821 34.8174 90.2367 34.7202 90.0766 34.654C89.9165 34.5878 89.745 34.5537 89.5718 34.5539ZM62.2386 46.0091H72.0818V50.667H62.2386V46.0091ZM18.4679 33.3838L19.1808 39.3882H10.9736L11.6865 33.3838H18.4679ZM26.1074 13.9923C26.0228 15.7576 25.5727 19.003 23.5232 21.0802C21.4736 23.1574 18.2282 23.6493 16.4647 23.7535C16.4941 23.139 16.5592 22.5266 16.6598 21.9196C16.9148 19.9674 17.7484 18.1362 19.0533 16.662C21.1047 14.5884 24.3448 14.0974 26.1083 13.9914L26.1074 13.9923ZM17.1758 14.8139C15.378 16.802 14.2595 19.3106 13.982 21.9766C12.419 20.0483 10.5013 16.9989 10.4799 13.6117C10.4532 9.35667 13.4545 5.56943 14.9783 3.92176C16.4602 5.48388 19.3225 9.00112 19.5773 13.0379C18.6931 13.5065 17.8839 14.1049 17.1767 14.813L17.1758 14.8139Z" fill="#A3CC01"/>
<path d="M54.542 61.3584H48.9137C48.5641 61.3584 48.2289 61.4973 47.9817 61.7444C47.7346 61.9916 47.5957 62.3268 47.5957 62.6764V80.0531C47.5957 80.4027 47.7346 80.7379 47.9817 80.9851C48.2289 81.2322 48.5641 81.3711 48.9137 81.3711H54.5411C54.7142 81.3712 54.8856 81.3372 55.0456 81.271C55.2055 81.2048 55.3509 81.1077 55.4733 80.9853C55.5957 80.8629 55.6927 80.7176 55.7589 80.5576C55.8251 80.3977 55.8591 80.2262 55.859 80.0531V62.6764C55.8588 62.327 55.72 61.9921 55.4731 61.745C55.2261 61.4979 54.8913 61.3589 54.542 61.3584V61.3584ZM53.224 78.7352H50.2325V63.9916H53.2231L53.224 78.7352Z" fill="#A3CC01"/>
<path d="M67.7277 61.3584H62.1012C61.7516 61.3584 61.4164 61.4973 61.1692 61.7444C60.922 61.9916 60.7832 62.3268 60.7832 62.6764V80.0531C60.7832 80.4027 60.922 80.7379 61.1692 80.9851C61.4164 81.2322 61.7516 81.3711 62.1012 81.3711H67.7286C68.0781 81.3711 68.4133 81.2322 68.6605 80.9851C68.9076 80.7379 69.0465 80.4027 69.0465 80.0531V62.6764C69.0462 62.3267 68.9072 61.9915 68.6599 61.7444C68.4126 61.4972 68.0773 61.3584 67.7277 61.3584V61.3584ZM66.4097 78.7352H63.4182V63.9916H66.4097V78.7352Z" fill="#A3CC01"/>
<path d="M80.9102 61.3584H75.2828C75.1097 61.3584 74.9383 61.3925 74.7784 61.4587C74.6185 61.525 74.4732 61.622 74.3508 61.7444C74.2285 61.8668 74.1314 62.0121 74.0651 62.172C73.9989 62.3319 73.9648 62.5033 73.9648 62.6764V80.0531C73.9648 80.2262 73.9989 80.3976 74.0651 80.5575C74.1314 80.7174 74.2285 80.8627 74.3508 80.9851C74.4732 81.1074 74.6185 81.2045 74.7784 81.2708C74.9383 81.337 75.1097 81.3711 75.2828 81.3711H80.9102C81.0833 81.3711 81.2546 81.337 81.4145 81.2708C81.5744 81.2045 81.7197 81.1074 81.8421 80.9851C81.9645 80.8627 82.0616 80.7174 82.1278 80.5575C82.194 80.3976 82.2281 80.2262 82.2281 80.0531V62.6764C82.2279 62.3269 82.0889 61.9918 81.8418 61.7447C81.5947 61.4976 81.2597 61.3586 80.9102 61.3584V61.3584ZM79.5922 78.7352H76.6016V63.9916H79.5922V78.7352Z" fill="#A3CC01"/>
<path d="M39.4754 78.793H9.59184C9.24218 78.793 8.90684 78.9319 8.65959 79.1791C8.41234 79.4264 8.27344 79.7617 8.27344 80.1114C8.27344 80.461 8.41234 80.7964 8.65959 81.0436C8.90684 81.2909 9.24218 81.4298 9.59184 81.4298H39.4754C39.8251 81.4298 40.1604 81.2909 40.4077 81.0436C40.6549 80.7964 40.7938 80.461 40.7938 80.1114C40.7938 79.7617 40.6549 79.4264 40.4077 79.1791C40.1604 78.9319 39.8251 78.793 39.4754 78.793V78.793Z" fill="#A3CC01"/>
<path d="M84.1626 7.10037C84.0702 7.15199 83.9632 7.17125 83.8585 7.15511C83.7539 7.13896 83.6577 7.08833 83.5852 7.01126C82.9436 5.0346 81.6421 3.33853 79.8988 2.20728C78.1555 1.07604 76.0763 0.578372 74.0097 0.797687C71.9432 1.017 70.0148 1.93997 68.5477 3.41191C67.0807 4.88385 66.1642 6.81531 65.9517 8.8826C64.8961 9.12305 63.9134 9.61249 63.0854 10.3101C62.2575 11.0076 61.6084 11.8931 61.1923 12.8926C61.0257 13.3134 60.9638 13.7683 61.0119 14.2183C61.06 14.6683 61.2167 15.0998 61.4684 15.4759C61.7202 15.8519 62.0595 16.1612 62.4572 16.3771C62.8549 16.5931 63.2991 16.7092 63.7516 16.7155H77.8847C78.2284 16.7066 78.555 16.5637 78.795 16.3175C79.035 16.0712 79.1693 15.7409 79.1693 15.3971C79.1693 15.0533 79.035 14.723 78.795 14.4767C78.555 14.2305 78.2284 14.0876 77.8847 14.0787H63.7516C63.6482 14.0635 63.6063 14.0074 63.6241 13.9094C63.9219 13.1836 64.4212 12.5582 65.0628 12.1069C65.7045 11.6556 66.4619 11.3974 67.2457 11.3626C67.5873 11.3508 67.9109 11.2067 68.1483 10.9608C68.3858 10.7149 68.5184 10.3864 68.5182 10.0446V10.025C68.4988 8.28841 69.1681 6.61485 70.3795 5.37039C71.5909 4.12593 73.2458 3.41188 74.9823 3.38442C76.3398 3.39656 77.6592 3.8346 78.7544 4.63673C79.8496 5.43886 80.6653 6.5646 81.0865 7.85514C81.3171 8.46601 81.7446 8.98271 82.3014 9.3238C82.8582 9.66489 83.5127 9.81095 84.1617 9.73896C85.266 9.75865 86.3174 10.2159 87.0848 11.0102C87.8522 11.8045 88.273 12.871 88.2546 13.9753C88.249 14.0055 88.2327 14.0326 88.2086 14.0517C88.1845 14.0707 88.1543 14.0803 88.1236 14.0787H85.2658C84.9221 14.0876 84.5954 14.2305 84.3554 14.4767C84.1155 14.723 83.9812 15.0533 83.9812 15.3971C83.9812 15.7409 84.1155 16.0712 84.3554 16.3175C84.5954 16.5637 84.9221 16.7066 85.2658 16.7155H88.1236C88.8512 16.7155 89.5494 16.4285 90.0666 15.9168C90.5839 15.4051 90.8783 14.71 90.8861 13.9825V13.9646C90.902 12.1636 90.2032 10.4297 88.9429 9.14301C87.6826 7.85631 85.9636 7.12176 84.1626 7.10037V7.10037Z" fill="#A3CC01"/>
<path d="M33.3397 29.2227H57.7135C58.4415 29.2147 59.1375 28.9227 59.6535 28.4091C60.1695 27.8954 60.4646 27.2007 60.4759 26.4727C60.4909 24.6713 59.791 22.9374 58.5296 21.6512C57.2683 20.365 55.5485 19.6313 53.7471 19.6111C53.6546 19.6626 53.5477 19.6818 53.4431 19.6656C53.3385 19.6495 53.2423 19.5989 53.1697 19.522C52.5281 17.5453 51.2266 15.8493 49.4833 14.718C47.74 13.5868 45.6608 13.0891 43.5942 13.3084C41.5277 13.5277 39.5993 14.4507 38.1322 15.9227C36.6652 17.3946 35.7487 19.3261 35.5363 21.3933C34.4807 21.6339 33.4979 22.1233 32.67 22.8209C31.8421 23.5185 31.1929 24.4039 30.7768 25.4034C30.6109 25.8242 30.5496 26.2791 30.5982 26.7289C30.6469 27.1786 30.804 27.6099 31.0561 27.9855C31.3081 28.3612 31.6476 28.67 32.0454 28.8855C32.4432 29.101 32.8873 29.2167 33.3397 29.2227V29.2227ZM57.8453 26.4834C57.8398 26.5134 57.8235 26.5403 57.7995 26.5591C57.7756 26.578 57.7457 26.5875 57.7152 26.5859H33.3397C33.2372 26.5707 33.1944 26.5146 33.2122 26.4175C33.51 25.692 34.009 25.0667 34.6503 24.6153C35.2916 24.164 36.0485 23.9053 36.8319 23.8698C37.1737 23.8582 37.4976 23.7143 37.7352 23.4683C37.9728 23.2224 38.1055 22.8938 38.1053 22.5518V22.5384C38.0848 20.801 38.7535 19.1262 39.965 17.8806C41.1765 16.635 42.8322 15.9202 44.5695 15.8925C45.9272 15.9045 47.2469 16.3425 48.3424 17.1446C49.4379 17.9467 50.2539 19.0725 50.6754 20.3632C50.9053 20.9746 51.3327 21.4917 51.8897 21.8328C52.4467 22.1738 53.1016 22.3193 53.7507 22.2461C54.8533 22.2654 55.9033 22.7211 56.6705 23.5135C57.4376 24.3058 57.8591 25.37 57.8427 26.4727L57.8453 26.4834Z" fill="#A3CC01"/>
</g>
<defs>
<clipPath id="clip0_243_5795">
<rect width="90" height="90" fill="white" transform="translate(0.890625 0.746094)"/>
</clipPath>
</defs>
</svg>
