<svg width="79" height="79" viewBox="0 0 79 79" fill="none" xmlns="http://www.w3.org/2000/svg">
<g clip-path="url(#clip0_257_5858)">
<path d="M36.2118 54.5225L50.3118 41.5914C50.4978 41.4291 50.6469 41.2289 50.7491 41.0042C50.8513 40.7794 50.9043 40.5354 50.9043 40.2885C50.9043 40.0416 50.8513 39.7975 50.7491 39.5728C50.6469 39.348 50.4978 39.1478 50.3118 38.9855C50.2908 38.9675 50.2598 38.9595 50.2378 38.9415L36.2097 26.0415C35.8143 25.6937 35.3059 25.502 34.7793 25.502C34.2527 25.502 33.7441 25.6937 33.3488 26.0415C33.3451 26.0507 33.3404 26.0594 33.3347 26.0675C33.1438 26.23 32.9901 26.4315 32.8838 26.6586C32.7775 26.8856 32.7212 27.1329 32.7188 27.3835V53.1835C32.7227 53.4384 32.7818 53.6894 32.892 53.9193C33.0021 54.1492 33.1607 54.3526 33.3568 54.5155L33.3488 54.5225C33.7438 54.8718 34.2529 55.0646 34.7803 55.0646C35.3076 55.0646 35.8168 54.8718 36.2118 54.5225Z" fill="white"/>
<path d="M39.3125 77.2969C60.0232 77.2969 76.8125 60.5076 76.8125 39.7969C76.8125 19.0862 60.0232 2.29688 39.3125 2.29688C18.6018 2.29688 1.8125 19.0862 1.8125 39.7969C1.8125 60.5076 18.6018 77.2969 39.3125 77.2969Z" stroke="white" stroke-width="3" stroke-linejoin="round"/>
</g>
<defs>
<clipPath id="clip0_257_5858">
<rect width="78" height="78" fill="white" transform="translate(0.3125 0.796875)"/>
</clipPath>
</defs>
</svg>
