<svg width="25" height="41" viewBox="0 0 25 41" fill="none" xmlns="http://www.w3.org/2000/svg">
<path d="M12.5 40.4004C9.18479 40.4004 6.00537 39.0834 3.66117 36.7392C1.31696 34.395 0 31.2156 0 27.9004V12.9004C0 9.58518 1.31696 6.40576 3.66117 4.06156C6.00537 1.71735 9.18479 0.400391 12.5 0.400391C15.8152 0.400391 18.9946 1.71735 21.3388 4.06156C23.683 6.40576 25 9.58518 25 12.9004V27.9004C25 29.5419 24.6767 31.1674 24.0485 32.6839C23.4203 34.2005 22.4996 35.5785 21.3388 36.7392C20.1781 37.9 18.8001 38.8207 17.2835 39.4489C15.767 40.0771 14.1415 40.4004 12.5 40.4004ZM12.5 2.90039C9.84784 2.90039 7.3043 3.95396 5.42893 5.82932C3.55357 7.70469 2.5 10.2482 2.5 12.9004V27.9004C2.5 30.5526 3.55357 33.0961 5.42893 34.9715C7.3043 36.8468 9.84784 37.9004 12.5 37.9004C15.1522 37.9004 17.6957 36.8468 19.5711 34.9715C21.4464 33.0961 22.5 30.5526 22.5 27.9004V12.9004C22.5 10.2482 21.4464 7.70469 19.5711 5.82932C17.6957 3.95396 15.1522 2.90039 12.5 2.90039Z" fill="white"/>
<path d="M12.5 16.6504C12.1685 16.6504 11.8505 16.5187 11.6161 16.2843C11.3817 16.0499 11.25 15.7319 11.25 15.4004V10.4004C11.25 10.0689 11.3817 9.75093 11.6161 9.51651C11.8505 9.28209 12.1685 9.15039 12.5 9.15039C12.8315 9.15039 13.1495 9.28209 13.3839 9.51651C13.6183 9.75093 13.75 10.0689 13.75 10.4004V15.4004C13.75 15.7319 13.6183 16.0499 13.3839 16.2843C13.1495 16.5187 12.8315 16.6504 12.5 16.6504Z" fill="white"/>
</svg>
