<svg width="77" height="66" viewBox="0 0 77 66" fill="none" xmlns="http://www.w3.org/2000/svg">
<g clip-path="url(#clip0_240_4831)">
<path d="M77 64.9406C76.6051 65.5464 76.037 65.6979 75.3317 65.6979C50.7672 65.6858 26.2026 65.6822 1.63811 65.6872C1.43703 65.6954 1.23563 65.6899 1.0353 65.6706C0.402346 65.5812 -0.0346906 65.0935 -2.89544e-05 64.4877C0.0346326 63.8515 0.379742 63.4365 1.01721 63.3789C1.65469 63.3214 2.26806 63.3426 2.89498 63.3411C4.1006 63.3411 5.29718 63.3411 6.60377 63.3411V62.4096C6.60377 57.2204 6.60377 52.0306 6.60377 46.8404C6.60377 45.4863 6.93682 45.1545 8.29465 45.1545C11.5528 45.1545 14.8115 45.1545 18.0707 45.1545C19.311 45.1545 19.6817 45.5302 19.6817 46.7813C19.6817 51.9705 19.6817 57.1603 19.6817 62.3505V63.2911H23.6V62.4323C23.6 54.9499 23.6 47.4674 23.6 39.985C23.6 38.6218 23.9014 38.3189 25.2879 38.3189C28.521 38.3189 31.7545 38.3189 34.9886 38.3189C36.2575 38.3189 36.5891 38.6476 36.5891 39.9229C36.5891 47.3791 36.5891 54.8363 36.5891 62.2944V63.3017H40.5209V62.3187C40.5209 55.5169 40.5209 48.7145 40.5209 41.9117C40.5209 40.3244 40.7907 40.0502 42.3459 40.0502C45.5298 40.0502 48.7136 40.0502 51.8974 40.0502C53.2718 40.0502 53.5883 40.3652 53.5898 41.736C53.5898 48.5903 53.5898 55.4431 53.5898 62.2944V63.3017H57.5217V30.27C57.5217 28.6327 57.7809 28.3691 59.3783 28.3691C62.5612 28.3691 65.7445 28.3691 68.9283 28.3691C70.1656 28.3691 70.5243 28.7372 70.5243 30.0004C70.5243 40.7828 70.5243 51.5651 70.5243 62.3475V63.3426C72.2318 63.3426 73.8759 63.3562 75.5186 63.3426C76.141 63.335 76.6458 63.494 76.9939 64.0393L77 64.9406ZM68.1598 63.2986V30.7865H59.9013V63.2986H68.1598ZM34.2396 63.2986V40.6879H25.9856V63.3002L34.2396 63.2986ZM51.1439 63.2986V42.4449H42.902V63.2956L51.1439 63.2986ZM17.2358 63.2986V47.5765H8.98035V63.2986H17.2358Z" fill="#A3CC01"/>
<path d="M53.4582 11.2616C53.5456 5.24837 58.2671 0.613559 64.2153 0.704439C70.0927 0.792289 74.6861 5.60283 74.5912 11.566C74.4992 17.2869 69.6466 22.0172 63.9244 21.9581C58.0531 21.8975 53.3738 17.1172 53.4582 11.2616ZM72.2658 11.4464C72.3608 6.9024 68.6791 3.13392 64.0782 3.05667C61.8984 3.02542 59.795 3.86258 58.2275 5.38523C56.66 6.90789 55.7558 8.99222 55.7127 11.1828C55.5966 15.648 59.2632 19.4998 63.7195 19.5968C68.447 19.6998 72.1679 16.1509 72.2658 11.4464Z" fill="#A3CC01"/>
<path d="M45.7184 35.0748C45.3598 34.9491 45.075 34.8628 44.8007 34.7492C40.1093 32.7983 35.4149 30.855 30.7356 28.8753C30.1675 28.6345 29.7922 28.7239 29.319 29.0632C24.4393 32.5893 19.55 36.1017 14.6511 39.6006C14.4728 39.739 14.2849 39.8645 14.089 39.9762C13.5434 40.2625 13.0521 40.1474 12.6874 39.6733C12.3227 39.1992 12.3484 38.6798 12.7251 38.2163C12.8965 38.033 13.0911 37.8731 13.3038 37.7406C18.4578 34.0403 23.6224 30.3521 28.7614 26.6276C29.4576 26.1217 30.0559 26.0626 30.8351 26.3943C35.4646 28.3634 40.1138 30.284 44.7449 32.247C45.2739 32.4727 45.6235 32.4378 46.0832 32.0652C49.6895 29.1419 53.3169 26.2534 56.9443 23.3468C57.4311 22.9545 57.9857 22.6683 58.5071 23.0667C58.8221 23.3075 59.021 23.8315 59.0662 24.2526C59.0948 24.5191 58.8085 24.9054 58.5583 25.1054C54.5858 28.2973 50.6022 31.473 46.6076 34.6326C46.3469 34.8401 46.0018 34.9415 45.7184 35.0748Z" fill="#A3CC01"/>
<path d="M63.0335 4.47852H64.7786V5.76597L66.4816 6.19767C66.4077 6.80353 66.3384 7.37001 66.2616 8.01525C65.7266 7.89257 65.2519 7.75773 64.7681 7.67594C63.6017 7.47903 62.8843 7.97892 63.0169 8.97708C63.1078 9.37419 63.3482 9.72049 63.6876 9.94341C64.2708 10.3175 64.952 10.5341 65.5744 10.8522C66.7107 11.4338 67.4084 12.3396 67.3828 13.6588C67.3572 14.9781 66.7378 15.9718 65.5216 16.5095C65.1117 16.6912 64.9399 16.9124 64.9912 17.3516C65.0064 17.6336 65.0064 17.9163 64.9912 18.1983H63.3153C63.2897 17.7515 63.2641 17.3122 63.2385 16.8594L60.5801 16.2232C60.6404 15.6173 60.7036 14.9736 60.7579 14.4192C61.751 14.5979 62.6914 14.8161 63.6454 14.9221C64.3175 14.9963 64.9203 14.6797 65.1042 13.9951C65.3046 13.2499 64.8676 12.7577 64.2 12.4608C63.6514 12.2169 63.0938 11.9912 62.5618 11.7171C61.4496 11.1415 60.7745 10.2115 60.8016 8.95126C60.8287 7.69107 61.3622 6.62936 62.5829 6.0235C62.7879 5.92201 62.9431 5.61753 63.0139 5.37518C63.0847 5.13284 63.0335 4.8284 63.0335 4.47852Z" fill="#A3CC01"/>
</g>
<defs>
<clipPath id="clip0_240_4831">
<rect width="77" height="65" fill="white" transform="translate(0 0.703125)"/>
</clipPath>
</defs>
</svg>
