<svg width="84" height="55" viewBox="0 0 84 55" fill="none" xmlns="http://www.w3.org/2000/svg">
<g clip-path="url(#clip0_240_4817)">
<path d="M83.9924 41.3513C83.037 41.3363 82.0816 41.3113 81.1262 41.3097C75.603 41.3097 70.0788 41.3097 64.5534 41.3097H63.5059C63.552 42.218 63.6704 43.0648 63.6194 43.9016C63.5339 45.299 63.5437 46.7512 63.1474 48.0688C62.0243 51.8169 58.7749 54.1825 54.7098 54.2107C46.1768 54.2673 37.6437 54.2873 29.1123 54.2107C23.8238 54.1608 20.1879 50.2714 20.1682 44.9047C20.1682 43.7485 20.1682 42.5922 20.1682 41.3329H0.0861844C-0.581461 35.7433 2.48707 27.3588 11.2388 24.0117C8.40543 21.7558 6.98794 18.8546 7.26749 15.228C7.46976 12.6028 8.62086 10.4036 10.6024 8.69673C14.4241 5.38952 20.2126 5.66565 23.6873 9.32886C25.7116 11.4632 26.6177 14.0401 26.348 16.9814C26.0832 19.8843 24.7036 22.205 22.4984 23.8919L28.0895 27.1841C30.3133 25.3519 32.8622 23.9657 35.5997 23.1C31.7845 20.4865 29.78 16.9797 29.7767 12.4531C29.7767 8.93626 31.1251 5.94682 33.674 3.53795C38.6978 -1.20992 46.6421 -0.725835 51.1709 4.60429C55.5534 9.76141 55.1439 18.4536 48.229 23.1017C51.1117 24.0416 53.6557 25.4158 55.7935 27.2424L61.4339 23.8819C58.7189 21.7376 57.3228 18.8097 57.6073 15.1714C57.8145 12.5795 58.9673 10.4218 60.9061 8.70668C64.731 5.32628 70.6955 5.69227 74.1718 9.45863C77.5791 13.1501 77.9886 19.8344 72.7757 23.9801C73.7015 24.4409 74.6487 24.8352 75.5186 25.3592C80.3007 28.2472 83.0929 32.4877 83.8592 38.0806C83.8948 38.2377 83.9438 38.3913 84.0056 38.5398L83.9924 41.3513ZM41.8535 51.5224C42.3468 51.5224 42.8402 51.5224 43.3335 51.5224C47.3246 51.5074 51.3189 51.5656 55.3067 51.4558C58.1779 51.376 60.6364 48.8707 60.8666 45.9877C61.2711 40.9293 59.9599 36.3705 56.9331 32.3113C52.1181 25.8732 43.146 23.1001 35.6786 25.9115C28.443 28.6315 24.1872 33.925 23.0163 41.6407C22.7465 43.3327 22.7599 45.0586 23.0558 46.7462C23.6182 49.7174 26.1211 51.4991 29.3047 51.5158C33.4931 51.5391 37.6766 51.5224 41.8601 51.5224H41.8535ZM41.8371 22.1185C43.7115 22.1185 45.5437 21.5557 47.1017 20.5014C48.6596 19.447 49.8732 17.9487 50.5887 16.196C51.3042 14.4434 51.4894 12.5153 51.1209 10.6561C50.7523 8.7969 49.8465 7.09019 48.5184 5.75215C47.1902 4.41412 45.4993 3.50497 43.66 3.13988C41.8207 2.7748 39.9156 2.97021 38.1861 3.70134C36.4566 4.43248 34.9805 5.66645 33.9449 7.24694C32.9092 8.82743 32.3605 10.6833 32.3683 12.5795C32.3753 15.1153 33.3773 17.5446 35.1541 19.3333C36.9308 21.122 39.337 22.1238 41.8436 22.1185H41.8371ZM57.8704 29.2021C58.2437 29.6712 58.5282 30.0339 58.8242 30.3999C60.5752 32.5652 61.8792 35.0638 62.659 37.7479C62.8465 38.3967 63.1195 38.593 63.7855 38.588C69.3075 38.558 74.8296 38.5714 80.3516 38.5714H81.1541C80.9305 34.464 78.079 29.1123 72.5652 26.8747C67.2914 24.7304 62.4239 25.652 57.877 29.2021H57.8704ZM25.7823 29.0939C21.6038 25.434 15.4486 24.6522 10.4018 27.294C5.9289 29.6346 3.38989 33.4059 2.66304 38.5115C2.91629 38.5398 3.04782 38.5681 3.17938 38.5681C8.86478 38.5681 14.5491 38.5719 20.2323 38.5797C20.7059 38.5797 20.8605 38.3951 21.0184 37.9625C21.5265 36.5668 21.9836 35.1344 22.694 33.8385C23.5985 32.2065 24.7266 30.7043 25.7889 29.0939H25.7823ZM74.0271 15.7636C73.962 13.9211 73.1765 12.18 71.8432 10.9229C70.51 9.66584 68.738 8.9956 66.9165 9.05938C62.7117 9.23738 60.0312 12.7509 60.2335 16.3692C60.4621 20.4882 63.7033 23.1599 67.3046 23.0352C71.271 22.8971 74.3001 19.52 74.0337 15.7636H74.0271ZM23.6396 15.6821C23.4751 11.7494 20.132 8.90966 16.5405 9.05938C12.3143 9.23572 9.65029 12.7908 9.85256 16.3658C10.0894 20.5664 13.4703 23.2348 17.0059 23.0202C21.0364 22.784 23.9603 19.4368 23.6412 15.6821H23.6396Z" fill="#A3CC01"/>
</g>
<defs>
<clipPath id="clip0_240_4817">
<rect width="84" height="54" fill="white" transform="translate(0 0.255859)"/>
</clipPath>
</defs>
</svg>
