<svg width="51" height="51" viewBox="0 0 51 51" fill="none" xmlns="http://www.w3.org/2000/svg">
<g clip-path="url(#clip0_240_4599)">
<path d="M45.3652 0.00976562C45.9405 0.322779 46.1401 0.821648 46.148 1.45648C46.1558 2.1412 46.2223 2.81809 46.2722 3.6329L47.3485 2.55692C47.556 2.35052 47.7556 2.13434 47.9738 1.93969C48.2957 1.65113 48.7017 1.64624 48.9874 1.91328C49.0602 1.97925 49.1185 2.05948 49.1589 2.14896C49.1993 2.23843 49.2208 2.33525 49.2222 2.4334C49.2236 2.53156 49.2048 2.62895 49.1669 2.71952C49.129 2.8101 49.073 2.89194 49.0021 2.95993C48.5344 3.45782 48.0403 3.93124 47.5589 4.41641C47.5041 4.47119 47.4611 4.53477 47.3544 4.65802C47.9777 4.70106 48.5354 4.74214 49.0922 4.77931C49.3524 4.79692 49.6127 4.80083 49.8749 4.82528C50.3524 4.87028 50.7037 5.0933 50.869 5.56282C51.0295 6.01571 50.8886 6.39232 50.5686 6.71902C50.3074 6.98606 50.0403 7.24918 49.7761 7.51328C48.4757 8.81425 47.1665 10.1054 45.8789 11.4181C45.6468 11.6695 45.3576 11.8614 45.0358 11.9775C44.7139 12.0936 44.3688 12.1306 44.0296 12.0852C43.2782 12.0099 42.5209 11.9816 41.6813 11.9268C41.8447 12.139 41.9484 12.2779 42.0561 12.4159C45.7859 17.1199 47.4865 22.4812 47.101 28.4578C46.4288 38.8988 38.7362 47.6299 28.4722 49.5657C21.5516 50.8686 15.2768 49.2781 9.68587 44.9957C9.21915 44.6377 9.11739 44.2405 9.38157 43.8708C9.66043 43.4795 10.0909 43.456 10.5733 43.8356C13.4666 46.1128 16.72 47.6221 20.35 48.21C26.9732 49.2811 32.9193 47.6827 38.0601 43.3563C42.1353 39.9229 44.6382 35.5182 45.4171 30.2488C46.4219 23.4516 44.6099 17.4349 40.0297 12.277C39.9934 12.2391 39.9545 12.2038 39.9133 12.1713L36.5914 15.4863L36.9534 15.9206C39.5424 19.0126 40.9172 22.5634 40.9954 26.6042C41.0072 27.2361 40.6461 27.6303 40.153 27.5188C39.6599 27.4073 39.5326 27.0473 39.5307 26.5983C39.517 25.0178 39.247 23.45 38.7313 21.9559C38.0617 19.9641 36.987 18.1324 35.5748 16.576L32.2784 19.8822C34.3791 22.4098 35.2548 25.401 34.6903 28.7532C34.2284 31.4921 32.8508 33.736 30.6522 35.4439C28.5415 37.074 25.9022 37.8657 23.2425 37.6667C20.5828 37.4677 18.0909 36.2919 16.2465 34.3659C14.4021 32.4398 13.3358 29.8997 13.2528 27.2346C13.1699 24.5696 14.0762 21.9681 15.7973 19.9311C19.4763 15.5499 26.3519 14.6187 31.1287 18.6996L34.432 15.3963C33.9202 14.9992 33.3968 14.5473 32.8302 14.158C23.3735 7.66003 10.4295 13.2962 8.7309 24.6469C7.46967 33.0738 13.3032 40.9432 21.7522 42.2148C29.7276 43.414 37.3096 38.2541 39.1422 30.3789C39.1687 30.2684 39.1941 30.1569 39.2283 30.0483C39.3643 29.6111 39.7068 29.4017 40.1207 29.4986C40.5121 29.5895 40.7371 29.9642 40.6422 30.4073C40.2215 32.3822 39.5101 34.2486 38.3918 35.929C34.8693 41.2229 29.9047 43.9099 23.5398 43.8385C15.7327 43.7495 8.72992 37.7152 7.38846 30.0248C5.7838 20.8222 11.4158 12.2985 20.5487 10.3314C25.9165 9.17519 30.7677 10.4899 35.0141 13.9858C35.1638 14.1101 35.3077 14.2382 35.4055 14.3223L38.789 10.931C37.8184 10.2121 36.8067 9.36593 35.7039 8.66067C22.896 0.499822 5.81315 7.73043 2.84745 22.624C1.47761 29.5211 3.18795 35.7099 7.72211 41.1006C7.81995 41.2131 7.9178 41.3178 8.00978 41.4332C8.29549 41.8039 8.28178 42.2109 7.9814 42.4857C7.66242 42.7792 7.2182 42.7615 6.9051 42.381C6.1967 41.5114 5.4658 40.6526 4.84056 39.7253C2.61907 36.4518 1.29984 32.6508 1.01579 28.7053C0.997605 28.5781 0.970792 28.4523 0.935547 28.3287V25.3991C0.9712 25.2592 0.999288 25.1175 1.01969 24.9745C1.61655 18.5343 4.38068 13.2003 9.34634 9.07933C17.2532 2.51681 28.5064 2.01697 37.0053 7.76762C37.6726 8.21953 38.3076 8.71839 39.0141 9.23487C38.9612 8.42886 38.9368 7.68448 38.8585 6.94597C38.7802 6.20745 38.9886 5.5863 39.5346 5.05418C40.7361 3.88038 41.9074 2.68506 43.0991 1.50735C43.6167 0.995764 44.1568 0.508631 44.6862 0.00976562H45.3652ZM27.8812 24.2321C29.4399 26.6306 28.5876 29.2531 26.9223 30.5521C26.0477 31.2388 24.956 31.5896 23.845 31.5411C22.7339 31.4926 21.677 31.048 20.8656 30.2876C20.0542 29.5273 19.542 28.5017 19.4218 27.3964C19.3015 26.2911 19.5812 25.1794 20.2101 24.2624C21.6661 22.1555 23.987 21.7388 26.7335 23.0593C27.8352 21.9589 28.9252 20.8702 30.0133 19.7815C27.2403 17.1404 21.6406 16.4078 17.6975 20.0514C16.7847 20.8955 16.05 21.9136 15.5365 23.0457C15.0231 24.1779 14.7413 25.4012 14.7078 26.6438C14.6742 27.8864 14.8896 29.1231 15.3412 30.2813C15.7928 31.4395 16.4715 32.4957 17.3374 33.3878C20.9978 37.1566 27.0241 37.1938 30.6815 33.466C34.4975 29.5759 33.9193 23.8888 31.1708 20.9298C30.0827 22.0185 28.9957 23.1102 27.8812 24.2321ZM25.7198 24.2135C25.2201 23.904 24.6442 23.7392 24.0564 23.7375C23.4685 23.7358 22.8917 23.8973 22.3903 24.204C21.8888 24.5107 21.4824 24.9506 21.2162 25.4747C20.9501 25.9987 20.8347 26.5863 20.8829 27.172C20.9312 27.7577 21.1411 28.3186 21.4893 28.792C21.8376 29.2655 22.3105 29.633 22.8554 29.8536C23.4003 30.0743 23.9957 30.1393 24.5754 30.0416C25.1551 29.9438 25.6962 29.6871 26.1386 29.3C27.3127 28.2876 27.5896 26.476 26.7315 25.2729C26.6122 25.3834 26.4928 25.4881 26.3803 25.6006C25.804 26.1738 25.2482 26.7695 24.6445 27.3114C24.4488 27.4836 24.1181 27.6205 23.8764 27.5853C23.2893 27.4982 23.1337 26.7959 23.5829 26.3391C24.2658 25.6299 24.9781 24.9442 25.7159 24.2135H25.7198ZM44.7067 2.06294C44.6448 2.08529 44.5857 2.11485 44.5306 2.15099C43.1823 3.49499 41.8359 4.84125 40.4915 6.18982C40.3956 6.27563 40.3343 6.39359 40.3193 6.52143C40.3653 7.45167 40.4328 8.37995 40.5023 9.4354C41.9827 7.94663 43.3701 6.55371 44.7517 5.15493C44.8276 5.0756 44.8718 4.9712 44.876 4.86149C44.8251 3.93712 44.7625 3.02154 44.7028 2.06294H44.7067ZM41.4925 10.441C42.5218 10.5124 43.3789 10.5916 44.2322 10.616C44.4664 10.6029 44.6878 10.5052 44.8554 10.3412C45.8584 9.36986 46.8368 8.37407 47.826 7.38905C48.1783 7.03789 48.5383 6.69457 48.9933 6.25048C47.9943 6.18396 47.145 6.10767 46.2928 6.08224C46.0614 6.08528 45.8388 6.17137 45.6656 6.32482C44.7419 7.21397 43.8467 8.13247 42.9367 9.0363C42.4925 9.47745 42.0375 9.90981 41.4886 10.441H41.4925Z" fill="#A3CC01"/>
</g>
<defs>
<clipPath id="clip0_240_4599">
<rect width="50" height="50" fill="white" transform="translate(0.929688 0.00976562)"/>
</clipPath>
</defs>
</svg>
