<svg width="51" height="57" viewBox="0 0 51 57" fill="none" xmlns="http://www.w3.org/2000/svg">
<g clip-path="url(#clip0_240_4582)">
<path d="M25.9923 0.849609C26.5789 1.17006 26.7737 1.65893 26.7639 2.32935C26.7323 4.54404 26.7552 6.75873 26.7508 8.97233C26.7508 9.68321 26.3873 10.148 25.8008 10.2257C25.6522 10.2464 25.5009 10.2353 25.3569 10.193C25.2129 10.1507 25.0794 10.0783 24.9653 9.98044C24.8512 9.88259 24.759 9.76156 24.6948 9.62531C24.6306 9.48907 24.5958 9.34069 24.5928 9.18997C24.5721 6.75764 24.5819 4.32531 24.5862 1.89298C24.5862 1.37239 24.9573 1.10115 25.3404 0.849609H25.9923Z" fill="#A3CC01"/>
<path d="M25.3964 44.075C20.6787 44.0357 16.1547 42.5001 11.9714 39.895C7.67482 37.2199 4.07588 33.7704 1.07984 29.6899C0.529168 28.9386 0.523723 28.6422 1.08963 27.8854C5.06621 22.5581 9.88185 18.2446 16.0241 15.5804C22.7715 12.6571 29.5047 12.8255 36.141 15.9446C41.9426 18.6712 46.5428 22.8632 50.3322 28.0002C50.7555 28.5744 50.7784 28.967 50.3866 29.4964C46.0204 35.3956 40.6759 40.0525 33.7228 42.6303C31.1229 43.5971 28.4196 44.0663 25.3964 44.075ZM26.2355 15.6898C22.6517 15.6898 19.7395 16.346 16.9513 17.5491C11.4294 19.9355 7.06212 23.783 3.35543 28.4585C3.16281 28.7013 3.15628 28.8697 3.35543 29.1147C6.83793 33.5134 10.9135 37.1871 16.01 39.6052C22.2034 42.5428 28.4577 42.6773 34.7349 39.8775C40.1034 37.4824 44.3597 33.6928 47.9869 29.1223C48.2133 28.8369 48.1415 28.663 47.9521 28.4213C45.3304 25.0845 42.3126 22.1742 38.7463 19.8709C34.7698 17.3095 30.4776 15.7259 26.2355 15.6898Z" fill="#A3CC01"/>
<path d="M26.7523 52.0727C26.7523 53.1981 26.7523 54.3235 26.7523 55.4489C26.7523 56.2364 26.317 56.7351 25.664 56.7329C25.011 56.7307 24.5844 56.2342 24.5833 55.4423C24.579 53.1741 24.579 50.9054 24.5833 48.6364C24.5833 47.849 25.0187 47.3513 25.6716 47.3535C26.3246 47.3557 26.7501 47.8533 26.7534 48.643C26.7566 49.7859 26.7523 50.9298 26.7523 52.0727Z" fill="#A3CC01"/>
<path d="M10.7598 14.773C10.7424 15.7497 9.82495 16.2572 9.11213 15.8186C8.97622 15.7294 8.85097 15.6248 8.73885 15.5069C7.30667 14.0709 5.86361 12.6469 4.46082 11.1825C4.21269 10.9233 3.9885 10.476 4.0255 10.149C4.06251 9.82198 4.39878 9.40529 4.70132 9.29264C5.00387 9.17999 5.54692 9.27076 5.77763 9.49059C7.37088 11.0217 8.91624 12.5966 10.4572 14.177C10.6368 14.3563 10.6988 14.6473 10.7598 14.773Z" fill="#A3CC01"/>
<path d="M47.503 10.1817C47.2744 10.5787 47.1634 10.9002 46.9501 11.119C45.4831 12.6228 43.9998 14.108 42.511 15.5899C41.9963 16.1018 41.3781 16.1236 40.9189 15.684C40.4596 15.2443 40.4542 14.5816 40.9831 14.0435C42.4566 12.5473 43.9421 11.0632 45.4243 9.57581C45.7878 9.21052 46.2406 9.01365 46.6933 9.29035C47.0121 9.48831 47.2222 9.86126 47.503 10.1817Z" fill="#A3CC01"/>
<path d="M9.73633 42.5781C10.0291 42.7969 10.4296 42.9653 10.571 43.2551C10.7125 43.5449 10.6265 43.9671 10.583 44.3247C10.5667 44.4603 10.4013 44.5872 10.287 44.702C8.84612 46.1544 7.41503 47.6167 5.94585 49.0396C5.6999 49.278 5.26785 49.4967 4.96639 49.4519C4.63991 49.4037 4.21657 49.0877 4.09577 48.7858C3.97497 48.484 4.06203 47.9328 4.2786 47.7031C5.80219 46.0998 7.36714 44.5467 8.93753 42.9937C9.11601 42.8133 9.40223 42.7476 9.73633 42.5781Z" fill="#A3CC01"/>
<path d="M47.3613 48.2804C47.3428 49.2581 46.4265 49.7645 45.7126 49.3259C45.577 49.2364 45.4521 49.1314 45.3404 49.0131C43.9082 47.5782 42.4641 46.1543 41.0624 44.6898C40.8143 44.4306 40.5901 43.9833 40.6271 43.6552C40.6641 43.3271 41.0003 42.9115 41.3029 42.8C41.6054 42.6884 42.1485 42.7781 42.3781 42.9979C43.9724 44.5291 45.5178 46.104 47.0577 47.6843C47.2395 47.8648 47.3015 48.1568 47.3613 48.2804Z" fill="#A3CC01"/>
<path d="M35.4404 28.8127C35.4328 33.9322 31.5302 38.1549 26.4077 38.5913C21.4407 39.0145 16.7981 35.3792 16.0418 30.3942C15.884 29.3508 15.9732 28.2593 16.032 27.1941C16.0723 26.4734 16.6044 26.0589 17.2171 26.1168C17.8701 26.1781 18.2717 26.6855 18.1694 27.4424C18.0181 28.5754 18.029 29.6899 18.3315 30.7934C19.3795 34.6212 23.0786 36.9683 27.0225 36.3121C30.7706 35.6876 33.5218 32.1298 33.2573 28.2473C32.9221 23.3258 28.0336 20.0098 23.3267 21.5157C23.1411 21.5867 22.9505 21.6437 22.7565 21.6864C22.1775 21.7804 21.6856 21.4676 21.5332 20.9427C21.3809 20.4177 21.5898 19.8129 22.1427 19.6499C23.0917 19.371 24.0624 19.0714 25.0386 19.0025C30.6737 18.6077 35.4502 23.142 35.4404 28.8127Z" fill="#A3CC01"/>
<path d="M30.0089 28.8024C30.007 29.6651 29.7507 30.5079 29.2724 31.2244C28.7941 31.9408 28.1153 32.4987 27.3217 32.8277C26.5281 33.1566 25.6552 33.2419 24.8135 33.0726C23.9717 32.9033 23.1987 32.4872 22.5921 31.8767C21.9855 31.2662 21.5726 30.4887 21.4054 29.6425C21.2382 28.7963 21.3244 27.9193 21.6529 27.1222C21.9814 26.3252 22.5376 25.6438 23.2512 25.1643C23.9648 24.6847 24.8038 24.4284 25.6623 24.4277C26.8157 24.4295 27.9213 24.8911 28.7362 25.7114C29.5512 26.5316 30.0089 27.6433 30.0089 28.8024ZM25.6623 30.9745C26.0917 30.9753 26.5117 30.8482 26.8692 30.6092C27.2266 30.3703 27.5056 30.0301 27.6708 29.6318C27.8359 29.2336 27.8798 28.795 27.797 28.3716C27.7142 27.9482 27.5083 27.559 27.2053 27.2532C26.9024 26.9475 26.5161 26.7388 26.0952 26.6536C25.6743 26.5685 25.2377 26.6106 24.8406 26.7748C24.4435 26.939 24.1038 27.2178 23.8644 27.576C23.625 27.9341 23.4966 28.3556 23.4956 28.7871C23.4955 29.3655 23.7235 29.9204 24.1296 30.3303C24.5357 30.7403 25.0868 30.9719 25.6623 30.9745Z" fill="#A3CC01"/>
<path d="M20.2315 23.3102C20.237 23.5241 20.1796 23.7349 20.0665 23.9161C19.9534 24.0974 19.7895 24.2411 19.5955 24.3292C19.4015 24.4173 19.1859 24.4459 18.9758 24.4114C18.7657 24.3769 18.5703 24.2809 18.4143 24.1353C18.2582 23.9898 18.1484 23.8012 18.0985 23.5932C18.0486 23.3852 18.0609 23.167 18.1338 22.966C18.2068 22.765 18.3371 22.5901 18.5086 22.4632C18.68 22.3363 18.8849 22.2631 19.0975 22.2526C19.3873 22.2423 19.6694 22.3478 19.8819 22.546C20.0945 22.7442 20.2202 23.019 20.2315 23.3102Z" fill="#A3CC01"/>
</g>
<defs>
<clipPath id="clip0_240_4582">
<rect width="50" height="55.8824" fill="white" transform="translate(0.666016 0.849609)"/>
</clipPath>
</defs>
</svg>
