<svg width="71" height="71" viewBox="0 0 71 71" fill="none" xmlns="http://www.w3.org/2000/svg">
<g clip-path="url(#clip0_240_4819)">
<path d="M70.5253 20.2897C70.2977 21.7235 70.066 23.156 69.8399 24.5913C69.7357 25.2657 69.6603 25.9457 69.5506 26.6201C69.4135 27.4865 68.8762 27.8689 67.9975 27.7442C66.645 27.5541 65.2925 27.3594 63.94 27.1602C63.3834 27.0779 62.8872 27.1479 62.5596 27.6661C62.2155 28.2144 62.3814 28.7038 62.7392 29.174C63.5379 30.2286 64.3315 31.2859 65.1202 32.346C65.7878 33.2439 65.7042 33.8032 64.8022 34.4831C63.1454 35.7306 61.4858 36.9739 59.8235 38.2131C58.9119 38.8985 58.3622 38.8163 57.6837 37.9225C56.8977 36.8871 56.1178 35.848 55.3437 34.8053C54.9942 34.3323 54.5788 33.9937 53.962 34.1404C53.3095 34.2967 53.1025 34.8258 53.0188 35.4221C52.8361 36.7317 52.6533 38.0399 52.4705 39.3468C52.3335 40.2954 51.8784 40.6819 50.9366 40.5572C48.768 40.2693 46.6031 39.9618 44.4418 39.6346C43.4699 39.4852 43.1574 39.0438 43.2794 38.0623C43.4302 36.8423 43.6166 35.6264 43.7866 34.4077C43.8154 34.2048 43.9058 33.9773 43.8455 33.8018C43.7084 33.3906 43.581 32.9231 43.2876 32.6503C42.9038 32.2939 42.3843 32.4283 41.9648 32.7381C40.9203 33.5099 39.8826 34.2912 38.8421 35.0685C37.7208 35.9102 37.2465 35.8457 36.4131 34.7367C35.2086 33.1329 34.0046 31.5286 32.8011 29.9238C32.1074 28.993 32.1897 28.4392 33.1163 27.7414C34.1527 26.9587 35.189 26.1746 36.2349 25.411C36.716 25.0546 37.0135 24.616 36.8504 24.0087C36.6941 23.4302 36.2349 23.2109 35.6688 23.1355C34.3829 22.9655 33.0971 22.7777 31.8127 22.5872C30.6558 22.4172 30.3048 21.9785 30.4597 20.8298C30.7476 18.7324 31.0519 16.6364 31.3727 14.5418C31.5235 13.5576 32.0211 13.2094 32.9902 13.3451C34.3213 13.5329 35.6523 13.7138 36.9792 13.9263C37.5522 14.0168 38.0361 13.9263 38.3569 13.4219C38.7009 12.8845 38.5364 12.3869 38.1746 11.914C37.3864 10.8804 36.5981 9.84813 35.8442 8.79123C35.5892 8.43482 35.433 8.00852 35.2342 7.61235L35.3082 7.36834C33.836 7.58493 32.3405 7.70006 30.8957 8.03454C23.1123 9.83031 17.0109 16.3965 16.0157 24.3144C15.0246 32.1884 17.7977 38.5599 24.2117 43.3098C25.1233 43.9856 26.0513 44.671 26.8162 45.4921C28.0252 46.7793 28.5982 48.3942 28.6489 50.1612C28.6928 51.7335 28.6572 53.3072 28.6709 54.8795C28.6846 56.4518 29.5879 57.4087 31.1671 57.421C34.1536 57.4457 37.1405 57.4457 40.1279 57.421C41.7181 57.4073 42.6091 56.4724 42.6187 54.885C42.6187 53.495 42.6022 52.1036 42.6187 50.7136C42.6639 47.9075 43.7962 45.6567 46.0923 44.0076C46.997 43.3578 47.8894 42.6902 48.8558 41.9815L50.3911 43.7005C49.5096 44.3626 48.7105 45.0384 47.84 45.6046C45.8017 46.9288 44.8613 48.7821 44.9312 51.1961C44.9682 52.4724 44.9421 53.75 44.9312 55.0276C44.9243 56.615 44.2664 57.8706 43.0258 58.8659C42.7917 59.0783 42.6488 59.373 42.6269 59.6884C42.5926 61.5568 42.6173 63.4266 42.6077 65.2964C42.5926 68.2285 40.6461 70.1929 37.7291 70.2231C36.3372 70.2368 34.9464 70.2368 33.5564 70.2231C30.6434 70.1943 28.6846 68.2285 28.6599 65.3005C28.6448 63.4087 28.6722 61.5157 28.6393 59.6239C28.617 59.3284 28.4791 59.0536 28.2555 58.859C27.0026 57.8775 26.3679 56.604 26.3364 55.0207C26.3172 54.0186 26.3364 53.0152 26.3364 51.8308C25.7785 52.3791 25.322 52.8219 24.8683 53.2702C24.0253 54.105 23.6497 54.142 22.675 53.4744C21.7607 52.8493 20.8491 52.2201 19.8553 51.5375C19.5811 52.7945 19.3426 53.9446 19.0877 55.092C18.8903 55.9817 18.5393 56.2654 17.6141 56.2695C16.2433 56.275 14.8752 56.275 13.5099 56.2695C12.6367 56.2695 12.2762 55.9721 12.0829 55.1153C11.828 53.9844 11.5881 52.8493 11.3399 51.7157C11.3399 51.6979 11.3098 51.6855 11.2179 51.5978L8.68061 53.3401C7.4373 54.1955 7.19331 54.1722 6.11861 53.0974C5.23125 52.2101 4.3448 51.3232 3.45927 50.4367C2.63679 49.6046 2.59841 49.229 3.27284 48.2434C3.88833 47.3414 4.50656 46.4421 5.19195 45.4387L2.22693 44.7931C2.00486 44.7437 1.78005 44.7053 1.55935 44.656C0.79171 44.4668 0.475058 44.0953 0.462721 43.3126C0.449926 41.8778 0.449926 40.4416 0.462721 39.0041C0.462721 38.2268 0.79171 37.8403 1.55935 37.6675C2.72864 37.4057 3.90341 37.1644 5.18236 36.8903C4.49697 35.8951 3.87189 34.9835 3.24681 34.0691C2.5806 33.0945 2.61624 32.7107 3.44968 31.8758C4.43117 30.8916 5.41127 29.9046 6.40098 28.9272C7.08638 28.2486 7.5223 28.2144 8.32969 28.7613C9.28925 29.4111 10.2488 30.0704 11.2988 30.7956C11.536 29.6715 11.7731 28.6393 11.965 27.5989C12.1323 26.6873 12.4421 25.9539 13.5702 26.0512C13.7772 23.2849 14.3516 20.6721 15.4893 18.2047C18.0728 12.5925 22.2547 8.68933 28.0348 6.49511C30.8536 5.41372 33.8803 4.98354 36.8888 5.23671C37.2126 5.27725 37.5413 5.24834 37.8531 5.1519C38.1648 5.05547 38.4525 4.8937 38.6968 4.67741C39.4426 4.04409 40.2527 3.48616 41.0381 2.89534C41.9799 2.19348 42.5309 2.26341 43.2314 3.1846C44.0164 4.22002 44.7964 5.25864 45.5714 6.30047C45.9031 6.74735 46.2938 7.07909 46.8928 6.95161C47.5192 6.81452 47.766 6.36214 47.8523 5.76857C48.0443 4.41694 48.2348 3.0626 48.4541 1.71371C48.6145 0.723983 49.0929 0.397716 50.073 0.536169C52.1475 0.831351 54.2224 1.12381 56.2978 1.41351C57.4068 1.56704 57.7837 2.06054 57.6261 3.19558C57.4465 4.4814 57.2669 5.76722 57.0778 7.05167C56.99 7.63701 57.0668 8.15791 57.6261 8.47868C58.1854 8.79945 58.672 8.5774 59.134 8.22647C60.1881 7.42866 61.2422 6.6322 62.306 5.84809C63.1284 5.23945 63.7261 5.32443 64.3498 6.14829C65.6292 7.83805 66.9008 9.53377 68.1647 11.2354C68.8104 12.1045 68.7199 12.6487 67.8371 13.319C66.8035 14.1059 65.764 14.8827 64.7186 15.6494C64.2237 16.0154 63.8892 16.45 64.077 17.0998C64.2552 17.718 64.7556 17.8948 65.3341 17.973C66.6199 18.1443 67.9029 18.3541 69.1914 18.5104C69.4596 18.5416 69.7177 18.6314 69.9473 18.7736C70.1768 18.9157 70.3723 19.1067 70.5198 19.3328L70.5253 20.2897ZM62.772 33.0945C62.1058 32.2062 61.4849 31.3906 60.879 30.5653C59.892 29.2219 59.7824 27.7497 60.5473 26.4775C61.3122 25.2054 62.7254 24.6201 64.3937 24.8805C65.3724 25.0327 66.358 25.1547 67.382 25.2918C67.6082 23.7291 67.8207 22.2499 68.0427 20.7119C67.0023 20.5624 66.0167 20.4117 65.027 20.2801C62.7474 19.9757 61.367 18.206 61.7686 16.0881C61.9523 15.1148 62.5143 14.3979 63.2943 13.8208C64.1278 13.2039 64.953 12.5747 65.7987 11.9373L63.0174 8.23604C61.9838 8.98999 61.0257 9.76179 60.0017 10.4198C58.3403 11.4822 56.2087 10.9092 55.1971 9.2162C54.6295 8.26622 54.7008 7.25867 54.8516 6.23193C54.9777 5.36557 55.0942 4.49648 55.2203 3.60271L50.6378 2.96251C50.4747 4.04957 50.3102 5.05577 50.1758 6.06606C49.9675 7.64799 49.1341 8.72544 47.6001 9.17644C46.1361 9.60825 44.7667 9.04896 43.7249 7.67815C43.1081 6.86525 42.4912 6.04823 41.8592 5.19832L38.1485 7.98246C38.8531 8.92422 39.5193 9.78644 40.1581 10.6747C41.0491 11.9263 41.1629 13.2793 40.3706 14.5884C39.5618 15.9291 38.3007 16.4431 36.7476 16.2252C35.6934 16.0785 34.6393 15.9359 33.5344 15.7838C33.3165 17.341 33.1054 18.838 32.8888 20.3705C34.0115 20.5323 35.045 20.6776 36.0786 20.8325C37.4124 21.034 38.409 21.6989 38.9573 22.9655C39.6029 24.4871 39.156 26.0594 37.762 27.1602C36.9121 27.8305 36.0361 28.4693 35.1383 29.1493L37.9251 32.8601C38.7777 32.2199 39.555 31.5386 40.4268 31.015C41.0889 30.6174 41.8579 30.224 42.605 30.1705C44.9353 30.0019 46.5227 32.0321 46.1416 34.5009C45.9908 35.4783 45.8674 36.4612 45.7221 37.4756L50.3075 38.1185C50.4445 37.0987 50.5816 36.1761 50.7036 35.2521C50.8187 34.3515 51.0723 33.5153 51.7262 32.845C53.2258 31.3042 55.6083 31.4303 57.0051 33.1534C57.7179 34.0348 58.3759 34.9574 59.0737 35.8745L62.772 33.0945ZM5.41813 49.24C5.8047 49.5786 6.17755 49.8774 6.51477 50.2092C6.85198 50.5409 7.19193 50.9329 7.53326 51.3058C8.39137 50.7191 9.13298 50.1913 9.89377 49.6951C11.4798 48.6574 13.1933 49.3579 13.6209 51.2139C13.8293 52.1146 14.0144 53.0207 14.2049 53.8994H16.9698C17.1686 52.9823 17.3454 52.1173 17.5455 51.2482C17.9951 49.3085 19.7018 48.6354 21.3591 49.7403C22.0938 50.2311 22.8176 50.7397 23.6483 51.3113C24.3556 50.5711 25.0273 49.8294 25.7442 49.1344C26.0294 48.8603 26.0184 48.645 25.8813 48.3119C25.0794 46.3859 23.2453 45.5936 21.7552 44.3969C19.7868 47.7746 16.4187 48.63 13.7375 47.9103C12.2978 47.5158 11.0211 46.6731 10.0924 45.5043C9.16376 44.3356 8.63135 42.9015 8.57233 41.4098C8.51643 39.8934 8.97273 38.4023 9.86772 37.1768C11.0439 35.5099 12.6778 34.5722 14.6655 34.2391C14.3694 32.9958 14.0856 31.8059 13.7909 30.5708C13.7361 30.7216 13.6826 30.845 13.6538 30.9697C13.0836 33.1411 11.4866 33.7305 9.62234 32.4571C8.94928 31.9965 8.27897 31.5331 7.50036 30.9985C7.16177 31.3823 6.86706 31.7607 6.5271 32.0951C6.18714 32.4296 5.77591 32.7449 5.40031 33.0643C6.01169 33.954 6.52299 34.6778 7.01237 35.4166C8.08981 37.0397 7.41537 38.7573 5.52779 39.1974C4.62855 39.4071 3.72247 39.5949 2.83145 39.7909V42.5435C3.73892 42.7409 4.62582 42.9246 5.50861 43.1275C7.40167 43.5593 8.09803 45.281 7.03019 46.8959C6.54356 47.6293 6.02951 48.3517 5.41813 49.24ZM15.9129 45.7718C17.3865 45.7225 18.7765 44.9123 19.6922 43.2742C19.9197 42.8629 19.88 42.6121 19.5551 42.2735C18.1295 40.7875 16.9095 39.1384 16.05 37.2645C15.7087 36.5215 15.259 36.4681 14.5983 36.6202C12.2981 37.1494 10.7519 39.2412 10.9726 41.5456C11.2042 43.961 13.0877 45.7046 15.9129 45.7718ZM40.2883 64.4561H31.0026C31.0026 64.8769 30.9848 65.2416 31.0026 65.6021C31.0794 66.9208 32.0142 67.8598 33.3329 67.8845C34.8792 67.9146 36.4263 67.9146 37.9744 67.8845C38.5625 67.8882 39.1293 67.6654 39.5576 67.2625C39.9858 66.8595 40.2426 66.3071 40.2746 65.7199C40.3103 65.3156 40.2883 64.9071 40.2883 64.4561ZM40.2623 62.0366V59.7953H31.0533V62.038L40.2623 62.0366Z" fill="#A3CC01"/>
<path d="M15.8 0.175781C16.5868 3.25327 17.3737 6.32936 18.1783 9.47265L15.9385 10.0648C15.1448 6.96954 14.3593 3.89617 13.5684 0.813198L15.5272 0.175781H15.8Z" fill="#A3CC01"/>
<path d="M36.8029 49.2735H34.6193C34.3849 48.3359 34.2382 47.3887 33.9092 46.5113C33.2403 44.7293 32.0052 43.39 30.2629 42.6347C27.7955 41.5613 25.5419 40.2083 23.6749 38.2261C17.5337 31.7106 18.0834 20.8606 24.888 15.0277C25.5392 14.4698 26.2382 13.9681 26.9524 13.4102C27.3883 14.0956 27.7749 14.7097 28.1861 15.3595C28.0285 15.4966 27.912 15.6172 27.7639 15.7159C19.6269 21.4528 19.6763 33.1349 27.8928 38.7717C28.8414 39.4228 29.9202 39.8971 30.9702 40.3838C34.1422 41.8546 36.0161 44.318 36.6796 47.7245C36.7741 48.2098 36.7604 48.7156 36.8029 49.2735Z" fill="#A3CC01"/>
<path d="M4.94514 6.50586L13.0781 12.314L11.7306 14.2071L3.59766 8.3976L4.94514 6.50586Z" fill="#A3CC01"/>
<path d="M10.9641 17.9453C11.156 18.7363 11.3273 19.4368 11.5124 20.2003L2.23762 22.5225C2.04846 21.7795 1.86889 21.068 1.66602 20.2716L10.9641 17.9453Z" fill="#A3CC01"/>
<path d="M55.8359 51.3504C56.35 50.7308 56.8229 50.1606 57.3178 49.5684L64.2841 55.3724C63.7907 55.9715 63.3246 56.5404 62.8037 57.1641L55.8359 51.3504Z" fill="#A3CC01"/>
<path d="M50.8262 52.8223H53.0469V60.8758H50.8262V52.8223Z" fill="#A3CC01"/>
<path d="M57.7832 45.7575V43.5312H65.8325V45.7575H57.7832Z" fill="#A3CC01"/>
<path d="M36.7676 55.0576H34.5469V51.6621H36.7676V55.0576Z" fill="#A3CC01"/>
<path d="M59.7394 20.5716C59.7285 25.7026 55.5215 29.885 50.4098 29.8452C45.2982 29.8055 41.1542 25.6327 41.1529 20.5456C41.1398 19.3157 41.3709 18.0954 41.8329 16.9555C42.2948 15.8156 42.9785 14.7788 43.8441 13.905C44.7098 13.0313 45.7403 12.3381 46.8758 11.8656C48.0114 11.3931 49.2294 11.1506 50.4593 11.1524C51.6893 11.1541 52.9066 11.3999 54.0408 11.8756C55.1751 12.3513 56.2036 13.0474 57.0668 13.9236C57.93 14.7997 58.6107 15.8385 59.0695 16.9797C59.5283 18.1209 59.756 19.3418 59.7394 20.5716ZM57.4091 20.5387C57.3877 18.7076 56.6463 16.9585 55.3452 15.6698C54.0442 14.381 52.2881 13.6563 50.4569 13.6524C48.6257 13.6484 46.8665 14.3655 45.5599 15.6486C44.2533 16.9317 43.5043 18.6775 43.475 20.5086C43.4407 24.2961 46.6689 27.534 50.466 27.5231C54.2631 27.5121 57.4146 24.3427 57.4132 20.5387H57.4091Z" fill="#A3CC01"/>
</g>
<defs>
<clipPath id="clip0_240_4819">
<rect width="70.0529" height="70.0529" fill="white" transform="translate(0.472656 0.175781)"/>
</clipPath>
</defs>
</svg>
