<svg width="51" height="51" viewBox="0 0 51 51" fill="none" xmlns="http://www.w3.org/2000/svg">
<g clip-path="url(#clip0_240_4572)">
<path d="M38.4547 40.3796C38.0967 41.7363 37.2755 42.7117 35.7783 43.0214C35.7166 43.0445 35.6605 43.0804 35.6135 43.1266C35.5665 43.1728 35.5297 43.2284 35.5054 43.2898C34.6204 45.5981 33.9469 46.0746 31.6123 46.027C30.8161 47.983 29.0511 49.1278 26.7052 47.8576C26.2933 48.7905 25.6562 49.5126 24.6722 49.8474C23.5381 50.2336 22.5604 49.8863 21.6504 49.1754C17.6921 46.0825 13.728 43.0006 9.75813 39.9295C9.68878 39.887 9.61686 39.8489 9.5428 39.8154C8.43495 40.7257 7.20566 40.594 5.91254 40.1915C4.34527 39.7063 2.75046 39.305 1.16567 38.8725C0.423341 38.6693 0.129156 38.2004 0.328195 37.4769C1.72272 32.3971 3.12141 27.3182 4.52428 22.2401C4.57811 22.0482 4.66073 21.7724 4.80469 21.7109C5.38928 21.4601 5.28539 20.995 5.29415 20.5223C5.31042 19.5016 5.33671 18.4785 5.41933 17.4616C5.53825 15.957 6.96282 14.5777 8.49129 14.7671C9.85827 14.9326 10.4779 14.4248 10.7696 13.2148C10.8087 13.0871 10.8547 12.9615 10.9073 12.8387C10.5505 12.5039 10.1662 12.1553 9.79567 11.7929C8.56013 10.5855 8.45623 8.80499 9.60915 7.51979C10.5405 6.48285 11.5169 5.48229 12.5259 4.52183C13.7627 3.34446 15.6554 3.35323 16.7745 4.63969C17.5457 5.52993 18.1866 5.74686 19.2669 5.15629C19.8928 4.81148 20.177 4.52935 20.1056 3.82719C20.0603 3.37244 20.0796 2.91353 20.1632 2.46424C20.2899 1.80309 20.6369 1.20463 21.1474 0.766819C21.658 0.329003 22.3018 0.0777798 22.9735 0.0543317C24.4069 0.0154622 25.8427 -0.025904 27.2735 0.034281C28.9484 0.104497 30.1865 1.55521 30.1126 3.23287C30.0525 4.58954 30.0538 4.58954 31.3256 5.11365C31.6499 5.24907 31.9728 5.39075 32.3384 5.54873C32.7001 5.17258 33.0581 4.79642 33.4212 4.42026C34.6054 3.21029 36.3867 3.08743 37.641 4.21088C38.7101 5.16757 39.7391 6.17442 40.7205 7.22013C41.8334 8.41004 41.8284 10.3222 40.5853 11.3829C39.6239 12.2029 39.4812 12.8876 40.0746 13.9897C40.3838 14.5602 40.6341 14.8235 41.2625 14.742C41.6339 14.6919 42.0103 14.6919 42.3817 14.742C44.0841 15.0066 45.063 16.1049 45.1444 17.8365C45.1957 18.8985 45.2095 19.9605 45.2483 21.0226C45.2483 21.1555 45.2784 21.3724 45.3535 21.3987C45.9794 21.6495 46.0257 22.2426 46.1734 22.778C47.5128 27.658 48.8552 32.5367 50.2005 37.4142C50.4121 38.1803 50.1404 38.6367 49.358 38.8511C47.5341 39.3527 45.7127 39.8643 43.8876 40.3633C42.9838 40.6141 42.1088 40.5376 41.3201 39.9984C41.0535 39.8153 40.8545 39.8028 40.5365 39.9019C39.8906 40.1301 39.2108 40.2229 38.4547 40.3796ZM22.1273 4.28484H22.0998C22.0998 4.57699 22.0897 4.86914 22.0998 5.16254C22.1373 6.02017 21.9107 6.29102 21.1208 6.58317C20.2095 6.92421 19.312 7.31416 18.437 7.74047C17.7147 8.0928 17.3504 8.06521 16.7821 7.48091C16.3039 6.98815 15.8069 6.51171 15.3187 6.02897C14.8981 5.61144 14.4111 5.53744 13.988 5.94871C12.9865 6.91668 12.0189 7.91601 11.0675 8.93163C10.6657 9.36045 10.7195 9.84446 11.1364 10.2683C11.6621 10.8024 12.1829 11.3416 12.7212 11.8632C13.1693 12.297 13.2432 12.7408 12.9715 13.3239C12.5747 14.1677 12.2204 15.0367 11.9 15.9106C11.6671 16.5375 11.3116 16.8008 10.6419 16.7883C9.89081 16.7745 9.14599 16.8008 8.3974 16.8021C7.81155 16.8021 7.47106 17.1431 7.44352 17.6723C7.37592 18.9386 7.36215 20.2088 7.37842 21.4765C7.37842 21.6545 7.64129 21.9291 7.83532 21.988C9.00828 22.3429 10.1963 22.6476 11.378 22.9698C12.2542 23.2118 12.9891 23.6795 13.3896 24.5183C13.5774 24.912 13.7977 25.0136 14.2033 24.9622C15.7931 24.7628 17.3867 24.6036 18.974 24.3892C19.2932 24.3358 19.5923 24.1976 19.8402 23.9892C21.6554 22.4733 23.7209 21.9203 26.0204 22.4181C29.513 23.1704 32.9918 23.9992 36.4743 24.8004C36.8111 24.8782 36.9926 24.8218 37.1591 24.4895C37.5647 23.6795 38.2707 23.2105 39.1244 22.9723C40.3062 22.6438 41.4904 22.3266 42.6783 22.0281C43.0051 21.9466 43.1978 21.815 43.1891 21.4539C43.159 20.1863 43.1665 18.9161 43.0965 17.6509C43.0664 17.1181 42.7146 16.7933 42.1301 16.7946C41.4027 16.7946 40.6754 16.7595 39.9481 16.7758C39.2208 16.7921 38.8891 16.5413 38.6387 15.8893C38.2632 14.9213 37.8551 13.9671 37.4157 13.0292C37.119 12.4023 37.1466 12.0149 37.6448 11.5246C38.1768 10.9967 38.7101 10.4689 39.2246 9.92468C39.5901 9.53724 39.6439 9.06329 39.2784 8.68337C38.297 7.66942 37.2905 6.6793 36.259 5.713C35.8284 5.30926 35.3452 5.38699 34.9259 5.80327C34.4089 6.3161 33.8856 6.82391 33.3749 7.34301C32.8641 7.86211 32.5224 7.90097 31.8727 7.6176C30.905 7.19254 29.9211 6.80386 28.9284 6.44275C28.3163 6.22082 28.0521 5.86598 28.0521 5.18889C28.0634 4.4604 28.0446 3.73189 28.0334 3.00215C28.0246 2.43164 27.7242 2.07555 27.1571 2.06678C25.7889 2.04295 24.4181 2.03795 23.0499 2.08435C22.464 2.10441 22.0947 2.46049 22.1085 3.10497C22.1336 3.49241 22.1273 3.88862 22.1273 4.28484ZM24.7711 30.2911C24.5596 30.5682 24.3956 30.7776 24.2316 30.9957C22.2875 33.6552 18.7687 34.2407 16.0948 32.3486C15.1447 31.6753 15.0846 31.3455 15.6917 30.3337C16.4303 29.1112 17.1526 27.8786 17.945 26.547C16.4854 26.7063 15.1622 26.8367 13.8465 27.0147C13.6963 27.0348 13.5123 27.3006 13.461 27.4849C12.5271 30.8352 11.6158 34.1905 10.687 37.5408C10.5893 37.8932 10.6544 38.1164 10.9511 38.3371C11.8537 39.0091 12.7362 39.7063 13.625 40.3946C16.737 42.8054 19.8498 45.2149 22.9635 47.6231C23.6495 48.151 24.1252 48.1084 24.5834 47.5391C25.059 46.9498 24.9739 46.4745 24.2867 45.8953C24.0789 45.721 23.8661 45.553 23.652 45.3875C22.6819 44.6352 21.7054 43.8829 20.7403 43.1305C20.202 42.7067 20.0894 42.1187 20.4286 41.6573C20.7954 41.1557 21.3687 41.1181 21.9671 41.5507C22.0522 41.6121 22.1311 41.6761 22.2174 41.7438C24.1127 43.207 26.0029 44.6778 27.9082 46.1323C28.5066 46.5874 29.1012 46.4407 29.4892 45.805C29.8072 45.2809 29.7308 44.8195 29.1863 44.3882C27.5689 43.1105 25.9316 41.8504 24.3042 40.5827C23.4893 39.9483 23.3215 39.4242 23.7584 38.8762C24.1953 38.3283 24.7286 38.3747 25.551 39.0141C27.6115 40.6053 29.6682 42.2014 31.735 43.7788C32.2845 44.1988 32.7903 44.1299 33.2096 43.6296C33.6553 43.0992 33.6402 42.5537 33.0844 42.1099C31.4258 40.7846 29.7433 39.4868 28.0772 38.1753C27.7372 37.9353 27.4154 37.6705 27.1145 37.3829C26.7553 37.0067 26.754 36.5365 27.0695 36.129C27.3849 35.7215 27.8206 35.6124 28.2937 35.8569C28.4743 35.9596 28.6452 36.0783 28.8045 36.2118C30.7698 37.7231 32.7339 39.2344 34.6968 40.7457C35.3102 41.2146 35.9298 41.0792 36.3141 40.4122C36.607 39.9018 36.5407 39.458 36.0637 39.0881C34.4915 37.8535 32.9188 36.6218 31.3457 35.393C29.1738 33.7016 27.0006 32.0201 24.7711 30.2911ZM23.1438 29.0372C22.926 28.8617 22.6981 28.6874 22.4803 28.5018C21.9796 28.0705 21.8782 27.5301 22.2124 27.0737C22.5467 26.6173 23.155 26.5333 23.6996 26.9307C24.2441 27.3282 24.7949 27.7608 25.3382 28.1846C29.4855 31.3957 33.6202 34.6219 37.795 37.7966C38.1943 38.1001 38.8265 38.1565 39.361 38.2016C39.7967 38.238 39.9869 37.9847 39.843 37.4681C38.9083 34.1429 37.9953 30.8118 37.104 27.4749C36.9964 27.0762 36.7986 26.9144 36.4017 26.8267C32.7915 26.0279 29.1875 25.1967 25.5786 24.3967C23.6921 23.9754 21.9771 24.4192 20.8079 25.9427C19.6162 27.4937 18.6798 29.2416 17.6345 30.9042C19.5786 32.0803 21.7668 31.3142 23.14 29.041L23.1438 29.0372ZM44.3332 23.6293C42.6308 24.1133 40.9884 24.5547 39.3648 25.0575C38.8766 25.2092 38.6963 25.6493 38.839 26.1772C39.2346 27.6442 39.6177 29.115 40.0207 30.5795C40.6717 32.948 41.3226 35.3178 41.9986 37.6788C42.1976 38.3747 42.5644 38.6254 43.1903 38.4687C44.7989 38.0662 46.395 37.6136 48.0424 37.1672L44.3332 23.6293ZM2.51137 37.171C4.05736 37.5872 5.55577 37.9972 7.05795 38.3935C7.99807 38.6442 8.35233 38.4812 8.60394 37.5747C9.64378 33.8248 10.6661 30.0691 11.6709 26.3076C11.8774 25.5377 11.6596 25.1791 10.9023 24.9572C9.46644 24.5384 8.02311 24.1422 6.58102 23.7434C6.45132 23.7274 6.32015 23.7274 6.19045 23.7434L2.51137 37.171Z" fill="#A3CC01"/>
<path d="M32.2661 20.3494C32.345 16.2229 29.1453 12.9303 25.2347 12.9454C21.324 12.9604 18.1619 16.3045 18.2846 20.2666C18.2846 20.4748 18.3209 20.6829 18.3209 20.8936C18.3209 21.4578 17.9717 21.8791 17.4584 21.9481C16.9452 22.017 16.3793 21.6622 16.3806 21.0704C16.3806 19.9344 16.343 18.7545 16.6234 17.6711C17.7501 13.2977 22.1177 10.3612 26.345 11.0069C31.1019 11.7329 34.4005 15.6286 34.2653 20.3444C34.234 21.4453 33.8897 21.9656 33.1987 21.9531C32.5077 21.9405 32.2273 21.4603 32.2661 20.313C32.2674 20.2716 32.2661 20.224 32.2661 20.3494Z" fill="#A3CC01"/>
</g>
<defs>
<clipPath id="clip0_240_4572">
<rect width="50" height="50" fill="white" transform="translate(0.269531 0.00976562)"/>
</clipPath>
</defs>
</svg>
