<svg width="51" height="48" viewBox="0 0 51 48" fill="none" xmlns="http://www.w3.org/2000/svg">
<g clip-path="url(#clip0_240_4595)">
<path d="M0.0468865 46.749C0.350225 46.2158 0.861009 46.2158 1.36886 46.2598C1.76026 46.297 1.97162 46.1561 2.15167 45.7979C3.01961 44.1061 3.94332 42.4426 4.80441 40.7469C5.41304 39.5492 6.23989 38.5746 7.4278 37.9454C8.09319 37.5931 8.50416 37.0784 8.82903 36.4081C11.4495 31.086 14.1013 25.7795 16.7432 20.4682C17.4106 19.1266 18.3431 18.9182 19.5212 19.8429L20.4518 20.5739C20.5291 20.4085 20.5986 20.2705 20.6592 20.1286C21.4049 18.3976 22.1534 16.6676 22.8893 14.9318C23.1388 14.3447 23.4979 13.875 24.0635 13.5472C24.2063 13.464 24.3052 13.1861 24.3062 12.9963C24.3199 9.4971 24.3159 5.99794 24.3169 2.4978C24.3169 2.22089 24.3169 1.94397 24.3169 1.66803C24.3277 1.24727 24.5038 0.923378 24.9441 0.864668C25.3845 0.805957 25.6536 1.03102 25.7534 1.46156C25.7755 1.51727 25.8031 1.57069 25.8356 1.62106H29.0412C30.0197 1.62106 30.9982 1.61225 31.9718 1.62106C32.7262 1.63084 33.0404 2.21893 32.6333 2.85692C32.2419 3.47436 31.825 4.07614 31.4102 4.69946C31.8016 5.29146 32.1832 5.87367 32.5775 6.45393C32.783 6.75433 32.9621 7.10366 32.7057 7.39036C32.4875 7.6128 32.1939 7.74545 31.8828 7.7622C30.0441 7.79449 28.2045 7.77883 26.3649 7.77883H25.7778V8.79257C25.7778 10.1625 25.7876 11.5324 25.772 12.8945C25.772 13.236 25.8238 13.4532 26.1829 13.6068C26.7485 13.8505 27.0499 14.3623 27.2994 14.9083C29.4091 19.519 31.522 24.1281 33.6382 28.7356C33.7116 28.8971 33.7909 29.0566 33.8799 29.2444C34.5443 28.8266 35.2332 28.6779 35.9837 28.9176C36.6286 29.1231 37.0376 29.5869 37.3967 30.1271C40.8763 35.3536 44.3559 40.5799 47.8354 45.8058C48.0615 46.1453 48.2914 46.3116 48.6975 46.2569C48.9252 46.2298 49.1555 46.2325 49.3825 46.2647C49.7935 46.3175 50.0391 46.5729 50.041 46.9839C50.041 47.3753 49.8062 47.617 49.4236 47.6933C49.2789 47.715 49.1324 47.7226 48.9862 47.7158C33.0325 47.7158 17.0792 47.7178 1.12618 47.7217C0.672152 47.7217 0.293472 47.6375 0.0410156 47.2324L0.0468865 46.749ZM14.5758 46.2187H46.352C46.2268 46.023 46.1348 45.8703 46.0369 45.7226L42.5456 40.4866C40.3981 37.266 38.2503 34.046 36.1021 30.8267C35.5933 30.0644 34.9465 30.0752 34.4621 30.8443C34.2371 31.2025 34.0277 31.5704 33.7977 31.9207C33.5042 32.3728 33.104 32.4921 32.7214 32.2592C32.3388 32.0264 32.2497 31.5948 32.5648 31.1545C32.8662 30.7357 32.828 30.3942 32.601 29.9637C32.2389 29.2787 31.9425 28.5507 31.6147 27.8432C31.5579 27.7189 31.4855 27.6015 31.4062 27.4518C31.2272 27.6152 31.0882 27.7454 30.9405 27.8745C29.9619 28.7033 28.7378 28.6573 27.818 27.7767C27.1517 27.1318 26.6203 27.2385 26.2524 28.0869C25.8277 29.0713 25.4373 30.0723 24.9608 31.0302C24.5889 31.7778 23.8844 32.0909 23.0664 32.1066C22.2288 32.1193 21.6211 31.6946 21.1475 31.0371C20.4244 30.0165 19.6964 29.0116 18.9253 27.9518C18.8275 28.1603 18.759 28.3031 18.6963 28.4499C18.1826 29.6437 17.6513 30.8306 17.1611 32.0332C16.5681 33.4883 15.5954 34.594 14.2608 35.413C12.1667 36.6948 10.0757 37.9826 8.01589 39.3192C7.45814 39.6822 6.88081 40.149 6.54812 40.7087C5.52264 42.4602 4.61164 44.2793 3.65857 46.0729C3.6432 46.125 3.63562 46.1791 3.63607 46.2334C3.72413 46.2412 3.80143 46.2529 3.87874 46.2529C6.56377 46.2529 9.24979 46.2588 11.9348 46.2432C12.1553 46.2282 12.365 46.1423 12.5327 45.9985C13.6795 45.0376 14.8117 44.0572 15.9477 43.0826C16.9477 42.2283 18.0329 41.5228 19.2737 41.0737C21.7014 40.193 24.129 39.3124 26.5665 38.4571C27.8513 38.008 28.8445 37.2379 29.5334 36.0627C29.9248 35.4042 30.325 34.7554 30.732 34.1057C31.0344 33.6252 31.4552 33.4873 31.8338 33.7221C32.2125 33.957 32.281 34.3709 31.9767 34.8748C31.5318 35.6126 31.0797 36.3465 30.6205 37.0765C29.7809 38.4072 28.592 39.2899 27.1155 39.8163C25.0312 40.5521 22.9783 41.3819 20.8667 42.0258C18.3509 42.788 16.5192 44.4985 14.5758 46.2148V46.2187ZM10.7978 35.7202L10.8624 35.7946C11.7577 35.2388 12.6472 34.6732 13.5494 34.1311C14.5631 33.5275 15.3505 32.6075 15.7902 31.5126C16.6356 29.4891 17.5133 27.4792 18.3842 25.4664C18.619 24.9233 18.9831 24.7335 19.4058 24.9057C19.8285 25.0779 19.9557 25.4928 19.7267 26.0183C19.6705 26.1225 19.6476 26.2415 19.6613 26.3591C19.6749 26.4767 19.7244 26.5873 19.803 26.6759C20.6514 27.8285 21.4822 28.9939 22.3256 30.1505C22.857 30.8795 23.5233 30.8101 23.8756 29.9891C24.2347 29.1534 24.5743 28.309 24.9373 27.4753C25.0458 27.2038 25.1902 26.948 25.3669 26.715C25.5603 26.4786 25.8006 26.2847 26.0726 26.1456C26.3446 26.0066 26.6425 25.9253 26.9474 25.9069C27.2523 25.8885 27.5578 25.9335 27.8445 26.0388C28.1313 26.1442 28.3931 26.3078 28.6136 26.5193C29.3191 27.1808 29.5921 27.1759 30.277 26.487C30.3298 26.4251 30.3877 26.3678 30.4502 26.3158C30.7438 26.1083 30.734 25.8842 30.5872 25.5662C29.1987 22.5749 27.8278 19.5748 26.4511 16.5776C26.2417 16.1197 26.0596 15.647 25.8023 15.2145C25.4569 14.6274 24.7259 14.6451 24.3766 15.2341C24.298 15.3761 24.229 15.5232 24.1701 15.6744C23.1584 18.034 22.1472 20.3935 21.1367 22.753C21.0835 22.8881 21.02 23.0189 20.9469 23.1444C20.7248 23.4996 20.3931 23.617 20.0222 23.4458C19.6514 23.2745 19.5075 22.9624 19.6426 22.5544C19.7071 22.3587 19.7776 22.163 19.8481 21.9673L18.2609 20.7206C15.7579 25.7482 13.2773 30.7337 10.7978 35.7202ZM25.8091 6.26703H30.6949C30.4336 5.87563 30.2105 5.53413 29.9854 5.19654C29.8769 5.0524 29.8185 4.87664 29.8194 4.69619C29.8203 4.51573 29.8803 4.34055 29.9903 4.19748C30.2222 3.85305 30.4463 3.50176 30.6998 3.11231H25.8072L25.8091 6.26703Z" fill="#A3CC01"/>
</g>
<defs>
<clipPath id="clip0_240_4595">
<rect width="50" height="46.8697" fill="white" transform="translate(0.046875 0.855469)"/>
</clipPath>
</defs>
</svg>
