<svg width="93" height="93" viewBox="0 0 93 93" fill="none" xmlns="http://www.w3.org/2000/svg">
<g clip-path="url(#clip0_240_2930)">
<path d="M17.949 37.4857C16.5359 37.4857 15.1905 37.5627 13.8638 37.45C13.2399 37.3907 12.6559 37.1165 12.212 36.6743C11.6821 36.0883 12.0561 35.3971 12.4732 34.7961C16.8178 28.5354 21.1586 22.2703 25.4956 16.0008C26.4145 14.686 27.5533 14.686 28.4834 16.0139C29.5038 17.4676 30.5091 18.9308 31.5464 20.4277C35.9699 14.0418 40.3426 7.72345 44.7191 1.407C46.0119 -0.459953 46.974 -0.471212 48.2425 1.37132C52.6171 7.68777 56.9936 14.0043 61.4433 20.4259C62.4374 18.9909 63.4014 17.5954 64.3691 16.2017C65.4703 14.6184 66.5377 14.6146 67.6313 16.2017C71.8819 22.3372 76.1325 28.4728 80.3831 34.6083C80.819 35.2375 81.2588 35.8554 80.8228 36.665C80.3868 37.4745 79.6653 37.5045 78.8835 37.4914C77.6377 37.4707 76.3899 37.4914 75.005 37.4914V38.5244C75.005 47.2431 75.005 55.9618 75.0276 64.6823C75.0411 65.2293 75.2121 65.7607 75.5199 66.2131C81.1197 74.1892 86.7333 82.1566 92.3607 90.1152C92.6599 90.5087 92.872 90.9614 92.9827 91.4432C93.1104 92.1945 92.4734 92.8744 91.6673 92.9852C91.4174 93.0079 91.1663 93.0135 90.9156 93.0021H2.10606C1.76374 93.0236 1.42008 93.0002 1.08383 92.9326C-0.00982757 92.632 -0.336791 91.4901 0.384795 90.4534C1.86555 88.3253 3.36885 86.2142 4.86463 84.0956C9.0814 78.1241 13.2944 72.1507 17.5037 66.1755C17.7733 65.8062 17.9317 65.3677 17.9603 64.9114C17.9866 55.9724 17.9929 47.0339 17.9791 38.0961C17.9791 37.9346 17.964 37.7805 17.949 37.4857ZM55.4978 64.4907V65.6177C55.4978 71.0557 55.4978 76.4938 55.4978 81.9319C55.4978 83.5302 55.0299 83.9979 53.4307 83.9979C48.8043 83.9979 44.1773 83.9979 39.5496 83.9979C37.9505 83.9979 37.4826 83.5321 37.4826 81.9319C37.4826 76.4625 37.4826 70.9925 37.4826 65.5218V64.487C36.5092 64.487 35.6673 64.487 34.8255 64.487C33.5308 64.4738 32.9858 63.9517 32.9839 62.6764C32.9839 53.8938 32.9839 45.1106 32.9839 36.3268C32.9839 34.9989 33.5195 34.4937 34.8875 34.4843C35.7406 34.4843 36.5919 34.4843 37.6179 34.4843L26.9782 19.1186C23.4079 24.2705 19.9258 29.3041 16.3405 34.4843C17.2951 34.4843 18.0317 34.4843 18.7833 34.4843C20.5629 34.4843 20.9782 34.9032 20.9782 36.6969C20.9782 46.2288 20.9951 55.7626 20.95 65.2946C20.9284 66.059 20.6884 66.8013 20.2585 67.4339C15.213 74.6575 10.1112 81.8455 5.03752 89.0447C4.84961 89.3133 4.67672 89.595 4.44371 89.9519H25.8658L33.0516 65.5613L35.9154 66.431C33.5946 74.3195 31.3059 82.114 29.0039 89.9424H63.9877C61.6745 82.0746 59.3838 74.2781 57.0744 66.4215L59.9156 65.5838C60.0265 65.9219 60.128 66.2112 60.2144 66.5061C62.4481 74.0765 64.6767 81.6488 66.9003 89.2231C67.0695 89.8072 67.2912 90.0101 67.9075 90.0082C74.5672 89.9857 81.2268 89.9951 87.8846 89.9913C88.1078 89.9752 88.3299 89.9463 88.5498 89.9049C88.2228 89.4335 87.9597 89.0485 87.691 88.6691C82.68 81.5731 77.6753 74.4748 72.6768 67.3738C72.3385 66.8911 72.0416 66.2469 72.0397 65.6834C72.0022 55.9017 71.994 46.1186 72.0153 36.3343C72.0153 35.0027 72.549 34.4956 73.9132 34.4862C74.7664 34.4862 75.6195 34.4862 76.6511 34.4862L66.0059 19.1205C62.4224 24.3025 58.9497 29.3192 55.3738 34.4862C56.4787 34.4862 57.3769 34.4731 58.2732 34.4862C59.4402 34.5069 59.987 35.0496 60.0021 36.2216C60.0171 37.3936 60.0021 38.5338 60.0021 39.6907C60.0021 47.3163 60.0021 54.9425 60.0021 62.5693C60.0021 63.9742 59.4872 64.4794 58.076 64.4888C57.2604 64.4945 56.4486 64.4907 55.4978 64.4907ZM55.5278 49.5345V61.4462H56.9973V60.584C56.9973 56.4895 56.9973 52.3957 56.9973 48.3024C56.9973 45.3649 55.1182 43.4941 52.1924 43.4884C48.4091 43.4884 44.6264 43.4884 40.8443 43.4884C37.8565 43.4884 35.9962 45.3535 35.9905 48.3474C35.9905 52.4094 35.9905 56.472 35.9905 60.5352C35.9905 60.8376 36.015 61.14 36.0262 61.418H37.5295V49.5514H40.5361V80.942H45.0179V63.067H48.0245V80.927H52.525V49.5345H55.5278ZM52.4949 25.4651C52.4949 24.0451 52.4949 22.7097 52.4949 21.3724C52.4949 20.0351 53.0154 19.4942 54.3515 19.4848C55.2121 19.4848 56.0728 19.4848 57.1326 19.4848L46.4911 4.11913C42.9208 9.28236 39.4331 14.3142 35.8534 19.4868C37.0015 19.4868 37.9336 19.4868 38.86 19.4868C39.7262 19.4868 40.3839 19.9169 40.4347 20.7714C40.5268 22.3153 40.461 23.8686 40.461 25.4181H37.4544V22.537H33.0008L38.0275 29.7944C39.8146 26.0549 42.5713 23.9926 46.5682 24.0151C50.5651 24.0377 53.2485 26.1751 54.9716 29.7794L59.9757 22.5482H55.4527V25.467L52.4949 25.4651ZM52.4949 32.9874C52.4953 31.8019 52.1442 30.643 51.4861 29.6568C50.828 28.6706 49.8923 27.9013 48.7972 27.4462C47.702 26.9911 46.4965 26.8705 45.3329 27.0996C44.1692 27.3288 43.0996 27.8974 42.2589 28.7337C41.4183 29.57 40.8444 30.6364 40.6097 31.7984C40.375 32.9604 40.49 34.1659 40.9402 35.2626C41.3904 36.3594 42.1556 37.2982 43.1392 37.9606C44.1228 38.623 45.2807 38.9793 46.4667 38.9845C47.2563 38.9862 48.0386 38.8325 48.7688 38.5321C49.4991 38.2316 50.1629 37.7904 50.7225 37.2335C51.2821 36.6766 51.7265 36.0149 52.0303 35.2864C52.3341 34.5578 52.4913 33.7767 52.493 32.9874H52.4949ZM41.2201 40.4871C40.4065 39.5479 39.668 38.6709 38.9013 37.82C38.7465 37.6462 38.5345 37.5336 38.3037 37.5026C37.5634 37.4632 36.8211 37.4876 36.0732 37.4876V41.9559C37.5656 40.884 39.3846 40.3646 41.2183 40.4871H41.2201ZM56.9409 41.614V37.4819C56.3565 37.4819 55.8323 37.4669 55.3061 37.4819C54.9453 37.4969 54.4417 37.4219 54.2482 37.6247C53.3894 38.5187 52.619 39.5029 51.9932 40.2298L56.9409 41.614Z" fill="#A3CC01"/>
</g>
<defs>
<clipPath id="clip0_240_2930">
<rect width="93" height="93" fill="white"/>
</clipPath>
</defs>
</svg>
