<svg width="87" height="87" viewBox="0 0 87 87" fill="none" xmlns="http://www.w3.org/2000/svg">
<g clip-path="url(#clip0_240_2936)">
<path d="M87.0013 64.5279C85.9493 65.5468 85.4539 65.54 84.3934 64.4713C75.2849 55.2906 66.1781 46.1088 57.073 36.9259C56.8769 36.6963 56.696 36.4539 56.5316 36.2003L51.8877 39.288C50.6638 40.0993 50.5259 40.0959 49.3207 39.2468C48.1852 38.444 47.0209 37.6807 45.9161 36.8282C45.3509 36.3873 44.9764 36.4628 44.4589 36.8865C43.4068 37.7441 42.2782 38.5178 41.2245 39.3755C40.4976 39.9639 39.8422 39.9998 39.0762 39.4492C37.9476 38.6395 36.7934 37.8608 35.6086 37.1352C35.2661 36.9387 34.8605 36.8863 34.4799 36.9894C32.2789 37.8042 30.0965 38.6722 27.9209 39.5624C27.5674 39.7355 27.2506 39.9761 26.9881 40.2709C18.9134 48.396 10.8439 56.5251 2.77948 64.6582C2.56696 64.8893 2.33948 65.1059 2.09855 65.3067C1.52828 65.7424 0.925672 65.7527 0.406467 65.2484C-0.112738 64.7441 -0.133147 64.142 0.297537 63.5519C0.439302 63.3741 0.594072 63.2072 0.760561 63.0527C10.8689 52.8622 20.9778 42.6724 31.0872 32.4831C31.2268 32.3425 31.3613 32.195 31.5094 32.0629C32.1358 31.4985 32.8985 31.4779 33.4024 32.008C33.9063 32.538 33.9131 33.2413 33.3241 33.8366C33.0142 34.1522 32.587 34.3511 32.2125 34.5999L32.5138 34.9601C33.1368 34.7217 33.7701 34.5072 34.3863 34.2379C34.677 34.0898 35.0032 34.0274 35.3275 34.0578C35.6518 34.0881 35.9611 34.21 36.2197 34.4095C37.3109 35.1745 38.4429 35.8812 39.5273 36.6583C39.9512 36.9619 40.232 36.9259 40.627 36.612C41.759 35.7097 42.9438 34.8743 44.0724 33.9703C44.8044 33.3837 45.4667 33.3614 46.2225 33.9171C47.5009 34.8589 48.8219 35.7423 50.1054 36.6789C50.4799 36.9534 50.754 36.9859 51.1524 36.7046C52.2384 35.9361 53.3653 35.2192 54.5297 34.4404C54.334 34.2157 54.1893 34.0201 54.019 33.8469C51.259 31.06 48.4973 28.2748 45.7339 25.4913C44.3091 24.059 43.0664 24.0658 41.6297 25.5033C40.2678 26.8756 38.906 28.2479 37.5441 29.6202C37.0487 30.1176 36.4767 30.2823 35.8588 29.8706C35.3175 29.5121 35.1779 28.9718 35.3804 28.3697C35.4762 28.1328 35.6227 27.9202 35.8094 27.747C37.2632 26.2666 38.7204 24.7897 40.198 23.3334C40.5384 22.9989 40.9266 22.6249 41.359 22.4929C42.2101 22.2338 42.2561 21.6729 42.2527 20.9267C42.2305 14.6793 42.239 8.43021 42.2408 2.18285C42.2408 1.8981 42.2408 1.61163 42.2493 1.32516C42.2884 0.568686 42.6629 0.0575565 43.4256 0.00438007C44.1882 -0.0487963 44.6359 0.385175 44.7653 1.14508C44.7942 1.31662 44.8248 1.4744 44.8657 1.70769H58.377C59.4903 1.70769 60.1423 2.08341 60.4368 2.87762C60.7313 3.67184 60.4946 4.38712 59.6622 5.12988C58.6902 5.99957 57.7113 6.86408 56.6542 7.80067C57.7011 8.73898 58.7242 9.62239 59.7065 10.5453C60.0469 10.8393 60.31 11.2135 60.4725 11.6345C60.813 12.7341 60.0452 13.7856 58.8911 13.8645C58.1574 13.9143 57.4203 13.8886 56.6781 13.8886H44.8691C44.8302 14.1157 44.8035 14.3447 44.7891 14.5747C44.7891 16.827 44.7976 19.081 44.7772 21.335C44.7772 21.8033 44.9474 21.9937 45.3577 22.2115C46.0999 22.5975 46.8625 23.0349 47.4464 23.6233C60.418 36.6601 73.3749 49.7094 86.317 62.7713C86.5519 63.0098 86.7749 63.2585 86.9979 63.5021L87.0013 64.5279ZM44.8436 4.31851V11.2297H56.6338C55.9001 10.5745 55.2873 10.029 54.6761 9.47835C53.3568 8.29475 53.3483 7.31009 54.654 6.13506C55.2872 5.56556 55.9256 5.00123 56.6968 4.31851H44.8436Z" fill="#A3CC01"/>
<path d="M30.8145 74.0651C32.2325 71.962 34.4591 71.0426 36.827 70.3204C38.6043 69.7784 39.1031 69.0116 39.1065 67.1144C39.1022 67.0573 39.1022 67 39.1065 66.9429C39.258 65.7421 39.0213 64.8484 37.8246 64.1468C36.5972 63.428 36.0644 62.078 36.0474 60.6303C36.0134 57.92 36.0015 55.2097 36.0474 52.4994C36.0725 51.1564 36.6145 49.8757 37.5592 48.928C38.5039 47.9802 39.7772 47.4396 41.1101 47.4203C42.7806 47.386 44.4511 47.386 46.1217 47.4203C47.4553 47.4323 48.7309 47.9712 49.6745 48.921C50.618 49.8707 51.154 51.1556 51.1673 52.4994C51.2133 55.0725 51.1673 57.6353 51.1895 60.2032C51.2116 62.1793 50.4183 63.6819 48.7279 64.6631C48.2462 64.9427 48.0913 65.2618 48.093 65.8158C48.1015 69.4181 48.1917 69.5553 51.6048 70.7218C51.8176 70.7938 52.0355 70.8625 52.2415 70.9551C52.9598 71.2776 53.2628 71.9431 53.0007 72.6293C52.9427 72.7837 52.8551 72.925 52.7427 73.0451C52.6304 73.1652 52.4956 73.2617 52.3461 73.3292C52.1966 73.3966 52.0354 73.4336 51.8716 73.4381C51.7079 73.4425 51.5449 73.4142 51.392 73.3549C50.2447 72.9586 49.1245 72.4887 47.9874 72.0598C47.7865 71.9843 47.5516 71.8883 47.3593 71.9243C46.6443 72.0753 45.9395 72.2794 45.1718 72.4784C46.0144 75.1886 46.8162 77.8852 47.6997 80.5543C48.0215 81.5235 47.8835 82.2302 47.126 82.9181C46.2442 83.7174 45.4476 84.6146 44.6032 85.4585C43.7589 86.3025 43.1001 86.2991 42.3034 85.4156C41.5067 84.5322 40.7832 83.6471 39.9712 82.8117C39.3669 82.189 39.2222 81.5543 39.4707 80.7172C40.1925 78.2883 40.8547 75.8422 41.5408 73.403C41.6242 73.1079 41.7008 72.8111 41.7825 72.5057C41.0573 72.3445 40.3985 72.1868 39.7397 72.0598C39.5476 72.0259 39.35 72.0424 39.166 72.1078C38.0799 72.5092 37.0058 72.9432 35.9197 73.3412C33.2607 74.3155 31.7814 76.3928 31.7559 79.2575C31.7372 81.3159 31.7559 83.3743 31.7559 85.4208C31.7559 86.0674 31.5857 86.6216 30.9456 86.8909C30.7632 86.9738 30.5633 87.01 30.3637 86.9962C30.1641 86.9825 29.9709 86.9193 29.8014 86.8121C29.6319 86.705 29.4914 86.5573 29.3922 86.3822C29.293 86.2071 29.2384 86.01 29.2331 85.8085C29.1803 84.2423 29.1854 82.6711 29.2143 81.1015C29.2416 79.5714 29.3284 78.043 29.3982 76.2985C28.5198 75.9743 27.3946 75.6741 26.3851 75.1475C25.4897 74.6792 24.7253 74.849 23.8316 75.1904C24.4734 77.2677 25.0692 79.3381 25.7637 81.376C26.0838 82.3143 25.9527 83.009 25.2224 83.6694C24.5296 84.2972 23.9065 85.0057 23.2392 85.6644C22.4102 86.4826 21.7701 86.4723 20.999 85.6301C20.318 84.8959 19.6848 84.1343 19.0073 83.4001C18.5272 82.8855 18.4455 82.3383 18.6396 81.6693C19.2575 79.5388 19.8397 77.398 20.4457 75.2229C19.5741 74.9245 18.7894 74.7083 17.9246 75.2349C17.4037 75.5488 16.7551 75.6466 16.1678 75.8525C14.0331 76.5969 12.8653 78.2008 12.8279 80.484C12.8006 82.1101 12.8279 83.7432 12.8177 85.3625C12.8177 86.4311 12.4006 86.9492 11.5852 86.9663C10.7442 86.9835 10.2761 86.4312 10.2778 85.3402C10.2778 83.4293 10.1961 81.508 10.3629 79.6091C10.6217 76.6758 12.2491 74.6758 14.9507 73.5711C15.526 73.3361 16.1236 73.1559 16.7092 72.9501C17.9774 72.5041 18.3485 71.9775 18.357 70.6052C18.3407 70.3768 18.3407 70.1475 18.357 69.919C18.4489 69.3084 18.2072 68.9464 17.6761 68.6154C17.1129 68.2747 16.6477 67.7919 16.3264 67.2146C16.0052 66.6373 15.839 65.9854 15.8444 65.3236C15.8018 63.0936 15.778 60.8636 15.8444 58.6474C15.9227 56.2373 17.802 54.4327 20.1887 54.376C21.5505 54.3452 22.9096 54.3452 24.2657 54.376C26.649 54.4327 28.4874 56.1618 28.5811 58.5598C28.6696 60.8396 28.6287 63.1245 28.593 65.4059C28.5709 66.8554 27.8338 67.9223 26.6711 68.7491C26.4089 68.9361 26.237 69.3426 26.1604 69.6788C26.0736 70.0579 26.1348 70.473 26.1433 70.8796C26.1672 71.986 26.5655 72.5298 27.6176 72.9072L30.8145 74.0651ZM48.6309 59.198C48.6077 58.8553 48.6077 58.5115 48.6309 58.1688C48.7279 57.4586 48.4607 57.1172 47.7542 56.9302C46.583 56.6215 45.3914 56.299 44.2985 55.7878C42.426 54.9147 40.7339 55.0193 39.1388 56.3161C38.88 56.5271 38.6145 56.896 38.5958 57.2082C38.5277 58.258 38.5753 59.3163 38.5685 60.3713C38.5486 60.7723 38.6384 61.1711 38.8281 61.5241C39.0179 61.8772 39.3002 62.1708 39.6444 62.3731C40.5806 62.9598 41.5169 63.5413 42.4668 64.1091C43.1784 64.5362 43.9257 64.5773 44.6441 64.1571C45.6655 63.5567 46.7396 62.9992 47.6572 62.2582C48.1253 61.8791 48.3806 61.1655 48.59 60.5531C48.7432 60.1483 48.6309 59.6543 48.6309 59.198ZM18.4064 63.8878C18.4064 64.4024 18.3468 64.917 18.4183 65.4316C18.5681 66.5003 21.6935 68.5415 22.657 68.0955C23.7482 67.5912 24.9075 66.9995 25.6871 66.1281C26.1604 65.598 25.9765 64.4676 26.0838 63.6064C26.094 63.5224 26.1178 63.4127 26.0838 63.3543C25.905 63.0867 25.7586 62.6921 25.5067 62.5995C24.0716 62.0849 22.6128 61.6235 21.1573 61.1638C20.9457 61.0914 20.7184 61.0789 20.5002 61.1278C18.8336 61.5961 18.3808 62.2033 18.4064 63.8878ZM38.6724 53.5956C38.8851 53.5357 39.0893 53.4486 39.2801 53.3365C40.7356 52.2164 42.2268 52.273 43.8763 52.9574C45.3761 53.5835 46.9677 53.9867 48.6428 54.5202C48.6428 53.834 48.653 53.2834 48.6428 52.7225C48.6071 51.0895 47.5363 50.0053 45.9191 49.9864C44.5079 49.9693 43.095 49.9864 41.6837 49.9864C39.4248 49.983 38.3319 51.2747 38.6724 53.5922V53.5956ZM25.9987 60.0231C26.2796 57.7176 25.6293 56.9542 23.5218 56.9525C22.4766 56.9525 21.4297 56.9354 20.3845 56.9525C19.0464 56.9834 18.3417 57.7914 18.4438 59.2134C18.6318 59.1647 18.8131 59.0927 18.9835 58.999C19.9708 58.2682 20.9735 58.2854 22.0919 58.7314C23.3448 59.234 24.6555 59.5857 25.9987 60.0197V60.0231ZM41.379 69.7886C42.8491 70.115 44.3769 70.0667 45.8238 69.648L45.4833 66.8656H41.7246C41.6276 67.7182 41.5067 68.7217 41.379 69.7852V69.7886ZM43.6244 76.1047L43.4303 76.1355C42.9894 77.7188 42.5383 79.2987 42.1178 80.8871C42.0984 80.9908 42.0998 81.0974 42.122 81.2005C42.1443 81.3037 42.1868 81.4012 42.2472 81.4875C42.6302 81.9712 43.0609 82.4155 43.5478 82.9558C44.0482 82.4292 44.5147 81.978 44.9249 81.4788C44.9929 81.3851 45.0406 81.278 45.0649 81.1646C45.0893 81.0511 45.0897 80.9338 45.0662 80.8202C44.6066 79.2386 44.1096 77.6708 43.6244 76.1012V76.1047ZM23.5524 70.7029H20.9581C20.8781 71.3016 20.7879 71.9037 20.7062 72.5898H23.7465C23.6733 71.8642 23.612 71.281 23.5524 70.7029ZM22.1906 78.5491C21.9182 79.4839 21.7599 80.2644 21.4603 80.9951C21.0671 81.954 21.4484 82.539 22.1787 83.0038C23.132 82.4532 23.3703 81.7379 22.8988 80.7344C22.6043 80.1186 22.4664 79.4376 22.1838 78.5404L22.1906 78.5491Z" fill="#A3CC01"/>
<path d="M66.541 75.0476C67.2219 77.2776 67.8297 79.3498 68.514 81.3945C68.8272 82.3294 68.6842 83.0275 67.9522 83.6845C67.2202 84.3415 66.5904 85.0568 65.9095 85.743C65.1621 86.4703 64.4931 86.4497 63.7884 85.6829C63.1347 84.9727 62.5304 84.2146 61.8545 83.5233C61.2877 82.9435 61.1958 82.3225 61.4171 81.5711C62.0282 79.4698 62.6087 77.3599 63.2045 75.2243C62.3312 74.9635 61.5532 74.7526 60.6731 75.2466C59.919 75.6703 59.0253 75.835 58.2201 76.1798C58.0999 76.2444 57.9965 76.3367 57.9181 76.449C57.8397 76.5613 57.7887 76.6906 57.769 76.8265C57.8405 79.0719 57.9681 81.3156 58.0601 83.5593C58.0927 84.272 58.0888 84.986 58.0482 85.6983C57.9954 86.5303 57.4898 87.0003 56.7544 86.9883C56.019 86.9763 55.539 86.4943 55.5288 85.6469C55.5032 83.6794 55.5713 81.7015 55.4947 79.7443C55.4343 78.7255 55.2631 77.7166 54.984 76.7355C54.7815 75.9722 54.8223 75.3255 55.4947 74.9361C56.6248 74.2526 57.8038 73.6545 59.0219 73.147C60.8604 72.4282 61.6009 71.1897 61.0732 69.3028C61.0153 69.0953 60.777 68.9066 60.5778 68.7745C59.2415 67.8876 58.581 66.656 58.5963 65.035C58.6168 63.0092 58.5963 60.9833 58.6048 58.9592C58.6253 56.3055 60.462 54.4375 63.0853 54.3963C64.3586 54.3757 65.6326 54.3757 66.907 54.3963C69.486 54.4392 71.333 56.3038 71.3688 58.8906C71.3892 60.973 71.3688 63.0555 71.3688 65.1379C71.3688 66.6904 70.7321 67.9048 69.4332 68.7196C68.9787 69.0044 68.8204 69.3252 68.863 69.8329C68.8987 70.2566 68.863 70.6906 68.8885 71.1143C68.9481 72.0045 69.4111 72.5981 70.2503 72.8897C70.9449 73.1315 71.6497 73.346 72.3357 73.6118C73.6686 74.1193 74.8199 75.0176 75.6413 76.1908C76.4627 77.3639 76.9164 78.7582 76.9439 80.1937C76.9813 81.9623 76.9643 83.7308 76.9439 85.4993C76.9439 86.4445 76.4536 86.9866 75.6722 86.99C74.8909 86.9935 74.4108 86.4548 74.404 85.5079C74.3921 83.8543 74.404 82.199 74.404 80.5453C74.3887 78.2845 73.2124 76.6378 71.0998 75.8762C70.2231 75.5605 69.3788 75.1179 68.48 74.9172C67.9114 74.7783 67.256 74.991 66.541 75.0476ZM61.2383 63.9457C60.7668 65.5925 61.5532 66.56 62.9406 67.2049C63.3413 67.4166 63.7295 67.6514 64.1033 67.9082C64.3643 68.0841 64.6712 68.1779 64.9851 68.1779C65.299 68.1779 65.6059 68.0841 65.8669 67.9082C66.5938 67.4691 67.3598 67.0745 68.0186 66.5479C68.4018 66.2327 68.6706 65.7984 68.7829 65.3129C68.8848 64.6068 68.8906 63.8901 68.8 63.1824C68.764 63.0489 68.6982 62.9253 68.6076 62.8213C68.517 62.7172 68.4041 62.6355 68.2774 62.5821C66.8372 62.0743 65.3863 61.6014 63.9246 61.1635C63.6044 61.092 63.2699 61.125 62.9696 61.2578C61.8086 61.7621 60.5761 62.2441 61.2383 63.9457ZM61.2247 59.3761C62.5593 58.1358 63.9075 58.328 65.3273 58.8906C66.4423 59.3297 67.6066 59.6436 68.834 60.0398C68.834 59.7173 68.834 59.5252 68.834 59.3245C68.834 57.6092 68.2042 56.9556 66.4848 56.9505C65.3817 56.9505 64.2718 56.9333 63.1772 56.9505C61.8103 56.9797 61.1311 57.7499 61.2247 59.3812V59.3761ZM66.2925 70.6975H63.7084C63.6267 71.3322 63.5483 71.9343 63.4649 72.5844H66.5002C66.4218 71.8708 66.3572 71.2875 66.2908 70.7026L66.2925 70.6975ZM65.0294 78.83H64.8591C64.6566 79.5281 64.505 80.2486 64.2344 80.921C63.8633 81.8439 64.105 82.4975 64.9698 83.0241C65.2983 82.5386 66.1461 82.3894 65.8754 81.5128C65.6047 80.6363 65.312 79.7254 65.0294 78.8334V78.83Z" fill="#A3CC01"/>
</g>
<defs>
<clipPath id="clip0_240_2936">
<rect width="87" height="87" fill="white"/>
</clipPath>
</defs>
</svg>
