<svg width="86" height="85" viewBox="0 0 86 85" fill="none" xmlns="http://www.w3.org/2000/svg">
<g clip-path="url(#clip0_240_2959)">
<path d="M0.0546875 72.3837C0.46726 70.1893 1.44712 68.3202 3.30037 67.0105C3.85848 66.6114 4.48396 66.3156 5.14697 66.1374C7.34292 65.583 9.55384 65.0917 11.7698 64.6252C12.3138 64.5123 12.6016 64.3398 12.6016 63.7455C12.6132 62.9753 12.743 62.205 12.7396 61.4348C12.7396 61.1443 12.5467 60.8257 12.3703 60.5684C9.46235 56.3539 8.16806 51.7227 8.87676 46.6251C9.43074 42.5948 11.8712 40.3756 16.0951 39.9257C17.05 39.8245 18.0099 39.7779 18.9682 39.7066C19.0513 39.1057 18.672 39.0027 18.2312 38.9081C16.2881 38.4854 14.3472 38.0522 12.4086 37.6085C11.3905 37.3761 11.0777 36.9893 11.0661 35.9353C11.0583 32.9806 11.0583 30.0265 11.0661 27.073C11.0661 25.989 11.3988 25.589 12.4668 25.3533C14.355 24.935 16.2399 24.5068 18.1347 24.1183C18.6487 24.0121 18.9432 23.803 19.1029 23.2784C19.2948 22.5599 19.5753 21.868 19.938 21.2184C20.4221 20.42 20.329 19.8141 19.8049 19.0605C18.7918 17.6148 17.8835 16.0959 16.9402 14.6037C16.328 13.6343 16.3646 13.201 17.1515 12.4142C19.2399 10.3216 21.3332 8.23292 23.4316 6.14806C24.2118 5.37288 24.6776 5.31813 25.6292 5.92234C27.2928 6.96642 28.9564 8.01383 30.5934 9.07618C30.7506 9.20029 30.9417 9.27423 31.1417 9.28845C31.3417 9.30266 31.5414 9.25647 31.7147 9.15585C32.5831 8.73589 33.5147 8.44871 34.3764 8.02211C34.7139 7.84787 34.9713 7.55066 35.0951 7.19216C35.5725 5.29321 35.9785 3.37435 36.4093 1.46877C36.6555 0.378207 36.9999 0.0811019 38.1195 0.0777821C41.0796 0.0678226 44.0397 0.0678226 46.9998 0.0777821C48.1161 0.0777821 48.4621 0.38153 48.7083 1.47209C49.1442 3.40922 49.5634 5.34966 50.0309 7.2818C50.121 7.57328 50.3224 7.81774 50.5915 7.96238C51.5631 8.42052 52.5579 8.83877 53.5677 9.20894C53.7132 9.24943 53.8653 9.26077 54.0152 9.24225C54.1651 9.22373 54.3099 9.17574 54.4411 9.10106C56.138 8.06361 57.8082 6.98302 59.4918 5.92234C60.4317 5.32975 60.9108 5.37288 61.6927 6.14806C63.7922 8.23181 65.885 10.3211 67.9712 12.4159C68.7514 13.1978 68.7896 13.6393 68.1758 14.6103C67.1277 16.2702 66.083 17.9301 65.0066 19.5618C64.7488 19.9569 64.7421 20.2623 64.9451 20.6872C65.3572 21.5283 65.7161 22.3942 66.0198 23.28C66.1944 23.8013 66.4839 24.0104 66.9946 24.11C68.8612 24.4968 70.7194 24.9217 72.581 25.3317C73.7455 25.5873 74.0549 25.9624 74.0566 27.1576C74.0633 30.0569 74.0633 32.9557 74.0566 35.8539C74.0566 36.9976 73.7522 37.3644 72.6226 37.6201C70.7111 38.055 68.7963 38.4865 66.8815 38.9015C66.4357 38.9978 66.0663 39.1123 66.1478 39.6435C67.532 39.7863 68.9111 39.8526 70.2636 40.08C73.7572 40.6676 75.7851 42.5782 76.4189 46.0923C77.3772 51.3891 76.0862 56.2376 72.9769 60.5667C72.3115 61.5029 72.5145 62.3462 72.4662 63.2691C72.4196 64.1638 72.7723 64.5489 73.6889 64.7182C75.6969 65.0867 77.6816 65.5946 79.6779 66.0594C82.4112 66.6968 84.8234 69.4406 84.9499 72.2675C85.073 75.0229 85.0796 77.7884 85.0247 80.5455C84.9815 82.6735 83.3495 84.0529 81.097 84.0429C78.7446 84.0313 76.394 83.9865 74.0416 83.9898C66.9602 83.9998 59.8783 84.0181 52.7958 84.0446C50.332 84.0546 48.8464 82.6486 48.7832 80.2002C48.7599 79.2939 48.7832 78.3859 48.7832 77.4248H36.3561C36.3561 78.1784 36.3195 78.9387 36.3561 79.6956C36.5225 82.6635 34.5395 84.096 31.9176 84.0695C22.6514 83.9716 13.3834 84.033 4.11553 84.0446C1.98114 84.0446 0.974659 83.3142 0.0563515 80.992L0.0546875 72.3837ZM24.676 64.5455C24.7725 64.3015 24.8573 64.0476 24.9704 63.7953C25.927 61.7453 27.2429 60.0621 29.5719 59.4878C31.3137 59.0578 33.0655 58.6695 34.8239 58.296C36.9434 57.8445 36.965 57.8594 37.0482 55.6584C37.0681 55.1355 37.0831 54.4815 36.8069 54.1014C34.6875 51.1882 33.5779 47.9165 33.0921 44.3892C33.0281 44.0317 32.8474 43.7055 32.5781 43.4613C29.3889 40.6942 27.5374 37.2466 27.0566 33.0437C25.8405 22.392 36.2064 13.543 46.5739 16.4827C52.4897 18.1609 56.3326 22.0517 57.7067 28.0423C59.0592 33.9317 57.3008 38.9828 52.9056 43.1343C52.6039 43.4297 52.4045 43.8135 52.3366 44.2298C51.9174 47.4169 51.1023 50.4927 49.2157 53.1187C48.2941 54.4018 47.8566 55.5969 48.161 57.1323C48.2608 57.6303 48.3556 57.8777 48.9013 57.9922C51.0108 58.4321 53.0952 58.9881 55.2097 59.3981C56.6374 59.666 57.9122 60.4593 58.7814 61.6208C59.4668 62.5005 59.9759 63.5164 60.6214 64.5655C61.0007 64.6103 61.2868 64.4343 61.3068 63.8417C61.3251 63.1246 61.4448 62.4093 61.4382 61.6955C61.4353 61.3244 61.3269 60.9617 61.1254 60.6497C58.2424 56.5265 56.9282 51.9783 57.5221 46.9687C57.8415 44.2796 58.9062 41.8628 61.5913 40.7806C62.8523 40.2726 63.4096 39.5307 63.6841 38.3554C63.7356 38.143 63.8255 37.9388 63.8903 37.7279C63.9652 37.4327 64.1257 37.166 64.3518 36.9614C64.5779 36.7567 64.8595 36.6232 65.1613 36.5776C67.0262 36.1842 68.8795 35.7294 70.746 35.3477C71.2584 35.2431 71.4215 35.0456 71.4115 34.5343C71.3865 32.5192 71.3815 30.5023 71.4115 28.4872C71.4198 27.9262 71.2168 27.7369 70.6861 27.6307C68.9261 27.2771 67.1809 26.8456 65.4225 26.4887C64.5757 26.3227 64.0916 25.8911 63.7955 25.0578C63.3053 23.684 62.745 22.336 62.1169 21.0192C61.7709 20.2889 61.7609 19.6913 62.2084 19.0124C63.2149 17.4936 64.1565 15.9316 65.168 14.4177C65.4857 13.943 65.509 13.6525 65.0615 13.2409C64.1066 12.3628 63.2049 11.4233 62.2933 10.4987C61.6395 9.83473 61.004 9.15914 60.3735 8.50679C58.5435 9.66874 56.8517 10.7079 55.1964 11.8084C54.4428 12.3064 53.784 12.3362 52.9638 11.9329C51.7044 11.3058 50.4032 10.7661 49.0693 10.3178C48.191 10.0273 47.7385 9.54428 47.5721 8.66784C47.2144 6.91165 46.7819 5.17204 46.4259 3.41585C46.3261 2.91787 46.1564 2.71704 45.6257 2.72368C43.5778 2.75024 41.5299 2.7436 39.4837 2.72368C39.0229 2.72368 38.8049 2.84484 38.7051 3.3395C38.3391 5.14881 37.8949 6.94319 37.5206 8.75084C37.3543 9.5725 36.9117 10.0157 36.1132 10.2962C34.7605 10.773 33.4339 11.3204 32.1389 11.9362C31.357 12.3064 30.7198 12.3313 29.9762 11.8399C28.281 10.7112 26.5409 9.6505 24.7758 8.53338C23.1122 10.1933 21.4835 11.8051 19.8948 13.4534C19.7517 13.6011 19.76 14.0642 19.8848 14.2684C20.8464 15.8469 21.8262 17.4222 22.861 18.9493C23.3601 19.688 23.3268 20.3254 22.9508 21.1072C22.3343 22.3687 21.7938 23.6657 21.3321 24.9914C21.0377 25.8546 20.5652 26.3194 19.6768 26.4953C17.9168 26.8456 16.1733 27.2838 14.4116 27.634C13.8692 27.7419 13.6896 27.9527 13.6979 28.5021C13.7278 30.494 13.7378 32.4859 13.6979 34.4645C13.6846 35.0754 13.9141 35.2646 14.4615 35.3775C16.2748 35.751 18.0715 36.1975 19.8848 36.5644C20.6334 36.7154 21.0493 37.1238 21.2656 37.816C21.4525 38.4503 21.6747 39.0737 21.931 39.6834C21.9886 39.8116 22.071 39.9271 22.1735 40.0234C22.276 40.1197 22.3966 40.1948 22.5283 40.2444C25.3897 40.9831 27.0017 42.9335 27.6155 45.684C28.7534 50.7799 27.5906 55.5156 24.8024 59.8115C23.9606 61.1095 23.5281 62.2781 23.8142 63.7471C23.8176 63.7747 23.8176 63.8026 23.8142 63.8301C23.7843 64.4144 24.0987 64.6086 24.6776 64.5422L24.676 64.5455ZM39.6334 56.7439C39.6068 57.1158 39.5901 57.4162 39.5619 57.7166C39.5336 58.0171 39.5086 58.3209 39.4637 58.6213C39.2774 59.8878 39.1143 60.0572 37.8484 60.3427C35.3979 60.8938 32.9457 61.4349 30.4986 62.0026C28.6919 62.4225 27.1714 64.2733 27.1348 66.1258C27.0948 68.6074 27.0998 71.0906 27.1032 73.5739C27.1032 74.5001 27.4359 74.7938 28.3725 74.7938C37.8262 74.7938 47.281 74.7895 56.7369 74.7806C57.735 74.7806 58.0162 74.5117 58.0162 73.4991C58.0162 71.0707 58.0162 68.6439 57.9862 66.2171C57.9613 64.2401 56.4075 62.3876 54.4677 61.9561C51.9906 61.4033 49.5152 60.8389 47.0314 60.2962C46.2279 60.1302 45.7538 59.7135 45.6856 58.8653C45.634 58.2146 45.5408 57.5673 45.466 56.9099C42.3184 57.8627 41.9175 57.5191 39.6351 56.7406L39.6334 56.7439ZM52.2318 39.9921C56.7668 34.9792 56.7053 26.6878 51.0008 21.7214C45.5492 16.9757 37.0365 17.7376 32.4966 23.3963C27.6721 29.4234 29.6551 37.0075 33.1487 40.1697C33.2435 39.7763 33.315 39.4061 33.4215 39.041C34.2267 36.0764 35.9701 34.0994 39.1227 33.52C41.1372 33.1525 43.1952 33.0843 45.2297 33.3176C48.7516 33.706 51.0523 35.5004 51.9773 38.9613C52.0655 39.2717 52.1353 39.5921 52.2318 39.9921ZM33.6461 77.3933C33.35 77.3933 33.0805 77.3933 32.8143 77.3933C31.3171 77.4099 29.8198 77.4298 28.3359 77.4414C26.4361 77.4547 24.9921 76.4239 24.5645 74.7125C24.4744 74.2815 24.4359 73.8413 24.4497 73.4012C24.4381 71.3662 24.4497 69.331 24.4497 67.286C23.8375 67.1532 23.3002 67.0321 22.7595 66.9209C21.7397 66.7084 21.4286 66.3599 21.3138 65.3091C21.2506 64.7082 21.1857 64.109 21.1125 63.43C19.1628 64.3845 17.253 64.2883 15.3182 63.2857C15.2483 64.041 15.2101 64.6734 15.1286 65.2992C14.9855 66.413 14.7226 66.6852 13.603 66.9375C11.2341 67.4731 8.86456 68.0087 6.49448 68.5443C4.28023 69.0422 2.83456 70.7221 2.78465 72.9779C2.72809 75.3018 2.73807 77.6141 2.73475 79.9313C2.73475 81.1596 3.01756 81.4036 4.27358 81.3986C10.0529 81.3754 15.8323 81.3566 21.6116 81.3422C25.18 81.3422 28.7468 81.3788 32.3136 81.4003C32.9274 81.4003 33.5762 81.3572 33.6328 80.5986C33.7043 79.5645 33.6461 78.5204 33.6461 77.3933ZM51.43 77.4298C51.43 78.3428 51.42 79.1661 51.43 79.9894C51.4499 81.1679 51.7011 81.402 52.8557 81.397C58.8003 81.3771 64.7454 81.3599 70.6911 81.3455C74.1198 81.3455 77.5485 81.3788 80.9772 81.397C81.9753 81.397 82.3763 81.1314 82.3779 80.2998C82.3779 77.7353 82.4029 75.1673 82.3097 72.6044C82.2399 70.7021 80.7077 69.0124 78.8311 68.5791C76.4112 68.0258 73.9878 67.4798 71.5612 66.9408C70.3834 66.6786 70.1089 66.3913 69.9741 65.1763C69.9126 64.6186 69.8643 64.0575 69.8078 63.4234C67.7915 64.3978 65.9033 64.2634 64.0201 63.289C63.9436 64.0675 63.8704 64.753 63.8055 65.4386C63.7306 66.2552 63.3064 66.7515 62.4879 66.9092C61.8973 67.0221 61.3118 67.1599 60.6796 67.2977C60.6796 69.3759 60.6879 71.4143 60.6796 73.451C60.6646 76.0471 59.1824 77.4713 56.5738 77.4348C54.8936 77.4115 53.2067 77.4298 51.43 77.4298ZM74.1231 48.9872C74.0649 48.4079 74.03 47.6593 73.9102 46.9289C73.481 44.3178 72.3581 43.1775 69.7745 42.6762C67.9046 42.3143 66.048 42.4023 64.1682 42.6961C61.9822 43.0281 60.7428 44.3145 60.3419 46.3761C59.4336 50.994 60.5631 55.2168 63.2382 58.9915C65.5889 62.3113 68.4952 62.2748 70.9107 58.9915C73.0551 56.0767 73.9435 52.7303 74.1231 48.9872ZM25.4312 48.607C25.3015 47.9613 25.1468 46.67 24.7658 45.4449C24.3216 44.0041 23.2686 43.121 21.748 42.7973C19.6873 42.3699 17.5645 42.3316 15.4896 42.6844C13.3136 43.0347 12.0459 44.2763 11.6433 46.3479C10.7267 51.0969 11.8762 55.4127 14.7226 59.2305C16.9918 62.2731 19.7833 62.1917 22.0891 59.1491C24.2967 56.2426 25.225 52.8714 25.4312 48.607ZM49.8745 42.4836C49.6466 41.3001 49.5168 40.0867 49.1675 38.9397C48.71 37.4374 47.6569 36.4946 46.0599 36.1676C44.0558 35.7294 41.9843 35.6933 39.9661 36.0614C37.4707 36.5444 36.3727 37.5835 35.9086 40.0933C35.2681 43.5592 35.9901 46.8409 37.4374 49.9881C38.1711 51.5816 39.101 53.049 40.5767 54.0831C42.0157 55.0924 43.4946 55.1371 44.8671 54.0399C45.6886 53.39 46.4026 52.6153 46.9832 51.7443C48.8081 48.9573 49.6549 45.8466 49.8745 42.4886V42.4836Z" fill="#A3CC01"/>
</g>
<defs>
<clipPath id="clip0_240_2959">
<rect width="85" height="84" fill="white" transform="translate(0.0546875 0.0761719)"/>
</clipPath>
</defs>
</svg>
