<svg width="87" height="69" viewBox="0 0 87 69" fill="none" xmlns="http://www.w3.org/2000/svg">
<g clip-path="url(#clip0_240_2951)">
<path d="M87.0029 68.1468C86.5518 68.6906 86.0921 69.2185 85.2902 68.8901C84.4883 68.5617 84.4475 67.882 84.4509 67.144C84.4509 64.2362 84.4253 61.3284 84.4645 58.4223C84.4866 56.8228 83.8397 55.7458 82.4521 55.0785C81.3744 54.5612 80.3087 54.0191 79.2701 53.4171C78.7798 53.1346 78.5108 53.2723 78.1056 53.6095C77.1675 54.3917 76.2328 55.3079 75.1518 55.7476C73.1087 56.572 71.2155 55.9471 69.6067 54.4058C68.1783 53.0375 68.1715 53.0428 66.4298 54.1568C66.4754 54.3023 66.542 54.4398 66.6273 54.5647C67.5466 55.8376 67.9229 57.2995 67.9382 58.8549C67.9672 61.6797 67.9689 64.494 67.9263 67.3135C67.9263 67.7673 67.739 68.3428 67.436 68.6341C67.1738 68.8866 66.5847 68.9466 66.2051 68.8548C65.57 68.703 65.3981 68.1097 65.3981 67.4689C65.3981 64.8559 65.3283 62.2394 65.4185 59.6282C65.5104 56.9587 64.4344 55.2462 62.0322 54.2716C59.8802 53.3977 57.7913 52.356 55.6308 51.3709C52.9714 56.3143 48.9399 59.0756 43.5089 59.0756C38.0779 59.0756 34.048 56.3214 31.3666 51.3514C28.7839 52.5555 26.2029 53.6731 23.7053 54.9566C22.2054 55.7264 21.618 57.2041 21.6129 58.9132C21.6129 61.6162 21.6129 64.3174 21.6129 67.0187C21.6242 67.3135 21.6123 67.6087 21.5771 67.9014C21.4699 68.5723 21.0153 69.0349 20.4194 68.9501C19.9768 68.8866 19.5239 68.4611 19.2055 68.0797C19.0234 67.8608 19.071 67.4088 19.0693 67.061C19.0608 64.4763 19.0881 61.8916 19.0574 59.3069C19.0302 56.8793 19.7572 54.8154 21.5925 53.2335C21.6595 53.154 21.7167 53.0663 21.7627 52.9722C21.0681 52.7321 20.4143 52.4708 19.7401 52.2907C19.6243 52.2793 19.5076 52.2935 19.3975 52.3325C19.2874 52.3715 19.1866 52.4343 19.1017 52.5167C18.2232 53.3994 17.3481 54.2716 16.5258 55.202C16.3057 55.4878 16.1857 55.8426 16.1853 56.2084C16.1615 59.8206 16.1717 63.4329 16.1683 67.0452C16.1831 67.3399 16.1711 67.6355 16.1325 67.9279C16.0082 68.59 15.5486 69.0525 14.9544 68.9554C14.5117 68.883 14.064 68.4522 13.7507 68.0726C13.5719 67.8502 13.6264 67.3982 13.6247 67.0504C13.6247 63.4682 13.6383 59.8842 13.5992 56.3019C13.5686 55.8272 13.3892 55.3759 13.0884 55.0166C12.3726 54.1831 11.6115 53.3927 10.8088 52.6491C10.6928 52.5454 10.557 52.4682 10.4104 52.4226C10.2637 52.377 10.1094 52.3639 9.95751 52.3843C8.26351 52.8468 6.58313 53.3606 4.90275 53.8797C3.30409 54.374 2.56861 55.3786 2.5635 57.1053C2.55158 60.4244 2.5635 63.7418 2.5635 67.061C2.5635 67.3823 2.64012 67.799 2.48008 68.0038C2.17022 68.401 1.75651 68.8636 1.31556 68.9625C0.72649 69.0949 0.242979 68.6571 0.082943 68.0056C0.0268194 67.7187 0.00565698 67.4257 0.0199509 67.1334C0.0199509 63.8142 0.0199509 60.4956 0.0199509 57.1776C0.0199509 54.1763 1.44665 52.1918 4.22855 51.3302C5.69271 50.8783 7.15688 50.4281 8.63466 50.0326C9.28672 49.856 9.54039 49.5524 9.57274 48.825C9.6136 47.8716 9.33779 47.2466 8.63125 46.581C6.48949 44.5665 5.46458 41.9642 5.4782 38.9699C5.5035 37.7187 5.25555 36.4777 4.75293 35.34C2.6299 30.5342 6.1592 24.3937 11.2565 24.136C15.1553 23.9365 19.0676 24.0283 22.9732 23.9912C23.3375 23.9912 23.7036 23.9912 24.1888 23.9912C24.2909 22.7271 24.3999 21.5195 24.485 20.2977C24.7149 17.028 25.2699 13.8341 26.6745 10.8628C30.1459 3.51469 35.96 0.0224995 43.7268 0.0136719C49.1936 0.0136719 53.9163 2.014 57.5648 6.36954C60.4693 9.82819 61.9164 13.9524 62.3659 18.4598C62.7728 22.5205 63.0844 26.5812 63.447 30.7655C63.5934 30.5801 63.6888 30.4653 63.7773 30.3471C64.712 29.1112 65.65 27.8753 66.5728 26.6271C66.743 26.4029 66.9303 26.0657 66.8844 25.8308C66.1897 22.3316 68.6822 19.0707 72.2524 18.4951C75.3458 17.9972 78.0409 19.2861 79.4557 21.8178C80.1134 22.9318 80.3448 24.2609 80.1044 25.5431C80.0414 25.7629 80.0463 25.9977 80.1183 26.2146C80.1903 26.4314 80.3259 26.6195 80.5061 26.7524C82.3266 28.3489 83.5792 30.5316 84.0639 32.9524C84.5487 35.3731 84.2378 37.8925 83.1808 40.1086C82.9794 40.5607 82.8264 41.0344 82.7245 41.521C82.2376 43.6767 81.2484 45.5341 79.5732 46.9112C78.9756 47.402 78.8922 47.9175 78.8258 48.6166C78.693 49.8737 79.0641 50.6223 80.2593 51.0478C81.1872 51.3779 82.018 51.9923 82.9288 52.386C85.0127 53.29 86.4922 54.7271 87.0148 57.0752L87.0029 68.1468ZM51.6009 43.5955C51.6009 44.1252 51.6009 44.6548 51.6009 45.1845C51.6145 46.5792 53.6439 48.3218 54.9072 47.8328C57.3128 46.9182 59.6538 45.82 62.0237 44.8013C62.4732 44.6089 62.5038 44.3035 62.4459 43.8233C61.8228 38.6115 61.2048 33.4067 60.6481 28.1825C60.2616 24.5667 60.1509 20.9104 59.6044 17.3246C58.3105 8.8501 53.0225 3.52883 45.1535 2.71846C38.2498 2.01225 31.8978 5.22724 28.8452 12.1922C27.4695 15.3313 27.1903 18.677 26.8549 22.0385C26.1263 29.3319 25.3227 36.6182 24.5753 43.9098C24.5463 44.1887 24.7625 44.6636 24.989 44.7731C26.8515 45.6788 28.7685 46.4698 30.6209 47.3967C31.9693 48.0711 33.1542 47.8098 34.38 47.1106C35.0491 46.7311 35.4117 46.242 35.4015 45.4458C35.3879 44.2099 35.439 42.9741 35.3743 41.7382C35.3359 41.3264 35.1441 40.9463 34.8397 40.6789C30.6651 37.4391 28.6715 33.0871 28.583 27.7305C28.5506 25.8079 29.2248 24.3319 30.8371 23.3168C32.3097 22.4118 33.4483 21.0222 34.0719 19.3691C34.4124 18.4687 35.1019 18.1526 35.8118 18.458C36.5218 18.7635 36.7278 19.4538 36.3958 20.4001C35.6824 22.4305 34.4464 24.083 32.6792 25.167C31.3427 25.988 30.9205 27.042 31.1589 28.5215C31.1963 28.751 31.198 28.9894 31.2151 29.2277C31.5981 34.3707 35.1087 38.8639 39.9183 40.3681C44.7279 41.8724 50.0533 40.1421 53.1349 36.115C55.6035 32.8876 56.15 29.1624 55.738 25.2306C55.6631 24.5138 55.1047 23.7122 54.5463 23.2143C52.1815 21.0953 49.3989 19.5377 46.3929 18.6505C43.6315 17.8331 40.7747 17.3493 37.9655 16.7084C37.1143 16.516 36.6954 15.9475 36.8265 15.1601C36.944 14.4415 37.5416 14.0213 38.3588 14.1167C39.0057 14.1908 39.6493 14.2932 40.2928 14.392C45.6796 15.2307 50.7275 16.9838 55.1864 20.3277C56.5348 21.3376 57.8457 22.4217 58.1692 24.2225C58.3487 25.3786 58.4245 26.5494 58.3956 27.7199C58.3854 32.5257 56.7715 36.6694 53.1809 39.7414C51.8904 40.8695 51.2485 41.9218 51.6009 43.5955ZM23.2592 26.7419C19.0693 26.7419 15.1008 26.5388 11.1629 26.8054C7.91449 27.0243 5.71485 31.0762 7.04281 34.1412C7.75616 35.7813 8.01324 37.3791 8.02856 39.1358C8.04899 41.7205 9.07561 43.9027 11.1765 45.3469C15.6201 48.4154 21.5193 45.3328 21.7236 39.7961C21.8019 37.6951 22.2496 35.7654 22.791 33.7492C23.3818 31.5494 23.1383 29.1094 23.2592 26.7419ZM81.3472 37.6563C81.8405 36.0259 81.8327 34.2767 81.3251 32.6511C80.983 31.5212 80.4188 30.477 79.668 29.5847C78.9171 28.6923 77.996 27.9711 76.9628 27.4666C75.9296 26.9621 74.8068 26.6852 73.6652 26.6535C72.5236 26.6217 71.388 26.8357 70.3302 27.2821C65.9446 29.0847 63.9697 34.6143 66.108 39.0458C66.3991 39.647 66.6153 40.2842 66.7516 40.9419C67.4121 44.1711 70.0578 46.4468 73.3692 46.5828C76.4048 46.7081 79.328 44.4324 80.0652 41.3021C80.0998 41.1022 80.0945 40.8971 80.0497 40.6994C80.0049 40.5018 79.9215 40.3157 79.8047 40.1528C77.6579 37.5804 74.6972 36.4911 71.694 35.4194C71.5084 35.7619 71.3722 36.0497 71.2036 36.3145C71.0297 36.5818 70.8421 36.8394 70.6418 37.086C69.9608 37.9441 69.2389 38.133 68.6124 37.6263C67.9859 37.1196 68.0131 36.3675 68.6328 35.46C68.9816 34.9677 69.2554 34.4229 69.4449 33.8446C69.8059 32.6564 70.3115 32.2273 71.4284 32.6193C73.3522 33.2919 75.2931 33.9664 77.1165 34.8756C78.5976 35.6153 79.9188 36.7011 81.3472 37.6563ZM33.8029 50.2639C35.4492 53.9715 39.6391 56.5986 43.6161 56.482C47.7771 56.3602 51.938 53.666 53.1587 50.3027C53.1229 50.2601 53.0817 50.2226 53.0361 50.1915C52.6956 50.029 52.3739 49.8578 52.0317 49.7219C49.9171 48.8797 48.9399 47.2872 49.0455 44.955C49.0812 44.1799 49.0455 43.4013 49.0455 42.4921C45.288 43.931 41.6668 43.9045 38.1494 42.5803C37.94 44.2488 37.9178 45.8783 37.4973 47.3896C37.0138 49.1445 35.2721 49.5612 33.8029 50.2639ZM58.2663 49.6742C59.3303 50.1615 60.4012 50.5075 61.3223 51.106C63.195 52.3242 64.8771 52.2413 66.7703 51.016C67.7595 50.3733 68.3621 49.8472 68.1238 48.6202C68.037 48.1823 68.0846 47.6244 67.8378 47.3296C66.9661 46.2703 65.9922 45.3151 65.0967 44.3617C65.1103 45.7159 64.2744 46.6022 63.0537 47.2184C61.4789 48.0111 59.9228 48.8285 58.2663 49.6742ZM22.1492 45.79C21.6282 46.2685 21.063 46.7522 20.5335 47.2766C19.8525 47.9528 20.1726 49.6459 21.0443 49.9355C22.362 50.3698 23.6951 50.7476 25.0247 51.1431C25.1547 51.1967 25.2976 51.2066 25.4333 51.1713C26.5349 50.6841 27.6313 50.1773 28.8571 49.6177C26.3884 48.5266 24.0066 47.658 22.1543 45.79H22.1492ZM70.7593 49.0421C70.6486 49.7483 70.2604 50.647 70.475 51.3373C70.6895 52.0276 71.4454 52.5908 72.0821 53.0269C73.0355 53.6801 74.0349 53.5036 75.0479 52.951C76.8202 51.9835 76.3588 50.4033 76.2277 49.0439L70.7593 49.0421ZM69.3717 24.8139C71.995 23.7309 74.9179 23.7271 77.5438 24.8033C77.726 22.7359 75.9179 21.041 73.5293 20.9792C71.1883 20.9227 69.2747 22.6353 69.3768 24.8192L69.3717 24.8139ZM12.0601 49.0333C12.0839 49.3405 11.9545 49.9373 12.1844 50.2197C13.0067 51.2349 13.9499 52.1442 14.9305 53.1805C15.7137 52.3295 16.3521 51.5421 17.0876 50.8694C17.721 50.2904 17.9082 49.6813 17.6563 49.0333H12.0601Z" fill="#A3CC01"/>
<path d="M7.99372 63.5128C7.99372 64.8299 8.00734 66.1469 7.99372 67.464C7.9801 68.4139 7.46083 69.0125 6.71002 68.9983C5.99156 68.986 5.46379 68.4086 5.45868 67.5135C5.43825 64.7911 5.43825 62.0686 5.45868 59.3462C5.46719 58.4529 6.00689 57.9073 6.74749 57.9161C7.48808 57.9249 7.9784 58.4811 7.99202 59.385C8.00904 60.7604 7.99372 62.1357 7.99372 63.5128Z" fill="#A3CC01"/>
<path d="M79.0092 64.3606C79.0092 63.3012 78.9973 62.2419 79.0092 61.195C79.0245 60.2292 79.5114 59.6625 80.281 59.666C81.0505 59.6696 81.5408 60.2363 81.5476 61.2073C81.5647 63.2883 81.5647 65.3686 81.5476 67.4484C81.5476 68.4071 81.0182 69.0039 80.2691 68.9986C79.52 68.9933 79.0228 68.3965 79.0092 67.4361C78.9973 66.4103 79.0092 65.3881 79.0092 64.3606Z" fill="#A3CC01"/>
<path d="M31.1396 64.8582C31.1396 65.7409 31.1566 66.6237 31.1396 67.5064C31.1175 68.4157 30.6288 68.9842 29.9087 69.0001C29.2277 69.0142 28.6454 68.4704 28.625 67.6406C28.5807 65.7927 28.5807 63.9436 28.625 62.0934C28.6454 61.2283 29.1919 60.7357 29.9053 60.7463C30.6527 60.7586 31.1175 61.2918 31.1413 62.2223C31.1583 63.0927 31.1396 63.9754 31.1396 64.8582Z" fill="#A3CC01"/>
<path d="M55.8645 64.8886C55.8645 63.9776 55.8441 63.0666 55.8645 62.1573C55.8901 61.2852 56.3532 60.7679 57.0665 60.7449C57.7799 60.722 58.3519 61.204 58.374 62.0602C58.4217 63.9376 58.4217 65.8155 58.374 67.694C58.3519 68.5114 57.7135 69.0765 57.0461 68.9864C56.3021 68.884 55.8799 68.4215 55.8714 67.6217C55.8611 66.7124 55.8714 65.8014 55.8714 64.8922L55.8645 64.8886Z" fill="#A3CC01"/>
<path d="M12.127 31.0593C14.468 31.2482 16.7987 31.4583 19.0069 32.3746C19.1662 32.4339 19.3225 32.5017 19.4751 32.5776C20.1357 32.9431 20.4149 33.6175 20.1476 34.2637C19.8581 34.9699 19.2963 35.2648 18.6306 34.9999C16.1365 34.0077 13.5231 33.8312 10.9046 33.6758C10.0347 33.6246 9.51369 33.0384 9.55284 32.3093C9.592 31.5801 10.1572 31.084 11.0272 31.0611C11.3882 31.0523 11.7542 31.0593 12.127 31.0593Z" fill="#A3CC01"/>
</g>
<defs>
<clipPath id="clip0_240_2951">
<rect width="87" height="69" fill="white"/>
</clipPath>
</defs>
</svg>
