<svg width="22" height="22" viewBox="0 0 22 22" fill="none" xmlns="http://www.w3.org/2000/svg">
<path d="M7.11928 0.207373C8.17528 1.95937 8.88328 3.80737 9.24328 5.75137C9.62728 7.67137 9.67528 9.57937 9.38728 11.4754C9.09928 13.3474 8.47528 15.1594 7.51528 16.9114C6.55528 18.6394 5.28328 20.1874 3.69928 21.5554L1.53928 20.1874C1.13128 19.9234 0.951281 19.6114 0.999281 19.2514C1.04728 18.8674 1.17928 18.5674 1.39528 18.3514C1.99528 17.6314 2.51128 16.7434 2.94328 15.6874C3.39928 14.6074 3.69928 13.4434 3.84328 12.1954C3.98728 10.9234 3.93928 9.61537 3.69928 8.27137C3.45928 6.92737 2.95528 5.60737 2.18728 4.31137C1.85128 3.75937 1.75528 3.26737 1.89928 2.83537C2.04328 2.40337 2.35528 2.09137 2.83528 1.89937L7.11928 0.207373ZM18.3153 0.207373C19.3713 1.95937 20.0793 3.80737 20.4393 5.75137C20.8233 7.67137 20.8713 9.57937 20.5833 11.4754C20.2953 13.3474 19.6713 15.1594 18.7113 16.9114C17.7513 18.6394 16.4793 20.1874 14.8953 21.5554L12.7353 20.1874C12.3273 19.9234 12.1473 19.6114 12.1953 19.2514C12.2433 18.8674 12.3753 18.5674 12.5913 18.3514C13.1913 17.6314 13.7073 16.7434 14.1393 15.6874C14.5953 14.6074 14.8953 13.4434 15.0393 12.1954C15.1833 10.9234 15.1353 9.61537 14.8953 8.27137C14.6553 6.92737 14.1513 5.60737 13.3833 4.31137C13.0473 3.75937 12.9513 3.26737 13.0953 2.83537C13.2393 2.40337 13.5513 2.09137 14.0313 1.89937L18.3153 0.207373Z" fill="white"/>
</svg>
