<svg width="21" height="22" viewBox="0 0 21 22" fill="none" xmlns="http://www.w3.org/2000/svg">
<path d="M3.15263 21.4066C2.09663 19.6546 1.38863 17.8186 1.02863 15.8986C0.668625 13.9546 0.632625 12.0346 0.920625 10.1386C1.20863 8.24262 1.82063 6.43062 2.75663 4.70262C3.71663 2.97462 4.98863 1.42662 6.57263 0.0586228L8.76863 1.39062C9.15263 1.65462 9.32063 1.97862 9.27263 2.36262C9.22463 2.72262 9.09263 3.02262 8.87663 3.26262C8.30063 3.98262 7.78463 4.88262 7.32863 5.96262C6.89663 7.01862 6.60863 8.17062 6.46463 9.41862C6.32063 10.6666 6.36863 11.9626 6.60863 13.3066C6.84863 14.6506 7.35263 15.9706 8.12063 17.2666C8.45663 17.8186 8.55263 18.3106 8.40863 18.7426C8.26463 19.1746 7.95263 19.4866 7.47263 19.6786L3.15263 21.4066ZM14.3486 21.4066C13.2926 19.6546 12.5846 17.8186 12.2246 15.8986C11.8646 13.9546 11.8286 12.0346 12.1166 10.1386C12.4046 8.24262 13.0166 6.43062 13.9526 4.70262C14.9126 2.97462 16.1846 1.42662 17.7686 0.0586228L19.9646 1.39062C20.3486 1.65462 20.5166 1.97862 20.4686 2.36262C20.4206 2.72262 20.2886 3.02262 20.0726 3.26262C19.4966 3.98262 18.9806 4.88262 18.5246 5.96262C18.0926 7.01862 17.8046 8.17062 17.6606 9.41862C17.5166 10.6666 17.5646 11.9626 17.8046 13.3066C18.0446 14.6506 18.5486 15.9706 19.3166 17.2666C19.6526 17.8186 19.7486 18.3106 19.6046 18.7426C19.4606 19.1746 19.1486 19.4866 18.6686 19.6786L14.3486 21.4066Z" fill="white"/>
</svg>
