<svg width="13" height="13" viewBox="0 0 13 13" fill="none" xmlns="http://www.w3.org/2000/svg">
<path d="M7.27553 11.7502L12.2755 6.75022C12.3666 6.65512 12.4379 6.54298 12.4855 6.42022C12.5856 6.17676 12.5856 5.90369 12.4855 5.66022C12.4379 5.53747 12.3666 5.42533 12.2755 5.33022L7.27553 0.330224C7.18229 0.236986 7.0716 0.163025 6.94978 0.112565C6.82796 0.0621045 6.69739 0.0361326 6.56553 0.0361326C6.29923 0.0361325 6.04384 0.141921 5.85553 0.330224C5.66723 0.518528 5.56144 0.773923 5.56144 1.04022C5.56144 1.30653 5.66723 1.56192 5.85553 1.75022L9.15553 5.04022L1.56553 5.04022C1.30032 5.04022 1.04596 5.14558 0.858426 5.33312C0.67089 5.52065 0.565533 5.77501 0.565533 6.04022C0.565533 6.30544 0.67089 6.55979 0.858426 6.74733C1.04596 6.93487 1.30032 7.04022 1.56553 7.04022L9.15553 7.04022L5.85553 10.3302C5.7618 10.4232 5.68741 10.5338 5.63664 10.6556C5.58587 10.7775 5.55973 10.9082 5.55973 11.0402C5.55973 11.1722 5.58587 11.3029 5.63664 11.4248C5.68741 11.5467 5.7618 11.6573 5.85553 11.7502C5.9485 11.844 6.0591 11.9183 6.18096 11.9691C6.30281 12.0199 6.43352 12.046 6.56553 12.046C6.69754 12.046 6.82825 12.0199 6.95011 11.9691C7.07197 11.9183 7.18257 11.844 7.27553 11.7502Z" fill="#1677BE"/>
</svg>
