<svg width="16" height="17" viewBox="0 0 16 17" fill="none" xmlns="http://www.w3.org/2000/svg">
<path d="M9.95587 7.08065C10.4817 6.79834 11.0693 6.65071 11.6662 6.65096C12.6382 6.65217 13.5702 7.03887 14.2576 7.72624C14.9449 8.41361 15.3316 9.34554 15.3328 10.3176V15.3176C15.3329 15.4052 15.3157 15.4919 15.2822 15.5728C15.2487 15.6537 15.1996 15.7272 15.1377 15.7891C15.0758 15.8511 15.0022 15.9002 14.9213 15.9337C14.8404 15.9671 14.7537 15.9843 14.6662 15.9843H11.9995C11.9119 15.9843 11.8252 15.9671 11.7443 15.9337C11.6634 15.9002 11.5899 15.8511 11.528 15.7891C11.4661 15.7272 11.417 15.6537 11.3835 15.5728C11.35 15.4919 11.3328 15.4052 11.3328 15.3176V11.651C11.3328 11.4742 11.2626 11.3046 11.1376 11.1796C11.0125 11.0545 10.843 10.9843 10.6662 10.9843C10.4893 10.9843 10.3198 11.0545 10.1948 11.1796C10.0697 11.3046 9.99949 11.4742 9.99949 11.651V15.3176C9.99954 15.4052 9.98234 15.4919 9.94885 15.5728C9.91536 15.6537 9.86626 15.7272 9.80434 15.7891C9.74243 15.8511 9.66891 15.9002 9.58801 15.9337C9.5071 15.9671 9.42039 15.9843 9.33283 15.9843H6.66616C6.5786 15.9843 6.49188 15.9671 6.41098 15.9337C6.33007 15.9002 6.25656 15.8511 6.19464 15.7891C6.13273 15.7272 6.08362 15.6537 6.05014 15.5728C6.01665 15.4919 5.99944 15.4052 5.99949 15.3176V7.31763C5.99944 7.23007 6.01665 7.14336 6.05014 7.06245C6.08362 6.98154 6.13273 6.90803 6.19464 6.84612C6.25656 6.7842 6.33007 6.7351 6.41098 6.70161C6.49188 6.66812 6.5786 6.65091 6.66616 6.65096H9.33283C9.46801 6.6509 9.60002 6.69198 9.7113 6.76873C9.82259 6.84548 9.90789 6.95427 9.95587 7.08065Z" fill="white"/>
<path d="M1.99949 6.65096H4.66616C4.75372 6.65091 4.84043 6.66812 4.92134 6.70161C5.00225 6.7351 5.07576 6.7842 5.13768 6.84612C5.19959 6.90803 5.2487 6.98154 5.28218 7.06245C5.31567 7.14336 5.33288 7.23007 5.33283 7.31763V15.3176C5.33288 15.4052 5.31567 15.4919 5.28218 15.5728C5.2487 15.6537 5.19959 15.7272 5.13768 15.7891C5.07576 15.8511 5.00225 15.9002 4.92134 15.9337C4.84044 15.9671 4.75372 15.9843 4.66616 15.9843H1.99949C1.91193 15.9843 1.82522 15.9671 1.74431 15.9337C1.6634 15.9002 1.58989 15.8511 1.52797 15.7891C1.46606 15.7272 1.41695 15.6537 1.38347 15.5728C1.34998 15.4919 1.33277 15.4052 1.33283 15.3176V7.31763C1.33278 7.23007 1.34999 7.14336 1.38347 7.06245C1.41696 6.98154 1.46606 6.90803 1.52798 6.84612C1.58989 6.7842 1.6634 6.7351 1.74431 6.70161C1.82522 6.66812 1.91193 6.65091 1.99949 6.65096Z" fill="white"/>
<path d="M2.48358 1.80326C2.75857 1.70423 3.05083 1.66217 3.34259 1.67963C3.63526 1.66482 3.92788 1.70985 4.20256 1.81195C4.47725 1.91405 4.72823 2.07109 4.94017 2.27346C5.15211 2.47584 5.32057 2.71931 5.43524 2.98899C5.54991 3.25867 5.60839 3.54889 5.6071 3.84194C5.60582 4.13498 5.5448 4.42469 5.42776 4.69335C5.31073 4.96201 5.14015 5.20399 4.92644 5.4045C4.71273 5.60501 4.46038 5.75984 4.18481 5.85953C3.90924 5.95922 3.61624 6.00167 3.32371 5.9843H3.30483C3.01281 5.99664 2.72132 5.94946 2.44811 5.84562C2.1749 5.74177 1.92566 5.58345 1.71556 5.38026C1.50545 5.17707 1.33887 4.93327 1.22595 4.66369C1.11302 4.3941 1.05611 4.10436 1.05868 3.81209C1.06124 3.51982 1.12323 3.23113 1.24086 2.96357C1.3585 2.696 1.52933 2.45516 1.74297 2.25569C1.95661 2.05622 2.20858 1.90229 2.48358 1.80326Z" fill="white"/>
</svg>
