<svg width="23" height="23" viewBox="0 0 23 23" fill="none" xmlns="http://www.w3.org/2000/svg">
<path d="M14.0836 8.5955C14.9053 8.15439 15.8234 7.92372 16.756 7.92411C18.2749 7.926 19.731 8.53022 20.805 9.60423C21.879 10.6783 22.4832 12.1344 22.4851 13.6533V21.4658C22.4852 21.6026 22.4583 21.7381 22.406 21.8645C22.3537 21.9909 22.277 22.1058 22.1802 22.2025C22.0835 22.2993 21.9686 22.376 21.8422 22.4283C21.7158 22.4806 21.5803 22.5075 21.4435 22.5074H17.2768C17.14 22.5075 17.0045 22.4806 16.8781 22.4283C16.7517 22.376 16.6368 22.2993 16.54 22.2025C16.4433 22.1058 16.3666 21.9909 16.3143 21.8645C16.2619 21.7381 16.2351 21.6026 16.2351 21.4658V15.7366C16.2351 15.4603 16.1254 15.1954 15.93 15C15.7347 14.8047 15.4697 14.6949 15.1935 14.6949C14.9172 14.6949 14.6522 14.8047 14.4569 15C14.2615 15.1954 14.1518 15.4603 14.1518 15.7366V21.4658C14.1519 21.6026 14.125 21.7381 14.0727 21.8645C14.0203 21.9909 13.9436 22.1058 13.8469 22.2025C13.7501 22.2993 13.6353 22.376 13.5089 22.4283C13.3824 22.4806 13.2469 22.5075 13.1101 22.5074H8.94346C8.80665 22.5075 8.67116 22.4806 8.54474 22.4283C8.41832 22.376 8.30346 22.2993 8.20671 22.2025C8.10997 22.1058 8.03325 21.9909 7.98093 21.8645C7.92861 21.7381 7.90172 21.6026 7.9018 21.4658V8.96578C7.90172 8.82897 7.92861 8.69348 7.98093 8.56706C8.03325 8.44065 8.10998 8.32578 8.20672 8.22904C8.30346 8.1323 8.41832 8.05557 8.54474 8.00325C8.67116 7.95093 8.80665 7.92404 8.94346 7.92411H13.1101C13.3214 7.92402 13.5276 7.9882 13.7015 8.10812C13.8754 8.22804 14.0087 8.39803 14.0836 8.5955Z" fill="#004988"/>
<path d="M1.65179 7.92411H5.81846C5.95528 7.92404 6.09077 7.95093 6.21718 8.00325C6.3436 8.05557 6.45846 8.1323 6.55521 8.22904C6.65195 8.32578 6.72867 8.44065 6.781 8.56706C6.83332 8.69348 6.86021 8.82897 6.86013 8.96578V21.4658C6.86021 21.6026 6.83332 21.7381 6.781 21.8645C6.72868 21.9909 6.65195 22.1058 6.55521 22.2025C6.45847 22.2993 6.3436 22.376 6.21718 22.4283C6.09077 22.4806 5.95528 22.5075 5.81846 22.5074H1.65179C1.51498 22.5075 1.37949 22.4806 1.25307 22.4283C1.12666 22.376 1.01179 22.2993 0.915048 22.2025C0.818304 22.1058 0.741579 21.9909 0.689258 21.8645C0.636938 21.7381 0.610049 21.6026 0.610128 21.4658V8.96578C0.61005 8.82897 0.63694 8.69348 0.689261 8.56706C0.741582 8.44065 0.818308 8.32578 0.915051 8.22904C1.01179 8.1323 1.12666 8.05557 1.25307 8.00325C1.37949 7.95093 1.51498 7.92404 1.65179 7.92411Z" fill="#004988"/>
<path d="M2.40818 0.349579C2.83785 0.194842 3.29451 0.12912 3.75039 0.156408C4.20769 0.133269 4.6649 0.203615 5.09409 0.363149C5.52329 0.522683 5.91544 0.768054 6.24661 1.08427C6.57777 1.40048 6.84098 1.7809 7.02015 2.20227C7.19932 2.62365 7.2907 3.07713 7.28869 3.53501C7.28668 3.99289 7.19133 4.44556 7.00847 4.86534C6.82561 5.28513 6.55907 5.66322 6.22515 5.97652C5.89123 6.28982 5.49693 6.53174 5.06635 6.6875C4.63577 6.84327 4.17796 6.9096 3.72088 6.88245H3.69138C3.2351 6.90173 2.77966 6.82801 2.35276 6.66576C1.92587 6.50351 1.53643 6.25612 1.20815 5.93864C0.879859 5.62116 0.619579 5.24022 0.443133 4.81899C0.266687 4.39777 0.177764 3.94505 0.18177 3.48838C0.185777 3.03171 0.28263 2.58062 0.466439 2.16255C0.650248 1.74449 0.917172 1.36818 1.25098 1.0565C1.58479 0.744833 1.9785 0.504316 2.40818 0.349579Z" fill="#004988"/>
</svg>
