<svg width="182" height="57" viewBox="0 0 182 57" fill="none" xmlns="http://www.w3.org/2000/svg">
<g clip-path="url(#clip0_302_645)">
<path fill-rule="evenodd" clip-rule="evenodd" d="M86.0416 56.9775C69.41 50.8309 52.3895 34.1509 52.4057 15.6221V3.3047L48.9951 0.953125L45.5684 3.31282V15.3707C46.0301 21.2821 46.6782 24.6635 49.0113 29.9667C55.4112 41.6922 65.5457 52.1365 78.6615 56.9856L86.0416 56.9775Z" fill="white"/>
<path fill-rule="evenodd" clip-rule="evenodd" d="M97.9759 56.9772C75.0984 46.3627 66.0089 32.7397 65.3527 12.281L59.528 8.22656C58.9204 31.2639 70.8696 48.3656 91.3816 56.9529L97.9759 56.9772Z" fill="white"/>
<path fill-rule="evenodd" clip-rule="evenodd" d="M72.2783 56.9782C61.2122 52.8832 51.9688 46.6312 45.6013 35.2382C43.4414 31.6464 41.6552 27.8424 40.2708 23.8858C38.7271 18.8463 38.1042 13.5694 38.4318 8.30859L32.6152 12.3225C33.4303 21.8895 36.7702 31.0679 42.2931 38.9185C47.816 46.7692 55.3236 53.0101 64.0476 57.0025L72.2783 56.9782Z" fill="white"/>
<path fill-rule="evenodd" clip-rule="evenodd" d="M11.9238 56.9775C28.5555 50.8309 45.576 34.1509 45.5678 15.6221V3.3047L48.9784 0.953125L52.3971 3.31282V15.3707C51.9353 21.2821 51.2872 24.6635 48.9622 29.9667C42.5623 41.6922 32.4197 52.1365 19.3039 56.9856L11.9238 56.9775Z" fill="white"/>
<path fill-rule="evenodd" clip-rule="evenodd" d="M0 56.9772C22.8776 46.3627 31.967 32.7397 32.6232 12.281L38.4479 8.22656C39.0555 31.2639 27.1064 48.3656 6.59433 56.9529L0 56.9772Z" fill="white"/>
<path fill-rule="evenodd" clip-rule="evenodd" d="M25.6973 56.9782C36.7634 52.8832 46.0068 46.6312 52.3743 35.2382C54.5316 31.6462 56.3151 27.8421 57.6967 23.8858C59.2603 18.915 59.5438 13.628 59.5438 8.30859L65.3523 12.3225C64.5405 21.8904 61.2019 31.0703 55.6786 38.9215C50.1553 46.7727 42.6459 53.0128 33.9199 57.0025L25.6973 56.9782Z" fill="white"/>
<path d="M180.34 39.3412L181.223 36.5112H181.911L180.397 40.8738C180.358 40.9769 180.312 41.0772 180.259 41.1738C180.201 41.2864 180.127 41.3902 180.04 41.482C179.948 41.5799 179.838 41.6597 179.716 41.7171C179.581 41.7853 179.43 41.8188 179.279 41.8144H179.189H179.084H178.987H178.914V41.2955H179.092C179.186 41.3088 179.282 41.3088 179.376 41.2955C179.458 41.2815 179.536 41.2481 179.603 41.1982C179.671 41.1449 179.729 41.0788 179.773 41.0035C179.825 40.9105 179.868 40.8128 179.902 40.7116L180.04 40.3305L178.72 36.5112H179.424L180.34 39.3412ZM176.289 37.087H176.135H175.973C175.779 37.0774 175.587 37.1284 175.422 37.2329C175.285 37.3364 175.176 37.4731 175.106 37.6303V40.3143H174.458V36.5356H175.09V36.9734C175.18 36.8188 175.308 36.6903 175.463 36.6004C175.622 36.5064 175.805 36.4587 175.99 36.4626H176.152H176.281L176.289 37.087ZM170.845 35.5949V36.5112H171.55V37.0059H170.845V39.3574C170.831 39.4352 170.831 39.5149 170.845 39.5926C170.866 39.6458 170.899 39.6932 170.943 39.7305C170.98 39.7607 171.025 39.7803 171.072 39.7872C171.123 39.795 171.175 39.795 171.226 39.7872H171.396H171.534V40.3143L171.339 40.363C171.24 40.3727 171.139 40.3727 171.04 40.363C170.924 40.3605 170.81 40.3414 170.699 40.3062C170.595 40.2733 170.5 40.2148 170.424 40.1359C170.341 40.0474 170.278 39.9424 170.238 39.8278C170.185 39.6738 170.161 39.5119 170.165 39.3493V37.0059H169.484V36.5112H170.165V35.5949H170.845ZM166.325 39.2845C166.337 39.2201 166.337 39.1542 166.325 39.0899C166.304 39.0193 166.261 38.9569 166.203 38.9115C166.123 38.8479 166.033 38.7986 165.936 38.7655C165.792 38.7087 165.643 38.6652 165.49 38.6358C165.298 38.5947 165.108 38.5405 164.923 38.4736C164.77 38.4239 164.625 38.35 164.494 38.2546C164.382 38.1772 164.291 38.0744 164.227 37.9546C164.16 37.8303 164.126 37.6905 164.129 37.5492C164.128 37.3993 164.164 37.2514 164.235 37.1194C164.3 36.9845 164.394 36.8655 164.51 36.7707C164.642 36.6627 164.793 36.5802 164.956 36.5274C165.141 36.4664 165.336 36.4362 165.531 36.4383C165.735 36.4356 165.938 36.4686 166.13 36.5356C166.297 36.5877 166.451 36.6732 166.584 36.7869C166.706 36.89 166.805 37.017 166.876 37.1599C166.937 37.3066 166.97 37.4634 166.973 37.6221H166.317C166.316 37.5413 166.3 37.4614 166.268 37.387C166.23 37.3081 166.178 37.2367 166.114 37.1761C166.039 37.1147 165.954 37.0654 165.863 37.0302C165.757 36.9897 165.644 36.9704 165.531 36.9734C165.413 36.9707 165.295 36.9872 165.183 37.0221C165.099 37.046 165.022 37.0874 164.956 37.1437C164.898 37.1932 164.851 37.2539 164.818 37.3221C164.807 37.3892 164.807 37.4578 164.818 37.5248C164.805 37.5891 164.805 37.6552 164.818 37.7195C164.85 37.7793 164.898 37.8296 164.956 37.8654C165.038 37.9214 165.128 37.9651 165.223 37.9952L165.661 38.1087C165.865 38.1552 166.065 38.2176 166.26 38.2952C166.411 38.3521 166.553 38.4314 166.681 38.5303C166.789 38.6106 166.876 38.7165 166.932 38.8385C166.987 38.9668 167.014 39.1047 167.013 39.2439C167.016 39.4017 166.98 39.5577 166.908 39.698C166.839 39.835 166.739 39.9543 166.617 40.0467C166.478 40.1509 166.322 40.228 166.155 40.2737C165.961 40.334 165.758 40.3641 165.555 40.363C165.33 40.3642 165.105 40.3286 164.891 40.2575C164.713 40.1943 164.548 40.098 164.405 39.9737C164.28 39.867 164.181 39.7341 164.113 39.5845C164.046 39.4396 164.01 39.2821 164.008 39.1223H164.656C164.659 39.2422 164.692 39.3595 164.753 39.4629C164.806 39.5484 164.878 39.6205 164.964 39.6737C165.051 39.7292 165.147 39.7703 165.247 39.7953C165.35 39.8069 165.453 39.8069 165.555 39.7953C165.673 39.8004 165.79 39.7867 165.904 39.7548C165.996 39.7335 166.084 39.695 166.163 39.6413C166.224 39.5946 166.277 39.5369 166.317 39.471C166.334 39.4104 166.34 39.3471 166.333 39.2845H166.325ZM160.362 39.917C160.238 40.0579 160.083 40.1688 159.909 40.2413C159.701 40.327 159.477 40.3684 159.253 40.363C159.082 40.3626 158.912 40.3352 158.75 40.2819C158.602 40.2303 158.469 40.1442 158.361 40.0305C158.244 39.9054 158.155 39.7559 158.102 39.5926C158.04 39.3849 158.01 39.1688 158.013 38.952V36.5193H158.661V38.952C158.656 39.0947 158.675 39.2373 158.718 39.3737C158.753 39.4704 158.809 39.5588 158.88 39.6331C158.941 39.6942 159.016 39.7388 159.099 39.7629C159.183 39.7882 159.27 39.8018 159.358 39.8034C159.579 39.8169 159.799 39.7632 159.99 39.6494C160.145 39.5545 160.269 39.4164 160.346 39.252V36.5031H160.986V40.2819H160.379L160.362 39.917ZM152.334 38.4412C152.332 38.6212 152.351 38.8008 152.391 38.9763C152.422 39.1298 152.482 39.2758 152.569 39.4061C152.646 39.5293 152.752 39.6322 152.877 39.7061C153.018 39.7769 153.173 39.8131 153.331 39.8115C153.435 39.8111 153.538 39.7975 153.638 39.771C153.725 39.7469 153.807 39.7086 153.882 39.6575C153.956 39.6091 154.021 39.5488 154.076 39.4791C154.134 39.4127 154.183 39.3391 154.222 39.2601V37.5167C154.183 37.4403 154.134 37.3694 154.076 37.3059C154.024 37.2388 153.961 37.1812 153.89 37.1356C153.812 37.0863 153.727 37.0481 153.638 37.0221C153.539 37.0092 153.438 37.0092 153.339 37.0221C153.177 37.0129 153.016 37.0524 152.877 37.1356C152.752 37.2064 152.647 37.3067 152.569 37.4275C152.484 37.5615 152.423 37.7099 152.391 37.8654C152.351 38.041 152.332 38.2206 152.334 38.4006V38.4412ZM151.686 38.3682C151.679 38.094 151.714 37.8204 151.791 37.5573C151.855 37.3385 151.956 37.1326 152.091 36.9491C152.216 36.785 152.377 36.6519 152.561 36.5599C152.751 36.4614 152.963 36.4113 153.177 36.4139C153.383 36.4095 153.588 36.4511 153.776 36.5356C153.95 36.6077 154.103 36.7219 154.222 36.868V34.9219H154.87V40.29H154.278V39.8845C154.156 40.0339 154.001 40.1532 153.825 40.2332C153.629 40.3214 153.416 40.3657 153.201 40.363C152.99 40.3646 152.781 40.3145 152.593 40.217C152.411 40.1193 152.25 39.9839 152.124 39.8196C151.99 39.6352 151.889 39.4296 151.824 39.2115C151.75 38.9614 151.715 38.7018 151.719 38.4412L151.686 38.3682ZM146.356 36.5112V36.9815C146.49 36.8187 146.655 36.6837 146.842 36.5842C147.043 36.4846 147.265 36.4345 147.49 36.4383C147.657 36.4369 147.824 36.4615 147.984 36.5112C148.127 36.5631 148.257 36.6462 148.365 36.7545C148.477 36.8775 148.56 37.0245 148.608 37.1843C148.671 37.389 148.701 37.6025 148.697 37.8168V40.29H148.049V37.8086C148.051 37.6799 148.035 37.5515 148 37.4275C147.971 37.3337 147.922 37.2476 147.854 37.1761C147.789 37.1107 147.708 37.0632 147.619 37.0383C147.515 37.0046 147.405 36.9882 147.295 36.9897C147.098 36.985 146.905 37.0447 146.744 37.1599C146.582 37.2678 146.452 37.4196 146.372 37.5978V40.29H145.724V36.5112H146.356ZM142.459 40.29H141.787V35.2057H142.459V40.29ZM130.607 36.5112V36.9329C130.738 36.7785 130.901 36.654 131.085 36.568C131.287 36.4799 131.505 36.4357 131.725 36.4383C131.95 36.4329 132.172 36.483 132.373 36.5842C132.564 36.6852 132.716 36.8482 132.802 37.0464C132.933 36.8659 133.102 36.7164 133.297 36.6085C133.515 36.4906 133.761 36.4319 134.009 36.4383C134.191 36.4337 134.372 36.4611 134.544 36.5193C134.695 36.5658 134.831 36.6495 134.941 36.7626C135.057 36.8843 135.143 37.0315 135.192 37.1924C135.252 37.3922 135.279 37.6002 135.273 37.8086V40.29H134.625V37.8005C134.63 37.6684 134.611 37.5366 134.568 37.4113C134.538 37.3145 134.482 37.2277 134.406 37.1599C134.337 37.0923 134.25 37.0447 134.155 37.0221C134.045 37.0093 133.933 37.0093 133.823 37.0221C133.701 37.0165 133.579 37.0387 133.467 37.087C133.37 37.1265 133.282 37.1843 133.207 37.2572C133.133 37.3289 133.072 37.4142 133.029 37.5086C132.988 37.607 132.961 37.7108 132.948 37.8168V40.3224H132.3V37.8411C132.304 37.7117 132.285 37.5826 132.243 37.46C132.209 37.3651 132.154 37.2792 132.081 37.2086C132.01 37.1427 131.924 37.0954 131.83 37.0707C131.723 37.037 131.611 37.0206 131.498 37.0221C131.301 37.0119 131.106 37.0629 130.939 37.1681C130.802 37.2715 130.693 37.4082 130.623 37.5654V40.3224H129.983V36.5437L130.607 36.5112ZM125.544 36.9734C125.419 36.9725 125.294 36.9974 125.179 37.0464C125.069 37.0931 124.97 37.1622 124.888 37.2491C124.798 37.3496 124.727 37.4648 124.677 37.5897C124.617 37.7381 124.577 37.8934 124.555 38.0519H126.451V38.0033C126.441 37.8772 126.42 37.7523 126.386 37.6303C126.357 37.5106 126.305 37.3977 126.232 37.2978C126.159 37.1996 126.065 37.1192 125.957 37.0626C125.832 36.9982 125.692 36.9675 125.552 36.9734H125.544ZM125.625 40.363C125.38 40.3658 125.138 40.3189 124.912 40.2251C124.703 40.1394 124.515 40.0093 124.361 39.844C124.21 39.6758 124.091 39.4805 124.013 39.2683C123.93 39.0312 123.889 38.7815 123.891 38.5303V38.3844C123.888 38.108 123.935 37.8334 124.029 37.5735C124.112 37.3459 124.239 37.1366 124.402 36.9572C124.548 36.7941 124.727 36.6642 124.928 36.5761C125.123 36.493 125.332 36.4489 125.544 36.4463C125.784 36.4401 126.023 36.4901 126.24 36.5923C126.432 36.6795 126.599 36.8133 126.727 36.9815C126.857 37.1557 126.95 37.3543 127.002 37.5654C127.069 37.8056 127.102 38.054 127.099 38.3033V38.5952H124.539C124.541 38.7606 124.569 38.9246 124.62 39.0817C124.671 39.2268 124.748 39.3614 124.847 39.4791C124.945 39.5875 125.063 39.6757 125.195 39.7386C125.34 39.805 125.498 39.8382 125.657 39.8359C125.861 39.8443 126.062 39.7966 126.24 39.698C126.4 39.6038 126.54 39.4799 126.654 39.3331L127.042 39.6331C126.982 39.7341 126.908 39.8268 126.824 39.9089C126.734 39.9998 126.634 40.0788 126.524 40.144C126.399 40.2154 126.266 40.27 126.127 40.3062C125.966 40.3468 125.799 40.3659 125.633 40.363H125.625ZM120.44 35.5949V36.5112H121.145V37.0059H120.44V39.3574C120.426 39.4352 120.426 39.5149 120.44 39.5926C120.461 39.6458 120.494 39.6932 120.537 39.7305C120.574 39.7623 120.619 39.7821 120.667 39.7872C120.718 39.795 120.77 39.795 120.821 39.7872H120.991H121.129V40.3143L120.934 40.363C120.835 40.3722 120.734 40.3722 120.634 40.363C120.519 40.3613 120.404 40.3421 120.294 40.3062C120.19 40.2733 120.095 40.2148 120.019 40.1359C119.933 40.0496 119.869 39.9439 119.832 39.8278C119.78 39.6738 119.755 39.5119 119.76 39.3493V37.0059H119.071V36.5112H119.76V35.5949H120.44ZM115.92 39.2845C115.931 39.2201 115.931 39.1542 115.92 39.0899C115.896 39.0207 115.854 38.9591 115.798 38.9115C115.717 38.8496 115.627 38.8004 115.531 38.7655C115.387 38.7087 115.237 38.6652 115.085 38.6358C114.893 38.5947 114.703 38.5405 114.518 38.4736C114.364 38.4239 114.219 38.35 114.089 38.2546C113.977 38.1772 113.886 38.0744 113.821 37.9546C113.754 37.8303 113.721 37.6905 113.724 37.5492C113.724 37.4004 113.757 37.2534 113.821 37.1194C113.893 36.9859 113.989 36.8674 114.105 36.7707C114.235 36.6644 114.383 36.5821 114.542 36.5274C114.731 36.467 114.928 36.4369 115.126 36.4383C115.33 36.4356 115.533 36.4686 115.725 36.5356C115.892 36.5877 116.046 36.6732 116.179 36.7869C116.301 36.888 116.398 37.0156 116.462 37.1599C116.527 37.3054 116.56 37.4629 116.56 37.6221H115.912C115.911 37.5413 115.895 37.4614 115.863 37.387C115.822 37.3098 115.77 37.2388 115.709 37.1761C115.632 37.1164 115.548 37.0673 115.458 37.0302C115.352 36.9897 115.239 36.9704 115.126 36.9734C115.008 36.9707 114.89 36.9872 114.777 37.0221C114.692 37.046 114.612 37.0874 114.542 37.1437C114.487 37.1934 114.443 37.2542 114.413 37.3221C114.388 37.3868 114.374 37.4554 114.372 37.5248C114.359 37.5891 114.359 37.6552 114.372 37.7195C114.404 37.7774 114.448 37.8274 114.502 37.8654C114.586 37.9182 114.676 37.9617 114.769 37.9952L115.215 38.1087C115.419 38.1552 115.62 38.2176 115.814 38.2952C115.966 38.3521 116.108 38.4314 116.236 38.5303C116.341 38.6134 116.427 38.7186 116.487 38.8385C116.541 38.9668 116.568 39.1047 116.568 39.2439C116.566 39.4012 116.53 39.5562 116.462 39.698C116.393 39.835 116.293 39.9543 116.171 40.0467C116.033 40.1509 115.876 40.228 115.709 40.2737C115.515 40.334 115.313 40.3641 115.11 40.363C114.884 40.3642 114.659 40.3286 114.445 40.2575C114.266 40.1962 114.101 40.0997 113.959 39.9737C113.835 39.867 113.735 39.7341 113.668 39.5845C113.596 39.4409 113.56 39.2825 113.562 39.1223H114.21C114.213 39.2422 114.247 39.3595 114.307 39.4629C114.361 39.5484 114.433 39.6205 114.518 39.6737C114.605 39.7306 114.701 39.7717 114.802 39.7953C114.904 39.8073 115.007 39.8073 115.11 39.7953C115.227 39.8004 115.345 39.7867 115.458 39.7548C115.548 39.7335 115.633 39.6949 115.709 39.6413C115.775 39.5972 115.83 39.5391 115.871 39.471C115.902 39.4133 115.922 39.3498 115.928 39.2845H115.92ZM109.439 39.3412L110.322 36.5112H111.01L109.495 40.8738C109.457 40.9769 109.411 41.0772 109.358 41.1738C109.3 41.2864 109.226 41.3902 109.139 41.482C109.047 41.5799 108.937 41.6597 108.815 41.7171C108.679 41.7844 108.529 41.8178 108.377 41.8144H108.24H108.143H108.037H107.972V41.2955H108.143C108.239 41.3092 108.337 41.3092 108.434 41.2955C108.516 41.2801 108.593 41.2469 108.661 41.1982C108.73 41.1449 108.788 41.0788 108.831 41.0035C108.883 40.9105 108.927 40.8128 108.961 40.7116L109.098 40.3305L107.754 36.5923H108.459L109.439 39.3412ZM104.578 39.2845C104.59 39.2201 104.59 39.1542 104.578 39.0899C104.554 39.0207 104.512 38.9591 104.457 38.9115C104.375 38.8496 104.285 38.8004 104.189 38.7655C104.045 38.7087 103.896 38.6652 103.744 38.6358C103.551 38.5947 103.362 38.5405 103.177 38.4736C103.023 38.4239 102.878 38.35 102.747 38.2546C102.636 38.1772 102.544 38.0744 102.48 37.9546C102.413 37.8303 102.379 37.6905 102.383 37.5492C102.381 37.3993 102.417 37.2514 102.488 37.1194C102.553 36.9845 102.647 36.8655 102.763 36.7707C102.894 36.6644 103.042 36.5821 103.201 36.5274C103.389 36.467 103.586 36.4369 103.784 36.4383C103.988 36.4356 104.191 36.4686 104.384 36.5356C104.55 36.5877 104.705 36.6732 104.837 36.7869C104.959 36.888 105.056 37.0156 105.121 37.1599C105.185 37.3054 105.219 37.4629 105.218 37.6221H104.57C104.569 37.5413 104.553 37.4614 104.521 37.387C104.482 37.3027 104.426 37.2276 104.356 37.1661C104.286 37.1047 104.205 37.0584 104.116 37.0302C104.01 36.9897 103.897 36.9704 103.784 36.9734C103.666 36.9707 103.549 36.9872 103.436 37.0221C103.35 37.046 103.27 37.0874 103.201 37.1437C103.148 37.1956 103.104 37.2558 103.071 37.3221C103.06 37.3892 103.06 37.4578 103.071 37.5248C103.058 37.5891 103.058 37.6552 103.071 37.7195C103.104 37.7793 103.151 37.8296 103.209 37.8654C103.289 37.9199 103.376 37.9635 103.468 37.9952L103.914 38.1087C104.118 38.1552 104.319 38.2176 104.513 38.2952C104.665 38.3521 104.807 38.4314 104.934 38.5303C105.042 38.6106 105.129 38.7165 105.186 38.8385C105.24 38.9668 105.267 39.1047 105.267 39.2439C105.265 39.4012 105.229 39.5562 105.161 39.698C105.092 39.835 104.992 39.9543 104.87 40.0467C104.732 40.1509 104.575 40.228 104.408 40.2737C104.214 40.334 104.012 40.3641 103.808 40.363C103.583 40.3642 103.358 40.3286 103.144 40.2575C102.966 40.1943 102.801 40.098 102.658 39.9737C102.534 39.867 102.434 39.7341 102.366 39.5845C102.299 39.4396 102.263 39.2821 102.261 39.1223H102.909C102.912 39.2422 102.946 39.3595 103.006 39.4629C103.06 39.5484 103.132 39.6205 103.217 39.6737C103.304 39.7292 103.4 39.7703 103.501 39.7953C103.603 39.8073 103.706 39.8073 103.808 39.7953C103.926 39.8004 104.044 39.7867 104.157 39.7548C104.248 39.7352 104.333 39.6965 104.408 39.6413C104.474 39.5972 104.529 39.5391 104.57 39.471C104.574 39.4078 104.566 39.3445 104.546 39.2845H104.578ZM96.6227 38.4736C96.6233 38.6539 96.6451 38.8335 96.6875 39.0088C96.7285 39.1656 96.7971 39.3139 96.8901 39.4466C96.9768 39.5755 97.0936 39.6812 97.2303 39.7548C97.3751 39.8302 97.5371 39.8665 97.7002 39.8602C97.8594 39.8671 98.0177 39.8326 98.1596 39.7601C98.3016 39.6877 98.4224 39.5797 98.5103 39.4466C98.6006 39.3134 98.6664 39.1651 98.7047 39.0088C98.7539 38.8346 98.7784 38.6545 98.7776 38.4736V38.4006C98.7784 38.2197 98.7539 38.0395 98.7047 37.8654C98.6656 37.7054 98.5969 37.5542 98.5022 37.4194C98.4138 37.2971 98.3007 37.1948 98.1701 37.1194C98.0247 37.0447 97.8636 37.0057 97.7002 37.0057C97.5368 37.0057 97.3757 37.0447 97.2303 37.1194C97.0997 37.1948 96.9865 37.2971 96.8982 37.4194C96.8067 37.556 96.7383 37.7066 96.6956 37.8654C96.6532 38.0406 96.6314 38.2203 96.6308 38.4006L96.6227 38.4736ZM95.9746 38.4006C95.9715 38.1414 96.0127 37.8837 96.0962 37.6384C96.1719 37.4142 96.2871 37.2055 96.4364 37.0221C96.5884 36.8519 96.7729 36.714 96.9792 36.6167C97.2033 36.5164 97.4466 36.4665 97.6921 36.4707C97.9401 36.4671 98.1859 36.5169 98.4131 36.6167C98.618 36.7162 98.8022 36.8538 98.9558 37.0221C99.1052 37.2055 99.2204 37.4142 99.2961 37.6384C99.373 37.8851 99.4112 38.1422 99.4095 38.4006V38.4736C99.4106 38.7319 99.3724 38.989 99.2961 39.2358C99.2223 39.4583 99.1068 39.6647 98.9558 39.844C98.8044 40.0147 98.6197 40.1526 98.4131 40.2494C98.1863 40.3455 97.9424 40.3951 97.6961 40.3951C97.4498 40.3951 97.206 40.3455 96.9792 40.2494C96.7726 40.1526 96.5879 40.0147 96.4364 39.844C96.2855 39.6647 96.17 39.4583 96.0962 39.2358C96.0133 38.9903 95.9722 38.7327 95.9746 38.4736V38.4006ZM91.762 39.8602C91.8746 39.8606 91.9865 39.8442 92.0942 39.8115C92.1935 39.7749 92.2864 39.7229 92.3696 39.6575C92.4487 39.5921 92.5147 39.5123 92.5641 39.4223C92.6142 39.3325 92.6446 39.2329 92.6532 39.1304H93.2608C93.2513 39.2982 93.2043 39.4617 93.1231 39.6088C93.0433 39.7643 92.9331 39.9022 92.799 40.0143C92.6573 40.1296 92.4989 40.2226 92.3291 40.29C92.1479 40.3588 91.9558 40.3945 91.762 40.3954C91.508 40.3987 91.2563 40.3461 91.0249 40.2413C90.8217 40.1429 90.6421 40.0019 90.4983 39.8278C90.3567 39.6491 90.2496 39.4456 90.1824 39.2277C90.1166 38.9928 90.0839 38.7499 90.0851 38.506V38.3276C90.0839 38.0837 90.1166 37.8408 90.1824 37.6059C90.2496 37.388 90.3567 37.1846 90.4983 37.0059C90.6387 36.8316 90.8157 36.6904 91.0167 36.5923C91.2511 36.4876 91.5054 36.435 91.762 36.4383C91.9665 36.4382 92.1694 36.4739 92.3616 36.5437C92.5337 36.6133 92.6926 36.712 92.8314 36.8356C92.9614 36.9571 93.066 37.1031 93.1392 37.2654C93.2129 37.4374 93.2541 37.6216 93.2608 37.8086H92.6532C92.6435 37.6969 92.6161 37.5874 92.5722 37.4843C92.5288 37.3834 92.4654 37.2923 92.3858 37.2167C92.2179 37.0568 91.9938 36.9694 91.762 36.9734C91.5878 36.9687 91.4151 37.0078 91.2598 37.087C91.1315 37.1666 91.0235 37.2748 90.9439 37.4032C90.861 37.5376 90.8033 37.686 90.7737 37.8411C90.7415 38.0013 90.7252 38.1642 90.7251 38.3276V38.4736C90.7248 38.6397 90.7411 38.8054 90.7737 38.9682C90.8033 39.1233 90.861 39.2717 90.9439 39.4061C91.0261 39.5301 91.1338 39.6352 91.2598 39.7142C91.4038 39.7924 91.5658 39.8316 91.7297 39.8278L91.762 39.8602ZM87.0715 37.9708H84.868V39.771H87.428V40.3224H84.1875V35.2381H87.3793V35.7895H84.8599V37.4113H87.0634L87.0715 37.9708Z" fill="white"/>
<path d="M182 22.9206H179.569V29.5537H177.601V22.9206H175.17V21.3799H181.967L182 22.9206ZM172.651 27.3886C172.657 27.26 172.632 27.1319 172.578 27.0149C172.525 26.8978 172.444 26.7952 172.343 26.7156C172.014 26.4978 171.653 26.3311 171.274 26.2209C170.848 26.0814 170.432 25.9162 170.026 25.7263C169.58 25.568 169.19 25.2796 168.909 24.8981C168.627 24.5166 168.466 24.0594 168.447 23.5855C168.44 23.156 168.577 22.7365 168.835 22.3935C169.127 22.0256 169.513 21.745 169.953 21.5826C170.471 21.3878 171.021 21.2916 171.574 21.2988C172.114 21.2899 172.65 21.3978 173.145 21.6151C173.581 21.8006 173.955 22.1073 174.223 22.499C174.483 22.8899 174.619 23.3508 174.612 23.8207H172.651C172.66 23.6782 172.638 23.5354 172.586 23.4024C172.534 23.2693 172.454 23.1492 172.351 23.0504C172.125 22.8598 171.836 22.7613 171.541 22.7747C171.253 22.7635 170.969 22.8459 170.731 23.0098C170.632 23.0708 170.551 23.1561 170.494 23.2576C170.437 23.3591 170.408 23.4734 170.408 23.5896C170.408 23.7058 170.437 23.8201 170.494 23.9216C170.551 24.0231 170.632 24.1084 170.731 24.1694C171.094 24.4029 171.49 24.5806 171.906 24.6965C172.387 24.8416 172.851 25.0373 173.291 25.2803C173.685 25.4716 174.018 25.7698 174.252 26.1411C174.485 26.5124 174.61 26.9418 174.612 27.3805C174.623 27.7052 174.556 28.0278 174.414 28.3203C174.273 28.6128 174.063 28.8664 173.801 29.059C173.153 29.4973 172.379 29.7109 171.598 29.6672C170.983 29.6744 170.373 29.5529 169.808 29.3104C169.319 29.1108 168.899 28.7726 168.6 28.3373C168.329 27.9145 168.188 27.4209 168.195 26.9183H170.164C170.15 27.094 170.173 27.2707 170.232 27.437C170.29 27.6032 170.383 27.7553 170.504 27.8832C170.82 28.1147 171.208 28.2242 171.598 28.1914C171.87 28.205 172.14 28.1311 172.367 27.9805C172.465 27.9103 172.543 27.8157 172.592 27.7062C172.642 27.5966 172.662 27.476 172.651 27.3562V27.3886ZM167.094 26.0993H164.015V28.0454H167.653V29.5537H162.055V21.4448H167.669V22.9206H164.015V24.6397H167.094V26.0993ZM157.656 27.3075L159.276 21.3799H161.463L158.725 29.4888H156.586L153.865 21.3799H156.036L157.656 27.3075ZM153.257 29.5213H151.305L148.429 24.4532V29.5213H146.468V21.4124H148.429L151.305 26.4804V21.3799H153.257V29.5213ZM145.099 29.5213H143.147V21.4124H145.099V29.5213ZM139.023 28.5157C138.653 28.89 138.197 29.1684 137.695 29.3266C137.079 29.5365 136.433 29.6406 135.783 29.6348C135.313 29.6567 134.843 29.5809 134.404 29.412C133.965 29.2431 133.565 28.9849 133.231 28.6536C132.56 27.9064 132.196 26.9334 132.21 25.929V25.2316C132.193 24.5089 132.337 23.7915 132.631 23.1314C132.891 22.5592 133.314 22.0766 133.847 21.7448C134.401 21.4193 135.035 21.2537 135.677 21.2664C136.521 21.2152 137.355 21.462 138.035 21.9638C138.33 22.2258 138.568 22.5447 138.737 22.9015C138.905 23.2582 139 23.6454 139.015 24.0396H137.128C137.104 23.6729 136.949 23.3272 136.69 23.0666C136.421 22.8555 136.083 22.7516 135.742 22.7747C135.514 22.7678 135.287 22.8221 135.087 22.9318C134.886 23.0416 134.718 23.2028 134.6 23.399C134.3 23.9466 134.16 24.5675 134.195 25.1911V25.6776C134.149 26.3159 134.293 26.9535 134.608 27.5102C134.757 27.7157 134.955 27.88 135.185 27.9878C135.414 28.0956 135.668 28.1433 135.92 28.1265C136.331 28.1624 136.739 28.0406 137.063 27.7859V26.521H135.702V25.1668H139.023V28.5157ZM131.117 29.5213H129.172L126.288 24.4532V29.5213H124.328V21.4124H126.288L129.164 26.4804V21.3799H131.117V29.5213ZM121.322 25.2722C121.361 24.6329 121.221 23.9954 120.917 23.4315C120.798 23.2319 120.628 23.0679 120.424 22.9566C120.221 22.8454 119.991 22.7909 119.759 22.799C118.77 22.799 118.252 23.5369 118.203 25.0208V25.6128C118.165 26.2537 118.302 26.8931 118.6 27.4616C118.719 27.6652 118.892 27.8324 119.099 27.9453C119.306 28.0582 119.539 28.1124 119.775 28.1022C120.005 28.1117 120.233 28.0577 120.435 27.9462C120.636 27.8346 120.803 27.6698 120.917 27.4697C121.222 26.9119 121.365 26.28 121.33 25.6452L121.322 25.2722ZM123.315 25.6209C123.328 26.3475 123.179 27.0679 122.878 27.7292C122.604 28.3112 122.168 28.8013 121.622 29.1401C121.062 29.4761 120.419 29.6475 119.767 29.6348C119.122 29.6452 118.486 29.4798 117.928 29.1563C117.385 28.832 116.948 28.3556 116.672 27.7859C116.363 27.1491 116.203 26.4505 116.202 25.7425V25.2884C116.188 24.559 116.337 23.8357 116.64 23.172C116.909 22.5873 117.346 22.0962 117.895 21.761C118.458 21.4248 119.104 21.2534 119.759 21.2664C120.406 21.2536 121.044 21.4252 121.598 21.761C122.145 22.0932 122.584 22.5779 122.861 23.1558C123.172 23.8086 123.328 24.5247 123.315 25.2479V25.6209ZM112.549 28.013H115.967V29.5213H110.588V21.4124H112.549V28.013ZM102.358 26.4885H104.099L103.224 23.6585L102.358 26.4885ZM104.569 27.9968H101.888L101.418 29.5213H99.3277L102.309 21.4124H104.188L107.194 29.5213H105.088L104.569 27.9968ZM97.0594 25.2722C97.1023 24.6325 96.9618 23.9939 96.6543 23.4315C96.5355 23.2319 96.3653 23.0679 96.1615 22.9566C95.9577 22.8454 95.7279 22.7909 95.4959 22.799C94.5156 22.799 93.9971 23.5369 93.9404 25.0208V25.6128C93.9058 26.2534 94.0429 26.8917 94.3374 27.4616C94.4585 27.6652 94.6324 27.8323 94.8406 27.9451C95.0488 28.0578 95.2836 28.1121 95.5202 28.1022C95.7497 28.1091 95.9769 28.0539 96.1779 27.9427C96.3789 27.8314 96.5463 27.668 96.6624 27.4697C96.964 26.9109 97.1042 26.2792 97.0675 25.6452L97.0594 25.2722ZM99.0522 25.6209C99.0656 26.3475 98.9161 27.0679 98.6148 27.7292C98.3454 28.3138 97.9083 28.805 97.3591 29.1401C96.8019 29.475 96.1619 29.6464 95.512 29.6348C94.8644 29.6462 94.2258 29.4809 93.665 29.1563C93.1248 28.8284 92.6892 28.353 92.4094 27.7859C92.1003 27.1491 91.9396 26.4505 91.9395 25.7425V25.2884C91.9249 24.559 92.0744 23.8357 92.3769 23.172C92.6463 22.5873 93.0834 22.0962 93.6326 21.761C94.1957 21.426 94.8409 21.2547 95.4959 21.2664C96.1457 21.2547 96.7857 21.4261 97.3429 21.761C97.8861 22.0962 98.3218 22.5803 98.5986 23.1558C98.9096 23.8086 99.0649 24.5247 99.0522 25.2479V25.6209ZM90.9511 29.5213H88.9988V26.1642H86.1148V29.5618H84.1543V21.4529H86.1148V24.6965H88.9988V21.4529H90.9511V29.5213Z" fill="white"/>
</g>
<defs>
<clipPath id="clip0_302_645">
<rect width="182" height="56" fill="white" transform="translate(0 0.953125)"/>
</clipPath>
</defs>
</svg>
