<svg width="183" height="56" viewBox="0 0 183 56" fill="none" xmlns="http://www.w3.org/2000/svg">
<g clip-path="url(#clip0_303_1478)">
<path fill-rule="evenodd" clip-rule="evenodd" d="M86.235 56C69.6033 49.8535 52.5829 33.1816 52.591 14.6447V2.35157L49.1885 0L45.7617 2.36778V14.4257C46.2235 20.3371 46.8716 23.7185 49.1966 28.9812C55.6046 40.7066 65.7391 51.1509 78.8548 56H86.235Z" fill="#1B3659"/>
<path fill-rule="evenodd" clip-rule="evenodd" d="M98.169 55.9997C75.2833 45.3932 66.202 31.7622 65.5377 11.3035L59.713 7.24902C59.1135 30.2864 71.0545 47.3961 91.5666 55.9753L98.169 55.9997Z" fill="#1B3659"/>
<path fill-rule="evenodd" clip-rule="evenodd" d="M72.4717 55.9996C61.3975 51.9046 52.1622 45.6527 45.7866 34.2597C43.6325 30.666 41.8492 26.8622 40.4642 22.9073C38.918 17.8682 38.2923 12.5914 38.6171 7.33008L32.8086 11.344C33.6204 20.9119 36.959 30.0918 42.4823 37.943C48.0056 45.7941 55.515 52.0343 64.241 56.024L72.4717 55.9996Z" fill="#1B3659"/>
<path fill-rule="evenodd" clip-rule="evenodd" d="M12.1191 56C28.7508 49.8535 45.7712 33.1816 45.755 14.6447V2.35157L49.1656 0L52.5924 2.36778V14.4257C52.1306 20.3371 51.4825 23.7185 49.1575 28.9812C42.7495 40.7066 32.615 51.1509 19.4993 56H12.1191Z" fill="#08783C"/>
<path fill-rule="evenodd" clip-rule="evenodd" d="M0.185547 55.9997C23.0712 45.3932 32.1526 31.7622 32.8169 11.3035L38.6335 7.24902C39.2411 30.2864 27.2919 47.3961 6.78796 55.9753L0.185547 55.9997Z" fill="#08783C"/>
<path fill-rule="evenodd" clip-rule="evenodd" d="M25.8828 55.9996C36.9571 51.9046 46.1923 45.6527 52.5598 34.2597C54.7197 30.6679 56.5059 26.8638 57.8904 22.9073C59.4539 17.9365 59.7374 12.6576 59.7374 7.33008L65.5459 11.344C64.7325 20.9114 61.3932 30.0906 55.8701 37.9415C50.347 45.7924 42.8385 52.0329 34.1136 56.024L25.8828 55.9996Z" fill="#08783C"/>
<path d="M180.533 38.4121L181.416 35.5821H182.105L180.59 39.9447C180.549 40.0339 180.509 40.1393 180.452 40.2447C180.396 40.3585 180.322 40.4626 180.233 40.5529C180.138 40.6623 180.019 40.7489 179.886 40.8064C179.753 40.8639 179.608 40.8909 179.464 40.8853H179.374H179.269H179.172C179.151 40.8912 179.128 40.8912 179.107 40.8853V40.3664H179.318C179.415 40.3757 179.512 40.3757 179.609 40.3664C179.688 40.3446 179.762 40.3089 179.828 40.261C179.897 40.2077 179.955 40.1416 179.998 40.0663C180.057 39.9768 180.101 39.8782 180.128 39.7744L180.274 39.3933L178.929 35.6551H179.634L180.533 38.4121ZM176.482 36.166H176.328H176.166C175.975 36.1575 175.785 36.2085 175.624 36.3119C175.48 36.405 175.369 36.5413 175.308 36.7012V39.3852H174.66V35.6065H175.267V35.9795C175.358 35.8287 175.483 35.701 175.632 35.6065C175.794 35.5114 175.979 35.4637 176.166 35.4686H176.328H176.45L176.482 36.166ZM171.046 34.6658V35.5821H171.751V36.0849H171.046V38.4121C171.032 38.4899 171.032 38.5695 171.046 38.6473C171.068 38.6983 171.098 38.745 171.136 38.7851C171.177 38.8148 171.224 38.8368 171.273 38.85H171.427H171.597H171.735V39.3771L171.533 39.4257C171.436 39.4352 171.338 39.4352 171.241 39.4257C171.125 39.428 171.01 39.4087 170.901 39.369C170.798 39.336 170.704 39.2806 170.625 39.2068C170.538 39.1182 170.474 39.0096 170.439 38.8906C170.4 38.7342 170.389 38.5723 170.406 38.4121V36.0606H169.718V35.5578H170.406V34.6415L171.046 34.6658ZM166.526 38.3554C166.534 38.2907 166.534 38.2254 166.526 38.1608C166.499 38.0956 166.457 38.0374 166.405 37.9905C166.324 37.9258 166.234 37.8738 166.137 37.8364C165.991 37.7785 165.839 37.7351 165.684 37.7067C165.481 37.658 165.287 37.6093 165.125 37.5526C164.974 37.4962 164.83 37.4227 164.695 37.3337C164.581 37.2554 164.489 37.1494 164.428 37.0255C164.361 36.9012 164.327 36.7614 164.331 36.6201C164.33 36.4739 164.363 36.3296 164.428 36.1984C164.496 36.0607 164.593 35.9391 164.711 35.8416C164.844 35.7383 164.991 35.6563 165.149 35.5983C165.335 35.538 165.529 35.5079 165.724 35.5092C165.931 35.5059 166.136 35.5388 166.332 35.6065C166.497 35.662 166.651 35.7471 166.785 35.8578C166.904 35.9612 167.001 36.0882 167.069 36.2308C167.133 36.3763 167.167 36.5338 167.166 36.693H166.518C166.517 36.6123 166.5 36.5325 166.469 36.4579C166.43 36.382 166.378 36.3134 166.315 36.2552C166.241 36.19 166.156 36.1379 166.064 36.1011C165.956 36.06 165.84 36.0407 165.724 36.0443C165.609 36.0416 165.494 36.0581 165.384 36.093C165.299 36.1204 165.22 36.1615 165.149 36.2146C165.094 36.2643 165.049 36.3251 165.019 36.393C164.99 36.4566 164.976 36.526 164.979 36.5957C164.966 36.66 164.966 36.7261 164.979 36.7903C165.005 36.8515 165.051 36.9026 165.108 36.9363C165.191 36.9923 165.281 37.036 165.376 37.066C165.518 37.1156 165.664 37.1536 165.813 37.1796C166.018 37.2238 166.219 37.2862 166.413 37.3661C166.567 37.4222 166.712 37.5015 166.842 37.6012C166.945 37.6842 167.028 37.7896 167.085 37.9094C167.143 38.0365 167.171 38.1752 167.166 38.3148C167.167 38.4715 167.134 38.6266 167.069 38.7689C166.996 38.9063 166.894 39.0255 166.769 39.1176C166.63 39.2229 166.474 39.3026 166.307 39.3528C166.115 39.4063 165.916 39.4336 165.716 39.4339C165.49 39.4357 165.266 39.4001 165.052 39.3284C164.874 39.2667 164.71 39.1733 164.566 39.0527C164.443 38.9395 164.341 38.8048 164.266 38.6554C164.202 38.5125 164.169 38.3578 164.169 38.2013H164.817C164.821 38.3185 164.854 38.4329 164.914 38.5338C164.967 38.6217 165.039 38.6965 165.125 38.7527C165.212 38.8071 165.308 38.8455 165.408 38.8662C165.509 38.8917 165.612 38.9053 165.716 38.9068C165.833 38.9072 165.95 38.8936 166.064 38.8662C166.154 38.8389 166.238 38.7979 166.315 38.7446C166.381 38.7026 166.434 38.6438 166.469 38.5743C166.513 38.5012 166.533 38.4161 166.526 38.331V38.3554ZM160.555 38.9879C160.436 39.131 160.283 39.2424 160.11 39.3122C159.902 39.3979 159.679 39.4393 159.454 39.4339C159.283 39.4379 159.112 39.4104 158.951 39.3528C158.801 39.3024 158.665 39.2161 158.555 39.1014C158.438 38.9801 158.352 38.8328 158.303 38.6716C158.241 38.4612 158.211 38.2424 158.214 38.0229V35.5902H158.862V38.0229C158.857 38.1656 158.877 38.3082 158.919 38.4446C158.95 38.5417 159.003 38.6305 159.073 38.704C159.136 38.7678 159.214 38.8151 159.3 38.8419C159.386 38.8543 159.473 38.8543 159.559 38.8419C159.779 38.8514 159.997 38.801 160.191 38.6959C160.346 38.6 160.468 38.4584 160.539 38.2905V35.5416H161.187V39.3203H160.572L160.555 38.9879ZM152.527 37.5121C152.529 37.6918 152.548 37.871 152.584 38.0472C152.618 38.2037 152.681 38.3524 152.77 38.4851C152.848 38.606 152.953 38.7062 153.078 38.777C153.215 38.8515 153.368 38.8879 153.524 38.8824C153.628 38.8825 153.731 38.8689 153.832 38.8419C153.921 38.8174 154.005 38.7792 154.083 38.7284C154.155 38.6805 154.22 38.6232 154.277 38.5581C154.333 38.4874 154.382 38.4114 154.423 38.331V36.5957C154.343 36.4425 154.226 36.3115 154.083 36.2146C154.009 36.1635 153.926 36.1252 153.84 36.1011C153.739 36.0741 153.636 36.0605 153.532 36.0606C153.373 36.0577 153.217 36.0968 153.078 36.1741C152.953 36.2449 152.848 36.3451 152.77 36.466C152.681 36.6017 152.618 36.7529 152.584 36.912C152.548 37.0854 152.529 37.2619 152.527 37.4391V37.5121ZM151.879 37.4391C151.875 37.1645 151.913 36.891 151.993 36.6282C152.053 36.408 152.154 36.2016 152.292 36.02C152.419 35.8546 152.582 35.7204 152.769 35.6276C152.956 35.5349 153.161 35.486 153.37 35.4848C153.579 35.4795 153.786 35.521 153.977 35.6065C154.148 35.6835 154.3 35.797 154.423 35.9389V33.9766H155.071V39.3366H154.48V38.9311C154.356 39.0811 154.201 39.2028 154.026 39.2879C153.829 39.3724 153.616 39.4138 153.402 39.4095C153.191 39.4133 152.981 39.363 152.795 39.2636C152.61 39.168 152.45 39.0322 152.325 38.8662C152.187 38.6847 152.085 38.4782 152.025 38.2581C151.949 38.0084 151.911 37.7487 151.912 37.4877L151.879 37.4391ZM146.549 35.5821V36.0606C146.677 35.8897 146.844 35.7509 147.035 35.6551C147.393 35.4866 147.802 35.4633 148.177 35.5902C148.322 35.6379 148.453 35.7216 148.558 35.8335C148.67 35.9535 148.753 36.0978 148.801 36.2552C148.861 36.4604 148.888 36.6739 148.882 36.8877V39.3609H148.242V36.8795C148.245 36.7534 148.228 36.6276 148.193 36.5065C148.166 36.4095 148.116 36.3205 148.047 36.247C147.982 36.1816 147.901 36.1341 147.812 36.1092C147.705 36.0755 147.593 36.059 147.48 36.0606C147.283 36.057 147.09 36.1167 146.929 36.2308C146.772 36.3451 146.644 36.4952 146.557 36.6687V39.3609H145.917V35.5821H146.549ZM142.66 39.3609H141.988V34.2766H142.66V39.3609ZM130.808 35.5821V36.0038C130.937 35.8495 131.097 35.725 131.278 35.6389C131.483 35.5515 131.703 35.5074 131.926 35.5092C132.151 35.5045 132.373 35.5546 132.574 35.6551C132.765 35.7561 132.917 35.9191 133.004 36.1173C133.134 35.9368 133.303 35.7873 133.498 35.6794C133.716 35.5607 133.962 35.502 134.211 35.5092C134.392 35.5085 134.572 35.5359 134.745 35.5902C134.895 35.6417 135.031 35.7278 135.142 35.8416C135.255 35.9616 135.338 36.1059 135.385 36.2633C135.447 36.4627 135.477 36.6707 135.474 36.8795V39.3609H134.826V36.8714C134.831 36.7393 134.812 36.6075 134.77 36.4822C134.734 36.3878 134.679 36.3021 134.608 36.2308C134.534 36.1655 134.445 36.1208 134.348 36.1011C134.24 36.0741 134.128 36.0605 134.016 36.0606C133.897 36.0603 133.779 36.0823 133.668 36.1254C133.568 36.1626 133.477 36.2206 133.401 36.2957C133.328 36.368 133.271 36.4533 133.23 36.5471C133.186 36.6446 133.159 36.7487 133.149 36.8552V39.3609H132.501V36.8795C132.502 36.753 132.483 36.6271 132.445 36.5065C132.409 36.4098 132.354 36.3214 132.283 36.247C132.21 36.1794 132.12 36.1319 132.023 36.1092C131.916 36.0755 131.804 36.059 131.691 36.0606C131.496 36.0499 131.302 36.1041 131.14 36.2146C130.999 36.3108 130.89 36.446 130.824 36.6038V39.3609H130.176V35.5821H130.808ZM125.737 36.0443C125.614 36.0434 125.493 36.0683 125.38 36.1173C125.272 36.1669 125.173 36.2355 125.089 36.32C124.997 36.4206 124.924 36.5357 124.87 36.6606C124.813 36.8094 124.775 36.9647 124.757 37.1228H126.66V37.0742C126.657 36.948 126.638 36.8227 126.604 36.7012C126.571 36.5827 126.519 36.4704 126.45 36.3687C126.375 36.2718 126.282 36.1916 126.174 36.1335C126.04 36.06 125.89 36.021 125.737 36.02V36.0443ZM125.818 39.4339C125.573 39.4351 125.331 39.3883 125.105 39.296C124.9 39.2078 124.715 39.078 124.562 38.9149C124.407 38.7495 124.288 38.5533 124.214 38.3392C124.131 38.1021 124.09 37.8524 124.092 37.6012V37.4553C124.087 37.1787 124.134 36.9036 124.23 36.6444C124.31 36.4172 124.434 36.2079 124.595 36.0281C124.742 35.8685 124.922 35.7415 125.121 35.6551C125.314 35.5664 125.524 35.5194 125.737 35.5172C125.98 35.5124 126.221 35.5623 126.442 35.6632C126.631 35.7512 126.795 35.885 126.92 36.0524C127.051 36.2271 127.147 36.4253 127.203 36.6363C127.263 36.8776 127.293 37.1255 127.292 37.3742V37.6012H124.732C124.736 37.7671 124.766 37.9313 124.821 38.0878C124.869 38.2344 124.946 38.3696 125.048 38.4851C125.142 38.6002 125.261 38.6918 125.397 38.7527C125.541 38.8208 125.699 38.8541 125.858 38.85C126.06 38.8571 126.26 38.8064 126.434 38.704C126.596 38.6141 126.737 38.4895 126.847 38.3392L127.244 38.6473C127.18 38.744 127.107 38.8337 127.025 38.9149C126.934 39.0039 126.833 39.0828 126.725 39.15C126.448 39.3038 126.135 39.3821 125.818 39.3771V39.4339ZM120.641 34.6658V35.5821H121.346V36.0849H120.641V38.4121C120.627 38.4899 120.627 38.5695 120.641 38.6473C120.662 38.6983 120.693 38.745 120.73 38.7851C120.772 38.8148 120.819 38.8368 120.868 38.85H121.022H121.192H121.33V39.3771L121.127 39.4257C121.03 39.4352 120.933 39.4352 120.836 39.4257C120.72 39.428 120.604 39.4087 120.495 39.369C120.393 39.336 120.299 39.2806 120.22 39.2068C120.133 39.1182 120.069 39.0096 120.034 38.8906C119.981 38.7366 119.957 38.5747 119.961 38.4121V36.0606H119.272V35.5578H119.961V34.6415L120.641 34.6658ZM116.129 38.331C116.137 38.2664 116.137 38.2011 116.129 38.1364C116.102 38.0713 116.06 38.0131 116.007 37.9661C115.927 37.9014 115.836 37.8495 115.74 37.8121C115.593 37.7554 115.441 37.7119 115.286 37.6823C115.084 37.6337 114.889 37.585 114.727 37.5283C114.576 37.4735 114.431 37.4 114.298 37.3093C114.181 37.2322 114.085 37.1259 114.022 37.0008C113.958 36.8757 113.927 36.7361 113.933 36.5957C113.933 36.4496 113.966 36.3052 114.031 36.1741C114.099 36.0364 114.196 35.9148 114.314 35.8173C114.447 35.714 114.594 35.6319 114.752 35.574C114.937 35.5136 115.132 35.4835 115.327 35.4848C115.534 35.4816 115.739 35.5145 115.934 35.5821C116.099 35.6395 116.252 35.7245 116.388 35.8335C116.507 35.9369 116.604 36.0639 116.672 36.2065C116.736 36.352 116.769 36.5095 116.769 36.6687H116.121C116.118 36.5852 116.097 36.5031 116.061 36.4278C116.025 36.3524 115.973 36.2854 115.91 36.2308C115.84 36.164 115.757 36.1116 115.667 36.0768C115.559 36.0356 115.443 36.0163 115.327 36.02C115.212 36.0167 115.096 36.0331 114.987 36.0686C114.902 36.096 114.823 36.1371 114.752 36.1903C114.696 36.2399 114.652 36.3007 114.622 36.3687C114.607 36.4354 114.607 36.5047 114.622 36.5714C114.609 36.6356 114.609 36.7018 114.622 36.766C114.649 36.8271 114.694 36.8782 114.752 36.912C114.834 36.9679 114.924 37.0117 115.019 37.0417C115.162 37.0913 115.308 37.1293 115.457 37.1553C115.661 37.2007 115.862 37.263 116.056 37.3417C116.208 37.3965 116.351 37.4759 116.477 37.5769C116.589 37.6578 116.678 37.7658 116.736 37.8906C116.794 38.0155 116.819 38.1531 116.809 38.2905C116.811 38.4472 116.778 38.6023 116.712 38.7446C116.64 38.882 116.537 39.0012 116.412 39.0933C116.274 39.1986 116.117 39.2783 115.951 39.3284C115.758 39.382 115.559 39.4093 115.359 39.4095C115.134 39.4114 114.909 39.3758 114.695 39.3041C114.518 39.2423 114.353 39.1489 114.209 39.0284C114.086 38.9152 113.984 38.7805 113.909 38.6311C113.845 38.4882 113.812 38.3335 113.812 38.177H114.46C114.458 38.294 114.489 38.4093 114.549 38.5094C114.605 38.5977 114.68 38.6725 114.768 38.7284C114.854 38.7839 114.951 38.8224 115.051 38.8419C115.152 38.8679 115.255 38.8815 115.359 38.8824C115.477 38.8824 115.593 38.8688 115.708 38.8419C115.797 38.8146 115.882 38.7735 115.959 38.7203C116.022 38.6759 116.075 38.6177 116.113 38.55C116.135 38.4792 116.14 38.4043 116.129 38.331ZM109.648 38.3878L110.531 35.5578H111.22L109.648 39.9204C109.612 40.0234 109.569 40.1237 109.518 40.2204C109.462 40.3342 109.389 40.4382 109.3 40.5285C109.206 40.6272 109.096 40.7094 108.976 40.7718C108.835 40.8324 108.683 40.8628 108.53 40.861H108.441H108.336H108.238H108.165V40.342H108.344C108.441 40.3508 108.538 40.3508 108.635 40.342C108.714 40.3203 108.788 40.2846 108.854 40.2366C108.923 40.1834 108.981 40.1173 109.024 40.042C109.08 39.9507 109.123 39.8526 109.154 39.7501L109.3 39.369L107.955 35.6308H108.66L109.648 38.3878ZM104.787 38.331C104.795 38.2664 104.795 38.2011 104.787 38.1364C104.76 38.0713 104.719 38.0131 104.666 37.9661C104.585 37.9014 104.495 37.8495 104.398 37.8121C104.251 37.7554 104.1 37.7119 103.945 37.6823C103.742 37.6337 103.548 37.585 103.386 37.5283C103.234 37.4735 103.09 37.4 102.956 37.3093C102.843 37.2311 102.751 37.125 102.689 37.0012C102.622 36.8768 102.588 36.7371 102.592 36.5957C102.591 36.4496 102.625 36.3052 102.689 36.1741C102.757 36.0364 102.854 35.9148 102.973 35.8173C103.105 35.714 103.253 35.6319 103.41 35.574C103.596 35.5136 103.79 35.4835 103.985 35.4848C104.192 35.4816 104.398 35.5145 104.593 35.5821C104.758 35.6376 104.912 35.7228 105.047 35.8335C105.166 35.9369 105.262 36.0639 105.33 36.2065C105.395 36.352 105.428 36.5095 105.427 36.6687H104.779C104.778 36.588 104.761 36.5082 104.731 36.4336C104.691 36.3577 104.639 36.2891 104.577 36.2308C104.502 36.1656 104.417 36.1135 104.326 36.0768C104.217 36.0356 104.101 36.0163 103.985 36.02C103.87 36.0167 103.755 36.0331 103.645 36.0686C103.561 36.096 103.481 36.1371 103.41 36.1903C103.355 36.2399 103.311 36.3007 103.281 36.3687C103.252 36.4323 103.238 36.5016 103.24 36.5714C103.227 36.6356 103.227 36.7018 103.24 36.766C103.267 36.8271 103.312 36.8782 103.37 36.912C103.452 36.9679 103.542 37.0117 103.637 37.0417C103.779 37.0913 103.926 37.1293 104.074 37.1553C104.279 37.2007 104.48 37.263 104.674 37.3417C104.828 37.3979 104.973 37.4772 105.103 37.5769C105.204 37.662 105.287 37.7669 105.346 37.8851C105.404 38.0122 105.432 38.1509 105.427 38.2905C105.429 38.4472 105.396 38.6023 105.33 38.7446C105.258 38.882 105.155 39.0012 105.03 39.0933C104.892 39.1986 104.735 39.2783 104.569 39.3284C104.376 39.382 104.177 39.4093 103.977 39.4095C103.751 39.4114 103.527 39.3758 103.313 39.3041C103.136 39.2423 102.971 39.1489 102.827 39.0284C102.704 38.9152 102.602 38.7805 102.527 38.6311C102.463 38.4882 102.43 38.3335 102.43 38.177H103.078C103.074 38.2953 103.108 38.4117 103.175 38.5094C103.228 38.5974 103.3 38.6722 103.386 38.7284C103.473 38.7827 103.569 38.8212 103.669 38.8419C103.77 38.8679 103.873 38.8815 103.977 38.8824C104.094 38.8824 104.211 38.8688 104.326 38.8419C104.415 38.8146 104.5 38.7735 104.577 38.7203C104.642 38.6782 104.695 38.6194 104.731 38.55C104.753 38.4791 104.756 38.4034 104.739 38.331H104.787ZM96.832 37.5201C96.8321 37.7005 96.8539 37.8802 96.8968 38.0553C96.936 38.2153 97.0047 38.3666 97.0993 38.5013C97.1877 38.6236 97.3009 38.7259 97.4315 38.8014C97.6428 38.9185 97.8902 38.9526 98.1253 38.8972C98.3604 38.8417 98.5665 38.7006 98.7034 38.5013C98.7948 38.3648 98.8632 38.2141 98.9059 38.0553C98.9528 37.8809 98.9747 37.7007 98.9707 37.5201V37.4472C98.9741 37.2666 98.9523 37.0865 98.9059 36.912C98.8632 36.7532 98.7948 36.6025 98.7034 36.466C98.6141 36.3415 98.4977 36.239 98.3631 36.166C98.2188 36.0885 98.057 36.0494 97.8932 36.0524C97.7321 36.0497 97.573 36.0888 97.4315 36.166C97.3009 36.2414 97.1877 36.3437 97.0993 36.466C97.0047 36.6007 96.936 36.752 96.8968 36.912C96.8544 37.0872 96.8326 37.2668 96.832 37.4472V37.5201ZM96.1839 37.4472C96.1814 37.1881 96.2225 36.9304 96.3054 36.6849C96.3811 36.4608 96.4964 36.2521 96.6457 36.0686C96.7947 35.8987 96.9765 35.7607 97.1803 35.6632C97.4072 35.5671 97.651 35.5176 97.8973 35.5176C98.1436 35.5176 98.3874 35.5671 98.6143 35.6632C98.8217 35.7586 99.0066 35.8967 99.157 36.0686C99.3123 36.248 99.4282 36.4579 99.4973 36.6849C99.5802 36.9304 99.6213 37.1881 99.6188 37.4472V37.5201C99.6219 37.7793 99.5808 38.0371 99.4973 38.2824C99.4292 38.5074 99.3131 38.7149 99.157 38.8906C99.0102 39.0628 98.8278 39.2012 98.6224 39.296C98.3952 39.3957 98.1493 39.4455 97.9014 39.4419C97.6559 39.4461 97.4125 39.3963 97.1884 39.296C96.981 39.2006 96.7961 39.0625 96.6457 38.8906C96.4948 38.7113 96.3793 38.5049 96.3054 38.2824C96.2219 38.0371 96.1808 37.7793 96.1839 37.5201V37.4472ZM91.9713 38.9149C92.0816 38.9125 92.1909 38.8934 92.2954 38.8581C92.3955 38.8234 92.4888 38.7712 92.5708 38.704C92.6509 38.6374 92.7193 38.558 92.7733 38.4689C92.8199 38.3776 92.85 38.2787 92.8624 38.177H93.4457C93.4374 38.345 93.3903 38.5087 93.308 38.6554C93.2257 38.8092 93.1158 38.9467 92.984 39.0608C92.844 39.1786 92.6851 39.2719 92.5141 39.3366C92.3337 39.4081 92.1411 39.4439 91.947 39.4419C91.6904 39.4452 91.4361 39.3926 91.2017 39.2879C90.9983 39.1899 90.8186 39.0488 90.6751 38.8743C90.5332 38.6971 90.4285 38.493 90.3673 38.2743C90.2949 38.0406 90.2594 37.7972 90.262 37.5526V37.4066C90.2594 37.1621 90.2949 36.9185 90.3673 36.6849C90.4285 36.4662 90.5332 36.2621 90.6751 36.0849C90.82 35.9118 90.9994 35.771 91.2017 35.6713C91.4332 35.5665 91.6849 35.5139 91.9389 35.5172C92.146 35.5171 92.3516 35.5528 92.5465 35.6227C92.717 35.6908 92.8735 35.7898 93.0083 35.9146C93.1427 36.0353 93.248 36.185 93.3161 36.3525C93.3971 36.5195 93.4413 36.702 93.4457 36.8877H92.8381C92.8247 36.7757 92.7947 36.6664 92.749 36.5633C92.705 36.4648 92.6448 36.3743 92.5708 36.2957C92.4886 36.2225 92.3957 36.1624 92.2954 36.1173C92.1815 36.0741 92.0607 36.0521 91.9389 36.0524C91.7661 36.0463 91.595 36.0884 91.4447 36.1741C91.3151 36.2484 91.2064 36.3544 91.1288 36.4822C91.046 36.6166 90.9883 36.765 90.9587 36.9201C90.9265 37.0803 90.9102 37.2432 90.9101 37.4066V37.5526C90.9098 37.7187 90.9261 37.8844 90.9587 38.0472C90.9893 38.2008 91.044 38.3486 91.1207 38.4851C91.2038 38.6112 91.3146 38.7167 91.4447 38.7932C91.5935 38.8644 91.7583 38.8952 91.9227 38.8824L91.9713 38.9149ZM87.2727 37.0174H85.0773V38.8176H87.6291V39.369H84.3887V34.2847H87.5805V34.8361H85.0611V36.4579H87.2565L87.2727 37.0174Z" fill="#08783C"/>
<path d="M182.186 21.9432H179.756V28.5681H177.795V21.9432H175.365V20.4268H182.162L182.186 21.9432ZM172.837 26.4031C172.843 26.2765 172.818 26.1504 172.766 26.035C172.714 25.9195 172.636 25.8178 172.538 25.7381C172.211 25.5139 171.85 25.3441 171.468 25.2354C171.039 25.0993 170.619 24.934 170.213 24.7408C169.766 24.5825 169.377 24.2941 169.095 23.9126C168.814 23.531 168.653 23.0739 168.633 22.6C168.627 22.1692 168.767 21.749 169.03 21.408C169.314 21.0365 169.7 20.7549 170.14 20.5971C170.656 20.3957 171.206 20.2966 171.76 20.3052C172.3 20.2963 172.836 20.4041 173.332 20.6214C173.773 20.8054 174.151 21.1156 174.417 21.5134C174.676 21.9017 174.809 22.3604 174.798 22.8271H172.837C172.851 22.6774 172.83 22.5265 172.777 22.386C172.724 22.2455 172.639 22.119 172.53 22.0162C172.303 21.8277 172.014 21.7295 171.719 21.7405C171.431 21.7299 171.147 21.8123 170.909 21.9756C170.815 22.0421 170.738 22.1309 170.686 22.2341C170.633 22.3373 170.607 22.4519 170.61 22.5676C170.616 22.6818 170.65 22.7928 170.707 22.8915C170.765 22.9902 170.845 23.0737 170.942 23.1352C171.306 23.3718 171.705 23.5496 172.124 23.6623C172.602 23.8091 173.064 24.0048 173.502 24.2461C173.897 24.4366 174.23 24.7347 174.464 25.1061C174.697 25.4776 174.821 25.9074 174.822 26.3463C174.835 26.6711 174.767 26.994 174.626 27.2866C174.485 27.5792 174.274 27.8327 174.012 28.0249C173.364 28.4631 172.59 28.6767 171.809 28.633C171.193 28.6449 170.582 28.5232 170.018 28.2762C169.528 28.0787 169.108 27.74 168.811 27.3032C168.533 26.8835 168.391 26.3877 168.406 25.8841H170.375C170.359 26.0593 170.38 26.2358 170.438 26.4021C170.495 26.5684 170.587 26.7207 170.707 26.8491C171.024 27.0824 171.416 27.192 171.809 27.1572C172.094 27.1785 172.379 27.1044 172.619 26.9464C172.693 26.8774 172.751 26.793 172.789 26.6991C172.826 26.6052 172.843 26.5042 172.837 26.4031ZM167.288 25.1138H164.21V27.0599H167.847V28.5681H162.241V20.4593H167.855V21.9756H164.21V23.6866H167.288V25.1138ZM157.85 26.3544L159.471 20.4268H161.666L158.928 28.5357H156.781L154.067 20.4268H156.238L157.85 26.3544ZM153.451 28.5681H151.499L148.615 23.5001V28.5681H146.655V20.4593H148.615L151.491 25.5273V20.4593H153.451V28.5681ZM145.294 28.5681H143.341V20.4593H145.294V28.5681ZM139.218 27.5626C138.853 27.9398 138.398 28.2187 137.897 28.3735C137.282 28.5826 136.635 28.6868 135.985 28.6817C135.515 28.7036 135.046 28.6278 134.607 28.4589C134.167 28.29 133.768 28.0318 133.433 27.7005C132.761 26.9575 132.396 25.9864 132.413 24.984V24.2786C132.398 23.5552 132.545 22.8378 132.842 22.1784C133.097 21.6052 133.521 21.1241 134.057 20.7998C134.607 20.4681 135.239 20.2994 135.88 20.3133C136.726 20.2636 137.562 20.5102 138.246 21.0107C138.538 21.2745 138.775 21.5938 138.944 21.9502C139.112 22.3065 139.208 22.6928 139.226 23.0865H137.33C137.306 22.7218 137.154 22.3773 136.901 22.1135C136.631 21.9045 136.294 21.8007 135.953 21.8216C135.723 21.8147 135.496 21.8698 135.295 21.9811C135.094 22.0924 134.927 22.2557 134.811 22.4541C134.51 22.9986 134.37 23.617 134.406 24.238V24.7327C134.361 25.3682 134.505 26.0028 134.819 26.5572C134.965 26.7655 135.163 26.932 135.393 27.0401C135.623 27.1482 135.878 27.1942 136.131 27.1734C136.539 27.2072 136.944 27.0855 137.265 26.8329V25.5679H135.896V24.2218H139.218V27.5626ZM131.319 28.5681H129.375L126.491 23.5001V28.5681H124.53V20.4593H126.491L129.367 25.5273V20.4593H131.319V28.5681ZM121.525 24.3272C121.564 23.6852 121.424 23.0449 121.12 22.4784C121 22.2794 120.83 22.1158 120.626 22.0047C120.423 21.8935 120.193 21.8387 119.961 21.8459C118.973 21.8459 118.454 22.5838 118.398 24.0677V24.6678C118.36 25.3061 118.497 25.9427 118.795 26.5085C118.918 26.7045 119.089 26.866 119.292 26.9779C119.494 27.0898 119.722 27.1486 119.953 27.1486C120.185 27.1486 120.412 27.0898 120.615 26.9779C120.817 26.866 120.988 26.7045 121.112 26.5085C121.412 25.9519 121.555 25.3239 121.525 24.6921V24.3272ZM123.518 24.6678C123.534 25.3956 123.381 26.1172 123.072 26.7761C122.803 27.3607 122.366 27.8519 121.816 28.187C121.26 28.5232 120.619 28.6947 119.969 28.6817C119.322 28.6911 118.684 28.5259 118.122 28.2033C117.582 27.8777 117.149 27.4014 116.875 26.8329C116.564 26.1992 116.401 25.5034 116.397 24.7975V24.3353C116.381 23.6075 116.533 22.8859 116.842 22.227C117.108 21.6402 117.546 21.1481 118.098 20.816C118.66 20.4774 119.305 20.3032 119.961 20.3133C120.609 20.3014 121.246 20.4729 121.8 20.808C122.348 21.1434 122.787 21.6307 123.064 22.2108C123.372 22.8617 123.527 23.5746 123.518 24.2948V24.6678ZM112.751 27.0599H116.129V28.5681H110.758V20.4593H112.719L112.751 27.0599ZM102.552 25.5354H104.302L103.427 22.7054L102.552 25.5354ZM104.788 27.0599H102.098L101.628 28.5844H99.5222L102.503 20.4755H104.342L107.348 28.5844H105.242L104.788 27.0599ZM97.2782 24.3434C97.3177 23.7014 97.1775 23.0611 96.8731 22.4946C96.7543 22.295 96.5841 22.131 96.3803 22.0197C96.1765 21.9085 95.9466 21.854 95.7146 21.8621C94.7344 21.8621 94.2078 22.6 94.1592 24.0839V24.684C94.1212 25.3223 94.2585 25.9589 94.5562 26.5247C94.6805 26.7206 94.8522 26.882 95.0554 26.9938C95.2587 27.1055 95.4868 27.1641 95.7187 27.1641C95.9506 27.1641 96.1787 27.1055 96.3819 26.9938C96.5851 26.882 96.7569 26.7206 96.8812 26.5247C97.1781 25.9672 97.3181 25.3393 97.2862 24.7083L97.2782 24.3434ZM99.271 24.684C99.2844 25.4107 99.1349 26.1311 98.8336 26.7923C98.5642 27.3769 98.1271 27.8681 97.5779 28.2033C97.0182 28.5392 96.3753 28.7106 95.7227 28.6979C95.0777 28.7083 94.4421 28.5429 93.8838 28.2195C93.3406 27.8951 92.9041 27.4187 92.6281 26.8491C92.32 26.2148 92.1593 25.519 92.1582 24.8137V24.3515C92.1449 23.6249 92.2944 22.9045 92.5957 22.2432C92.8651 21.6586 93.3022 21.1674 93.8514 20.8323C94.4133 20.4936 95.0588 20.3195 95.7146 20.3295C96.362 20.3168 96.9998 20.4883 97.5536 20.8242C98.1046 21.1559 98.5445 21.6443 98.8174 22.227C99.1291 22.8767 99.2845 23.5904 99.271 24.311V24.684ZM91.1699 28.5844H89.2256V25.1867H86.3335V28.5844H84.373V20.4755H86.3335V23.719H89.2256V20.4755H91.1699V28.5844Z" fill="#1B3659"/>
</g>
<defs>
<clipPath id="clip0_303_1478">
<rect width="182" height="56" fill="white" transform="translate(0.185547)"/>
</clipPath>
</defs>
</svg>
