<svg width="24" height="106" viewBox="0 0 24 106" fill="none" xmlns="http://www.w3.org/2000/svg">
<path d="M8.19569 28.5365L7.05469 28.5365L7.05469 22.8455L17.0857 22.8455L17.0857 24.1965L8.19569 24.1965L8.19569 28.5365ZM11.3737 33.983C11.663 33.983 11.9267 33.941 12.1647 33.857C12.4074 33.7777 12.615 33.6587 12.7877 33.5C12.965 33.346 13.1004 33.157 13.1937 32.933C13.2917 32.709 13.3407 32.4547 13.3407 32.17C13.3407 31.5727 13.1657 31.099 12.8157 30.749C12.4704 30.4037 11.9897 30.189 11.3737 30.105L11.3737 33.983ZM8.04869 34.991C7.86202 34.837 7.69869 34.6527 7.55869 34.438C7.42335 34.2233 7.31135 33.9923 7.22269 33.745C7.13402 33.5023 7.06869 33.2503 7.02669 32.989C6.98002 32.7277 6.95669 32.4687 6.95669 32.212C6.95669 31.722 7.03835 31.2693 7.20169 30.854C7.36969 30.4433 7.61235 30.0863 7.92969 29.783C8.25169 29.4843 8.64835 29.251 9.11969 29.083C9.59102 28.915 10.1324 28.831 10.7437 28.831C11.2384 28.831 11.7004 28.9057 12.1297 29.055C12.559 29.209 12.93 29.4283 13.2427 29.713C13.56 29.9977 13.8074 30.3453 13.9847 30.756C14.1667 31.1667 14.2577 31.6287 14.2577 32.142C14.2577 32.5667 14.1854 32.9587 14.0407 33.318C13.9007 33.682 13.6954 33.9947 13.4247 34.256C13.1587 34.522 12.8274 34.7297 12.4307 34.879C12.0387 35.0283 11.5907 35.103 11.0867 35.103C10.8907 35.103 10.76 35.082 10.6947 35.04C10.6294 34.998 10.5967 34.9187 10.5967 34.802L10.5967 30.063C10.1487 30.077 9.75902 30.1377 9.42769 30.245C9.09635 30.357 8.81869 30.511 8.59469 30.707C8.37535 30.903 8.20969 31.1363 8.09769 31.407C7.99035 31.6777 7.93669 31.981 7.93669 32.317C7.93669 32.6297 7.97169 32.898 8.04169 33.122C8.11635 33.3507 8.19569 33.5467 8.27969 33.71C8.36369 33.8733 8.44069 34.0087 8.51069 34.116C8.58535 34.228 8.62269 34.3237 8.62269 34.403C8.62269 34.5057 8.58302 34.585 8.50369 34.641L8.04869 34.991ZM15.2377 34.312L15.2377 33.479C15.2377 33.4277 15.247 33.374 15.2657 33.318C15.2844 33.2667 15.3194 33.2153 15.3707 33.164L16.2947 32.303C16.332 32.261 16.3764 32.2237 16.4277 32.191C16.4044 32.1677 16.381 32.1467 16.3577 32.128C16.3344 32.1093 16.3134 32.0907 16.2947 32.072L15.3707 31.204C15.282 31.106 15.2377 31.001 15.2377 30.889L15.2377 30.028L17.0857 31.589L17.0857 32.751L15.2377 34.312ZM13.1167 37.8095C13.2894 37.9635 13.4457 38.1268 13.5857 38.2995C13.7257 38.4722 13.8447 38.6542 13.9427 38.8455C14.0454 39.0415 14.1224 39.2468 14.1737 39.4615C14.2297 39.6808 14.2577 39.9165 14.2577 40.1685C14.2577 40.5558 14.1924 40.8965 14.0617 41.1905C13.9357 41.4892 13.7537 41.7365 13.5157 41.9325C13.2824 42.1332 13 42.2848 12.6687 42.3875C12.3374 42.4902 11.971 42.5415 11.5697 42.5415L7.05469 42.5415L7.05469 41.2885L11.5697 41.2885C12.1064 41.2885 12.5217 41.1648 12.8157 40.9175C13.1144 40.6748 13.2637 40.3038 13.2637 39.8045C13.2637 39.4358 13.175 39.0905 12.9977 38.7685C12.8204 38.4512 12.58 38.1572 12.2767 37.8865L7.05469 37.8865L7.05469 36.6335L14.1457 36.6335L14.1457 37.3825C14.1457 37.5598 14.0594 37.6695 13.8867 37.7115L13.1167 37.8095ZM12.3047 52.6492C12.6174 52.4158 12.8367 52.1638 12.9627 51.8932C13.0887 51.6225 13.1517 51.3192 13.1517 50.9832C13.1517 50.3252 12.9277 49.8188 12.4797 49.4642C12.0317 49.1095 11.3714 48.9322 10.4987 48.9322C10.0367 48.9322 9.64469 48.9718 9.32269 49.0512C9.00069 49.1305 8.73935 49.2472 8.53869 49.4012C8.33802 49.5552 8.19102 49.7442 8.09769 49.9682C8.00902 50.1922 7.96469 50.4465 7.96469 50.7312C7.96469 51.1418 8.05802 51.4988 8.24469 51.8022C8.43135 52.1102 8.69502 52.3925 9.03569 52.6492L12.3047 52.6492ZM15.0557 54.9312L15.0557 53.8952L7.05469 53.8952L7.05469 53.1532C7.05469 52.9758 7.14102 52.8638 7.31369 52.8172L8.18169 52.7052C7.81302 52.4065 7.51669 52.0612 7.29269 51.6692C7.06869 51.2818 6.95669 50.8338 6.95669 50.3252C6.95669 49.9192 7.03135 49.5505 7.18069 49.2192C7.33002 48.8878 7.55169 48.6055 7.84569 48.3722C8.13969 48.1388 8.50835 47.9592 8.95169 47.8332C9.39502 47.7072 9.91069 47.6442 10.4987 47.6442C11.0214 47.6442 11.5044 47.7142 11.9477 47.8542C12.391 47.9942 12.7737 48.1948 13.0957 48.4562C13.4177 48.7175 13.6674 49.0372 13.8447 49.4152C14.0267 49.7978 14.1177 50.2272 14.1177 50.7032C14.1177 51.1372 14.043 51.5082 13.8937 51.8162C13.749 52.1288 13.546 52.4065 13.2847 52.6492L15.0557 52.6492L15.0557 50.9902L15.8467 50.9902L15.8467 52.6492L17.3657 52.6492L17.3657 53.8952L15.8467 53.8952L15.8467 54.9312L15.0557 54.9312ZM10.2467 59.8429C10.228 59.2689 10.1814 58.7789 10.1067 58.3729C10.0367 57.9715 9.94335 57.6425 9.82669 57.3859C9.71002 57.1339 9.57235 56.9495 9.41369 56.8329C9.25502 56.7209 9.07769 56.6649 8.88169 56.6649C8.69502 56.6649 8.53402 56.6952 8.39869 56.7559C8.26335 56.8165 8.15135 56.8982 8.06269 57.0009C7.97869 57.1082 7.91569 57.2319 7.87369 57.3719C7.83635 57.5165 7.81769 57.6705 7.81769 57.8339C7.81769 58.0532 7.83869 58.2539 7.88069 58.4359C7.92735 58.6179 7.99269 58.7882 8.07669 58.9469C8.16069 59.1102 8.26102 59.2642 8.37769 59.4089C8.49435 59.5582 8.62735 59.7029 8.77669 59.8429L10.2467 59.8429ZM13.1447 55.8179C13.5227 56.2099 13.805 56.6322 13.9917 57.0849C14.1784 57.5375 14.2717 58.0392 14.2717 58.5899C14.2717 58.9865 14.2064 59.3389 14.0757 59.6469C13.945 59.9549 13.763 60.2139 13.5297 60.4239C13.2964 60.6339 13.014 60.7925 12.6827 60.8999C12.3514 61.0072 11.9874 61.0609 11.5907 61.0609L7.05469 61.0609L7.05469 60.5079C7.05469 60.3865 7.07335 60.2932 7.11069 60.2279C7.15269 60.1625 7.23202 60.1112 7.34869 60.0739L8.02069 59.9339C7.84802 59.7472 7.69402 59.5652 7.55869 59.3879C7.42802 59.2105 7.31602 59.0239 7.22269 58.8279C7.13402 58.6319 7.06635 58.4219 7.01969 58.1979C6.96835 57.9785 6.94269 57.7335 6.94269 57.4629C6.94269 57.1875 6.98002 56.9285 7.05469 56.6859C7.13402 56.4432 7.25069 56.2309 7.40469 56.0489C7.55869 55.8715 7.75235 55.7292 7.98569 55.6219C8.22369 55.5192 8.50369 55.4679 8.82569 55.4679C9.10569 55.4679 9.37402 55.5449 9.63069 55.6989C9.89202 55.8529 10.123 56.1025 10.3237 56.4479C10.5244 56.7932 10.6877 57.2435 10.8137 57.7989C10.9444 58.3542 11.019 59.0355 11.0377 59.8429L11.5907 59.8429C12.1414 59.8429 12.5567 59.7239 12.8367 59.4859C13.1214 59.2479 13.2637 58.9002 13.2637 58.4429C13.2637 58.1349 13.224 57.8759 13.1447 57.6659C13.07 57.4605 12.9837 57.2809 12.8857 57.1269C12.7924 56.9775 12.706 56.8469 12.6267 56.7349C12.552 56.6275 12.5147 56.5202 12.5147 56.4129C12.5147 56.3289 12.5357 56.2565 12.5777 56.1959C12.6244 56.1352 12.6804 56.0839 12.7457 56.0419L13.1447 55.8179ZM16.6937 56.6019C16.5677 56.4992 16.5 56.3825 16.4907 56.2519C16.4814 56.1212 16.5467 55.9882 16.6867 55.8529L18.1917 54.1869L18.1917 55.4049C18.1917 55.5589 18.166 55.6709 18.1147 55.7409C18.0634 55.8109 17.9864 55.8832 17.8837 55.9579L16.8967 56.7699L16.6937 56.6019ZM15.2377 60.5849L15.2377 59.7519C15.2377 59.6539 15.2704 59.5605 15.3357 59.4719L16.2947 58.5759C16.332 58.5339 16.3764 58.4965 16.4277 58.4639C16.4044 58.4405 16.381 58.4195 16.3577 58.4009C16.3344 58.3822 16.3134 58.3635 16.2947 58.3449L15.3357 57.4419C15.3124 57.4139 15.289 57.3742 15.2657 57.3229C15.247 57.2715 15.2377 57.2179 15.2377 57.1619L15.2377 56.3009L17.0857 57.8619L17.0857 59.0239L15.2377 60.5849ZM14.1457 68.7828L7.05469 68.7828L7.05469 68.0408C7.05469 67.8635 7.14102 67.7515 7.31369 67.7048L8.07669 67.6068C7.73602 67.2988 7.46069 66.9535 7.25069 66.5708C7.04535 66.1882 6.94269 65.7495 6.94269 65.2548C6.94269 64.8675 7.00569 64.5245 7.13169 64.2258C7.26235 63.9318 7.44435 63.6845 7.67769 63.4838C7.91102 63.2832 8.19335 63.1315 8.52469 63.0288C8.85602 62.9308 9.22235 62.8818 9.62369 62.8818L14.1457 62.8818L14.1457 64.1278L9.62369 64.1278C9.08702 64.1278 8.67169 64.2492 8.37769 64.4918C8.08369 64.7392 7.93669 65.1148 7.93669 65.6188C7.93669 65.9875 8.02302 66.3305 8.19569 66.6478C8.37302 66.9698 8.61569 67.2662 8.92369 67.5368L14.1457 67.5368L14.1457 68.7828ZM6.94269 76.5175C6.94269 75.9575 7.09902 75.5258 7.41169 75.2225C7.72435 74.9238 8.17469 74.7745 8.76269 74.7745L13.1027 74.7745L13.1027 73.9205C13.1027 73.8458 13.1237 73.7828 13.1657 73.7315C13.2124 73.6802 13.2824 73.6545 13.3757 73.6545L13.8727 73.6545L14.0197 74.8165L16.2107 75.1035C16.2807 75.1175 16.3367 75.1478 16.3787 75.1945C16.4254 75.2458 16.4487 75.3112 16.4487 75.3905L16.4487 76.0205L14.0057 76.0205L14.0057 78.0715L13.1027 78.0715L13.1027 76.0205L8.84669 76.0205C8.54802 76.0205 8.32635 76.0928 8.18169 76.2375C8.03702 76.3822 7.96469 76.5688 7.96469 76.7975C7.96469 76.9282 7.98102 77.0402 8.01369 77.1335C8.05102 77.2315 8.09069 77.3155 8.13269 77.3855C8.17469 77.4555 8.21202 77.5138 8.24469 77.5605C8.28202 77.6118 8.30069 77.6562 8.30069 77.6935C8.30069 77.7588 8.26102 77.8172 8.18169 77.8685L7.58669 78.2325C7.38602 78.0178 7.22735 77.7588 7.11069 77.4555C6.99869 77.1522 6.94269 76.8395 6.94269 76.5175ZM12.7247 80.5411C13.21 80.7651 13.588 81.0404 13.8587 81.3671C14.134 81.6938 14.2717 82.0928 14.2717 82.5641C14.2717 82.7134 14.2554 82.8558 14.2227 82.9911C14.19 83.1311 14.1387 83.2548 14.0687 83.3621L13.1377 83.2711C13.021 83.2431 12.9627 83.1731 12.9627 83.0611C12.9627 82.9958 12.9767 82.9001 13.0047 82.7741C13.0327 82.6481 13.0467 82.5058 13.0467 82.3471C13.0467 82.1231 13.014 81.9224 12.9487 81.7451C12.8834 81.5724 12.7854 81.4161 12.6547 81.2761C12.5287 81.1408 12.37 81.0171 12.1787 80.9051C11.992 80.7978 11.7774 80.6998 11.5347 80.6111L7.05468 80.6111L7.05468 79.3581L14.1457 79.3581L14.1457 80.0721C14.1457 80.2074 14.12 80.3008 14.0687 80.3521C14.0174 80.4034 13.9287 80.4384 13.8027 80.4571L12.7247 80.5411ZM10.2467 88.1913C10.228 87.6173 10.1814 87.1273 10.1067 86.7213C10.0367 86.32 9.94335 85.991 9.82668 85.7343C9.71002 85.4823 9.57235 85.298 9.41368 85.1813C9.25502 85.0693 9.07768 85.0133 8.88168 85.0133C8.69502 85.0133 8.53402 85.0437 8.39868 85.1043C8.26335 85.165 8.15135 85.2467 8.06268 85.3493C7.97868 85.4567 7.91568 85.5803 7.87368 85.7203C7.83635 85.865 7.81768 86.019 7.81768 86.1823C7.81768 86.4017 7.83868 86.6023 7.88068 86.7843C7.92735 86.9663 7.99268 87.1367 8.07668 87.2953C8.16068 87.4587 8.26102 87.6127 8.37768 87.7573C8.49435 87.9067 8.62735 88.0513 8.77668 88.1913L10.2467 88.1913ZM13.1447 84.1663C13.5227 84.5583 13.805 84.9807 13.9917 85.4333C14.1784 85.886 14.2717 86.3877 14.2717 86.9383C14.2717 87.335 14.2064 87.6873 14.0757 87.9953C13.945 88.3033 13.763 88.5623 13.5297 88.7723C13.2964 88.9823 13.014 89.141 12.6827 89.2483C12.3514 89.3557 11.9874 89.4093 11.5907 89.4093L7.05468 89.4093L7.05468 88.8563C7.05468 88.735 7.07335 88.6417 7.11068 88.5763C7.15268 88.511 7.23202 88.4597 7.34868 88.4223L8.02068 88.2823C7.84802 88.0957 7.69402 87.9137 7.55868 87.7363C7.42802 87.559 7.31602 87.3723 7.22268 87.1763C7.13402 86.9803 7.06635 86.7703 7.01968 86.5463C6.96835 86.327 6.94268 86.082 6.94268 85.8113C6.94268 85.536 6.98002 85.277 7.05468 85.0343C7.13402 84.7917 7.25068 84.5793 7.40468 84.3973C7.55868 84.22 7.75235 84.0777 7.98568 83.9703C8.22368 83.8677 8.50368 83.8163 8.82568 83.8163C9.10568 83.8163 9.37402 83.8933 9.63068 84.0473C9.89202 84.2013 10.123 84.451 10.3237 84.7963C10.5244 85.1417 10.6877 85.592 10.8137 86.1473C10.9444 86.7027 11.019 87.384 11.0377 88.1913L11.5907 88.1913C12.1414 88.1913 12.5567 88.0723 12.8367 87.8343C13.1214 87.5963 13.2637 87.2487 13.2637 86.7913C13.2637 86.4833 13.224 86.2243 13.1447 86.0143C13.07 85.809 12.9837 85.6293 12.8857 85.4753C12.7924 85.326 12.706 85.1953 12.6267 85.0833C12.552 84.976 12.5147 84.8687 12.5147 84.7613C12.5147 84.6773 12.5357 84.605 12.5777 84.5443C12.6244 84.4837 12.6804 84.4323 12.7457 84.3903L13.1447 84.1663ZM13.1167 92.4833C13.2894 92.6373 13.4457 92.8006 13.5857 92.9733C13.7257 93.146 13.8447 93.328 13.9427 93.5193C14.0454 93.7153 14.1224 93.9206 14.1737 94.1353C14.2297 94.3546 14.2577 94.5903 14.2577 94.8423C14.2577 95.2296 14.1924 95.5703 14.0617 95.8643C13.9357 96.163 13.7537 96.4103 13.5157 96.6063C13.2824 96.807 13 96.9586 12.6687 97.0613C12.3374 97.164 11.971 97.2153 11.5697 97.2153L7.05468 97.2153L7.05468 95.9623L11.5697 95.9623C12.1064 95.9623 12.5217 95.8386 12.8157 95.5913C13.1144 95.3486 13.2637 94.9776 13.2637 94.4783C13.2637 94.1096 13.175 93.7643 12.9977 93.4423C12.8204 93.125 12.58 92.831 12.2767 92.5603L7.05468 92.5603L7.05468 91.3073L14.1457 91.3073L14.1457 92.0563C14.1457 92.2336 14.0594 92.3433 13.8867 92.3853L13.1167 92.4833ZM10.5197 101.585C10.5197 101.837 10.5547 102.059 10.6247 102.25C10.6947 102.441 10.7927 102.602 10.9187 102.733C11.0447 102.864 11.194 102.962 11.3667 103.027C11.544 103.092 11.7377 103.125 11.9477 103.125C12.3817 103.125 12.727 102.992 12.9837 102.726C13.2404 102.465 13.3687 102.084 13.3687 101.585C13.3687 101.081 13.2404 100.696 12.9837 100.43C12.727 100.169 12.3817 100.038 11.9477 100.038C11.7377 100.038 11.544 100.071 11.3667 100.136C11.194 100.206 11.0447 100.306 10.9187 100.437C10.7927 100.568 10.6947 100.729 10.6247 100.92C10.5547 101.111 10.5197 101.333 10.5197 101.585ZM6.66968 103.832C6.84235 103.832 6.98235 103.783 7.08968 103.685C7.19702 103.587 7.28102 103.454 7.34168 103.286C7.40235 103.123 7.44435 102.931 7.46768 102.712C7.49568 102.493 7.51668 102.259 7.53068 102.012C7.54468 101.769 7.55868 101.522 7.57268 101.27C7.58668 101.018 7.61002 100.775 7.64268 100.542C7.52135 100.281 7.36735 100.066 7.18068 99.898C6.99868 99.7346 6.78402 99.653 6.53668 99.653C6.37802 99.653 6.23102 99.6926 6.09568 99.772C5.95568 99.856 5.83668 99.982 5.73868 100.15C5.63602 100.318 5.55668 100.528 5.50068 100.78C5.44002 101.037 5.40968 101.338 5.40968 101.683C5.40968 102.019 5.44002 102.32 5.50068 102.586C5.56135 102.852 5.64768 103.076 5.75968 103.258C5.87168 103.445 6.00468 103.587 6.15868 103.685C6.31268 103.783 6.48302 103.832 6.66968 103.832ZM13.8657 105.099L13.4037 105.099C13.2497 105.099 13.1517 105.001 13.1097 104.805L13.0047 104C12.6967 104.159 12.356 104.238 11.9827 104.238C11.6374 104.238 11.3224 104.17 11.0377 104.035C10.7577 103.904 10.5174 103.722 10.3167 103.489C10.116 103.256 9.96202 102.976 9.85468 102.649C9.74735 102.322 9.69368 101.968 9.69368 101.585C9.69368 101.254 9.73335 100.941 9.81268 100.647C9.71935 100.498 9.61902 100.383 9.51168 100.304C9.40902 100.225 9.30402 100.185 9.19668 100.185C9.02868 100.185 8.90035 100.253 8.81168 100.388C8.72768 100.528 8.66702 100.71 8.62968 100.934C8.59235 101.158 8.56902 101.412 8.55968 101.697C8.55035 101.986 8.53402 102.28 8.51068 102.579C8.49202 102.882 8.45702 103.176 8.40568 103.461C8.35435 103.75 8.27035 104.007 8.15368 104.231C8.03702 104.455 7.87602 104.635 7.67068 104.77C7.46535 104.91 7.19935 104.98 6.87268 104.98C6.56935 104.98 6.27535 104.903 5.99068 104.749C5.70602 104.6 5.45402 104.383 5.23468 104.098C5.01068 103.813 4.83335 103.463 4.70268 103.048C4.56735 102.637 4.49968 102.173 4.49968 101.655C4.49968 101.137 4.55102 100.684 4.65368 100.297C4.75635 99.9096 4.89402 99.5876 5.06668 99.331C5.23935 99.0743 5.44002 98.8806 5.66868 98.75C5.89268 98.624 6.12835 98.561 6.37568 98.561C6.72568 98.561 7.02202 98.6706 7.26468 98.89C7.50735 99.1093 7.70102 99.4103 7.84568 99.793C7.93902 99.583 8.06268 99.415 8.21668 99.289C8.37535 99.1676 8.58768 99.107 8.85368 99.107C8.95635 99.107 9.06135 99.1256 9.16868 99.163C9.28068 99.2003 9.39035 99.2563 9.49768 99.331C9.60968 99.4103 9.71468 99.506 9.81268 99.618C9.91068 99.73 9.99702 99.8606 10.0717 100.01C10.2677 99.66 10.5267 99.387 10.8487 99.191C11.1754 98.995 11.5534 98.897 11.9827 98.897C12.328 98.897 12.6407 98.9623 12.9207 99.093C13.2054 99.2283 13.4457 99.415 13.6417 99.653C13.8424 99.891 13.9964 100.173 14.1037 100.5C14.211 100.831 14.2647 101.193 14.2647 101.585C14.2647 101.893 14.2297 102.18 14.1597 102.446C14.0944 102.712 13.9964 102.955 13.8657 103.174L13.8657 105.099Z" fill="#A3CC01"/>
<path d="M17.7102 11.6913L12.7102 6.69126C12.6151 6.60022 12.5029 6.52886 12.3802 6.48126C12.1367 6.38125 11.8636 6.38125 11.6202 6.48126C11.4974 6.52886 11.3853 6.60022 11.2902 6.69126L6.29019 11.6913C6.19695 11.7845 6.12299 11.8952 6.07253 12.017C6.02207 12.1388 5.99609 12.2694 5.99609 12.4013C5.99609 12.6676 6.10188 12.923 6.29019 13.1113C6.47849 13.2996 6.73388 13.4054 7.00019 13.4054C7.26649 13.4054 7.52188 13.2996 7.71019 13.1113L11.0002 9.81126V17.4013C11.0002 17.6665 11.1055 17.9208 11.2931 18.1084C11.4806 18.2959 11.735 18.4013 12.0002 18.4013C12.2654 18.4013 12.5198 18.2959 12.7073 18.1084C12.8948 17.9208 13.0002 17.6665 13.0002 17.4013V9.81126L16.2902 13.1113C16.3831 13.205 16.4937 13.2794 16.6156 13.3302C16.7375 13.3809 16.8682 13.4071 17.0002 13.4071C17.1322 13.4071 17.2629 13.3809 17.3848 13.3302C17.5066 13.2794 17.6172 13.205 17.7102 13.1113C17.8039 13.0183 17.8783 12.9077 17.9291 12.7858C17.9798 12.664 18.006 12.5333 18.006 12.4013C18.006 12.2693 17.9798 12.1385 17.9291 12.0167C17.8783 11.8948 17.8039 11.7842 17.7102 11.6913Z" fill="#A3CC01"/>
</svg>
