<svg width="76" height="76" viewBox="0 0 76 76" fill="none" xmlns="http://www.w3.org/2000/svg">
<g clip-path="url(#clip0_240_314)">
<path d="M74.4837 27.6479C72.1165 18.938 67.0562 11.9927 59.6332 6.81788C52.9561 2.16533 45.5331 -0.128952 37.3836 0.00346765C35.9544 0.0272734 34.5267 0.143327 33.1004 0.21772L28.8649 1.0167C27.4625 1.48092 26.0362 1.899 24.6576 2.41976C20.8918 3.81613 17.3701 5.79807 14.2229 8.29235L17.848 10.4661C21.9544 7.42684 26.6987 5.36068 31.7218 4.42391C50.1944 0.967603 68.2279 13.2901 71.6327 31.6949C75.0658 50.2396 62.8489 68.0895 44.3659 71.5696C25.8829 75.0497 7.9403 62.8195 4.46701 44.3418C3.87993 41.2385 3.7296 38.0684 4.02038 34.9236L0.253807 33.5369C0.0326237 35.4513 -0.048482 37.3792 0.0111373 39.3053C0.0572891 40.881 0.258275 42.4522 0.386309 44.0248L0.800181 46.2135C0.901417 46.5111 1.00265 46.8161 1.09793 47.1181C1.71279 48.9958 2.20707 50.9226 2.96336 52.7422C10.2136 70.1576 29.5095 79.9731 48.6074 74.4665C56.3133 72.2436 62.7715 68.0107 67.6994 61.662C75.6032 51.4775 77.8542 40.0522 74.4837 27.6479Z" fill="white"/>
<path d="M29.0951 37.9844C29.0951 34.6665 29.0832 31.3485 29.0951 28.0306C29.1056 25.7155 31.1243 24.0699 33.2979 24.6085C33.7225 24.7243 34.1288 24.8986 34.5053 25.1263C40.0376 28.3103 45.5654 31.5028 51.0887 34.7037C52.2335 35.3687 53.097 36.2972 53.3516 37.6675C53.5779 38.8965 53.0539 39.8308 52.1725 40.606C51.9176 40.8095 51.6439 40.9884 51.3552 41.1402C45.8616 44.3143 40.3661 47.4844 34.8686 50.6506C34.4365 50.8985 33.9843 51.1095 33.5168 51.2814C33.0472 51.4514 32.5449 51.5118 32.0483 51.458C31.5518 51.4042 31.0741 51.2376 30.6519 50.971C30.2297 50.7044 29.874 50.3448 29.6122 49.9197C29.3504 49.4946 29.1893 49.0153 29.1413 48.5185C29.1085 48.1763 29.0922 47.8296 29.0922 47.4859C29.0922 44.3167 29.0932 41.1496 29.0951 37.9844Z" fill="white"/>
<path d="M37.8561 74.4101C28.4637 74.4056 19.4337 70.7863 12.641 64.3035C5.84833 57.8208 1.81469 48.9726 1.37752 39.596C0.940356 30.2195 4.13325 21.0348 10.2933 13.9489C16.4534 6.86295 25.1075 2.42011 34.4588 1.54275C43.8101 0.665388 53.1403 3.4209 60.5124 9.23721C67.8845 15.0535 72.7321 23.4838 74.0487 32.7779C75.3654 42.0719 73.0501 51.5157 67.5833 59.1487C62.1166 66.7817 53.9185 72.0174 44.691 73.7689C42.4377 74.1948 40.1494 74.4095 37.8561 74.4101ZM38.005 1.70874C35.7211 1.70964 33.4423 1.92383 31.1983 2.34853C22.3243 4.02638 14.395 8.95045 8.95961 16.1587C3.52418 23.367 0.973117 32.3417 1.80482 41.3292C2.63653 50.3168 6.79126 58.6717 13.4573 64.7615C20.1233 70.8512 28.8217 74.2385 37.8531 74.2614C40.137 74.2605 42.4158 74.0463 44.6598 73.6216C53.5338 71.9437 61.4631 67.0197 66.8985 59.8114C72.3339 52.6031 74.885 43.6284 74.0533 34.6409C73.2216 25.6533 69.0668 17.2985 62.4008 11.2087C55.7348 5.11887 47.0364 1.73164 38.005 1.70874Z" fill="white"/>
</g>
<defs>
<clipPath id="clip0_240_314">
<rect width="76" height="76" fill="white"/>
</clipPath>
</defs>
</svg>
