<svg width="18" height="19" viewBox="0 0 18 19" fill="none" xmlns="http://www.w3.org/2000/svg">
<path d="M16.1955 6.18741C16.1101 5.87046 15.9431 5.58141 15.7113 5.34904C15.4794 5.11666 15.1907 4.94906 14.874 4.86291C13.6995 4.54041 9.00074 4.53516 9.00074 4.53516C9.00074 4.53516 4.30274 4.52991 3.12749 4.83816C2.81093 4.92827 2.52285 5.09824 2.29091 5.33176C2.05897 5.56528 1.89095 5.8545 1.80299 6.17166C1.49324 7.34616 1.49024 9.78216 1.49024 9.78216C1.49024 9.78216 1.48724 12.2302 1.79474 13.3927C1.96724 14.0354 2.47349 14.5432 3.11699 14.7164C4.30349 15.0389 8.98948 15.0442 8.98948 15.0442C8.98948 15.0442 13.6882 15.0494 14.8627 14.7419C15.1796 14.6559 15.4685 14.4887 15.701 14.2568C15.9334 14.0249 16.1013 13.7363 16.188 13.4197C16.4985 12.2459 16.5007 9.81066 16.5007 9.81066C16.5007 9.81066 16.5157 7.36191 16.1955 6.18741ZM7.49774 12.0389L7.50149 7.53891L11.4067 9.79266L7.49774 12.0389Z" fill="white"/>
</svg>
