<svg width="29" height="29" viewBox="0 0 29 29" fill="none" xmlns="http://www.w3.org/2000/svg">
<path d="M25.7205 8.95396C25.5877 8.46093 25.328 8.0113 24.9673 7.64983C24.6066 7.28835 24.1576 7.02764 23.6649 6.89363C21.8379 6.39196 14.5287 6.3838 14.5287 6.3838C14.5287 6.3838 7.22071 6.37563 5.39254 6.85513C4.90012 6.9953 4.452 7.2597 4.0912 7.62295C3.7304 7.9862 3.46904 8.43611 3.33221 8.92947C2.85037 10.7565 2.8457 14.5458 2.8457 14.5458C2.8457 14.5458 2.84104 18.3538 3.31937 20.1621C3.5877 21.162 4.37521 21.9518 5.37621 22.2213C7.22187 22.723 14.5112 22.7311 14.5112 22.7311C14.5112 22.7311 21.8204 22.7393 23.6474 22.261C24.1403 22.1272 24.5897 21.8671 24.9513 21.5063C25.3129 21.1456 25.574 20.6967 25.7089 20.2041C26.1919 18.3783 26.1954 14.5901 26.1954 14.5901C26.1954 14.5901 26.2187 10.781 25.7205 8.95396ZM12.1907 18.0563L12.1965 11.0563L18.2714 14.5621L12.1907 18.0563Z" fill="#004988"/>
</svg>
