<svg width="117" height="77" viewBox="0 0 117 77" fill="none" xmlns="http://www.w3.org/2000/svg">
<g clip-path="url(#clip0_303_1693)">
<path d="M16.823 36.2273C15.8467 36.6337 14.8832 37.0633 13.9375 37.5288C11.4927 38.6917 9.2118 40.1768 7.15435 41.9452C6.06079 42.8957 5.10566 43.9971 4.31721 45.217C2.65266 47.8457 3.04268 50.5799 5.15332 52.8588C7.83241 55.7499 11.2176 57.4886 14.8118 58.8724C22.5993 61.8535 30.7079 63.4123 38.9695 64.2508C39.6424 64.3202 40.3128 64.4437 40.9883 64.508C41.6205 64.5723 42.2629 64.6006 43.0837 64.6572C43.2366 62.8567 43.3819 61.1719 43.54 59.3303L57.5854 68.9784L42.2323 76.3655C42.3751 74.493 42.5025 72.7903 42.635 71.0232C39.7291 70.4831 36.9251 70.0432 34.1593 69.4362C27.3941 67.9495 20.7461 66.0564 14.4167 63.1782C10.8811 61.5706 7.56221 59.5978 4.67664 56.9408C-0.816634 51.8762 -0.676453 45.7983 5.07173 41.027C7.72533 38.8252 10.7613 37.3025 13.9349 36.1399C14.3445 35.989 14.7566 35.8441 15.1712 35.7052C15.7201 35.52 16.2699 35.3399 16.8205 35.165L16.823 36.2273Z" fill="white"/>
<path d="M112.89 56.1642C108.653 60.6578 103.203 63.127 97.5697 65.2876C90.4705 68.0115 83.1139 69.6911 75.6476 70.8769C70.6259 71.6768 65.5659 72.2247 60.2715 72.9166V65.339C60.3569 65.2894 60.4533 65.262 60.5519 65.2593C69.7413 65.3056 78.8773 64.6549 87.924 62.9984C93.3637 62.003 98.6938 60.5574 103.782 58.3454C106.678 57.0902 109.39 55.5366 111.572 53.1291C113.978 50.4618 114.396 47.3238 112.173 44.5022C110.675 42.6525 108.92 41.03 106.963 39.6845C105.156 38.4338 103.243 37.345 101.248 36.4308C100.3 35.9884 99.3379 35.5751 98.3624 35.191V34.5068C99.3336 34.8103 100.3 35.1267 101.248 35.474C101.776 35.6694 102.298 35.8726 102.816 36.0887C105.479 37.2061 108.038 38.5609 110.463 40.1372C113.507 42.1204 115.798 44.7671 116.045 48.7102C116.224 51.7479 114.822 54.1142 112.89 56.1642Z" fill="white"/>
<path d="M98.9258 0.231359C88.4265 3.63033 77.5547 5.72072 66.5524 6.45594C57.3898 7.07506 48.1885 6.75016 39.0911 5.48625C31.3547 4.42744 23.7285 2.66785 16.3049 0.2288C15.3056 -0.100434 14.5511 0.0590327 13.9316 0.89755V51.4787C14.5256 52.2786 15.2419 52.4869 16.2258 52.168C26.7175 48.7561 37.585 46.6587 48.5839 45.9228C57.3201 45.3301 66.0927 45.5945 74.7783 46.7125C82.9749 47.7601 91.0567 49.5779 98.9182 52.1423C100.494 52.6567 101.238 52.0883 101.238 50.4009V1.98043C101.243 0.285386 100.506 -0.277924 98.9258 0.231359ZM98.3574 48.9297C71.1671 40.6834 43.9896 40.6834 16.8249 48.9297V3.4414C44.0151 11.6825 71.1926 11.6825 98.3574 3.4414V48.9297Z" fill="white"/>
<path d="M48.6961 29.0471L57.4191 20.2247C58.7268 18.9052 59.1856 18.9052 60.5086 20.2427C65.9739 25.7556 71.4408 31.266 76.9094 36.7738C77.2266 37.0802 77.6205 37.2936 78.0489 37.3911C83.3688 38.5537 88.6964 39.6829 94.024 40.8224C94.3013 40.8795 94.5741 40.9577 94.8397 41.0564C95.0171 41.1119 95.1818 41.202 95.3246 41.3218C95.4674 41.4415 95.5853 41.5885 95.6717 41.7543C95.7581 41.9201 95.8113 42.1015 95.8282 42.288C95.8451 42.4746 95.8253 42.6626 95.7701 42.8415C95.6644 43.1885 95.4285 43.48 95.1128 43.654C94.7971 43.8279 94.4264 43.8705 94.08 43.7726C92.1784 43.3148 90.2972 42.7437 88.3829 42.3502C84.6051 41.5786 80.8044 40.897 77.0241 40.1227C76.4313 40.0004 75.883 39.7167 75.4386 39.3022C70.1705 34.0362 64.9228 28.7505 59.6954 23.445C59.4762 23.2238 59.2927 22.9666 59.1398 22.7814L50.8654 31.1691C51.8315 32.1337 52.9047 33.2114 53.9982 34.2968C55.0179 35.3077 55.1708 36.1179 54.5233 36.7995C53.8759 37.4812 53.027 37.3526 51.9743 36.2851L45.3466 29.5976C45.0917 29.8342 44.8751 30.0425 44.6609 30.2586C41.3828 33.5587 38.12 36.8741 34.8189 40.151C34.4125 40.5379 33.9137 40.8117 33.371 40.9458C29.4531 41.8847 25.525 42.7746 21.5943 43.6646C21.2144 43.77 20.8179 43.7997 20.4268 43.752C20.1282 43.7021 19.858 43.5439 19.667 43.307C19.4759 43.0702 19.3771 42.7711 19.3893 42.466C19.3619 42.131 19.4593 41.7977 19.6625 41.5313C19.8657 41.265 20.16 41.0846 20.488 41.0256C22.5451 40.4803 24.6022 39.9376 26.6746 39.4488C28.4589 39.027 30.2892 38.7081 32.0812 38.2811C32.5672 38.1687 33.015 37.9282 33.3787 37.584C36.876 34.1014 40.3428 30.5853 43.8299 27.0794C45.0866 25.8114 45.5837 25.8114 46.8557 27.1077C47.4547 27.7019 48.0283 28.3346 48.6961 29.0471Z" fill="white"/>
<path d="M76.6343 13.7815C75.9165 13.7815 75.2058 13.9245 74.543 14.2023C73.8801 14.4801 73.2781 14.8872 72.7715 15.4002C72.265 15.9133 71.8638 16.5223 71.591 17.1922C71.3182 17.862 71.1791 18.5797 71.1818 19.3039C71.1763 20.0352 71.3154 20.7602 71.591 21.4366C71.8666 22.113 72.2731 22.7271 72.7868 23.243C73.3005 23.7589 73.911 24.1663 74.5825 24.4412C75.2541 24.7162 75.9733 24.8532 76.698 24.8443C77.4227 24.8441 78.1401 24.6982 78.8084 24.4152C79.4766 24.1322 80.0823 23.7178 80.5901 23.196C81.0979 22.6743 81.4976 22.0557 81.766 21.3765C82.0343 20.6972 82.1659 19.9708 82.153 19.2396C82.1461 18.5155 81.9977 17.7999 81.7165 17.1337C81.4354 16.4675 81.0269 15.8637 80.5144 15.3568C80.0019 14.8499 79.3954 14.4499 78.7297 14.1796C78.0639 13.9094 77.3518 13.7741 76.6343 13.7815ZM76.6954 22.0124C75.9792 22.0044 75.2947 21.7137 74.7882 21.2027C74.2818 20.6917 73.9937 20.0009 73.9858 19.2782C74.008 18.5704 74.2995 17.8983 74.7998 17.4016C75.3001 16.905 75.9708 16.6218 76.6725 16.6109C77.375 16.6216 78.0456 16.9084 78.5416 17.4104C79.0377 17.9124 79.3201 18.5899 79.3286 19.2988C79.325 20.0081 79.0482 20.6882 78.5569 21.1954C78.0656 21.7027 77.3981 21.9975 76.6954 22.0175V22.0124Z" fill="white"/>
</g>
<defs>
<clipPath id="clip0_303_1693">
<rect width="115.392" height="76.3076" fill="white" transform="translate(0.660156 0.0507812)"/>
</clipPath>
</defs>
</svg>
