<svg width="91" height="93" viewBox="0 0 91 93" fill="none" xmlns="http://www.w3.org/2000/svg">
<g clip-path="url(#clip0_303_1731)">
<path d="M90.6424 83.8936C90.2901 84.3582 90.0136 84.9273 89.5714 85.2694C87.9404 86.53 86.3674 87.9365 84.5655 88.8711C81.099 90.672 77.4599 90.618 73.8543 89.1304C72.4187 88.538 71.0166 87.841 69.5528 87.3296C66.8297 86.386 64.1946 86.7731 61.6493 88.0932C60.1134 88.8909 58.588 89.7482 56.978 90.3586C53.4552 91.6985 49.964 91.3725 46.5856 89.7463C45.5288 89.2385 44.4437 88.7721 43.4151 88.194C39.9503 86.2311 36.5208 86.5282 33.0737 88.2336C31.5748 88.9756 30.0881 89.786 28.5187 90.3262C24.8056 91.6048 21.2334 90.816 17.774 89.2205C16.1887 88.5002 14.6457 87.7096 12.8666 87.6628C10.3531 87.5961 8.18302 88.5866 6.17323 90.0039C5.25729 90.6486 4.4118 91.4067 3.51876 92.0713C2.65566 92.7088 1.67984 92.6115 1.06686 91.8732C0.914464 91.6984 0.798263 91.4939 0.72525 91.272C0.652237 91.0501 0.623923 90.8154 0.642028 90.582C0.660132 90.3486 0.724275 90.1213 0.830587 89.914C0.9369 89.7066 1.08319 89.5234 1.26062 89.3754C3.76537 87.1315 6.4075 85.1272 9.75421 84.36C12.2836 83.7819 14.7496 84.1457 17.3142 84.8624C16.6449 82.5412 16.0002 80.2901 15.3467 78.0408C13.0463 70.1315 10.7441 62.2216 8.44018 54.311C7.96812 52.6903 8.16893 52.1644 9.60273 51.2748C12.03 49.7693 14.4519 48.253 16.8933 46.7727C17.3583 46.4917 17.5203 46.182 17.5168 45.6363C17.4939 41.5916 17.5045 37.5469 17.5045 33.504C17.5045 29.2576 17.5045 29.2576 21.6157 29.2558H22.7782V24.6601C22.7782 22.5981 23.3066 22.0686 25.3446 22.0686H30.0723C30.0723 20.4479 30.0723 18.9315 30.0723 17.4098C30.0723 15.4595 30.6377 14.8886 32.5224 14.8796H40.3555V13.8694C40.3555 10.2136 40.3784 6.55972 40.3431 2.90579C40.3326 1.75865 40.6813 0.924848 41.7628 0.498047H49.4973C50.5805 0.926649 50.9275 1.75865 50.917 2.90579C50.8835 6.55792 50.9046 10.2118 50.9046 13.8658V14.876H58.7342C60.6189 14.876 61.1826 15.4559 61.1878 17.3972C61.1878 18.9171 61.1878 20.4389 61.1878 22.0596H64.7671C68.3991 22.0596 68.4819 22.1425 68.4819 25.8126V29.2486H71.4041C73.1832 29.2486 73.7662 29.8537 73.7662 31.6888C73.7662 36.2719 73.7803 40.8533 73.7521 45.4365C73.7521 46.1118 73.9194 46.5044 74.513 46.8573C76.9138 48.289 79.2794 49.7837 81.6574 51.2586C83.1299 52.1698 83.3043 52.6525 82.8041 54.3705C80.0351 63.885 77.2679 73.3982 74.5025 82.9103C74.2876 83.6469 74.0938 84.3888 73.8877 85.1362C76.9649 86.7245 80.0527 87.272 83.1405 85.6332C84.6007 84.857 85.8901 83.7153 87.1777 82.6438C88.6855 81.3832 89.5133 81.4246 90.6442 82.986L90.6424 83.8936ZM70.6326 83.6379C73.5196 73.708 76.3854 63.8447 79.253 53.9797L47.3959 34.2496V85.3199C47.3722 85.4387 47.3722 85.5612 47.3959 85.68C47.5104 85.9177 47.6108 86.2509 47.8081 86.3409C50.7003 87.67 53.6419 88.0572 56.631 86.6633C57.4536 86.2797 58.2709 85.8709 59.0653 85.4279C62.6903 83.4002 66.4933 82.588 70.6326 83.6379ZM12.0212 53.9815C13.2735 58.2855 14.5101 62.5247 15.7413 66.7675C17.6295 73.2722 19.5131 79.7793 21.392 86.2887C21.5505 86.829 21.7759 87.2198 22.366 87.227C23.673 87.2396 25.0557 87.5151 26.2676 87.1711C28.1047 86.6471 29.8591 85.7665 31.5783 84.8949C33.773 83.7801 36.0505 83.0274 38.4954 83.2129C40.2868 83.3479 42.0535 83.7891 43.8078 84.0899V34.2928L12.0212 53.9815ZM26.3416 29.1982H64.9044V25.7081H26.3416V29.1982ZM21.0573 44.1867L39.2475 32.9169H21.0485L21.0573 44.1867ZM70.231 32.9043H52.0108L70.2222 44.1813L70.231 32.9043ZM33.6356 22.002H57.6315V18.5426H33.6268L33.6356 22.002ZM47.343 14.8382V4.16818H43.9259V14.8382H47.343Z" fill="#A3CC01"/>
<path d="M72.0561 55.0852C72.0683 55.363 72.0139 55.6396 71.8976 55.891C71.7813 56.1423 71.6066 56.3608 71.3888 56.5274C71.171 56.6939 70.9167 56.8035 70.648 56.8465C70.3794 56.8896 70.1044 56.8649 69.8473 56.7744C69.5698 56.6818 69.3047 56.5542 69.0581 56.3945C65.5177 54.171 61.9801 51.941 58.4456 49.7043C58.1414 49.5242 57.8693 49.2928 57.6406 49.02C57.1262 48.3645 57.091 47.6261 57.5613 46.9436C58.0316 46.2611 58.6816 45.9928 59.483 46.2557C59.7338 46.3373 59.974 46.4497 60.1982 46.5906C63.788 48.8477 67.3754 51.109 70.9605 53.3744C71.5805 53.7742 72.0719 54.2605 72.0561 55.0852Z" fill="#A3CC01"/>
<path d="M53.0301 45.9497C52.1247 45.9497 51.2686 45.1087 51.2598 44.1903C51.251 43.2718 52.063 42.3894 52.9667 42.375C53.4385 42.3904 53.886 42.5927 54.2146 42.9391C54.5433 43.2856 54.7274 43.749 54.7281 44.2317C54.708 44.6838 54.5221 45.1116 54.2075 45.43C53.8928 45.7483 53.4725 45.9339 53.0301 45.9497Z" fill="#A3CC01"/>
<path d="M20.0195 55.0583C20.4863 54.4622 20.7628 53.859 21.2261 53.5528C24.8652 51.1523 28.5325 48.8004 32.2068 46.4592C33.1774 45.8416 34.243 46.0667 34.7697 46.9041C35.2964 47.7415 35.0727 48.822 34.0968 49.4577C30.4207 51.8546 26.727 54.2191 23.0368 56.5945C22.3781 57.0177 21.6559 57.0663 21.0658 56.5728C20.6572 56.2307 20.4264 55.667 20.0195 55.0583Z" fill="#A3CC01"/>
<path d="M39.2819 42.2256C40.1503 42.2256 41.024 43.1422 41.0152 44.0462C41.0063 44.9503 40.1714 45.8021 39.2361 45.7985C38.779 45.7777 38.3471 45.5784 38.0296 45.2417C37.712 44.9049 37.5329 44.4564 37.5293 43.9886C37.5389 43.5191 37.7276 43.0721 38.055 42.7427C38.3823 42.4134 38.8226 42.2278 39.2819 42.2256Z" fill="#A3CC01"/>
</g>
<defs>
<clipPath id="clip0_303_1731">
<rect width="90" height="92" fill="white" transform="translate(0.642578 0.498047)"/>
</clipPath>
</defs>
</svg>
