<svg width="123" height="83" viewBox="0 0 123 83" fill="none" xmlns="http://www.w3.org/2000/svg">
<g clip-path="url(#clip0_303_1744)">
<path d="M53.4776 31.3121C52.115 29.4307 50.8096 27.7758 49.6583 26.0188C43.3599 16.3804 48.415 3.53913 59.4976 0.911153C68.6829 -1.26639 78.0298 5.42551 79.0394 14.8474C79.5688 19.1687 78.398 23.5266 75.7745 26.9993C74.5785 28.6244 73.3651 30.2345 71.985 32.0886L96.3184 31.6307C96.3184 29.8239 96.0697 28.1043 96.3681 26.4892C97.1613 22.2585 100.429 19.0905 104.499 18.4808C108.726 17.8462 112.15 19.3593 114.57 22.9105C115.714 24.6009 116.324 26.597 116.318 28.639C116.313 30.6809 115.693 32.6739 114.54 34.3582C113.398 36.033 112.168 37.6481 110.907 39.2359C110.382 39.8954 110.323 40.4802 110.571 41.2591C114.593 54.034 118.596 66.8139 122.581 79.5988C123.29 81.8609 122.83 82.498 120.52 82.498C81.4281 82.498 42.3362 82.498 3.24439 82.498C2.79163 82.5295 2.33672 82.5002 1.89172 82.4109C0.954292 82.1621 0.648434 81.2836 1.07115 80.0716C3.31899 73.4569 5.57263 66.8454 7.83207 60.2373C10.8789 51.3214 13.9266 42.4047 16.9751 33.4872C17.5619 31.77 17.8056 31.6058 19.6705 31.5933C30.55 31.5236 41.4287 31.4515 52.3065 31.3768C52.6297 31.3694 52.9505 31.3395 53.4776 31.3121ZM19.1061 53.8665L18.7704 52.7914C17.9552 50.2494 17.9869 47.5111 18.861 44.9888C19.735 42.4664 21.404 40.2964 23.6167 38.8053C25.7377 37.3671 28.2702 36.6618 30.8286 36.7966C33.3871 36.9313 35.8315 37.8988 37.79 39.5519C39.8399 41.2613 41.2816 43.5892 41.8993 46.1871C42.517 48.785 42.2774 51.5133 41.2165 53.9635C40.9547 54.5604 40.8135 55.2032 40.8012 55.8549C40.8012 63.266 40.8286 70.6771 40.8509 78.0882C40.8509 78.5287 40.8509 78.9716 40.8509 79.4121H60.3654V77.9663C60.3654 73.8269 60.3654 69.6866 60.3654 65.5456C60.3654 63.8732 60.8304 63.4327 62.5162 63.4402C63.123 63.4402 63.7322 63.4402 64.4632 63.4402C63.8664 60.1254 64.4011 57.1465 66.4525 54.5658C68.5412 51.9428 71.2838 50.6163 74.6581 50.6835C80.8123 50.8104 84.465 55.611 84.3108 63.358H114.376C113.222 59.6475 112.091 56.1137 111.036 52.555C110.788 51.6815 110.37 51.4326 109.482 51.4376C101.622 51.4724 93.7647 51.46 85.9072 51.455C84.3481 51.455 83.9404 51.0792 83.7563 49.5338C83.4853 47.2318 83.2267 44.9298 82.9432 42.6303C82.6274 40.0596 82.2893 37.4889 81.9809 35.0625C77.9428 35.0625 74.0613 35.0426 70.1823 35.0948C69.8342 35.0948 69.4139 35.5104 69.1628 35.8414C67.6211 37.8323 66.1292 39.8755 64.6049 41.8863C63.4661 43.3794 62.6157 43.4043 61.4843 41.9211C59.8357 39.746 58.1698 37.5784 56.5933 35.3511C56.0189 34.5448 55.3823 34.3009 54.4275 34.3134C47.689 34.4063 40.9488 34.4677 34.2069 34.4975C29.4128 34.5249 24.6163 34.4975 19.7849 34.4975L13.1757 53.854L19.1061 53.8665ZM119.421 79.4843C118.088 75.2188 116.827 71.1126 115.48 67.0412C115.378 66.7326 114.667 66.4489 114.236 66.4489C104.105 66.4489 93.9703 66.478 83.8334 66.536C83.5456 66.5605 83.2655 66.642 83.0094 66.7757C82.7533 66.9094 82.5262 67.0927 82.3415 67.315C80.1608 70.1246 78.0547 72.994 75.9138 75.836C74.7948 77.3292 73.8947 77.3292 72.7882 75.8659C70.7989 73.2254 68.7003 70.6397 66.8752 67.9023C65.9278 66.4738 64.8412 66.3593 63.4412 66.5833V79.4843H119.421ZM37.785 59.1921C37.3723 59.6898 37.1112 59.9935 36.8725 60.3095C35.1849 62.5592 33.4982 64.8097 31.8123 67.0611C30.6536 68.5966 29.756 68.5991 28.6097 67.0611C26.2474 63.9205 23.9151 60.7575 21.5106 57.6542C21.128 57.2222 20.5935 56.9547 20.0186 56.9076C17.7808 56.8304 15.5429 56.9225 13.3224 56.8652C12.4471 56.8429 12.0393 57.0942 11.7484 57.9627C9.4906 64.6994 7.17066 71.4162 4.87558 78.1404C4.73384 78.5536 4.62691 78.9791 4.49264 79.4321H37.7975L37.785 59.1921ZM63.0235 39.0467C66.4077 34.5274 69.7098 30.135 72.9995 25.7301C73.4772 25.1064 73.9189 24.4558 74.3224 23.7816C75.8902 21.1227 76.5002 18.0063 76.0505 14.9519C74.9341 6.49063 66.1615 1.29938 58.2543 4.42508C50.3471 7.55079 47.3408 17.4007 52.3313 24.6252C55.6907 29.488 59.3658 34.1317 63.0235 39.0393V39.0467ZM109.716 48.4438C109.159 46.6669 108.634 44.9896 108.072 43.1903C106.449 45.0294 105.777 45.002 104.442 43.2276C102.977 41.279 101.329 39.4375 100.108 37.3445C98.7353 34.9953 96.9624 34.3582 94.3441 34.5722C91.2782 34.8385 88.1725 34.6344 84.9549 34.6344C85.5442 39.4375 86.0937 43.9244 86.6482 48.4438H109.716ZM30.1961 64.2764C32.8144 60.755 35.4402 57.4924 37.7303 54.0083C38.6329 52.6346 39.1004 50.788 39.2098 49.1182C39.4585 45.3554 36.7879 41.605 33.3117 40.3134C31.5927 39.6766 29.7189 39.5878 27.9474 40.0592C26.176 40.5306 24.5937 41.5391 23.4178 42.9464C20.7497 46.1443 20.2872 50.4546 22.5922 53.8963C24.9321 57.4003 27.5653 60.7052 30.1961 64.2689V64.2764ZM74.3323 73.0014C76.4111 70.2042 78.4103 67.6733 80.2379 65.0229C82.334 61.9843 81.7472 57.9652 78.9946 55.4617C77.7746 54.3569 76.2024 53.7215 74.5581 53.6687C72.9137 53.6158 71.304 54.1489 70.0157 55.173C67.1984 57.4252 66.266 61.4991 68.198 64.5401C70.0157 67.4195 72.1939 70.0798 74.3323 72.994V73.0014ZM106.16 40.5772C106.424 40.2537 106.585 40.0795 106.732 39.873C108.512 37.4864 110.357 35.1446 112.048 32.7008C114.174 29.6248 113.58 25.5087 110.783 23.03C109.524 21.9351 107.917 21.3253 106.25 21.3102C104.583 21.2952 102.965 21.8759 101.687 22.9479C98.8621 25.3444 98.1659 29.5079 100.26 32.5938C102.092 35.284 104.136 37.8398 106.165 40.5698L106.16 40.5772Z" fill="#A3CC01"/>
<path d="M52.6428 16.7064C52.6398 15.3788 52.9001 14.0638 53.4085 12.8376C53.9169 11.6114 54.6634 10.4984 55.6047 9.56301C56.546 8.62763 57.6634 7.8885 58.8922 7.38844C60.121 6.88838 61.4367 6.63734 62.7631 6.64986C64.0889 6.64852 65.4019 6.9098 66.6264 7.41864C67.8509 7.92748 68.9626 8.67382 69.8976 9.61465C70.8325 10.5555 71.5722 11.6722 72.074 12.9004C72.5758 14.1287 72.8297 15.4442 72.8212 16.7711C72.8186 18.0987 72.5542 19.4127 72.0431 20.6379C71.5321 21.863 70.7845 22.9752 69.8432 23.9106C68.9019 24.846 67.7853 25.5863 66.5575 26.089C65.3298 26.5917 64.015 26.8469 62.6885 26.84C61.3628 26.8391 60.0505 26.5757 58.8269 26.0651C57.6033 25.5546 56.4928 24.8068 55.5591 23.865C54.6254 22.9231 53.8871 21.8057 53.3866 20.5772C52.8861 19.3486 52.6333 18.0331 52.6428 16.7064ZM55.664 16.7761C55.6604 17.7087 55.8414 18.6327 56.1966 19.4949C56.5518 20.3571 57.0742 21.1403 57.7336 21.7993C58.393 22.4583 59.1763 22.9801 60.0382 23.3344C60.9002 23.6887 61.8238 23.8686 62.7556 23.8636C63.6874 23.8633 64.61 23.6791 65.4706 23.3216C66.3312 22.9642 67.113 22.4404 67.7712 21.7803C68.4294 21.1201 68.9511 20.3366 69.3065 19.4745C69.6618 18.6125 69.8439 17.6887 69.8423 16.7561C69.8446 15.8234 69.6623 14.8994 69.3059 14.0376C68.9495 13.1758 68.426 12.3931 67.7658 11.7349C67.1055 11.0766 66.3215 10.5557 65.459 10.2024C64.5965 9.849 63.6726 9.6701 62.7407 9.67601C61.8091 9.67172 60.886 9.8524 60.0246 10.2076C59.1633 10.5628 58.3809 11.0854 57.7227 11.7453C57.0646 12.4051 56.5437 13.1891 56.1903 14.0518C55.837 14.9145 55.6581 15.8387 55.664 16.7711V16.7761Z" fill="#A3CC01"/>
<path d="M29.8616 55.7203C28.9399 55.725 28.0265 55.5456 27.1749 55.1926C26.3233 54.8396 25.5507 54.32 24.9023 53.6643C24.2539 53.0087 23.7427 52.2301 23.3988 51.3742C23.0548 50.5184 22.885 49.6024 22.8993 48.68C22.9215 46.8413 23.6659 45.0852 24.9716 43.7915C26.2772 42.4978 28.0392 41.7704 29.8765 41.7666C30.7971 41.7711 31.7078 41.9578 32.5561 42.3158C33.4044 42.6738 34.1736 43.1962 34.8195 43.8528C35.4654 44.5093 35.9752 45.2873 36.3196 46.1418C36.664 46.9962 36.8363 47.9105 36.8264 48.8318C36.8146 50.6693 36.0744 52.427 34.7684 53.7186C33.4625 55.0103 31.6976 55.7302 29.8616 55.7203ZM33.855 48.7522C33.8521 48.2261 33.7456 47.7058 33.5417 47.2209C33.3377 46.7361 33.0403 46.2962 32.6665 45.9264C32.2926 45.5567 31.8496 45.2642 31.3628 45.0659C30.876 44.8675 30.3549 44.7671 29.8293 44.7704C29.303 44.7794 28.7836 44.8922 28.3009 45.1023C27.8182 45.3123 27.3816 45.6156 27.016 45.9946C26.6505 46.3736 26.3631 46.8211 26.1705 47.3113C25.9778 47.8015 25.8835 48.325 25.8931 48.8517C25.9068 49.8933 26.331 50.8874 27.0732 51.6177C27.8155 52.348 28.8158 52.7554 29.8566 52.7514C30.3839 52.7564 30.9069 52.656 31.3949 52.456C31.883 52.256 32.3262 51.9606 32.6986 51.5869C33.071 51.2133 33.3651 50.769 33.5637 50.28C33.7623 49.7911 33.8613 49.2675 33.855 48.7397V48.7522Z" fill="#A3CC01"/>
<path d="M80.0327 60.7847C80.0288 61.5714 79.8697 62.3495 79.5644 63.0745C79.2592 63.7994 78.8139 64.4569 78.2541 65.0091C77.6942 65.5613 77.0309 65.9973 76.3022 66.2922C75.5735 66.5871 74.7938 66.7351 74.0078 66.7275C73.2211 66.7175 72.444 66.5522 71.7212 66.2412C70.9984 65.9302 70.344 65.4795 69.7954 64.915C69.2469 64.3505 68.8149 63.6832 68.5244 62.9514C68.2339 62.2196 68.0904 61.4377 68.1022 60.6503C68.134 59.0838 68.7754 57.5916 69.8901 56.4913C71.0047 55.3911 72.5044 54.7698 74.07 54.7598C74.857 54.7627 75.6357 54.9209 76.3615 55.2255C77.0874 55.53 77.7461 55.9748 78.2999 56.5344C78.8538 57.0941 79.2919 57.7575 79.5893 58.4869C79.8866 59.2162 80.0373 59.997 80.0327 60.7847ZM77.0488 60.7051C77.0383 59.9121 76.7147 59.1555 76.1486 58.6006C75.5825 58.0457 74.82 57.7376 74.0277 57.7436C73.2353 57.7625 72.482 58.0921 71.93 58.6613C71.378 59.2305 71.0714 59.9939 71.0762 60.7872C71.0886 61.5808 71.4144 62.3373 71.9823 62.8912C72.5503 63.4452 73.3142 63.7517 74.1073 63.7437C74.5002 63.7385 74.8882 63.6557 75.249 63.5C75.6099 63.3443 75.9365 63.1188 76.21 62.8365C76.4836 62.5542 76.6987 62.2206 76.8431 61.8548C76.9875 61.489 77.0582 61.0983 77.0513 60.7051H77.0488Z" fill="#A3CC01"/>
<path d="M111.84 28.3235C111.855 29.1103 111.713 29.8922 111.422 30.6233C111.132 31.3544 110.698 32.0198 110.146 32.5805C109.594 33.1412 108.936 33.5858 108.21 33.8882C107.484 34.1905 106.705 34.3445 105.919 34.341C104.353 34.348 102.846 33.7404 101.722 32.6485C100.598 31.5566 99.9462 30.0674 99.9066 28.5002C99.8904 26.9107 100.5 25.3788 101.604 24.2359C102.708 23.093 104.217 22.431 105.805 22.3931C106.591 22.3823 107.372 22.5275 108.102 22.8203C108.832 23.1131 109.496 23.5478 110.057 24.0992C110.618 24.6506 111.065 25.3078 111.371 26.0329C111.677 26.7579 111.836 27.5365 111.84 28.3235ZM108.856 28.3683C108.856 27.5763 108.541 26.8167 107.982 26.2567C107.422 25.6966 106.663 25.382 105.872 25.382C105.083 25.4048 104.334 25.7301 103.778 26.2906C103.223 26.8512 102.904 27.6039 102.888 28.3932C102.892 28.786 102.972 29.1743 103.126 29.5357C103.28 29.8971 103.503 30.2247 103.784 30.4996C104.064 30.7744 104.396 30.9912 104.76 31.1375C105.125 31.2838 105.514 31.3568 105.907 31.3522C106.299 31.359 106.689 31.2863 107.052 31.1385C107.416 30.9907 107.746 30.7708 108.022 30.492C108.299 30.2133 108.516 29.8814 108.661 29.5165C108.806 29.1515 108.875 28.7609 108.866 28.3683H108.856Z" fill="#A3CC01"/>
</g>
<defs>
<clipPath id="clip0_303_1744">
<rect width="122" height="82" fill="white" transform="translate(0.890625 0.498047)"/>
</clipPath>
</defs>
</svg>
