<svg width="93" height="93" viewBox="0 0 93 93" fill="none" xmlns="http://www.w3.org/2000/svg">
<g clip-path="url(#clip0_303_1737)">
<path d="M0.949219 50.6308V34.9974C1.44418 33.8867 2.35132 33.5698 3.49603 33.5914C5.38048 33.6256 7.27574 33.6022 9.1548 33.5914C9.46797 33.5914 9.78115 33.5644 10.1339 33.55V32.3673C10.1339 23.2052 10.1339 14.0431 10.1339 4.88105C10.1339 1.89983 11.5504 0.490234 14.54 0.490234H79.3026C82.3624 0.490234 83.7609 1.87823 83.7627 4.91886V33.6004H84.8678C86.8153 33.6004 88.7609 33.5842 90.7066 33.6004C92.2509 33.6185 92.942 34.3313 92.9438 35.8814C92.951 40.5224 92.951 45.1634 92.9438 49.8045C92.9438 51.2879 92.2239 51.9864 90.7354 52.0242C89.9578 52.0422 89.1785 52.0242 88.3955 52.0242H83.7591V53.0936C83.7591 57.5546 83.7735 62.0174 83.7483 66.4784C83.7483 67.5946 84.0093 68.7647 83.2839 69.7927C83.2602 69.8466 83.248 69.9048 83.248 69.9637C83.248 70.0226 83.2602 70.0808 83.2839 70.1347C84.0255 71.953 83.7537 73.8595 83.7429 75.7299C83.7267 78.4969 82.1356 80.5528 79.6032 81.2459C79.1785 81.3611 78.7357 81.4079 78.2245 81.5015C78.2245 83.2333 78.2965 84.9382 78.1957 86.6322C78.1469 87.6103 77.9314 88.5729 77.5586 89.4784C76.8134 91.2031 75.2763 92.0114 73.5431 92.4884H64.3782C64.2519 92.4191 64.1208 92.3589 63.9858 92.3084C61.2734 91.4335 59.8875 89.5684 59.8461 86.7024C59.8281 85.3252 59.8461 83.9462 59.8461 82.5619V81.5249H34.0541C34.0541 83.2639 34.0379 84.9346 34.0541 86.6052C34.107 88.0233 33.644 89.4126 32.751 90.5154C31.8997 91.5703 30.7153 92.0276 29.5112 92.4956H20.3481C16.6494 91.1527 15.6685 89.7358 15.6685 85.7519V81.5105C15.3751 81.4565 15.1483 81.4007 14.9162 81.3719C12.6897 81.0928 10.6847 79.3916 10.3337 77.1809C9.97373 74.9108 9.87294 72.6029 10.5137 70.34C10.5571 70.0913 10.5448 69.8361 10.4777 69.5928C10.3733 69.015 10.1393 68.4443 10.1375 67.8682C10.1087 62.9337 10.1213 57.9992 10.1213 53.063V52.035C7.8301 52.035 5.65227 52.0116 3.47443 52.044C2.34952 52.0602 1.44958 51.7416 0.949219 50.6308ZM15.6739 50.3032V49.2554C15.6739 41.1099 15.6739 32.965 15.6739 24.8206C15.6739 19.202 19.6642 15.2271 25.2942 15.2253C39.7267 15.2181 54.1592 15.2181 68.5917 15.2253C69.1602 15.2104 69.729 15.2417 70.2925 15.3189C75.0226 16.1074 78.2119 19.8321 78.2119 24.6334C78.2287 32.8677 78.2287 41.1027 78.2119 49.3382V50.269C79.6626 49.7919 80.0838 48.9602 80.0766 47.538C80.0136 33.496 80.0388 19.4541 80.0388 5.41212V4.25637H13.847V5.49673C13.847 19.5117 13.8686 33.5248 13.8092 47.538C13.8092 48.8612 14.1584 49.6983 15.3391 50.1934C15.3931 50.2132 15.4507 50.2276 15.6685 50.3032H15.6739ZM74.4988 55.7867C74.5276 55.3349 74.5546 55.1008 74.5546 54.8668C74.5546 44.8658 74.5546 34.8648 74.5546 24.8638C74.5601 24.2362 74.4845 23.6106 74.3296 23.0024C73.6187 20.356 71.511 18.8906 68.4351 18.8906C54.1226 18.8906 39.8101 18.8906 25.4975 18.8906C24.8108 18.8789 24.1254 18.9557 23.4583 19.1192C20.8377 19.8159 19.3528 21.9168 19.351 24.925C19.3402 34.8948 19.3402 44.8652 19.351 54.8362C19.351 55.0972 19.3834 55.3565 19.4032 55.6373C19.6631 55.6664 19.9247 55.6772 20.1861 55.6697C21.4191 55.5365 22.3766 55.9794 23.1973 56.9083C24.0181 57.8372 24.9 58.6761 25.7945 59.515C26.1078 59.7929 26.3538 60.1385 26.5138 60.5256C26.6737 60.9127 26.7435 61.3311 26.7179 61.7492C26.6783 63.0345 26.7628 64.3271 26.6873 65.6107C26.6351 66.5108 26.878 66.7665 27.814 66.7629C40.053 66.7286 52.3047 66.743 64.551 66.734C65.4059 66.734 66.5308 66.9537 67.033 66.509C67.4631 66.1256 67.1914 64.9392 67.204 64.1057C67.2724 59.6573 66.7198 61.0453 69.8174 57.8156C71.0791 56.4978 72.294 55.1494 74.4988 55.7867ZM46.9609 77.7714H77.3138C77.6144 77.7714 77.9149 77.784 78.2137 77.7714C79.3098 77.6922 79.9974 77.0387 80.037 75.9387C80.082 74.7146 80.0784 73.485 80.037 72.259C80.001 71.2311 79.4016 70.61 78.3811 70.4588C78.0542 70.423 77.7252 70.4116 77.3966 70.4246H16.5072C16.2984 70.4246 16.0879 70.4246 15.8791 70.4246C14.5814 70.493 13.8992 71.1645 13.8632 72.4534C13.8362 73.3806 13.8632 74.3095 13.8632 75.2366C13.8632 77.2169 14.4302 77.784 16.4352 77.784L46.9609 77.7714ZM19.3996 81.5303C19.3996 83.4386 19.3366 85.2874 19.423 87.1309C19.4716 88.1966 20.1538 88.7745 21.2859 88.7979C23.6779 88.8447 26.0717 88.8519 28.4637 88.7979C29.7362 88.7691 30.3734 88.0202 30.4004 86.6934C30.4274 85.408 30.4004 84.1209 30.4004 82.8337V81.5321L19.3996 81.5303ZM63.516 81.5303C63.516 83.4116 63.4728 85.2028 63.5322 86.9905C63.5664 88.0184 64.1622 88.7187 65.1125 88.7421C67.7403 88.8087 70.3717 88.7961 72.9995 88.7421C73.1901 88.7445 73.3793 88.709 73.5561 88.6377C73.7328 88.5664 73.8937 88.4607 74.0293 88.3267C74.165 88.1927 74.2726 88.0332 74.3461 87.8573C74.4196 87.6813 74.4574 87.4926 74.4574 87.3019C74.524 85.399 74.479 83.4926 74.479 81.5411L63.516 81.5303ZM10.0889 37.3918H4.66954V48.2671H10.0889V37.3918ZM89.2037 48.3229V37.381H83.8167V48.3229H89.2037ZM23.0317 66.7449C23.0317 66.059 22.9471 65.4559 23.0479 64.8834C23.4187 62.7537 22.6664 61.1209 20.9349 59.9147C20.5191 59.6249 20.017 59.4646 19.342 59.1442C19.342 61.769 19.342 64.0589 19.3636 66.3452C19.3636 66.4802 19.6588 66.7178 19.8226 66.7233C20.8629 66.7629 21.9014 66.7449 23.0371 66.7449H23.0317ZM74.5492 59.5439L74.3134 59.245C73.8527 59.47 73.3325 59.6231 72.9455 59.9399C72.3378 60.4688 71.7637 61.0352 71.2267 61.6357C71.0701 61.7978 70.8775 62.021 70.8667 62.219C70.8361 63.6988 70.8505 65.1804 70.8505 66.7485C71.9988 66.7485 73.0373 66.7701 74.074 66.7269C74.1833 66.6917 74.2818 66.6293 74.3602 66.5455C74.4386 66.4617 74.4944 66.3593 74.5222 66.248C74.5636 64.0085 74.5546 61.769 74.5546 59.5384L74.5492 59.5439ZM13.8938 53.8083V66.6872H15.6685C15.6685 63.2794 15.5839 59.9363 15.7081 56.6058C15.7675 55.1584 15.3589 54.2655 13.9064 53.8029L13.8938 53.8083ZM79.9488 66.7106V53.8047C78.5539 54.2799 78.1003 55.1386 78.1651 56.5878C78.3001 59.6285 78.2065 62.6781 78.2065 65.7241V66.7106H79.9488Z" fill="#A3CC01"/>
<path d="M46.9854 22.5863H68.5406C71.2944 22.5863 72.6947 23.9653 72.6983 26.7089C72.7073 33.116 72.6839 39.5249 72.7163 45.9301C72.7163 47.1741 72.2663 47.9392 71.1072 48.4163C68.564 49.4622 66.0676 50.6018 63.519 51.6567C62.9394 51.8909 62.3208 52.0131 61.6957 52.0168C51.8757 52.0384 42.0556 52.0384 32.2356 52.0168C31.6097 52.0151 30.9901 51.8928 30.4105 51.6567C27.8421 50.5928 25.3097 49.4442 22.7431 48.3803C21.6632 47.9302 21.188 47.2155 21.1934 46.04C21.2168 39.5429 21.1934 33.0458 21.2096 26.5486C21.2096 23.9833 22.6639 22.5881 25.2485 22.5881C32.4911 22.5833 39.7368 22.5827 46.9854 22.5863ZM24.7949 26.2822C24.7697 26.5631 24.7337 26.7647 24.7355 26.9663C24.7733 32.8639 24.8219 38.7633 24.8417 44.661C24.8417 45.1866 25.0685 45.3811 25.4933 45.5611C27.4479 46.3874 29.3522 47.3613 31.3554 48.0382C33.4415 48.7475 33.8518 48.5315 34.57 46.4882C34.1938 46.4882 33.841 46.4882 33.4901 46.4882C32.196 46.463 31.3608 45.7681 31.3302 44.688C31.2996 43.6078 32.1078 42.8337 33.4019 42.8247C36.9068 42.7995 40.4099 42.7995 43.9113 42.8247C45.2036 42.8247 46.0297 43.597 46.0189 44.661C46.0081 45.7249 45.1676 46.4612 43.8825 46.4846C42.7162 46.5008 41.5427 46.4846 40.3799 46.4846C38.7601 46.4846 38.5315 46.6646 38.0761 48.3101H50.749C52.2176 48.3101 52.5488 48.0418 52.9358 46.4846C52.538 46.4846 52.1493 46.4954 51.7623 46.4846C50.5294 46.4396 49.7428 45.7249 49.7374 44.6556C49.732 43.5862 50.4952 42.8391 51.7461 42.8283C55.2786 42.7995 58.8117 42.7995 62.3455 42.8283C63.6558 42.8391 64.4225 43.5898 64.3955 44.7006C64.3685 45.8113 63.564 46.472 62.2447 46.4864C61.0766 46.5008 59.9049 46.4864 58.7421 46.4864C57.1421 46.4864 57.0125 46.5854 56.4887 48.2291C59.2019 48.6587 61.9812 48.3091 64.5035 47.2209C65.74 46.6808 66.9603 46.1174 68.2148 45.6385C68.8412 45.3991 69.059 45.0822 69.0554 44.3999C69.0266 38.6517 69.0392 32.9035 69.0374 27.1535C69.0374 26.8691 69.005 26.5847 68.9852 26.2714L24.7949 26.2822Z" fill="#A3CC01"/>
<path d="M46.9462 55.6822H60.7691C61.0391 55.6822 61.3091 55.6678 61.5773 55.6822C62.7328 55.7848 63.4959 56.5355 63.4851 57.5491C63.4743 58.5266 62.7508 59.2431 61.6259 59.3691C61.3576 59.389 61.0884 59.3944 60.8195 59.3853C51.5802 59.3853 42.3349 59.3853 33.0836 59.3853C32.6369 59.3926 32.1907 59.3497 31.7535 59.2575C31.3727 59.1643 31.0341 58.9464 30.7914 58.6384C30.5487 58.3304 30.416 57.9502 30.4144 57.5581C30.4065 57.1666 30.529 56.7835 30.7626 56.4693C30.9963 56.1551 31.3278 55.9276 31.7049 55.8226C32.1108 55.7242 32.5275 55.6776 32.945 55.684C37.6127 55.678 42.2797 55.6774 46.9462 55.6822Z" fill="#A3CC01"/>
<path d="M46.8864 64.8876C42.2812 64.8876 37.6741 64.8876 33.0653 64.8876C32.7046 64.8955 32.3438 64.8787 31.9854 64.8372C31.5651 64.7919 31.175 64.5973 30.886 64.2887C30.5971 63.9802 30.4283 63.5782 30.4105 63.1557C30.3885 62.7184 30.5254 62.288 30.7961 61.9438C31.0667 61.5997 31.4527 61.3651 31.8828 61.2835C32.2078 61.2333 32.5369 61.2146 32.8655 61.2277C42.2596 61.2277 51.6531 61.2277 61.046 61.2277C61.4334 61.2142 61.8208 61.253 62.1979 61.3429C62.589 61.4568 62.9289 61.7023 63.1601 62.0378C63.3913 62.3733 63.4996 62.7784 63.4668 63.1845C63.4432 63.5911 63.2795 63.9769 63.0035 64.2762C62.7275 64.5756 62.3563 64.77 61.9531 64.8264C61.5675 64.8751 61.1789 64.8949 60.7904 64.8858C56.1587 64.8894 51.5241 64.89 46.8864 64.8876Z" fill="#A3CC01"/>
<path d="M37.6811 75.9504C36.5724 75.9504 35.4654 75.9702 34.3567 75.9504C33.0788 75.9216 32.2365 75.1691 32.2383 74.1016C32.2383 73.0718 33.041 72.2887 34.2703 72.2671C36.6102 72.2275 38.941 72.2221 41.2754 72.2671C42.5353 72.2941 43.2552 73.0646 43.2318 74.1448C43.2084 75.2249 42.4345 75.8892 41.1818 75.945C41.1224 75.945 41.063 75.945 41.0018 75.945L37.6811 75.9504Z" fill="#A3CC01"/>
<path d="M56.0849 75.9505C54.9762 75.9505 53.8693 75.9703 52.7624 75.9505C51.4593 75.9217 50.662 75.2034 50.6602 74.107C50.6584 73.0107 51.4341 72.2816 52.7534 72.2636C55.0332 72.2312 57.3083 72.2312 59.5785 72.2636C60.8582 72.2834 61.6843 73.0809 61.6555 74.1412C61.6267 75.2016 60.797 75.9127 59.4957 75.9541H56.076L56.0849 75.9505Z" fill="#A3CC01"/>
</g>
<defs>
<clipPath id="clip0_303_1737">
<rect width="92" height="92" fill="white" transform="translate(0.949219 0.498047)"/>
</clipPath>
</defs>
</svg>
